<?xml version="1.0" standalone="no"?><!DOCTYPE svg PUBLIC "-//W3C//DTD SVG 1.1//EN" "http://www.w3.org/Graphics/SVG/1.1/DTD/svg11.dtd" ><svg xmlns="http://www.w3.org/2000/svg"><metadata></metadata><defs><font id="1.001; KlinicSlabBook" horiz-adv-x="1134"><font-face font-family="Klinic Slab Book" font-weight="400" font-stretch="normal" units-per-em="1000" panose-1="0 0 0 0 0 0 0 0 0 0" ascent="750" descent="-250" x-height="0" bbox="-43 -271 1121 943" underline-thickness="50" underline-position="-75" unicode-range="U+0020-fb06" /><missing-glyph horiz-adv-x="425" d="M0 0 l0 609 l425 0 l0 -609 l-425 0 ZM59 42 l306 0 l-153 226 l-153 -226 ZM365 567 l-306 0 l153 -227 l153 227 ZM383 520 l-146 -216 l146 -216 l0 432 ZM42 88 l146 216 l-146 216 l0 -432 Z" /><glyph glyph-name="space" unicode=" " d="" /><glyph glyph-name="exclam" unicode="!" d="M97 158 l-12 451 l65 0 l-11 -451 l-42 0 ZM148.5 4 q-12.5 -13 -30.5 -13 q-18 0 -31 13 q-13 13 -13 32 q0 18 13 31 q13 13 31 13 q18 0 30.5 -13 q12.5 -13 12.5 -31 q0 -19 -12.5 -32 Z" /><glyph glyph-name="quotedbl" unicode="&quot;" d="M62 415 l0 207 l55 0 l0 -207 l-55 0 ZM207 415 l0 207 l54 0 l0 -207 l-54 0 Z" /><glyph glyph-name="numbersign" unicode="#" d="M121 12 l18 122 l-99 0 l0 40 l105 0 l24 167 l-100 0 l0 41 l106 0 l18 122 l46 0 l-18 -122 l144 0 l18 122 l47 0 l-18 -122 l100 0 l0 -41 l-106 0 l-25 -167 l103 0 l0 -40 l-109 0 l-17 -122 l-47 0 l18 122 l-144 0 l-18 -122 l-46 0 ZM191 174 l144 0 l24 167 l-143 0 l-25 -167 Z" /><glyph glyph-name="dollar" unicode="$" d="M212 -109 l0 101 q-68 3 -122 28 q-54 25 -54 62 q0 16 11 28 q11 12 29 12 q17 0 28 -11 q11 -11 11 -27 q0 -11 -7 -23 q40 -22 104 -25 l0 185 q-39 12 -59.5 20.5 q-20.5 8.5 -48 25 q-27.5 16.5 -40 40 q-12.5 23.5 -12.5 54.5 q0 60 45.5 93.5 q45.5 33.5 114.5 35.5 l0 72 l21 0 l0 -72 q61 -3 107 -27.5 q46 -24.5 46 -57.5 q0 -16 -10.5 -27.5 q-10.5 -11.5 -28.5 -11.5 q-17 0 -29 10.5 q-12 10.5 -12 26.5 q0 13 8 23 q-33 19 -81 20 l0 -178 q29 -9 47 -15.5 q18 -6.5 42.5 -19.5 q24.5 -13 38.5 -27 q14 -14 24 -35.5 q10 -21.5 10 -47.5 q0 -61 -45.5 -95 q-45.5 -34 -116.5 -36 l0 -101 l-21 0 ZM343 119 q0 20 -8.5 35.5 q-8.5 15.5 -26.5 27 q-18 11.5 -33 18 q-15 6.5 -42 15.5 l0 -179 q48 2 79 23.5 q31 21.5 31 59.5 ZM102 367 q0 -19 8 -33.5 q8 -14.5 27 -26 q19 -11.5 32.5 -17 q13.5 -5.5 42.5 -15.5 l0 171 q-51 -2 -80.5 -22.5 q-29.5 -20.5 -29.5 -56.5 Z" /><glyph glyph-name="percent" unicode="%" d="M127 2 l-30 27 l400 448 l30 -27 l-400 -448 ZM468 -1 q-51 0 -80.5 34 q-29.5 34 -29.5 89 q0 55 29.5 89 q29.5 34 80.5 34 q52 0 81 -34 q29 -34 29 -89 q0 -55 -29 -89 q-29 -34 -81 -34 ZM468 36 q31 0 47 23.5 q16 23.5 16 62.5 q0 40 -16 63 q-16 23 -47 23 q-31 0 -46.5 -23 q-15.5 -23 -15.5 -63 q0 -39 16 -62.5 q16 -23.5 46 -23.5 ZM236 268 q-29 -34 -81 -34 q-52 0 -81 34 q-29 34 -29 89 q0 55 29 89 q29 34 81 34 q52 0 81 -34 q29 -34 29 -89 q0 -55 -29 -89 ZM108 294 q16 -23 47 -23 q31 0 47 23.5 q16 23.5 16 62.5 q0 39 -16 62.5 q-16 23.5 -47 23.5 q-31 0 -47 -23 q-16 -23 -16 -63 q0 -40 16 -63 Z" /><glyph glyph-name="ampersand" unicode="&amp;" d="M239 -12 q-86 0 -140.5 42.5 q-54.5 42.5 -54.5 119.5 q0 63 36.5 106 q36.5 43 105.5 86 l-10 13 q-23 30 -34.5 47 q-11.5 17 -21.5 42 q-10 25 -10 49 q0 52 36.5 89.5 q36.5 37.5 100.5 37.5 q65 0 98.5 -37.5 q33.5 -37.5 33.5 -88.5 q0 -49 -29.5 -85 q-29.5 -36 -85.5 -74 l163 -192 q48 68 61 177 l-75 0 l0 45 l197 0 l0 -45 l-70 0 q-16 -133 -78 -218 q58 -64 98 -64 q16 0 31 7 l0 -49 q-24 -8 -43 -8 q-55 0 -122 74 q-79 -74 -187 -74 ZM248 575 q-37 0 -59.5 -21.5 q-22.5 -21.5 -22.5 -58.5 q0 -43 54 -108 l13 -15 q45 29 69.5 57.5 q24.5 28.5 24.5 65.5 q0 33 -20.5 56.5 q-20.5 23.5 -58.5 23.5 ZM242 38 q86 0 150 62 l-174 205 q-30 -19 -45 -30.5 q-15 -11.5 -35 -31 q-20 -19.5 -29 -41 q-9 -21.5 -9 -47.5 q0 -57 40.5 -87 q40.5 -30 101.5 -30 Z" /><glyph glyph-name="quotesingle" unicode="&#39;" d="M62 415 l0 207 l55 0 l0 -207 l-55 0 Z" /><glyph glyph-name="parenleft" unicode="(" d="M179 -198 q-68 98 -104.5 218 q-36.5 120 -36.5 234 q0 114 37 235 q37 121 104 218 l61 0 q-69 -96 -107 -215.5 q-38 -119.5 -38 -237.5 q0 -118 38 -237.5 q38 -119.5 107 -214.5 l-61 0 Z" /><glyph glyph-name="parenright" unicode=")" d="M7 -198 q70 95 107.5 214 q37.5 119 37.5 238 q0 119 -37.5 238 q-37.5 119 -107.5 215 l62 0 q67 -97 103.5 -218 q36.5 -121 36.5 -235 q0 -113 -36.5 -233.5 q-36.5 -120.5 -103.5 -218.5 l-62 0 Z" /><glyph glyph-name="asterisk" unicode="*" d="M219.5 338 q-9.5 -9 -22.5 -9 q-13 0 -23 9 q-10 9 -10 27 q0 8 5 24.5 q5 16.5 13 41.5 q8 25 12 42 l6 0 q4 -17 12 -42 q8 -25 12.5 -41.5 q4.5 -16.5 4.5 -24.5 q0 -18 -9.5 -27 ZM174 638 q10 9 23 9 q13 0 22.5 -9 q9.5 -9 9.5 -27 q0 -8 -4.5 -24.5 q-4.5 -16.5 -12.5 -41.5 q-8 -25 -12 -42 l-6 0 q-4 17 -12 42 q-8 25 -13 41.5 q-5 16.5 -5 24.5 q0 18 10 27 ZM59 408 q-16 29 15 46 q7 4 24 8 q17 4 42 10 q25 6 42 11 l3 -5 q-12 -12 -30 -31 q-18 -19 -30 -31.5 q-12 -12.5 -19 -16.5 q-29 -18 -47 9 ZM334 567 q7 -9 4 -23 q-3 -14 -18 -22 q-7 -4 -24 -8 q-17 -4 -42.5 -10 q-25.5 -6 -42.5 -11 l-2 5 q12 12 29.5 31 q17.5 19 29.5 31.5 q12 12.5 19 16.5 q31 18 47 -10 ZM334 408 q-17 -27 -47 -9 q-7 4 -19 16.5 q-12 12.5 -29.5 31.5 q-17.5 19 -29.5 31 l2 5 q17 -5 42.5 -11 q25.5 -6 42.5 -10 q17 -4 24 -8 q30 -17 14 -46 ZM59 567 q18 28 47 10 q7 -4 19 -16.5 q12 -12.5 30 -31.5 q18 -19 30 -31 l-3 -5 q-17 5 -42 11 q-25 6 -42 10 q-17 4 -24 8 q-15 8 -18.5 22 q-3.5 14 3.5 23 Z" /><glyph glyph-name="plus" unicode="+" d="M213 33 l0 178 l-177 0 l0 47 l177 0 l0 178 l48 0 l0 -178 l178 0 l0 -47 l-178 0 l0 -178 l-48 0 Z" /><glyph glyph-name="comma" unicode="," d="M109 80 q21 0 32.5 -14 q11.5 -14 11.5 -38 q0 -32 -22.5 -75.5 q-22.5 -43.5 -55.5 -74.5 l-26 21 q41 48 50 99 q-16 1 -25.5 12.5 q-9.5 11.5 -9.5 26.5 q0 18 12.5 30.5 q12.5 12.5 32.5 12.5 Z" /><glyph glyph-name="hyphen" unicode="-" d="M60 205 l0 51 l259 0 l0 -51 l-259 0 Z" /><glyph glyph-name="period" unicode="." d="M131 4 q-13 -13 -31 -13 q-18 0 -31 13 q-13 13 -13 32 q0 18 13 31 q13 13 31 13 q18 0 31 -13 q13 -13 13 -31 q0 -19 -13 -32 Z" /><glyph glyph-name="slash" unicode="/" d="M20 -198 l437 905 l56 0 l-436 -905 l-57 0 Z" /><glyph glyph-name="zero" unicode="0" d="M265 -11 q-107 0 -160 69 q-53 69 -53 176 q0 108 53 177 q53 69 160 69 q108 0 161 -69 q53 -69 53 -177 q0 -107 -53 -176 q-53 -69 -161 -69 ZM149 90.5 q37 -54.5 116 -54.5 q79 0 116.5 55 q37.5 55 37.5 143 q0 89 -37.5 143.5 q-37.5 54.5 -116.5 54.5 q-79 0 -116 -54 q-37 -54 -37 -144 q0 -89 37 -143.5 Z" /><glyph glyph-name="one" unicode="1" d="M52 0 l0 46 l104 0 l0 372 q-67 -35 -91 -35 q-37 0 -31 38 l129 48 l51 0 l0 -423 l95 0 l0 -46 l-257 0 Z" /><glyph glyph-name="two" unicode="2" d="M61 0 l-10 43 q12 9 58 38.5 q46 29.5 77.5 53 q31.5 23.5 69.5 57.5 q38 34 58.5 72.5 q20.5 38.5 20.5 76.5 q0 44 -30 68 q-30 24 -83 24 q-55 0 -98 -23 q8 -10 8 -23 q0 -18 -11 -30 q-11 -12 -31 -12 q-20 0 -31 12 q-11 12 -11 29 q0 37 54 65.5 q54 28.5 125 28.5 q75 0 120.5 -35.5 q45.5 -35.5 45.5 -100.5 q0 -145 -252 -293 l271 0 l0 -51 l-351 0 Z" /><glyph glyph-name="three" unicode="3" d="M228 -140 q-69 0 -128 27 q-59 27 -59 68 q0 18 13.5 31 q13.5 13 32.5 13 q20 0 32 -13 q12 -13 12 -31 q0 -12 -9 -25 q44 -24 102 -24 q66 0 108.5 33.5 q42.5 33.5 42.5 94.5 q0 61 -44 92.5 q-44 31.5 -119 31.5 l-49 0 l0 45 l50 0 q69 0 108 30.5 q39 30.5 39 88.5 q0 54 -36 82.5 q-36 28.5 -97 28.5 q-61 0 -100 -22 q9 -9 9 -24 q0 -18 -12.5 -31 q-12.5 -13 -31.5 -13 q-20 0 -32.5 13 q-12.5 13 -12.5 31 q1 39 57 66 q56 27 127 27 q85 0 136 -42 q51 -42 51 -113 q0 -52 -28.5 -88.5 q-28.5 -36.5 -77.5 -53.5 q122 -37 122 -151 q0 -80 -60 -126 q-60 -46 -146 -46 Z" /><glyph glyph-name="four" unicode="4" d="M216 -129 l0 45 l99 0 l0 124 l-296 0 l0 40 q75 86 124.5 192 q49.5 106 61.5 206 q51 12 51 -35 q0 -59 -52 -171 q-52 -112 -118 -186 l231 0 l0 95 q23 47 34 86 l21 0 l0 -181 l86 0 l0 -46 l-85 0 l0 -124 l80 0 l0 -45 l-237 0 Z" /><glyph glyph-name="five" unicode="5" d="M230 -140 q-74 0 -135.5 34 q-61.5 34 -61.5 74 q0 19 12.5 31.5 q12.5 12.5 31.5 12.5 q19 0 31.5 -13 q12.5 -13 12.5 -30 q0 -14 -10 -27 q44 -34 115 -34 q65 0 110.5 36 q45.5 36 45.5 111 q0 69 -39.5 107 q-39.5 38 -101.5 38 q-47 0 -86.5 -20.5 q-39.5 -20.5 -61.5 -51.5 l-41 19 q39 144 41 322 l321 0 q4 -14 4 -22 q0 -36 -68 -36 q-27 0 -106 4.5 q-79 4.5 -103 5.5 q-8 -143 -29 -222 q60 48 139 48 q80 0 135 -50 q55 -50 55 -140 q0 -93 -59.5 -145 q-59.5 -52 -151.5 -52 Z" /><glyph glyph-name="six" unicode="6" d="M262 -11 q-98 0 -155.5 69 q-57.5 69 -57.5 210 q0 89 22 163 q22 74 76 126 q54 52 133 52 q62 0 108 -27 q46 -27 46 -63 q0 -18 -12 -31 q-12 -13 -31 -13 q-18 0 -30.5 12 q-12.5 12 -12.5 29 q0 11 10 25 q-27 21 -78 21 q-87 0 -128.5 -78.5 q-41.5 -78.5 -47.5 -202.5 q19 43 64.5 72.5 q45.5 29.5 107.5 29.5 q82 0 134 -53.5 q52 -53.5 52 -142.5 q0 -90 -54.5 -144 q-54.5 -54 -145.5 -54 ZM262 36 q64 0 102.5 40.5 q38.5 40.5 38.5 108.5 q0 67 -37 110 q-37 43 -102 43 q-64 0 -106.5 -40.5 q-42.5 -40.5 -42.5 -107.5 q0 -65 39 -109.5 q39 -44.5 108 -44.5 Z" /><glyph glyph-name="seven" unicode="7" d="M236 -140 q-19 0 -28.5 13 q-9.5 13 -9.5 50 q0 91 53 231.5 q53 140.5 124 250.5 q-25 -9 -50 -9 q-29 0 -83.5 15.5 q-54.5 15.5 -81.5 15.5 q-42 0 -61.5 -25 q-19.5 -25 -22.5 -73 l-49 0 l0 140 l46 0 l0 -54 q21 61 86 61 q31 0 86.5 -19.5 q55.5 -19.5 84.5 -19.5 q19 0 34 5 q2 17 13 27 q11 10 29 10 q19 0 30.5 -11.5 q11.5 -11.5 11.5 -29.5 q0 -15 -20 -45 q-70 -109 -120 -240.5 q-50 -131.5 -50 -246.5 q0 -32 1 -42 q-10 -4 -23 -4 Z" /><glyph glyph-name="eight" unicode="8" d="M258 -11 q-97 0 -154.5 46 q-57.5 46 -57.5 123 q0 61 36 102 q36 41 97 56 q-47 14 -77.5 50.5 q-30.5 36.5 -30.5 88.5 q0 67 51.5 110.5 q51.5 43.5 135.5 43.5 q84 0 136 -43.5 q52 -43.5 52 -110.5 q0 -52 -31 -88 q-31 -36 -77 -51 q60 -15 96 -56 q36 -41 36 -102 q0 -77 -57 -123 q-57 -46 -155 -46 ZM145 72 q40 -36 113 -36 q73 0 113 36 q40 36 40 92 q0 56 -40.5 92 q-40.5 36 -112.5 36 q-72 0 -112.5 -36 q-40.5 -36 -40.5 -92 q0 -56 40 -92 ZM353 532.5 q-35 30.5 -95 30.5 q-60 0 -95 -30.5 q-35 -30.5 -35 -78.5 q0 -49 35.5 -82 q35.5 -33 94.5 -33 q59 0 94.5 33 q35.5 33 35.5 82 q0 48 -35 78.5 Z" /><glyph glyph-name="nine" unicode="9" d="M246 432 q-66 0 -106 -42.5 q-40 -42.5 -40 -107.5 q0 -64 38.5 -104.5 q38.5 -40.5 102.5 -40.5 q63 0 105 38.5 q42 38.5 42 106.5 q0 63 -37.5 106.5 q-37.5 43.5 -104.5 43.5 ZM233 -140 q-65 0 -118.5 29 q-53.5 29 -53.5 66 q0 18 13 30.5 q13 12.5 32 12.5 q18 0 30.5 -12 q12.5 -12 12.5 -30 q0 -12 -10 -26 q37 -23 91 -23 q88 0 126 74 q38 74 44 210 q-18 -43 -64.5 -71.5 q-46.5 -28.5 -106.5 -28.5 q-82 0 -135 51.5 q-53 51.5 -53 137.5 q0 87 55.5 143.5 q55.5 56.5 149.5 56.5 q208 0 208 -286 q0 -44 -5.5 -85.5 q-5.5 -41.5 -20.5 -88 q-15 -46.5 -38.5 -81 q-23.5 -34.5 -64 -57 q-40.5 -22.5 -92.5 -22.5 Z" /><glyph glyph-name="colon" unicode=":" d="M135 4 q-13 -13 -31 -13 q-18 0 -31 13 q-13 13 -13 32 q0 18 13 31 q13 13 31 13 q18 0 31 -13 q13 -13 13 -31 q0 -19 -13 -32 ZM135 319 q-13 -13 -31 -13 q-18 0 -31 13 q-13 13 -13 31 q0 18 13 31 q13 13 31 13 q18 0 31 -13 q13 -13 13 -31 q0 -18 -13 -31 Z" /><glyph glyph-name="semicolon" unicode=";" d="M148.5 319 q-12.5 -13 -30.5 -13 q-18 0 -31 13 q-13 13 -13 31 q0 18 13 31 q13 13 31 13 q18 0 30.5 -13 q12.5 -13 12.5 -31 q0 -18 -12.5 -31 ZM84.5 67.5 q12.5 12.5 32.5 12.5 q20 0 32 -14.5 q12 -14.5 12 -37.5 q0 -31 -23 -74.5 q-23 -43.5 -55 -75.5 l-27 21 q41 48 50 99 q-15 1 -24.5 12.5 q-9.5 11.5 -9.5 26.5 q0 18 12.5 30.5 Z" /><glyph glyph-name="less" unicode="&lt;" d="M389 33 l-360 186 l0 30 l360 185 l0 -54 l-292 -146 l292 -147 l0 -54 Z" /><glyph glyph-name="equal" unicode="=" d="M63 94 l0 48 l404 0 l0 -48 l-404 0 ZM63 325 l0 48 l404 0 l0 -48 l-404 0 Z" /><glyph glyph-name="greater" unicode="&gt;" d="M52 33 l0 54 l293 147 l-293 146 l0 54 l360 -185 l0 -30 l-360 -186 Z" /><glyph glyph-name="question" unicode="?" d="M158 619 q76 0 121.5 -36.5 q45.5 -36.5 45.5 -105.5 q0 -38 -15 -70.5 q-15 -32.5 -37 -55 q-22 -22.5 -44 -43.5 q-22 -21 -37 -46 q-15 -25 -15 -51 q0 -27 12 -53 l-55 0 q-10 19 -10 53 q0 32 14.5 60 q14.5 28 35.5 49.5 q21 21.5 42 43 q21 21.5 35.5 50 q14.5 28.5 14.5 60.5 q0 98 -116 98 q-52 0 -117 -21 l0 47 q59 21 125 21 ZM191.5 4 q-12.5 -13 -30.5 -13 q-18 0 -31 13 q-13 13 -13 32 q0 18 13 31 q13 13 31 13 q18 0 30.5 -13 q12.5 -13 12.5 -31 q0 -19 -12.5 -32 Z" /><glyph glyph-name="at" unicode="@" d="M340 53 q-64 0 -99.5 43 q-35.5 43 -35.5 108 q0 82 52 142 q52 60 130 60 q86 0 113 -76 l2 0 q6 31 19 60 l40 0 q-43 -146 -43 -229 q0 -37 11 -56.5 q11 -19.5 40 -19.5 q45 0 75.5 46 q30.5 46 30.5 124 q0 128 -81.5 209 q-81.5 81 -203.5 81 q-133 0 -224.5 -93.5 q-91.5 -93.5 -91.5 -222.5 q0 -127 89.5 -217.5 q89.5 -90.5 217.5 -90.5 q92 0 167 52 l19 -27 q-87 -57 -187 -57 q-144 0 -241 99.5 q-97 99.5 -97 242.5 q0 148 103.5 247 q103.5 99 246.5 99 q134 0 224.5 -90 q90.5 -90 90.5 -233 q0 -94 -41 -147.5 q-41 -53.5 -104 -53.5 q-33 0 -53.5 16 q-20.5 16 -25 30 q-4.5 14 -6.5 29 l-3 0 q-51 -75 -134 -75 ZM349 93 q57 0 94 48.5 q37 48.5 37 117.5 q0 107 -88 107 q-58 0 -98 -47.5 q-40 -47.5 -40 -113.5 q0 -51 26 -81.5 q26 -30.5 69 -30.5 Z" /><glyph glyph-name="A" unicode="a" d="M-4 0 l0 50 l85 0 l206 509 l-91 0 l0 50 l180 0 l225 -559 l86 0 l0 -50 l-248 0 l0 50 l100 0 l-61 151 l-277 0 l-60 -151 l100 0 l0 -50 l-245 0 ZM221 252 l238 0 l-119 299 l-119 -299 Z" /><glyph glyph-name="B" unicode="b" d="M36 0 l0 49 l97 0 l0 511 l-97 0 l0 49 l276 0 q99 0 159.5 -40.5 q60.5 -40.5 60.5 -114.5 q0 -110 -123 -142 q75 -14 111 -55 q36 -41 36 -97 q0 -76 -62 -118 q-62 -42 -165 -42 l-293 0 ZM192 49 l135 0 q79 0 124.5 30 q45.5 30 45.5 87 q0 58 -47 89 q-47 31 -127 31 l-131 0 l0 -237 ZM192 333 l108 0 q81 0 127 29.5 q46 29.5 46 85.5 q0 55 -43.5 83.5 q-43.5 28.5 -117.5 28.5 l-120 0 l0 -227 Z" /><glyph glyph-name="C" unicode="c" d="M365 -12 q-141 0 -231 84.5 q-90 84.5 -90 231.5 q0 142 86 229.5 q86 87.5 237 87.5 q114 0 208 -46 l0 -144 l-57 0 l0 112 q-65 26 -148 26 q-118 0 -191 -69 q-73 -69 -73 -195 q0 -129 75.5 -197 q75.5 -68 187.5 -68 q108 0 208 59 l0 -57 q-94 -54 -212 -54 Z" /><glyph glyph-name="D" unicode="d" d="M36 0 l0 50 l97 0 l0 509 l-97 0 l0 50 l274 0 q140 0 230 -79 q90 -79 90 -226 q0 -147 -90 -225.5 q-90 -78.5 -230 -78.5 l-274 0 ZM193 50 l118 0 q117 0 187 67.5 q70 67.5 70 186.5 q0 120 -70 187.5 q-70 67.5 -187 67.5 l-118 0 l0 -509 Z" /><glyph glyph-name="E" unicode="e" d="M36 0 l0 50 l97 0 l0 509 l-97 0 l0 50 l485 0 l0 -164 l-56 0 l0 114 l-272 0 l0 -227 l275 0 l0 -50 l-275 0 l0 -232 l274 0 l0 114 l56 0 l0 -164 l-487 0 Z" /><glyph glyph-name="F" unicode="f" d="M36 0 l0 50 l97 0 l0 509 l-97 0 l0 50 l480 0 l0 -174 l-55 0 l0 124 l-268 0 l0 -239 l255 0 l0 -50 l-255 0 l0 -220 l112 0 l0 -50 l-269 0 Z" /><glyph glyph-name="G" unicode="g" d="M369 -12 q-152 0 -238.5 86 q-86.5 86 -86.5 228 q0 141 86.5 230 q86.5 89 240.5 89 q113 0 223 -46 l0 -137 l-57 0 l0 104 q-88 28 -164 28 q-125 0 -197 -73 q-72 -73 -72 -194 q0 -119 68.5 -191.5 q68.5 -72.5 195.5 -72.5 q84 0 176 37 l0 187 l-157 0 l0 49 l276 0 l0 -49 l-63 0 l0 -219 q-114 -56 -231 -56 Z" /><glyph glyph-name="H" unicode="h" d="M36 0 l0 50 l97 0 l0 509 l-97 0 l0 50 l254 0 l0 -50 l-97 0 l0 -226 l364 0 l0 226 l-97 0 l0 50 l254 0 l0 -50 l-97 0 l0 -509 l97 0 l0 -50 l-254 0 l0 50 l97 0 l0 231 l-364 0 l0 -231 l97 0 l0 -50 l-254 0 Z" /><glyph glyph-name="I" unicode="i" d="M36 0 l0 50 l97 0 l0 509 l-97 0 l0 50 l254 0 l0 -50 l-97 0 l0 -509 l97 0 l0 -50 l-254 0 Z" /><glyph glyph-name="J" unicode="j" d="M46 -166 l-22 42 q98 51 98 129 l0 554 l-94 0 l0 50 l247 0 l0 -50 l-93 0 l0 -556 q0 -46 -22 -81.5 q-22 -35.5 -48 -52.5 q-26 -17 -66 -35 Z" /><glyph glyph-name="K" unicode="k" d="M517 0 l-272 305 l0 6 l243 249 l-92 0 l0 49 l246 0 l0 -50 l-84 0 l-240 -249 l235 -260 l96 0 l0 -50 l-132 0 ZM36 0 l0 50 l97 0 l0 509 l-97 0 l0 50 l253 0 l0 -50 l-96 0 l0 -509 l100 0 l0 -50 l-257 0 Z" /><glyph glyph-name="L" unicode="l" d="M36 0 l0 50 l97 0 l0 509 l-97 0 l0 50 l265 0 l0 -50 l-108 0 l0 -509 l276 0 l0 120 l56 0 l0 -170 l-489 0 Z" /><glyph glyph-name="M" unicode="m" d="M30 0 l0 50 l95 0 l20 509 l-95 0 l0 50 l188 0 l209 -494 l208 494 l189 0 l0 -50 l-95 0 l20 -509 l94 0 l0 -50 l-244 0 l0 50 l94 0 l-19 504 l-224 -520 l-47 0 l-223 520 l-20 -504 l95 0 l0 -50 l-245 0 Z" /><glyph glyph-name="N" unicode="n" d="M36 0 l0 50 l97 0 l0 509 l-97 0 l0 50 l159 0 l367 -512 l0 462 l-97 0 l0 50 l250 0 l0 -50 l-97 0 l0 -559 l-54 0 l-374 521 l0 -471 l97 0 l0 -50 l-251 0 Z" /><glyph glyph-name="O" unicode="o" d="M353 -12 q-140 0 -225 89.5 q-85 89.5 -85 227.5 q0 137 85 226.5 q85 89.5 225 89.5 q138 0 223 -89.5 q85 -89.5 85 -226.5 q0 -138 -85 -227.5 q-85 -89.5 -223 -89.5 ZM353 39 q110 0 178.5 74 q68.5 74 68.5 192 q0 119 -68 191.5 q-68 72.5 -179 72.5 q-111 0 -179.5 -73 q-68.5 -73 -68.5 -191 q0 -120 68 -193 q68 -73 180 -73 Z" /><glyph glyph-name="P" unicode="p" d="M36 0 l0 50 l97 0 l0 509 l-97 0 l0 50 l268 0 q45 0 85.5 -10.5 q40.5 -10.5 75 -31.5 q34.5 -21 55.5 -58.5 q21 -37.5 21 -87.5 q0 -66 -37 -110 q-37 -44 -88 -61 q-51 -17 -112 -17 l-111 0 l0 -183 l115 0 l0 -50 l-272 0 ZM193 559 l0 -276 l112 0 q87 0 131 37 q44 37 44 101 q0 64 -44 101 q-44 37 -131 37 l-112 0 Z" /><glyph glyph-name="Q" unicode="q" d="M541 -135 l-194 123 q-138 2 -220.5 91 q-82.5 89 -82.5 226 q0 137 85 226.5 q85 89.5 224 89.5 q139 0 224 -89.5 q85 -89.5 85 -226.5 q0 -118 -64 -202.5 q-64 -84.5 -174 -105.5 l149 -85 l-32 -47 ZM353 39 q110 0 178.5 73.5 q68.5 73.5 68.5 192.5 q0 119 -68 191.5 q-68 72.5 -179 72.5 q-111 0 -179.5 -73 q-68.5 -73 -68.5 -191 q0 -120 68 -193 q68 -73 180 -73 Z" /><glyph glyph-name="R" unicode="r" d="M36 0 l0 50 l97 0 l0 509 l-97 0 l0 50 l277 0 q60 0 111 -16 q51 -16 88.5 -58.5 q37.5 -42.5 37.5 -106.5 q0 -67 -39 -110.5 q-39 -43.5 -107 -60.5 l114 -207 l93 0 l0 -50 l-132 0 l-133 243 l-153 0 l0 -193 l97 0 l0 -50 l-254 0 ZM193 292 l121 0 q87 0 131 34.5 q44 34.5 44 98.5 q0 64 -44 99 q-44 35 -131 35 l-121 0 l0 -267 Z" /><glyph glyph-name="S" unicode="s" d="M250 -12 q-100 0 -202 31 l0 133 l55 0 l0 -94 q69 -20 144 -20 q77 0 119 28.5 q42 28.5 42 80.5 q0 47 -36 77 q-36 30 -87 47 q-51 17 -102 36 q-51 19 -87 57.5 q-36 38.5 -36 97.5 q0 74 53.5 116.5 q53.5 42.5 153.5 42.5 q85 0 178 -28 l0 -132 l-56 0 l0 94 q-58 15 -119 15 q-77 0 -114.5 -28.5 q-37.5 -28.5 -37.5 -75.5 q0 -44 36 -73 q36 -29 87 -46 q51 -17 102.5 -37 q51.5 -20 87.5 -60 q36 -40 36 -101 q0 -80 -58 -120.5 q-58 -40.5 -159 -40.5 Z" /><glyph glyph-name="T" unicode="t" d="M156 0 l0 50 l103 0 l0 509 l-182 0 l0 -110 l-55 0 l0 160 l533 0 l0 -160 l-55 0 l0 110 l-181 0 l0 -509 l102 0 l0 -50 l-265 0 Z" /><glyph glyph-name="U" unicode="u" d="M515 43.5 q-62 -55.5 -166 -55.5 q-104 0 -168.5 54.5 q-64.5 54.5 -64.5 156.5 l0 360 l-97 0 l0 50 l254 0 l0 -50 l-97 0 l0 -356 q0 -82 49 -121.5 q49 -39.5 125 -39.5 q76 0 123 40 q47 40 47 121 l0 356 l-97 0 l0 50 l250 0 l0 -50 l-96 0 l0 -358 q0 -102 -62 -157.5 Z" /><glyph glyph-name="V" unicode="v" d="M296 0 l-218 559 l-86 0 l0 50 l249 0 l0 -50 l-100 0 l187 -488 l187 488 l-101 0 l0 50 l247 0 l0 -50 l-85 0 l-218 -559 l-62 0 Z" /><glyph glyph-name="W" unicode="w" d="M260 0 l-182 559 l-83 0 l0 50 l245 0 l0 -50 l-102 0 l152 -480 l149 425 l-19 55 l-86 0 l0 50 l245 0 l0 -50 l-102 0 l165 -478 l152 478 l-102 0 l0 50 l245 0 l0 -50 l-84 0 l-182 -559 l-55 0 l-149 424 l-152 -424 l-55 0 Z" /><glyph glyph-name="X" unicode="x" d="M11 0 l0 49 l82 0 l193 260 l-183 251 l-82 0 l0 49 l245 0 l0 -49 l-96 0 l150 -209 l152 209 l-95 0 l0 49 l243 0 l0 -50 l-83 0 l-186 -250 l191 -260 l84 0 l0 -49 l-245 0 l0 49 l94 0 l-157 218 l-159 -218 l96 0 l0 -49 l-244 0 Z" /><glyph glyph-name="Y" unicode="y" d="M186 0 l0 50 l98 0 l0 177 l-206 332 l-85 0 l0 50 l252 0 l0 -50 l-101 0 l170 -278 l170 278 l-100 0 l0 50 l249 0 l0 -50 l-85 0 l-204 -330 l0 -179 l98 0 l0 -50 l-256 0 Z" /><glyph glyph-name="Z" unicode="z" d="M42 0 l0 50 l385 507 l-322 0 l0 -112 l-58 0 l0 164 l453 0 l0 -52 l-385 -506 l345 0 l0 120 l57 0 l0 -171 l-475 0 Z" /><glyph glyph-name="bracketleft" unicode="[" d="M82 -198 l0 905 l184 0 l0 -41 l-131 0 l0 -823 l131 0 l0 -41 l-184 0 Z" /><glyph glyph-name="backslash" unicode="\" d="M455 -198 l-437 905 l56 0 l437 -905 l-56 0 Z" /><glyph glyph-name="bracketright" unicode="]" d="M17 -198 l0 41 l131 0 l0 823 l-131 0 l0 41 l184 0 l0 -905 l-184 0 Z" /><glyph glyph-name="asciicircum" unicode="^" d="M40 338 l161 286 l32 0 l161 -286 l-56 0 l-121 222 l-122 -222 l-55 0 Z" /><glyph glyph-name="underscore" unicode="_" d="M59 -77 l0 41 l389 0 l0 -41 l-389 0 Z" /><glyph glyph-name="grave" unicode="`" d="M238 506 l-176 122 l40 50 l156 -148 l-20 -24 Z" /><glyph glyph-name="a" unicode="a" d="M163 -11 q-57 0 -95 32 q-38 32 -38 92 q0 38 17.5 65 q17.5 27 47.5 40.5 q30 13.5 60.5 19 q30.5 5.5 66.5 5.5 l95 0 l0 40 q0 57 -24 80.5 q-24 23.5 -83 23.5 q-74 0 -145 -28 l0 47 q73 29 155 29 q80 0 117.5 -35.5 q37.5 -35.5 37.5 -112.5 l0 -240 l77 0 l0 -47 l-133 0 l0 55 q-75 -66 -156 -66 ZM177 35 q69 0 140 65 l0 101 l-94 0 q-134 0 -134 -87 q0 -37 24 -58 q24 -21 64 -21 Z" /><glyph glyph-name="b" unicode="b" d="M215 -11 q-69 0 -145 19 l0 652 l-79 0 l0 47 l137 0 l0 -321 q67 49 140 49 q84 0 132.5 -59.5 q48.5 -59.5 48.5 -156.5 q0 -111 -63 -170.5 q-63 -59.5 -171 -59.5 ZM213 36 q86 0 131.5 49 q45.5 49 45.5 135 q0 76 -35 122 q-35 46 -99 46 q-63 0 -128 -49 l0 -293 q48 -10 85 -10 Z" /><glyph glyph-name="c" unicode="c" d="M254 -11 q-100 0 -157.5 59.5 q-57.5 59.5 -57.5 162.5 q0 104 58.5 164 q58.5 60 158.5 60 q73 0 145 -29 l0 -121 l-50 0 l0 88 q-46 14 -92 14 q-79 0 -120 -47 q-41 -47 -41 -126 q0 -82 43 -129.5 q43 -47.5 118 -47.5 q74 0 143 43 l0 -49 q-67 -42 -148 -42 Z" /><glyph glyph-name="d" unicode="d" d="M223 -11 q-86 0 -135 64 q-49 64 -49 159 q0 96 51.5 159.5 q51.5 63.5 140.5 63.5 q79 0 139 -58 l0 282 l-93 0 l0 48 l150 0 l0 -660 l80 0 l0 -47 l-134 0 l0 61 q-63 -72 -150 -72 ZM234 36 q68 0 136 68 l0 225 q-58 58 -128 58 q-69 0 -106.5 -48.5 q-37.5 -48.5 -37.5 -126.5 q0 -75 34.5 -125.5 q34.5 -50.5 101.5 -50.5 Z" /><glyph glyph-name="e" unicode="e" d="M249 -11 q-100 0 -155 60.5 q-55 60.5 -55 160.5 q0 101 53.5 163 q53.5 62 142.5 62 q91 0 137 -63 q46 -63 46 -146 q0 -19 -2 -28 l-319 0 q3 -76 44 -119 q41 -43 113 -43 q74 0 143 43 l0 -50 q-70 -40 -148 -40 ZM235 389 q-59 0 -95 -40.5 q-36 -40.5 -42 -106.5 l264 0 q-3 62 -34 104.5 q-31 42.5 -93 42.5 Z" /><glyph glyph-name="f" unicode="f" d="M34 0 l0 47 l81 0 l0 329 l-90 0 l0 48 l90 0 l0 158 q0 69 38 102.5 q38 33.5 106 33.5 q37 0 72 -8 l0 -45 q-36 6 -60 6 q-99 0 -99 -91 l0 -156 l123 0 l0 -48 l-123 0 l0 -329 l97 0 l0 -47 l-235 0 Z" /><glyph glyph-name="g" unicode="g" d="M364.5 -175.5 q-54.5 -34.5 -151.5 -34.5 q-97 0 -144.5 33.5 q-47.5 33.5 -47.5 87.5 q0 69 75 114 q-35 18 -35 52 q0 41 50 76 q-63 43 -63 126 q0 63 43 109.5 q43 46.5 125 46.5 q38 0 69 -11 l159 0 l0 -47 l-99 2 q39 -39 39 -100 q0 -63 -43 -109 q-43 -46 -125 -46 q-43 0 -73 12 q-30 -21 -30 -42 q0 -20 31.5 -30 q31.5 -10 76.5 -15.5 q45 -5.5 90 -15 q45 -9.5 76.5 -37 q31.5 -27.5 31.5 -74.5 q0 -63 -54.5 -97.5 ZM216 390 q-54 0 -84 -32 q-30 -32 -30 -79 q0 -47 30 -79 q30 -32 84 -32 q55 0 84.5 32 q29.5 32 29.5 79 q0 47 -29.5 79 q-29.5 32 -84.5 32 ZM212 -165 q70 0 110 23.5 q40 23.5 40 61.5 q0 23 -14 38 q-14 15 -40 23 q-26 8 -51.5 12 q-25.5 4 -61.5 8.5 q-36 4.5 -57 9.5 q-65 -36 -65 -92 q0 -39 35.5 -61.5 q35.5 -22.5 103.5 -22.5 Z" /><glyph glyph-name="h" unicode="h" d="M17 0 l0 47 l79 0 l0 613 l-79 0 l0 47 l137 0 l0 -348 q81 76 169 76 q58 0 91 -35.5 q33 -35.5 33 -102.5 l0 -250 l79 0 l0 -47 l-216 0 l0 47 l79 0 l0 243 q0 96 -81 96 q-72 0 -154 -74 l0 -265 l79 0 l0 -47 l-216 0 Z" /><glyph glyph-name="i" unicode="i" d="M30 0 l0 47 l79 0 l0 329 l-79 0 l0 48 l137 0 l0 -377 l79 0 l0 -47 l-216 0 ZM98.5 547 q-13.5 14 -13.5 33 q0 19 13.5 32.5 q13.5 13.5 32.5 13.5 q19 0 33 -13.5 q14 -13.5 14 -32.5 q0 -20 -14 -33.5 q-14 -13.5 -33 -13.5 q-19 0 -32.5 14 Z" /><glyph glyph-name="j" unicode="j" d="M32 -218 l-19 38 q84 46 84 112 l0 444 l-83 0 l0 48 l141 0 l0 -494 q0 -101 -123 -148 ZM72 580 q0 19 14 32.5 q14 13.5 33 13.5 q19 0 32.5 -13.5 q13.5 -13.5 13.5 -32.5 q0 -19 -13.5 -33 q-13.5 -14 -32.5 -14 q-19 0 -33 13.5 q-14 13.5 -14 33.5 Z" /><glyph glyph-name="k" unicode="k" d="M17 0 l0 47 l79 0 l0 613 l-79 0 l0 47 l137 0 l0 -660 l77 0 l0 -47 l-214 0 ZM441 -11 q-67 0 -136 84 l-112 137 l0 3 l161 165 l-77 0 l0 46 l205 0 l0 -47 l-64 0 l-158 -164 l91 -109 q53 -67 102 -67 q15 0 26 5 l0 -46 q-21 -7 -38 -7 Z" /><glyph glyph-name="l" unicode="l" d="M17 0 l0 47 l79 0 l0 612 l-79 0 l0 48 l137 0 l0 -660 l79 0 l0 -47 l-216 0 Z" /><glyph glyph-name="m" unicode="m" d="M31 0 l0 47 l77 0 l0 329 l-77 0 l0 48 l132 0 l0 -61 q76 72 154 72 q88 0 111 -77 q79 77 159 77 q53 0 86 -31 q33 -31 33 -101 l0 -256 l77 0 l0 -47 l-211 0 l0 47 l77 0 l0 250 q0 90 -76 90 q-64 0 -139 -68 q1 -6 1 -19 l0 -253 l78 0 l0 -47 l-212 0 l0 47 l77 0 l0 250 q0 90 -76 90 q-64 0 -137 -68 l0 -272 l77 0 l0 -47 l-211 0 Z" /><glyph glyph-name="n" unicode="n" d="M30 0 l0 47 l79 0 l0 329 l-79 0 l0 48 l136 0 l0 -66 q82 77 170 77 q58 0 91 -35.5 q33 -35.5 33 -102.5 l0 -250 l79 0 l0 -47 l-216 0 l0 47 l79 0 l0 243 q0 96 -81 96 q-72 0 -154 -74 l0 -265 l79 0 l0 -47 l-216 0 Z" /><glyph glyph-name="o" unicode="o" d="M247 -11 q-92 0 -150 60 q-58 60 -58 163 q0 103 58 163 q58 60 150 60 q93 0 151 -60 q58 -60 58 -163 q0 -103 -58 -163 q-58 -60 -151 -60 ZM138 83.5 q40 -47.5 109 -47.5 q69 0 109 47.5 q40 47.5 40 128.5 q0 81 -40 128 q-40 47 -109 47 q-69 0 -109 -47.5 q-40 -47.5 -40 -127.5 q0 -81 40 -128.5 Z" /><glyph glyph-name="p" unicode="p" d="M16 -199 l0 48 l80 0 l0 527 l-80 0 l0 48 l135 0 l0 -61 q63 72 151 72 q85 0 133.5 -63.5 q48.5 -63.5 48.5 -158.5 q0 -97 -51 -160.5 q-51 -63.5 -141 -63.5 q-80 0 -139 57 l0 -197 l92 0 l0 -48 l-229 0 ZM289 387 q-70 0 -136 -68 l0 -225 q58 -58 129 -58 q69 0 106 49.5 q37 49.5 37 127.5 q0 74 -34.5 124 q-34.5 50 -101.5 50 Z" /><glyph glyph-name="q" unicode="q" d="M274 -199 l0 48 l92 0 l0 197 q-62 -57 -138 -57 q-83 0 -136 62 q-53 62 -53 161 q0 101 54.5 162 q54.5 61 139.5 61 q81 0 139 -60 l6 49 l45 0 l0 -575 l80 0 l0 -48 l-229 0 ZM366 332 q-57 55 -124 55 q-67 0 -105.5 -47.5 q-38.5 -47.5 -38.5 -125.5 q0 -77 38 -127.5 q38 -50.5 104 -50.5 q66 0 126 56 l0 240 Z" /><glyph glyph-name="r" unicode="r" d="M30 0 l0 47 l79 0 l0 329 l-79 0 l0 48 l136 0 l0 -89 q67 100 162 100 l10 0 l0 -58 l-11 0 q-85 0 -160 -77 l0 -253 l88 0 l0 -47 l-225 0 Z" /><glyph glyph-name="s" unicode="s" d="M195 -11 q-77 0 -154 25 l0 104 l49 0 l0 -68 q54 -15 104 -15 q49 0 79.5 17 q30.5 17 30.5 52 q0 30 -26.5 49 q-26.5 19 -64 29.5 q-37.5 10.5 -74.5 23 q-37 12.5 -63.5 40.5 q-26.5 28 -26.5 71 q0 55 40.5 86.5 q40.5 31.5 115.5 31.5 q64 0 136 -22 l0 -104 l-50 0 l0 69 q-44 11 -86 11 q-49 0 -75 -18.5 q-26 -18.5 -26 -49.5 q0 -31 26.5 -49.5 q26.5 -18.5 63.5 -29 q37 -10.5 74.5 -23 q37.5 -12.5 64 -40.5 q26.5 -28 26.5 -72 q0 -56 -43 -87 q-43 -31 -121 -31 Z" /><glyph glyph-name="t" unicode="t" d="M213 -11 q-121 0 -121 122 l0 265 l-74 0 l0 48 l74 0 l0 110 l58 0 l0 -110 l137 0 l0 -48 l-137 0 l0 -262 q0 -41 18.5 -59.5 q18.5 -18.5 58.5 -18.5 q37 0 65 11 l0 -45 q-38 -13 -79 -13 Z" /><glyph glyph-name="u" unicode="u" d="M215 -11 q-58 0 -91 35 q-33 35 -33 102 l0 250 l-80 0 l0 48 l137 0 l0 -290 q0 -97 81 -97 q71 0 155 74 l0 265 l-82 0 l0 48 l139 0 l0 -377 l80 0 l0 -47 l-136 0 l0 64 q-84 -75 -170 -75 Z" /><glyph glyph-name="v" unicode="v" d="M235 0 l-164 377 l-64 0 l0 47 l202 0 l0 -46 l-80 0 l133 -314 l134 314 l-79 0 l0 46 l198 0 l0 -47 l-62 0 l-165 -377 l-53 0 Z" /><glyph glyph-name="w" unicode="w" d="M197 0 l-125 377 l-62 0 l0 47 l201 0 l0 -47 l-83 0 l94 -298 l119 345 l51 0 l119 -346 l94 299 l-83 0 l0 47 l199 0 l0 -47 l-64 0 l-122 -377 l-47 0 l-123 342 l-120 -342 l-48 0 Z" /><glyph glyph-name="x" unicode="x" d="M20 0 l0 46 l62 0 l139 170 l-129 162 l-64 0 l0 46 l203 0 l0 -45 l-75 0 l101 -128 l102 128 l-75 0 l0 45 l197 0 l0 -46 l-63 0 l-131 -162 l138 -170 l62 0 l0 -46 l-197 0 l0 44 l70 0 l-109 138 l-107 -138 l70 0 l0 -44 l-194 0 Z" /><glyph glyph-name="y" unicode="y" d="M131 -210 q-47 0 -96 29 l17 42 q39 -24 73 -24 q62 0 88 67 l35 96 l-46 0 l-126 376 l-63 0 l0 48 l203 0 l0 -47 l-80 0 l117 -364 l134 364 l-80 0 l0 47 l201 0 l0 -48 l-63 0 l-183 -488 q-36 -98 -131 -98 Z" /><glyph glyph-name="z" unicode="z" d="M40 0 l0 39 l264 341 l-211 0 l0 -83 l-51 0 l0 127 l333 0 l0 -38 l-265 -341 l221 0 l0 89 l50 0 l0 -134 l-341 0 Z" /><glyph glyph-name="braceleft" unicode="{" d="M198 -212 q-48 0 -72 26 q-24 26 -24 70 q0 26 15 102.5 q15 76.5 15 115.5 q0 121 -124 127 l0 49 q124 6 124 127 q0 39 -15 115.5 q-15 76.5 -15 102.5 q0 44 24 70 q24 26 72 26 q25 0 55 -10 l0 -37 q-27 8 -44 8 q-54 0 -54 -59 q0 -23 15 -102 q15 -79 15 -121 q0 -125 -112 -144 q112 -20 112 -145 q0 -42 -15 -121 q-15 -79 -15 -101 q0 -60 54 -60 q17 0 44 8 l0 -37 q-30 -10 -55 -10 Z" /><glyph glyph-name="bar" unicode="|" d="M82 -198 l0 905 l53 0 l0 -905 l-53 0 Z" /><glyph glyph-name="braceright" unicode="}" d="M81 -212 q-25 0 -55 10 l0 37 q27 -8 44 -8 q54 0 54 60 q0 22 -15 101 q-15 79 -15 121 q0 125 112 145 q-112 19 -112 144 q0 42 15 121 q15 79 15 102 q0 59 -54 59 q-17 0 -44 -8 l0 37 q30 10 55 10 q47 0 71.5 -26 q24.5 -26 24.5 -70 q0 -26 -15 -102.5 q-15 -76.5 -15 -115.5 q0 -121 124 -127 l0 -49 q-124 -6 -124 -127 q0 -39 15 -115.5 q15 -76.5 15 -102.5 q0 -44 -24.5 -70 q-24.5 -26 -71.5 -26 Z" /><glyph glyph-name="asciitilde" unicode="~" d="M91 181 l-33 16 q55 132 139 132 q36 0 74 -24 q38 -24 72 -48 q34 -24 61 -24 q17 0 31.5 8 q14.5 8 26.5 23 q12 15 19.5 28.5 q7.5 13.5 16.5 33.5 l33 -16 q-23 -58 -52.5 -94 q-29.5 -36 -73.5 -36 q-26 0 -55.5 15 q-29.5 15 -51.5 33.5 q-22 18.5 -50.5 33.5 q-28.5 15 -52.5 15 q-35 0 -59 -26 q-24 -26 -45 -70 Z" /><glyph glyph-name="exclamdown" unicode="¡" d="M127 268 l12 -451 l-65 0 l11 451 l42 0 ZM75 422 q13 13 31 13 q18 0 31 -13 q13 -13 13 -32 q0 -18 -13 -31 q-13 -13 -31 -13 q-18 0 -31 13 q-13 13 -13 31 q0 19 13 32 Z" /><glyph glyph-name="cent" unicode="¢" d="M231 47 q-31 0 -53 7 l-44 -127 l-23 7 l43 128 q-52 21 -80.5 70 q-28.5 49 -28.5 117 q0 88 48.5 144.5 q48.5 56.5 136.5 56.5 q28 0 54 -8 l29 84 l23 -8 l-29 -84 q68 -30 88 -118 l-48 0 q-13 52 -53 78 l-104 -301 q20 -6 43 -6 q50 0 79 27.5 q29 27.5 37 74.5 l47 0 q-12 -68 -53.5 -105 q-41.5 -37 -111.5 -37 ZM231 410 q-62 0 -99 -44.5 q-37 -44.5 -37 -115.5 q0 -108 74 -147 l102 301 q-18 6 -40 6 Z" /><glyph glyph-name="sterling" unicode="£" d="M330 -8 q-32 0 -90 12 q-58 12 -88 12 q-37 0 -82 -17 l-12 32 q45 14 71.5 43 q26.5 29 26.5 63 q0 26 -27 84 l-86 0 l0 29 l74 0 q-24 54 -24 91 q0 61 44.5 105 q44.5 44 133.5 44 q49 0 86 -14.5 q37 -14.5 56.5 -37.5 q19.5 -23 28.5 -46 q9 -23 11 -47 l-54 0 q-2 38 -32 70 q-30 32 -95 32 q-62 0 -92.5 -29.5 q-30.5 -29.5 -30.5 -75.5 q0 -36 25 -92 l186 0 l0 -29 l-173 0 q23 -52 23 -79 q0 -50 -40 -87 q28 1 75.5 -8.5 q47.5 -9.5 75.5 -9.5 q79 0 119 56 l33 -33 q-50 -68 -143 -68 Z" /><glyph glyph-name="currency" unicode="¤" d="M283 63 q-72 0 -129 47 l-66 -67 l-30 30 l67 66 q-47 57 -47 129 q0 71 47 128 l-67 66 l30 30 l66 -67 q57 47 129 47 q71 0 128 -47 l66 67 l30 -30 l-67 -66 q47 -57 47 -128 q0 -72 -47 -129 l67 -66 l-30 -30 l-66 67 q-57 -47 -128 -47 ZM283 109 q65 0 111.5 46.5 q46.5 46.5 46.5 112.5 q0 65 -46.5 111.5 q-46.5 46.5 -111.5 46.5 q-66 0 -112 -46.5 q-46 -46.5 -46 -111.5 q0 -66 46 -112.5 q46 -46.5 112 -46.5 Z" /><glyph glyph-name="yen" unicode="¥" d="M173 0 l0 41 l85 0 l0 91 l-159 0 l0 30 l159 0 l0 23 l-38 60 l-121 0 l0 30 l102 0 l-101 163 l-72 0 l0 43 l212 0 l0 -43 l-81 0 l127 -212 l127 212 l-81 0 l0 43 l210 0 l0 -43 l-71 0 l-103 -163 l105 0 l0 -30 l-124 0 l-37 -60 l0 -23 l161 0 l0 -30 l-161 0 l0 -91 l85 0 l0 -41 l-224 0 Z" /><glyph glyph-name="brokenbar" unicode="¦" d="M83 334 l0 373 l54 0 l0 -373 l-54 0 ZM83 -198 l0 392 l54 0 l0 -392 l-54 0 Z" /><glyph glyph-name="section" unicode="§" d="M213 -88 q-61 0 -110 26 q-49 26 -49 59 q0 16 10.5 27.5 q10.5 11.5 28.5 11.5 q18 0 29.5 -11.5 q11.5 -11.5 11.5 -27.5 q0 -12 -10 -24 q36 -23 89 -23 q36 0 60.5 16 q24.5 16 24.5 45 q0 28 -25.5 49 q-25.5 21 -62 35 q-36.5 14 -72.5 30.5 q-36 16.5 -61.5 44.5 q-25.5 28 -25.5 67 q0 64 70 101 q-47 35 -47 86 q0 52 40 78 q40 26 95 26 q56 0 102.5 -23.5 q46.5 -23.5 46.5 -58.5 q0 -15 -10.5 -27 q-10.5 -12 -28.5 -12 q-18 0 -29.5 11.5 q-11.5 11.5 -11.5 26.5 q0 11 10 25 q-30 20 -77 20 q-38 0 -62 -16.5 q-24 -16.5 -24 -45.5 q0 -28 25.5 -49 q25.5 -21 61.5 -35.5 q36 -14.5 72.5 -30.5 q36.5 -16 62 -43.5 q25.5 -27.5 25.5 -66.5 q0 -65 -73 -101 q50 -36 50 -88 q0 -50 -38.5 -76 q-38.5 -26 -97.5 -26 ZM264 121 q58 26 58 75 q0 24 -17.5 43.5 q-17.5 19.5 -37.5 29 q-20 9.5 -55.5 25 q-35.5 15.5 -53.5 24.5 q-58 -27 -58 -75 q0 -20 9.5 -35.5 q9.5 -15.5 28.5 -27.5 q19 -12 37.5 -20 q18.5 -8 45.5 -19.5 q27 -11.5 43 -19.5 Z" /><glyph glyph-name="dieresis" unicode="¨" d="M144.5 529 q-11.5 -12 -28.5 -12 q-17 0 -29 12 q-12 12 -12 29 q0 17 12 28.5 q12 11.5 29 11.5 q17 0 28.5 -11.5 q11.5 -11.5 11.5 -28.5 q0 -17 -11.5 -29 ZM315 529 q-12 -12 -29 -12 q-17 0 -28.5 12 q-11.5 12 -11.5 29 q0 17 11.5 28.5 q11.5 11.5 28.5 11.5 q17 0 29 -11.5 q12 -11.5 12 -28.5 q0 -17 -12 -29 Z" /><glyph glyph-name="copyright" unicode="©" d="M585 39.5 q-93 -92.5 -224 -92.5 q-131 0 -224 92.5 q-93 92.5 -93 224.5 q0 132 93 224.5 q93 92.5 224 92.5 q131 0 224 -92.5 q93 -92.5 93 -224.5 q0 -132 -93 -224.5 ZM160 63.5 q83 -82.5 201 -82.5 q118 0 200.5 82.5 q82.5 82.5 82.5 200.5 q0 118 -82.5 201 q-82.5 83 -200.5 83 q-118 0 -201 -83 q-83 -83 -83 -201 q0 -118 83 -200.5 ZM367 81 q-78 0 -127.5 52 q-49.5 52 -49.5 132 q0 80 48.5 131 q48.5 51 133.5 51 q62 0 116 -26 l0 -89 l-39 0 l0 64 q-40 14 -74 14 q-65 0 -102.5 -39.5 q-37.5 -39.5 -37.5 -103.5 q0 -63 36 -105 q36 -42 100 -42 q63 0 119 35 l0 -40 q-57 -34 -123 -34 Z" /><glyph glyph-name="ordfeminine" unicode="ª" d="M61 211 l0 34 l273 0 l0 -34 l-273 0 ZM144 295 q-39 0 -64.5 22 q-25.5 22 -25.5 63 q0 88 129 88 l61 0 l0 24 q0 37 -15.5 51.5 q-15.5 14.5 -53.5 14.5 q-43 0 -98 -19 l0 38 q52 19 107 19 q54 0 80.5 -24 q26.5 -24 26.5 -76 l0 -156 l47 0 l0 -38 l-92 0 l0 36 q-47 -43 -102 -43 ZM156 330 q44 0 88 42 l0 63 l-59 0 q-84 0 -84 -54 q0 -23 15 -37 q15 -14 40 -14 Z" /><glyph glyph-name="guillemotleft" unicode="«" d="M394 83 l-147 175 l0 4 l147 176 l67 0 l-151 -178 l151 -177 l-67 0 ZM185 83 l-148 175 l0 4 l148 176 l66 0 l-151 -178 l151 -177 l-66 0 Z" /><glyph glyph-name="logicalnot" unicode="¬" d="M391 129 l0 153 l-328 0 l0 44 l372 0 l0 -197 l-44 0 Z" /><glyph glyph-name="uni00AD" unicode="­" d="M60 205 l0 51 l259 0 l0 -51 l-259 0 Z" /><glyph glyph-name="registered" unicode="®" d="M206 275 q-67 0 -113.5 47 q-46.5 47 -46.5 114 q0 66 46.5 112.5 q46.5 46.5 113.5 46.5 q65 0 112 -46.5 q47 -46.5 47 -112.5 q0 -67 -47 -114 q-47 -47 -112 -47 ZM206 299 q56 0 96 40 q40 40 40 97 q0 56 -40 96 q-40 40 -96 40 q-57 0 -97 -40 q-40 -40 -40 -96 q0 -57 40 -97 q40 -40 97 -40 ZM133 357 l0 19 l22 0 l0 118 l-22 0 l0 20 l82 0 q29 0 45 -13 q16 -13 16 -34 q0 -18 -12 -30 q-12 -12 -26 -15 l26 -46 l24 0 l0 -19 l-41 0 l-34 60 l-33 0 l0 -41 l24 0 l0 -19 l-71 0 ZM180 437 l33 0 q37 0 37 29 q0 28 -36 28 l-34 0 l0 -57 Z" /><glyph glyph-name="macron" unicode="¯" d="M71 527 l0 46 l257 0 l0 -46 l-257 0 Z" /><glyph glyph-name="degree" unicode="°" d="M182 359 q-59 0 -101 41.5 q-42 41.5 -42 100.5 q0 59 42 101 q42 42 101 42 q59 0 100.5 -42 q41.5 -42 41.5 -101 q0 -59 -42 -100.5 q-42 -41.5 -100 -41.5 ZM110.5 430.5 q29.5 -29.5 71.5 -29.5 q42 0 71.5 29.5 q29.5 29.5 29.5 70.5 q0 42 -29.5 71.5 q-29.5 29.5 -71.5 29.5 q-42 0 -71.5 -29.5 q-29.5 -29.5 -29.5 -71.5 q0 -41 29.5 -70.5 Z" /><glyph glyph-name="plusminus" unicode="±" d="M239 128 l0 153 l-177 0 l0 46 l177 0 l0 154 l48 0 l0 -154 l179 0 l0 -46 l-179 0 l0 -153 l-48 0 ZM62 27 l0 46 l404 0 l0 -46 l-404 0 Z" /><glyph glyph-name="twosuperior" unicode="²" d="M58 403 l-10 37 q10 8 45.5 32 q35.5 24 59.5 43 q24 19 53 46.5 q29 27.5 44.5 57 q15.5 29.5 15.5 59.5 q0 35 -22.5 54 q-22.5 19 -63.5 19 q-43 0 -70 -16 q5 -7 5 -19 q0 -15 -9.5 -24 q-9.5 -9 -24.5 -9 q-16 0 -25.5 10.5 q-9.5 10.5 -9.5 24.5 q0 31 42 52.5 q42 21.5 98 21.5 q60 0 95.5 -28 q35.5 -28 35.5 -82 q0 -116 -190 -235 l204 0 l0 -44 l-273 0 Z" /><glyph glyph-name="threesuperior" unicode="³" d="M175 394 q-50 0 -94 18 q-44 18 -44 49 q0 15 10.5 25 q10.5 10 26.5 10 q16 0 25.5 -10 q9.5 -10 9.5 -24 q0 -5 -4 -15 q28 -13 66 -13 q43 0 69.5 19.5 q26.5 19.5 26.5 53.5 q0 37 -30 55 q-30 18 -80 18 l-32 0 l0 39 l32 0 q46 0 72 17.5 q26 17.5 26 50.5 q0 31 -22.5 47.5 q-22.5 16.5 -61.5 16.5 q-36 0 -64 -12 q5 -6 5 -15 q0 -14 -10 -24.5 q-10 -10.5 -26 -10.5 q-15 0 -25 10.5 q-10 10.5 -10 24.5 q0 29 40 48.5 q40 19.5 92 19.5 q61 0 98 -27.5 q37 -27.5 37 -72.5 q0 -70 -79 -90 q90 -22 90 -97 q0 -52 -41.5 -81.5 q-41.5 -29.5 -102.5 -29.5 Z" /><glyph glyph-name="acute" unicode="´" d="M77 506 l-19 24 l155 148 l40 -50 l-176 -122 Z" /><glyph glyph-name="mu" unicode="µ" d="M109 -199 l0 575 l-80 0 l0 48 l137 0 l0 -290 q0 -97 81 -97 q71 0 155 74 l0 265 l-82 0 l0 48 l139 0 l0 -377 l80 0 l0 -47 l-136 0 l0 64 q-84 -75 -170 -75 q-47 0 -71 27 l4 -215 l-57 0 Z" /><glyph glyph-name="paragraph" unicode="¶" d="M168 -75 l0 38 l104 0 l0 182 l-49 0 q-79 0 -135.5 54 q-56.5 54 -56.5 130 q0 79 56.5 133 q56.5 54 135.5 54 l301 0 l0 -38 l-88 0 l0 -515 l88 0 l0 -38 l-356 0 ZM316 478 l0 -515 l76 0 l0 515 l-76 0 Z" /><glyph glyph-name="periodcentered" unicode="·" d="M133 222 q-13 -13 -31 -13 q-18 0 -31 13 q-13 13 -13 32 q0 18 13 31 q13 13 31 13 q18 0 31 -13 q13 -13 13 -31 q0 -19 -13 -32 Z" /><glyph glyph-name="cedilla" unicode="¸" d="M105 -193 q-28 0 -51 5 l9 37 q36 -3 41 -3 q74 0 74 42 q0 41 -83 41 l0 19 l38 77 l33 -11 l-22 -54 q35 -3 60.5 -20.5 q25.5 -17.5 25.5 -52.5 q0 -41 -35.5 -60.5 q-35.5 -19.5 -89.5 -19.5 Z" /><glyph glyph-name="onesuperior" unicode="¹" d="M55 403 l0 43 l87 0 l0 292 q-48 -29 -72 -29 q-32 0 -29 34 l106 40 l46 0 l0 -337 l75 0 l0 -43 l-213 0 Z" /><glyph glyph-name="ordmasculine" unicode="º" d="M65 211 l0 34 l259 0 l0 -34 l-259 0 ZM195 295 q-65 0 -105 40.5 q-40 40.5 -40 109.5 q0 69 40 110 q40 41 104 41 q65 0 105 -40.5 q40 -40.5 40 -110.5 q0 -69 -40 -109.5 q-40 -40.5 -104 -40.5 ZM194 332 q45 0 70.5 31 q25.5 31 25.5 82 q0 52 -25.5 83 q-25.5 31 -69.5 31 q-45 0 -70.5 -31 q-25.5 -31 -25.5 -83 q0 -52 25.5 -82.5 q25.5 -30.5 69.5 -30.5 Z" /><glyph glyph-name="guillemotright" unicode="»" d="M42 83 l150 177 l-150 178 l66 0 l147 -176 l0 -4 l-147 -175 l-66 0 ZM251 83 l151 177 l-151 178 l67 0 l147 -176 l0 -4 l-147 -175 l-67 0 Z" /><glyph glyph-name="onequarter" unicode="¼" d="M51 248 l0 39 l79 0 l0 279 q-46 -27 -67 -27 q-29 0 -26 32 l98 38 l44 0 l0 -322 l70 0 l0 -39 l-198 0 ZM232 -8 l-36 19 l354 606 l37 -20 l-355 -605 ZM571 0 l0 35 l64 0 l0 63 l-184 0 l0 34 q45 51 76 115.5 q31 64.5 38 119.5 q41 10 41 -26 q0 -35 -32 -99.5 q-32 -64.5 -70 -106.5 l134 0 l0 49 q16 28 26 61 l19 0 l0 -110 l51 0 l0 -37 l-50 0 l0 -63 l48 0 l0 -35 l-161 0 Z" /><glyph glyph-name="onehalf" unicode="½" d="M48 248 l0 39 l80 0 l0 280 q-46 -27 -67 -27 q-28 0 -27 31 l99 38 l43 0 l0 -322 l70 0 l0 -39 l-198 0 ZM502 0 l-8 36 q8 6 43.5 31 q35.5 25 56 42 q20.5 17 47.5 43 q27 26 40.5 54 q13.5 28 13.5 57 q0 68 -78 68 q-36 0 -66 -15 q5 -7 5 -20 q0 -14 -9 -22.5 q-9 -8.5 -23 -8.5 q-15 0 -24 10 q-9 10 -9 23 q0 30 40.5 51 q40.5 21 93.5 21 q55 0 87.5 -26.5 q32.5 -26.5 32.5 -77.5 q0 -113 -180 -224 l194 0 l0 -42 l-257 0 ZM226 -8 l-37 20 l354 605 l37 -19 l-354 -606 Z" /><glyph glyph-name="threequarters" unicode="¾" d="M170 240 q-47 0 -88.5 17 q-41.5 17 -41.5 45 q0 14 10 24 q10 10 25 10 q14 0 23 -9 q9 -9 9 -21 q0 -6 -4 -16 q30 -13 63 -13 q41 0 65.5 19 q24.5 19 24.5 52 q0 68 -102 68 l-31 0 l0 37 l31 0 q43 0 67.5 16.5 q24.5 16.5 24.5 47.5 q0 62 -81 62 q-36 0 -60 -12 q5 -5 5 -15 q0 -12 -9 -21.5 q-9 -9.5 -24 -9.5 q-14 0 -23.5 10 q-9.5 10 -9.5 23 q0 28 38 46 q38 18 88 18 q56 0 90.5 -25.5 q34.5 -25.5 34.5 -69.5 q0 -65 -69 -87 q80 -19 80 -91 q0 -50 -39 -77.5 q-39 -27.5 -97 -27.5 ZM262 -8 l-37 19 l355 606 l36 -20 l-354 -605 ZM601 0 l0 35 l63 0 l0 63 l-184 0 l0 34 q45 52 76.5 116 q31.5 64 37.5 119 q42 10 42 -26 q0 -35 -32.5 -99.5 q-32.5 -64.5 -70.5 -106.5 l134 0 l0 49 q14 23 26 61 l19 0 l0 -110 l52 0 l0 -37 l-51 0 l0 -63 l48 0 l0 -35 l-160 0 Z" /><glyph glyph-name="questiondown" unicode="¿" d="M203 -194 q-76 0 -122 37 q-46 37 -46 106 q0 46 23.5 85.5 q23.5 39.5 51 62.5 q27.5 23 51 54.5 q23.5 31.5 23.5 63.5 q0 27 -12 53 l55 0 q10 -23 10 -53 q0 -32 -14.5 -60.5 q-14.5 -28.5 -35.5 -49.5 q-21 -21 -42 -42.5 q-21 -21.5 -35.5 -50 q-14.5 -28.5 -14.5 -60.5 q0 -98 116 -98 q50 0 117 21 l0 -47 q-62 -22 -125 -22 ZM169 422 q13 13 31 13 q18 0 31 -13 q13 -13 13 -32 q0 -18 -13 -31 q-13 -13 -31 -13 q-18 0 -31 13 q-13 13 -13 31 q0 19 13 32 Z" /><glyph glyph-name="Agrave" unicode="à" d="M-4 0 l0 50 l85 0 l206 509 l-91 0 l0 50 l180 0 l225 -559 l86 0 l0 -50 l-248 0 l0 50 l100 0 l-61 151 l-277 0 l-60 -151 l100 0 l0 -50 l-245 0 ZM221 252 l238 0 l-119 299 l-119 -299 ZM385 671 l-185 128 l41 52 l164 -156 l-20 -24 Z" /><glyph glyph-name="Aacute" unicode="á" d="M-4 0 l0 50 l85 0 l206 509 l-91 0 l0 50 l180 0 l225 -559 l86 0 l0 -50 l-248 0 l0 50 l100 0 l-61 151 l-277 0 l-60 -151 l100 0 l0 -50 l-245 0 ZM221 252 l238 0 l-119 299 l-119 -299 ZM258 671 l-20 24 l164 156 l41 -52 l-185 -128 Z" /><glyph glyph-name="Acircumflex" unicode="â" d="M-4 0 l0 50 l85 0 l206 509 l-91 0 l0 50 l180 0 l225 -559 l86 0 l0 -50 l-248 0 l0 50 l100 0 l-61 151 l-277 0 l-60 -151 l100 0 l0 -50 l-245 0 ZM221 252 l238 0 l-119 299 l-119 -299 ZM181 671 l-17 21 l141 134 l37 0 l141 -134 l-17 -21 l-143 94 l-142 -94 Z" /><glyph glyph-name="Atilde" unicode="ã" d="M-4 0 l0 50 l85 0 l206 509 l-91 0 l0 50 l180 0 l225 -559 l86 0 l0 -50 l-248 0 l0 50 l100 0 l-61 151 l-277 0 l-60 -151 l100 0 l0 -50 l-245 0 ZM221 252 l238 0 l-119 299 l-119 -299 ZM182 673 l-26 13 q10 24 15 34.5 q5 10.5 17 29 q12 18.5 27.5 27 q15.5 8.5 34.5 8.5 q28 0 76 -28 q48 -28 71 -28 q37 0 66 60 l27 -14 q-13 -30 -21.5 -46 q-8.5 -16 -29.5 -34.5 q-21 -18.5 -46 -18.5 q-28 0 -76.5 28 q-48.5 28 -68.5 28 q-36 0 -66 -59 Z" /><glyph glyph-name="Adieresis" unicode="ä" d="M-4 0 l0 50 l85 0 l206 509 l-91 0 l0 50 l180 0 l225 -559 l86 0 l0 -50 l-248 0 l0 50 l100 0 l-61 151 l-277 0 l-60 -151 l100 0 l0 -50 l-245 0 ZM221 252 l238 0 l-119 299 l-119 -299 ZM269 689.5 q-12 -12.5 -29 -12.5 q-17 0 -29.5 12.5 q-12.5 12.5 -12.5 29.5 q0 18 12.5 30 q12.5 12 29.5 12 q17 0 29 -12 q12 -12 12 -30 q0 -17 -12 -29.5 ZM410 677 q-18 0 -30 12.5 q-12 12.5 -12 29.5 q0 18 12 30 q12 12 30 12 q17 0 29.5 -12 q12.5 -12 12.5 -30 q0 -17 -12.5 -29.5 q-12.5 -12.5 -29.5 -12.5 Z" /><glyph glyph-name="Aring" unicode="å" d="M-4 0 l0 50 l85 0 l206 509 l-91 0 l0 50 l180 0 l225 -559 l86 0 l0 -50 l-248 0 l0 50 l100 0 l-61 151 l-277 0 l-60 -151 l100 0 l0 -50 l-245 0 ZM221 252 l238 0 l-119 299 l-119 -299 ZM403.5 692.5 q-29.5 -29.5 -78.5 -29.5 q-49 0 -78 29.5 q-29 29.5 -29 72.5 q0 43 29 72.5 q29 29.5 78 29.5 q49 0 78.5 -29.5 q29.5 -29.5 29.5 -72.5 q0 -43 -29.5 -72.5 ZM280 718.5 q16 -19.5 45 -19.5 q29 0 45 19.5 q16 19.5 16 46.5 q0 27 -16 46.5 q-16 19.5 -45 19.5 q-29 0 -45 -19.5 q-16 -19.5 -16 -46.5 q0 -27 16 -46.5 Z" /><glyph glyph-name="AE" unicode="æ" d="M-7 0 l0 51 l80 0 l343 508 l-79 0 l0 50 l528 0 l0 -162 l-56 0 l0 112 l-257 0 l0 -227 l261 0 l0 -50 l-261 0 l0 -232 l259 0 l0 112 l56 0 l0 -162 l-469 0 l0 50 l96 0 l0 152 l-254 0 l-102 -152 l84 0 l0 -50 l-229 0 ZM478 559 l-205 -307 l221 0 l0 307 l-16 0 Z" /><glyph glyph-name="Ccedilla" unicode="ç" d="M323 -193 q-28 0 -51 5 l9 37 q36 -3 41 -3 q74 0 74 42 q0 41 -83 41 l0 19 l20 41 q-130 10 -210.5 93 q-80.5 83 -80.5 222 q0 142 86.5 229.5 q86.5 87.5 236.5 87.5 q115 0 209 -46 l0 -144 l-58 0 l0 112 q-63 26 -148 26 q-117 0 -190.5 -69 q-73.5 -69 -73.5 -195 q0 -129 76 -197 q76 -68 188 -68 q107 0 208 59 l0 -57 q-87 -51 -202 -54 l-11 -28 q34 -3 59.5 -20.5 q25.5 -17.5 25.5 -52.5 q0 -41 -35.5 -60.5 q-35.5 -19.5 -89.5 -19.5 Z" /><glyph glyph-name="Egrave" unicode="è" d="M36 0 l0 50 l97 0 l0 509 l-97 0 l0 50 l485 0 l0 -164 l-56 0 l0 114 l-272 0 l0 -227 l275 0 l0 -50 l-275 0 l0 -232 l274 0 l0 114 l56 0 l0 -164 l-487 0 ZM353 671 l-185 128 l41 52 l164 -156 l-20 -24 Z" /><glyph glyph-name="Eacute" unicode="é" d="M36 0 l0 50 l97 0 l0 509 l-97 0 l0 50 l485 0 l0 -164 l-56 0 l0 114 l-272 0 l0 -227 l275 0 l0 -50 l-275 0 l0 -232 l274 0 l0 114 l56 0 l0 -164 l-487 0 ZM243 671 l-19 24 l164 156 l41 -52 l-186 -128 Z" /><glyph glyph-name="Ecircumflex" unicode="ê" d="M36 0 l0 50 l97 0 l0 509 l-97 0 l0 50 l485 0 l0 -164 l-56 0 l0 114 l-272 0 l0 -227 l275 0 l0 -50 l-275 0 l0 -232 l274 0 l0 114 l56 0 l0 -164 l-487 0 ZM156 671 l-17 21 l141 134 l38 0 l141 -134 l-17 -21 l-143 94 l-143 -94 Z" /><glyph glyph-name="Edieresis" unicode="ë" d="M36 0 l0 50 l97 0 l0 509 l-97 0 l0 50 l485 0 l0 -164 l-56 0 l0 114 l-272 0 l0 -227 l275 0 l0 -50 l-275 0 l0 -232 l274 0 l0 114 l56 0 l0 -164 l-487 0 ZM248.5 689.5 q-12.5 -12.5 -29.5 -12.5 q-17 0 -29.5 12.5 q-12.5 12.5 -12.5 29.5 q0 18 12.5 30 q12.5 12 29.5 12 q17 0 29.5 -12 q12.5 -12 12.5 -30 q0 -17 -12.5 -29.5 ZM389 677 q-18 0 -30 12.5 q-12 12.5 -12 29.5 q0 18 12 30 q12 12 30 12 q17 0 29.5 -12 q12.5 -12 12.5 -30 q0 -17 -12.5 -29.5 q-12.5 -12.5 -29.5 -12.5 Z" /><glyph glyph-name="Igrave" unicode="ì" d="M36 0 l0 50 l97 0 l0 509 l-97 0 l0 50 l254 0 l0 -50 l-97 0 l0 -509 l97 0 l0 -50 l-254 0 ZM235 671 l-185 128 l41 52 l164 -156 l-20 -24 Z" /><glyph glyph-name="Iacute" unicode="í" d="M36 0 l0 50 l97 0 l0 509 l-97 0 l0 50 l254 0 l0 -50 l-97 0 l0 -509 l97 0 l0 -50 l-254 0 ZM95 671 l-19 24 l164 156 l41 -52 l-186 -128 Z" /><glyph glyph-name="Icircumflex" unicode="î" d="M36 0 l0 50 l97 0 l0 509 l-97 0 l0 50 l254 0 l0 -50 l-97 0 l0 -509 l97 0 l0 -50 l-254 0 ZM21 671 l-17 21 l140 134 l38 0 l141 -134 l-17 -21 l-143 94 l-142 -94 Z" /><glyph glyph-name="Idieresis" unicode="ï" d="M36 0 l0 50 l97 0 l0 509 l-97 0 l0 50 l254 0 l0 -50 l-97 0 l0 -509 l97 0 l0 -50 l-254 0 ZM107.5 689.5 q-12.5 -12.5 -29.5 -12.5 q-17 0 -29.5 12.5 q-12.5 12.5 -12.5 29.5 q0 18 12.5 30 q12.5 12 29.5 12 q17 0 29.5 -12 q12.5 -12 12.5 -30 q0 -17 -12.5 -29.5 ZM248 677 q-17 0 -29.5 12.5 q-12.5 12.5 -12.5 29.5 q0 18 12.5 30 q12.5 12 29.5 12 q18 0 30 -12 q12 -12 12 -30 q0 -17 -12 -29.5 q-12 -12.5 -30 -12.5 Z" /><glyph glyph-name="Eth" unicode="ð" d="M46 282 l0 50 l88 0 l0 227 l-97 0 l0 50 l274 0 q140 0 230 -79 q90 -79 90 -226 q0 -147 -90 -225.5 q-90 -78.5 -230 -78.5 l-274 0 l0 50 l97 0 l0 232 l-88 0 ZM194 50 l118 0 q117 0 187 67.5 q70 67.5 70 186.5 q0 120 -70 187.5 q-70 67.5 -187 67.5 l-118 0 l0 -227 l174 0 l0 -50 l-174 0 l0 -232 Z" /><glyph glyph-name="Ntilde" unicode="ñ" d="M36 0 l0 50 l97 0 l0 509 l-97 0 l0 50 l159 0 l367 -512 l0 462 l-97 0 l0 50 l250 0 l0 -50 l-97 0 l0 -559 l-54 0 l-374 521 l0 -471 l97 0 l0 -50 l-251 0 ZM234 673 l-26 13 q26 60 44 78 q21 21 50 21 q29 0 77 -28 q48 -28 70 -28 q38 0 67 60 l26 -14 q-10 -22 -16 -34 q-6 -12 -18 -30 q-12 -18 -27.5 -26.5 q-15.5 -8.5 -34.5 -8.5 q-28 0 -77 28 q-49 28 -68 28 q-36 0 -67 -59 Z" /><glyph glyph-name="Ograve" unicode="ò" d="M353 -12 q-140 0 -225 89.5 q-85 89.5 -85 227.5 q0 137 85 226.5 q85 89.5 225 89.5 q138 0 223 -89.5 q85 -89.5 85 -226.5 q0 -138 -85 -227.5 q-85 -89.5 -223 -89.5 ZM353 39 q110 0 178.5 74 q68.5 74 68.5 192 q0 119 -68 191.5 q-68 72.5 -179 72.5 q-111 0 -179.5 -73 q-68.5 -73 -68.5 -191 q0 -120 68 -193 q68 -73 180 -73 ZM393 675 l-185 128 l41 52 l164 -156 l-20 -24 Z" /><glyph glyph-name="Oacute" unicode="ó" d="M353 -12 q-140 0 -225 89.5 q-85 89.5 -85 227.5 q0 137 85 226.5 q85 89.5 225 89.5 q138 0 223 -89.5 q85 -89.5 85 -226.5 q0 -138 -85 -227.5 q-85 -89.5 -223 -89.5 ZM353 39 q110 0 178.5 74 q68.5 74 68.5 192 q0 119 -68 191.5 q-68 72.5 -179 72.5 q-111 0 -179.5 -73 q-68.5 -73 -68.5 -191 q0 -120 68 -193 q68 -73 180 -73 ZM283 675 l-19 24 l164 156 l41 -52 l-186 -128 Z" /><glyph glyph-name="Ocircumflex" unicode="ô" d="M353 -12 q-140 0 -225 89.5 q-85 89.5 -85 227.5 q0 137 85 226.5 q85 89.5 225 89.5 q138 0 223 -89.5 q85 -89.5 85 -226.5 q0 -138 -85 -227.5 q-85 -89.5 -223 -89.5 ZM353 39 q110 0 178.5 74 q68.5 74 68.5 192 q0 119 -68 191.5 q-68 72.5 -179 72.5 q-111 0 -179.5 -73 q-68.5 -73 -68.5 -191 q0 -120 68 -193 q68 -73 180 -73 ZM210 674 l-17 21 l140 134 l38 0 l141 -134 l-17 -21 l-143 94 l-142 -94 Z" /><glyph glyph-name="Otilde" unicode="õ" d="M353 -12 q-140 0 -225 89.5 q-85 89.5 -85 227.5 q0 137 85 226.5 q85 89.5 225 89.5 q138 0 223 -89.5 q85 -89.5 85 -226.5 q0 -138 -85 -227.5 q-85 -89.5 -223 -89.5 ZM353 39 q110 0 178.5 74 q68.5 74 68.5 192 q0 119 -68 191.5 q-68 72.5 -179 72.5 q-111 0 -179.5 -73 q-68.5 -73 -68.5 -191 q0 -120 68 -193 q68 -73 180 -73 ZM209 676 l-26 13 q10 24 15 34.5 q5 10.5 17 29 q12 18.5 27.5 27 q15.5 8.5 34.5 8.5 q28 0 76 -28 q48 -28 71 -28 q37 0 66 60 l27 -14 q-13 -30 -21.5 -46 q-8.5 -16 -29.5 -34.5 q-21 -18.5 -46 -18.5 q-28 0 -76.5 28 q-48.5 28 -68.5 28 q-37 0 -66 -59 Z" /><glyph glyph-name="Odieresis" unicode="ö" d="M353 -12 q-140 0 -225 89.5 q-85 89.5 -85 227.5 q0 137 85 226.5 q85 89.5 225 89.5 q138 0 223 -89.5 q85 -89.5 85 -226.5 q0 -138 -85 -227.5 q-85 -89.5 -223 -89.5 ZM353 39 q110 0 178.5 74 q68.5 74 68.5 192 q0 119 -68 191.5 q-68 72.5 -179 72.5 q-111 0 -179.5 -73 q-68.5 -73 -68.5 -191 q0 -120 68 -193 q68 -73 180 -73 ZM296.5 692.5 q-12.5 -12.5 -29.5 -12.5 q-17 0 -29.5 12.5 q-12.5 12.5 -12.5 29.5 q0 18 12.5 30 q12.5 12 29.5 12 q17 0 29.5 -12 q12.5 -12 12.5 -30 q0 -17 -12.5 -29.5 ZM437 680 q-17 0 -29.5 12.5 q-12.5 12.5 -12.5 29.5 q0 18 12.5 30 q12.5 12 29.5 12 q18 0 30 -12 q12 -12 12 -30 q0 -17 -12 -29.5 q-12 -12.5 -30 -12.5 Z" /><glyph glyph-name="multiply" unicode="×" d="M79 47 l-33 33 l154 154 l-154 154 l33 33 l154 -155 l154 155 l33 -33 l-155 -154 l155 -154 l-33 -33 l-154 154 l-154 -154 Z" /><glyph glyph-name="Oslash" unicode="ø" d="M353 -12 q-112 0 -191 59 l-50 -62 l-26 21 l51 63 q-94 88 -94 235 q0 138 85 227.5 q85 89.5 225 89.5 q108 0 188 -59 l52 62 l26 -22 l-51 -62 q93 -90 93 -236 q0 -138 -85 -227 q-85 -89 -223 -89 ZM353 39 q110 0 178.5 73 q68.5 73 68.5 191 q0 118 -69 192 l-333 -406 q62 -50 155 -50 ZM353 569 q-111 0 -179.5 -73 q-68.5 -73 -68.5 -191 q0 -121 68 -192 l334 405 q-65 51 -154 51 Z" /><glyph glyph-name="Ugrave" unicode="ù" d="M515 43.5 q-62 -55.5 -166 -55.5 q-104 0 -168.5 54.5 q-64.5 54.5 -64.5 156.5 l0 360 l-97 0 l0 50 l254 0 l0 -50 l-97 0 l0 -356 q0 -82 49 -121.5 q49 -39.5 125 -39.5 q76 0 123 40 q47 40 47 121 l0 356 l-97 0 l0 50 l250 0 l0 -50 l-96 0 l0 -358 q0 -102 -62 -157.5 ZM389 671 l-184 128 l41 52 l164 -156 l-21 -24 Z" /><glyph glyph-name="Uacute" unicode="ú" d="M515 43.5 q-62 -55.5 -166 -55.5 q-104 0 -168.5 54.5 q-64.5 54.5 -64.5 156.5 l0 360 l-97 0 l0 50 l254 0 l0 -50 l-97 0 l0 -356 q0 -82 49 -121.5 q49 -39.5 125 -39.5 q76 0 123 40 q47 40 47 121 l0 356 l-97 0 l0 50 l250 0 l0 -50 l-96 0 l0 -358 q0 -102 -62 -157.5 ZM294 671 l-19 24 l164 156 l41 -52 l-186 -128 Z" /><glyph glyph-name="Ucircumflex" unicode="û" d="M515 43.5 q-62 -55.5 -166 -55.5 q-104 0 -168.5 54.5 q-64.5 54.5 -64.5 156.5 l0 360 l-97 0 l0 50 l254 0 l0 -50 l-97 0 l0 -356 q0 -82 49 -121.5 q49 -39.5 125 -39.5 q76 0 123 40 q47 40 47 121 l0 356 l-97 0 l0 50 l250 0 l0 -50 l-96 0 l0 -358 q0 -102 -62 -157.5 ZM204 671 l-17 21 l140 134 l38 0 l141 -134 l-17 -21 l-143 94 l-142 -94 Z" /><glyph glyph-name="Udieresis" unicode="ü" d="M515 43.5 q-62 -55.5 -166 -55.5 q-104 0 -168.5 54.5 q-64.5 54.5 -64.5 156.5 l0 360 l-97 0 l0 50 l254 0 l0 -50 l-97 0 l0 -356 q0 -82 49 -121.5 q49 -39.5 125 -39.5 q76 0 123 40 q47 40 47 121 l0 356 l-97 0 l0 50 l250 0 l0 -50 l-96 0 l0 -358 q0 -102 -62 -157.5 ZM290.5 689.5 q-12.5 -12.5 -29.5 -12.5 q-17 0 -29.5 12.5 q-12.5 12.5 -12.5 29.5 q0 18 12.5 30 q12.5 12 29.5 12 q17 0 29.5 -12 q12.5 -12 12.5 -30 q0 -17 -12.5 -29.5 ZM431 677 q-17 0 -29.5 12.5 q-12.5 12.5 -12.5 29.5 q0 18 12.5 30 q12.5 12 29.5 12 q18 0 30 -12 q12 -12 12 -30 q0 -17 -12 -29.5 q-12 -12.5 -30 -12.5 Z" /><glyph glyph-name="Yacute" unicode="ý" d="M186 0 l0 50 l98 0 l0 177 l-206 332 l-85 0 l0 50 l252 0 l0 -50 l-101 0 l170 -278 l170 278 l-100 0 l0 50 l249 0 l0 -50 l-85 0 l-204 -330 l0 -179 l98 0 l0 -50 l-256 0 ZM254 671 l-19 24 l163 156 l42 -52 l-186 -128 Z" /><glyph glyph-name="Thorn" unicode="þ" d="M36 0 l0 49 l98 0 l0 511 l-98 0 l0 49 l271 0 l0 -48 l-113 0 l0 -74 l100 0 q46 0 85.5 -8.5 q39.5 -8.5 75 -28 q35.5 -19.5 56 -55.5 q20.5 -36 20.5 -86 q0 -49 -20.5 -85.5 q-20.5 -36.5 -56 -55.5 q-35.5 -19 -75 -27.5 q-39.5 -8.5 -85.5 -8.5 l-100 0 l0 -84 l113 0 l0 -48 l-271 0 ZM194 181 l101 0 q175 0 175 128 q0 128 -175 128 l-101 0 l0 -256 Z" /><glyph glyph-name="germandbls" unicode="ß" d="M33 0 l0 47 l81 0 l0 329 l-89 0 l0 48 l89 0 l0 111 q0 80 46.5 131.5 q46.5 51.5 132.5 51.5 q72 0 118.5 -36.5 q46.5 -36.5 46.5 -105.5 q0 -34 -13.5 -65 q-13.5 -31 -29 -49.5 q-15.5 -18.5 -29 -42 q-13.5 -23.5 -13.5 -45.5 q0 -28 20.5 -57.5 q20.5 -29.5 44.5 -52.5 q24 -23 44.5 -61 q20.5 -38 20.5 -80 q0 -65 -42 -98 q-42 -33 -111 -33 q-49 0 -100 16 l0 48 q53 -17 94 -17 q44 0 73 20.5 q29 20.5 29 65.5 q0 34 -20.5 66.5 q-20.5 32.5 -44.5 54 q-24 21.5 -44.5 55 q-20.5 33.5 -20.5 69.5 q0 29 13.5 56 q13.5 27 29 45 q15.5 18 29 45.5 q13.5 27.5 13.5 57.5 q0 46 -29 71.5 q-29 25.5 -78 25.5 q-65 0 -93.5 -39.5 q-28.5 -39.5 -28.5 -95.5 l0 -536 l-139 0 Z" /><glyph glyph-name="agrave" unicode="à" d="M163 -11 q-57 0 -95 32 q-38 32 -38 92 q0 38 17.5 65 q17.5 27 47.5 40.5 q30 13.5 60.5 19 q30.5 5.5 66.5 5.5 l95 0 l0 40 q0 57 -24 80.5 q-24 23.5 -83 23.5 q-74 0 -145 -28 l0 47 q73 29 155 29 q80 0 117.5 -35.5 q37.5 -35.5 37.5 -112.5 l0 -240 l77 0 l0 -47 l-133 0 l0 55 q-75 -66 -156 -66 ZM177 35 q69 0 140 65 l0 101 l-94 0 q-134 0 -134 -87 q0 -37 24 -58 q24 -21 64 -21 ZM272 506 l-175 122 l39 50 l156 -148 l-20 -24 Z" /><glyph glyph-name="aacute" unicode="á" d="M163 -11 q-57 0 -95 32 q-38 32 -38 92 q0 38 17.5 65 q17.5 27 47.5 40.5 q30 13.5 60.5 19 q30.5 5.5 66.5 5.5 l95 0 l0 40 q0 57 -24 80.5 q-24 23.5 -83 23.5 q-74 0 -145 -28 l0 47 q73 29 155 29 q80 0 117.5 -35.5 q37.5 -35.5 37.5 -112.5 l0 -240 l77 0 l0 -47 l-133 0 l0 55 q-75 -66 -156 -66 ZM177 35 q69 0 140 65 l0 101 l-94 0 q-134 0 -134 -87 q0 -37 24 -58 q24 -21 64 -21 ZM153 506 l-20 24 l156 148 l39 -50 l-175 -122 Z" /><glyph glyph-name="acircumflex" unicode="â" d="M163 -11 q-57 0 -95 32 q-38 32 -38 92 q0 38 17.5 65 q17.5 27 47.5 40.5 q30 13.5 60.5 19 q30.5 5.5 66.5 5.5 l95 0 l0 40 q0 57 -24 80.5 q-24 23.5 -83 23.5 q-74 0 -145 -28 l0 47 q73 29 155 29 q80 0 117.5 -35.5 q37.5 -35.5 37.5 -112.5 l0 -240 l77 0 l0 -47 l-133 0 l0 55 q-75 -66 -156 -66 ZM177 35 q69 0 140 65 l0 101 l-94 0 q-134 0 -134 -87 q0 -37 24 -58 q24 -21 64 -21 ZM76 505 l-16 20 l134 127 l36 0 l134 -127 l-17 -20 l-135 89 l-136 -89 Z" /><glyph glyph-name="atilde" unicode="ã" d="M163 -11 q-57 0 -95 32 q-38 32 -38 92 q0 38 17.5 65 q17.5 27 47.5 40.5 q30 13.5 60.5 19 q30.5 5.5 66.5 5.5 l95 0 l0 40 q0 57 -24 80.5 q-24 23.5 -83 23.5 q-74 0 -145 -28 l0 47 q73 29 155 29 q80 0 117.5 -35.5 q37.5 -35.5 37.5 -112.5 l0 -240 l77 0 l0 -47 l-133 0 l0 55 q-75 -66 -156 -66 ZM177 35 q69 0 140 65 l0 101 l-94 0 q-134 0 -134 -87 q0 -37 24 -58 q24 -21 64 -21 ZM79 515 l-27 13 q12 27 20.5 43 q8.5 16 28 32.5 q19.5 16.5 43.5 16.5 q26 0 71.5 -27.5 q45.5 -27.5 67.5 -27.5 q33 0 62 56 l27 -14 q-10 -21 -16 -31.5 q-6 -10.5 -18 -28 q-12 -17.5 -26.5 -25.5 q-14.5 -8 -32.5 -8 q-27 0 -72.5 28 q-45.5 28 -65.5 28 q-34 0 -62 -55 Z" /><glyph glyph-name="adieresis" unicode="ä" d="M163 -11 q-57 0 -95 32 q-38 32 -38 92 q0 38 17.5 65 q17.5 27 47.5 40.5 q30 13.5 60.5 19 q30.5 5.5 66.5 5.5 l95 0 l0 40 q0 57 -24 80.5 q-24 23.5 -83 23.5 q-74 0 -145 -28 l0 47 q73 29 155 29 q80 0 117.5 -35.5 q37.5 -35.5 37.5 -112.5 l0 -240 l77 0 l0 -47 l-133 0 l0 55 q-75 -66 -156 -66 ZM177 35 q69 0 140 65 l0 101 l-94 0 q-134 0 -134 -87 q0 -37 24 -58 q24 -21 64 -21 ZM156.5 529 q-11.5 -12 -28.5 -12 q-17 0 -29 12 q-12 12 -12 29 q0 17 12 28.5 q12 11.5 29 11.5 q17 0 28.5 -11.5 q11.5 -11.5 11.5 -28.5 q0 -17 -11.5 -29 ZM327 529 q-12 -12 -29 -12 q-17 0 -28.5 12 q-11.5 12 -11.5 29 q0 17 11.5 28.5 q11.5 11.5 28.5 11.5 q17 0 29 -11.5 q12 -11.5 12 -28.5 q0 -17 -12 -29 Z" /><glyph glyph-name="aring" unicode="å" d="M163 -11 q-57 0 -95 32 q-38 32 -38 92 q0 38 17.5 65 q17.5 27 47.5 40.5 q30 13.5 60.5 19 q30.5 5.5 66.5 5.5 l95 0 l0 40 q0 57 -24 80.5 q-24 23.5 -83 23.5 q-74 0 -145 -28 l0 47 q73 29 155 29 q80 0 117.5 -35.5 q37.5 -35.5 37.5 -112.5 l0 -240 l77 0 l0 -47 l-133 0 l0 55 q-75 -66 -156 -66 ZM177 35 q69 0 140 65 l0 101 l-94 0 q-134 0 -134 -87 q0 -37 24 -58 q24 -21 64 -21 ZM290.5 532.5 q-29.5 -29.5 -78.5 -29.5 q-49 0 -78 29.5 q-29 29.5 -29 72.5 q0 43 29 72.5 q29 29.5 78 29.5 q49 0 78.5 -29.5 q29.5 -29.5 29.5 -72.5 q0 -43 -29.5 -72.5 ZM212 539 q29 0 45 19.5 q16 19.5 16 46.5 q0 27 -16 46.5 q-16 19.5 -45 19.5 q-28 0 -44 -19.5 q-16 -19.5 -16 -46.5 q0 -27 16 -46.5 q16 -19.5 44 -19.5 Z" /><glyph glyph-name="ae" unicode="æ" d="M172 -11 q-63 0 -102.5 32 q-39.5 32 -39.5 91 q0 129 191 129 l96 0 l0 42 q0 57 -24 80.5 q-24 23.5 -83 23.5 q-70 0 -145 -29 l0 47 q76 30 153 30 q114 0 139 -84 q50 84 152 84 q90 0 135 -63 q45 -63 45 -146 q0 -19 -2 -28 l-317 0 q2 -76 43 -119 q41 -43 113 -43 q72 0 143 43 l0 -50 q-72 -40 -148 -40 q-110 0 -162 74 q-88 -74 -187 -74 ZM182 36 q81 0 157 61 q-21 48 -21 103 l-95 0 q-135 0 -135 -86 q0 -37 25 -57.5 q25 -20.5 69 -20.5 ZM507 390 q-59 0 -95 -41 q-36 -41 -42 -107 l264 0 q-3 63 -34 105.5 q-31 42.5 -93 42.5 Z" /><glyph glyph-name="ccedilla" unicode="ç" d="M209 -193 q-27 0 -52 5 l10 37 q36 -3 41 -3 q73 0 73 42 q0 41 -83 41 l0 19 l22 43 q-85 10 -133 68 q-48 58 -48 152 q0 104 58.5 164 q58.5 60 158.5 60 q73 0 145 -29 l0 -121 l-50 0 l0 88 q-46 14 -92 14 q-79 0 -120 -47 q-41 -47 -41 -126 q0 -82 43 -129.5 q43 -47.5 118 -47.5 q74 0 143 43 l0 -49 q-66 -41 -143 -42 l-11 -29 q35 -3 60.5 -20.5 q25.5 -17.5 25.5 -52.5 q0 -41 -35.5 -60.5 q-35.5 -19.5 -89.5 -19.5 Z" /><glyph glyph-name="egrave" unicode="è" d="M249 -11 q-100 0 -155 60.5 q-55 60.5 -55 160.5 q0 101 53.5 163 q53.5 62 142.5 62 q91 0 137 -63 q46 -63 46 -146 q0 -19 -2 -28 l-319 0 q3 -76 44 -119 q41 -43 113 -43 q74 0 143 43 l0 -50 q-70 -40 -148 -40 ZM235 389 q-59 0 -95 -40.5 q-36 -40.5 -42 -106.5 l264 0 q-3 62 -34 104.5 q-31 42.5 -93 42.5 ZM284 506 l-176 122 l40 50 l155 -148 l-19 -24 Z" /><glyph glyph-name="eacute" unicode="é" d="M249 -11 q-100 0 -155 60.5 q-55 60.5 -55 160.5 q0 101 53.5 163 q53.5 62 142.5 62 q91 0 137 -63 q46 -63 46 -146 q0 -19 -2 -28 l-319 0 q3 -76 44 -119 q41 -43 113 -43 q74 0 143 43 l0 -50 q-70 -40 -148 -40 ZM235 389 q-59 0 -95 -40.5 q-36 -40.5 -42 -106.5 l264 0 q-3 62 -34 104.5 q-31 42.5 -93 42.5 ZM174 506 l-20 24 l156 148 l40 -50 l-176 -122 Z" /><glyph glyph-name="ecircumflex" unicode="ê" d="M249 -11 q-100 0 -155 60.5 q-55 60.5 -55 160.5 q0 101 53.5 163 q53.5 62 142.5 62 q91 0 137 -63 q46 -63 46 -146 q0 -19 -2 -28 l-319 0 q3 -76 44 -119 q41 -43 113 -43 q74 0 143 43 l0 -50 q-70 -40 -148 -40 ZM235 389 q-59 0 -95 -40.5 q-36 -40.5 -42 -106.5 l264 0 q-3 62 -34 104.5 q-31 42.5 -93 42.5 ZM93 505 l-17 20 l134 127 l36 0 l134 -127 l-16 -20 l-136 89 l-135 -89 Z" /><glyph glyph-name="edieresis" unicode="ë" d="M249 -11 q-100 0 -155 60.5 q-55 60.5 -55 160.5 q0 101 53.5 163 q53.5 62 142.5 62 q91 0 137 -63 q46 -63 46 -146 q0 -19 -2 -28 l-319 0 q3 -76 44 -119 q41 -43 113 -43 q74 0 143 43 l0 -50 q-70 -40 -148 -40 ZM235 389 q-59 0 -95 -40.5 q-36 -40.5 -42 -106.5 l264 0 q-3 62 -34 104.5 q-31 42.5 -93 42.5 ZM172.5 529 q-11.5 -12 -28.5 -12 q-17 0 -29 12 q-12 12 -12 29 q0 17 12 28.5 q12 11.5 29 11.5 q16 0 28 -12 q12 -12 12 -28 q0 -17 -11.5 -29 ZM342.5 529 q-11.5 -12 -28.5 -12 q-17 0 -29 12 q-12 12 -12 29 q0 17 12 28.5 q12 11.5 29 11.5 q16 0 28 -12 q12 -12 12 -28 q0 -17 -11.5 -29 Z" /><glyph glyph-name="igrave" unicode="ì" d="M182 506 l-176 122 l40 50 l155 -148 l-19 -24 ZM30 0 l0 47 l79 0 l0 329 l-79 0 l0 48 l137 0 l0 -377 l79 0 l0 -47 l-216 0 Z" /><glyph glyph-name="iacute" unicode="í" d="M55 506 l-19 24 l155 148 l40 -50 l-176 -122 ZM30 0 l0 47 l79 0 l0 329 l-79 0 l0 48 l137 0 l0 -377 l79 0 l0 -47 l-216 0 Z" /><glyph glyph-name="icircumflex" unicode="î" d="M-12 505 l-16 20 l133 127 l36 0 l134 -127 l-16 -20 l-136 89 l-135 -89 ZM30 0 l0 47 l79 0 l0 329 l-79 0 l0 48 l137 0 l0 -377 l79 0 l0 -47 l-216 0 Z" /><glyph glyph-name="idieresis" unicode="ï" d="M67 529 q-12 -12 -29 -12 q-17 0 -28.5 12 q-11.5 12 -11.5 29 q0 16 12 28 q12 12 28 12 q17 0 29 -11.5 q12 -11.5 12 -28.5 q0 -17 -12 -29 ZM237 529 q-12 -12 -29 -12 q-17 0 -28.5 12 q-11.5 12 -11.5 29 q0 16 12 28 q12 12 28 12 q17 0 29 -11.5 q12 -11.5 12 -28.5 q0 -17 -12 -29 ZM30 0 l0 47 l79 0 l0 329 l-79 0 l0 48 l137 0 l0 -377 l79 0 l0 -47 l-216 0 Z" /><glyph glyph-name="eth" unicode="ð" d="M239 -11 q-95 0 -147.5 59.5 q-52.5 59.5 -52.5 153.5 q0 94 52.5 155 q52.5 61 138.5 61 q90 0 136 -63 q-24 130 -134 239 l-101 -84 l-21 26 l97 81 q-36 33 -92 69 l32 32 q56 -32 101 -70 l76 62 l20 -26 l-71 -59 q165 -162 165 -385 q0 -117 -50 -184 q-50 -67 -149 -67 ZM137 80 q39 -45 102 -45 q63 0 101.5 45.5 q38.5 45.5 38.5 122.5 q0 78 -38 123.5 q-38 45.5 -101 45.5 q-65 0 -103.5 -46.5 q-38.5 -46.5 -38.5 -123.5 q0 -77 39 -122 Z" /><glyph glyph-name="ntilde" unicode="ñ" d="M30 0 l0 47 l79 0 l0 329 l-79 0 l0 48 l136 0 l0 -66 q82 77 170 77 q58 0 91 -35.5 q33 -35.5 33 -102.5 l0 -250 l79 0 l0 -47 l-216 0 l0 47 l79 0 l0 243 q0 96 -81 96 q-72 0 -154 -74 l0 -265 l79 0 l0 -47 l-216 0 ZM147 515 l-27 13 q9 20 15 31.5 q6 11.5 17.5 28 q11.5 16.5 26 24.5 q14.5 8 32.5 8 q27 0 72 -27.5 q45 -27.5 67 -27.5 q34 0 63 56 l26 -14 q-12 -26 -21 -42.5 q-9 -16.5 -29 -33.5 q-20 -17 -43 -17 q-26 0 -72 28 q-46 28 -66 28 q-33 0 -61 -55 Z" /><glyph glyph-name="ograve" unicode="ò" d="M247 -11 q-92 0 -150 60 q-58 60 -58 163 q0 103 58 163 q58 60 150 60 q93 0 151 -60 q58 -60 58 -163 q0 -103 -58 -163 q-58 -60 -151 -60 ZM138 83.5 q40 -47.5 109 -47.5 q69 0 109 47.5 q40 47.5 40 128.5 q0 81 -40 128 q-40 47 -109 47 q-69 0 -109 -47.5 q-40 -47.5 -40 -127.5 q0 -81 40 -128.5 ZM294 506 l-175 122 l39 50 l156 -148 l-20 -24 Z" /><glyph glyph-name="oacute" unicode="ó" d="M247 -11 q-92 0 -150 60 q-58 60 -58 163 q0 103 58 163 q58 60 150 60 q93 0 151 -60 q58 -60 58 -163 q0 -103 -58 -163 q-58 -60 -151 -60 ZM138 83.5 q40 -47.5 109 -47.5 q69 0 109 47.5 q40 47.5 40 128.5 q0 81 -40 128 q-40 47 -109 47 q-69 0 -109 -47.5 q-40 -47.5 -40 -127.5 q0 -81 40 -128.5 ZM186 506 l-20 24 l156 148 l39 -50 l-175 -122 Z" /><glyph glyph-name="ocircumflex" unicode="ô" d="M247 -11 q-92 0 -150 60 q-58 60 -58 163 q0 103 58 163 q58 60 150 60 q93 0 151 -60 q58 -60 58 -163 q0 -103 -58 -163 q-58 -60 -151 -60 ZM138 83.5 q40 -47.5 109 -47.5 q69 0 109 47.5 q40 47.5 40 128.5 q0 81 -40 128 q-40 47 -109 47 q-69 0 -109 -47.5 q-40 -47.5 -40 -127.5 q0 -81 40 -128.5 ZM112 505 l-17 20 l134 127 l36 0 l134 -127 l-16 -20 l-136 89 l-135 -89 Z" /><glyph glyph-name="otilde" unicode="õ" d="M247 -11 q-92 0 -150 60 q-58 60 -58 163 q0 103 58 163 q58 60 150 60 q93 0 151 -60 q58 -60 58 -163 q0 -103 -58 -163 q-58 -60 -151 -60 ZM138 83.5 q40 -47.5 109 -47.5 q69 0 109 47.5 q40 47.5 40 128.5 q0 81 -40 128 q-40 47 -109 47 q-69 0 -109 -47.5 q-40 -47.5 -40 -127.5 q0 -81 40 -128.5 ZM109 515 l-27 13 q9 20 15 31.5 q6 11.5 17.5 28 q11.5 16.5 26.5 24.5 q15 8 33 8 q26 0 71.5 -27.5 q45.5 -27.5 67.5 -27.5 q33 0 62 56 l26 -14 q-9 -20 -15 -31.5 q-6 -11.5 -18 -28 q-12 -16.5 -26.5 -25 q-14.5 -8.5 -32.5 -8.5 q-27 0 -72.5 28 q-45.5 28 -65.5 28 q-34 0 -62 -55 Z" /><glyph glyph-name="odieresis" unicode="ö" d="M247 -11 q-92 0 -150 60 q-58 60 -58 163 q0 103 58 163 q58 60 150 60 q93 0 151 -60 q58 -60 58 -163 q0 -103 -58 -163 q-58 -60 -151 -60 ZM138 83.5 q40 -47.5 109 -47.5 q69 0 109 47.5 q40 47.5 40 128.5 q0 81 -40 128 q-40 47 -109 47 q-69 0 -109 -47.5 q-40 -47.5 -40 -127.5 q0 -81 40 -128.5 ZM191 529 q-12 -12 -29 -12 q-17 0 -28.5 12 q-11.5 12 -11.5 29 q0 17 11.5 28.5 q11.5 11.5 28.5 11.5 q17 0 29 -11.5 q12 -11.5 12 -28.5 q0 -17 -12 -29 ZM361 529 q-12 -12 -29 -12 q-17 0 -28.5 12 q-11.5 12 -11.5 29 q0 16 12 28 q12 12 28 12 q17 0 29 -11.5 q12 -11.5 12 -28.5 q0 -17 -12 -29 Z" /><glyph glyph-name="divide" unicode="÷" d="M259 43 q-17 0 -30 12.5 q-13 12.5 -13 31.5 q0 18 13 31 q13 13 30 13 q19 0 31.5 -13 q12.5 -13 12.5 -31 q0 -19 -12.5 -31.5 q-12.5 -12.5 -31.5 -12.5 ZM259 339 q-17 0 -30 12.5 q-13 12.5 -13 31.5 q0 18 13 31 q13 13 30 13 q19 0 31.5 -13 q12.5 -13 12.5 -31 q0 -19 -12.5 -31.5 q-12.5 -12.5 -31.5 -12.5 ZM58 212 l0 45 l403 0 l0 -45 l-403 0 Z" /><glyph glyph-name="oslash" unicode="ø" d="M249 -11 q-81 0 -134 45 l-42 -49 l-22 18 l43 50 q-54 60 -54 159 q0 103 58 163 q58 60 151 60 q75 0 133 -45 l42 49 l21 -19 l-42 -50 q54 -60 54 -158 q0 -103 -58 -163 q-58 -60 -150 -60 ZM249 36 q69 0 108.5 47.5 q39.5 47.5 39.5 128.5 q0 70 -31 115 l-217 -254 q39 -37 100 -37 ZM249 387 q-69 0 -109 -47 q-40 -47 -40 -128 q0 -73 31 -116 l217 254 q-39 37 -99 37 Z" /><glyph glyph-name="ugrave" unicode="ù" d="M215 -11 q-58 0 -91 35 q-33 35 -33 102 l0 250 l-80 0 l0 48 l137 0 l0 -290 q0 -97 81 -97 q71 0 155 74 l0 265 l-82 0 l0 48 l139 0 l0 -377 l80 0 l0 -47 l-136 0 l0 64 q-84 -75 -170 -75 ZM287 506 l-176 122 l40 50 l155 -148 l-19 -24 Z" /><glyph glyph-name="uacute" unicode="ú" d="M215 -11 q-58 0 -91 35 q-33 35 -33 102 l0 250 l-80 0 l0 48 l137 0 l0 -290 q0 -97 81 -97 q71 0 155 74 l0 265 l-82 0 l0 48 l139 0 l0 -377 l80 0 l0 -47 l-136 0 l0 64 q-84 -75 -170 -75 ZM201 506 l-19 24 l155 148 l40 -50 l-176 -122 Z" /><glyph glyph-name="ucircumflex" unicode="û" d="M215 -11 q-58 0 -91 35 q-33 35 -33 102 l0 250 l-80 0 l0 48 l137 0 l0 -290 q0 -97 81 -97 q71 0 155 74 l0 265 l-82 0 l0 48 l139 0 l0 -377 l80 0 l0 -47 l-136 0 l0 64 q-84 -75 -170 -75 ZM114 505 l-17 20 l134 127 l36 0 l134 -127 l-16 -20 l-136 89 l-135 -89 Z" /><glyph glyph-name="udieresis" unicode="ü" d="M215 -11 q-58 0 -91 35 q-33 35 -33 102 l0 250 l-80 0 l0 48 l137 0 l0 -290 q0 -97 81 -97 q71 0 155 74 l0 265 l-82 0 l0 48 l139 0 l0 -377 l80 0 l0 -47 l-136 0 l0 64 q-84 -75 -170 -75 ZM192.5 529 q-11.5 -12 -28.5 -12 q-17 0 -29 12 q-12 12 -12 29 q0 17 12 28.5 q12 11.5 29 11.5 q16 0 28 -12 q12 -12 12 -28 q0 -17 -11.5 -29 ZM362.5 529 q-11.5 -12 -28.5 -12 q-17 0 -29 12 q-12 12 -12 29 q0 17 12 28.5 q12 11.5 29 11.5 q17 0 28.5 -11.5 q11.5 -11.5 11.5 -28.5 q0 -17 -11.5 -29 Z" /><glyph glyph-name="yacute" unicode="ý" d="M131 -210 q-47 0 -96 29 l17 42 q39 -24 73 -24 q62 0 88 67 l35 96 l-46 0 l-126 376 l-63 0 l0 48 l203 0 l0 -47 l-80 0 l117 -364 l134 364 l-80 0 l0 47 l201 0 l0 -48 l-63 0 l-183 -488 q-36 -98 -131 -98 ZM212 506 l-20 24 l156 148 l39 -50 l-175 -122 Z" /><glyph glyph-name="thorn" unicode="þ" d="M-11 -199 l0 48 l79 0 l0 811 l-79 0 l0 47 l137 0 l0 -342 q63 70 148 70 q86 0 134.5 -63.5 q48.5 -63.5 48.5 -158.5 q0 -97 -51 -160.5 q-51 -63.5 -141 -63.5 q-80 0 -139 57 l0 -197 l92 0 l0 -48 l-229 0 ZM262 387 q-72 0 -136 -68 l0 -225 q58 -58 128 -58 q69 0 106.5 49.5 q37.5 49.5 37.5 127.5 q0 74 -34.5 124 q-34.5 50 -101.5 50 Z" /><glyph glyph-name="ydieresis" unicode="ÿ" d="M131 -210 q-47 0 -96 29 l17 42 q39 -24 73 -24 q62 0 88 67 l35 96 l-46 0 l-126 376 l-63 0 l0 48 l203 0 l0 -47 l-80 0 l117 -364 l134 364 l-80 0 l0 47 l201 0 l0 -48 l-63 0 l-183 -488 q-36 -98 -131 -98 ZM206 529 q-12 -12 -29 -12 q-17 0 -28.5 12 q-11.5 12 -11.5 29 q0 17 11.5 28.5 q11.5 11.5 28.5 11.5 q17 0 29 -11.5 q12 -11.5 12 -28.5 q0 -17 -12 -29 ZM376 529 q-12 -12 -29 -12 q-17 0 -28.5 12 q-11.5 12 -11.5 29 q0 16 11.5 28 q11.5 12 28.5 12 q17 0 29 -11.5 q12 -11.5 12 -28.5 q0 -17 -12 -29 Z" /><glyph glyph-name="Amacron" unicode="&#x100;" d="M-4 0 l0 50 l85 0 l206 509 l-91 0 l0 50 l180 0 l225 -559 l86 0 l0 -50 l-248 0 l0 50 l100 0 l-61 151 l-277 0 l-60 -151 l100 0 l0 -50 l-245 0 ZM221 252 l238 0 l-119 299 l-119 -299 ZM193 679 l0 47 l257 0 l0 -47 l-257 0 Z" /><glyph glyph-name="amacron" unicode="&#x101;" d="M163 -11 q-57 0 -95 32 q-38 32 -38 92 q0 38 17.5 65 q17.5 27 47.5 40.5 q30 13.5 60.5 19 q30.5 5.5 66.5 5.5 l95 0 l0 40 q0 57 -24 80.5 q-24 23.5 -83 23.5 q-74 0 -145 -28 l0 47 q73 29 155 29 q80 0 117.5 -35.5 q37.5 -35.5 37.5 -112.5 l0 -240 l77 0 l0 -47 l-133 0 l0 55 q-75 -66 -156 -66 ZM177 35 q69 0 140 65 l0 101 l-94 0 q-134 0 -134 -87 q0 -37 24 -58 q24 -21 64 -21 ZM81 527 l0 46 l257 0 l0 -46 l-257 0 Z" /><glyph glyph-name="Abreve" unicode="&#x102;" d="M-4 0 l0 50 l85 0 l206 509 l-91 0 l0 50 l180 0 l225 -559 l86 0 l0 -50 l-248 0 l0 50 l100 0 l-61 151 l-277 0 l-60 -151 l100 0 l0 -50 l-245 0 ZM221 252 l238 0 l-119 299 l-119 -299 ZM327 666 q-59 0 -97.5 35.5 q-38.5 35.5 -43.5 101.5 l47 0 q8 -87 94 -87 q39 0 64.5 21.5 q25.5 21.5 29.5 65.5 l47 0 q-5 -66 -44 -101.5 q-39 -35.5 -97 -35.5 Z" /><glyph glyph-name="abreve" unicode="&#x103;" d="M163 -11 q-57 0 -95 32 q-38 32 -38 92 q0 38 17.5 65 q17.5 27 47.5 40.5 q30 13.5 60.5 19 q30.5 5.5 66.5 5.5 l95 0 l0 40 q0 57 -24 80.5 q-24 23.5 -83 23.5 q-74 0 -145 -28 l0 47 q73 29 155 29 q80 0 117.5 -35.5 q37.5 -35.5 37.5 -112.5 l0 -240 l77 0 l0 -47 l-133 0 l0 55 q-75 -66 -156 -66 ZM177 35 q69 0 140 65 l0 101 l-94 0 q-134 0 -134 -87 q0 -37 24 -58 q24 -21 64 -21 ZM303.5 545.5 q-36.5 -33.5 -92.5 -33.5 q-56 0 -93 33.5 q-37 33.5 -42 96.5 l45 0 q8 -81 90 -81 q81 0 89 81 l45 0 q-5 -63 -41.5 -96.5 Z" /><glyph glyph-name="Aogonek" unicode="&#x104;" d="M596 -200 q-43 0 -69 19.5 q-26 19.5 -26 59.5 q0 66 77 121 l-139 0 l0 50 l100 0 l-61 151 l-277 0 l-60 -151 l100 0 l0 -50 l-245 0 l0 50 l85 0 l206 509 l-91 0 l0 50 l180 0 l225 -559 l86 0 l0 -50 l-56 0 q-75 -54 -75 -112 q0 -47 54 -47 q31 0 63 15 l3 -38 q-36 -18 -80 -18 ZM221 252 l238 0 l-119 299 l-119 -299 Z" /><glyph glyph-name="aogonek" unicode="&#x105;" d="M390 -193 q-40 0 -65 18.5 q-25 18.5 -25 56.5 q0 66 77 118 l-58 0 l0 55 q-75 -66 -156 -66 q-57 0 -95 32 q-38 32 -38 92 q0 38 17.5 65 q17.5 27 47.5 40.5 q30 13.5 60.5 19 q30.5 5.5 66.5 5.5 l95 0 l0 40 q0 57 -24 80.5 q-24 23.5 -83 23.5 q-74 0 -145 -28 l0 47 q73 29 155 29 q80 0 117.5 -35.5 q37.5 -35.5 37.5 -112.5 l0 -240 l77 0 l0 -47 l-24 0 q-75 -52 -75 -109 q0 -44 51 -44 q30 0 60 14 l3 -37 q-38 -17 -77 -17 ZM177 35 q69 0 140 65 l0 101 l-94 0 q-134 0 -134 -87 q0 -37 24 -58 q24 -21 64 -21 Z" /><glyph glyph-name="Cacute" unicode="&#x106;" d="M365 -12 q-141 0 -231 84.5 q-90 84.5 -90 231.5 q0 142 86 229.5 q86 87.5 237 87.5 q114 0 208 -46 l0 -144 l-57 0 l0 112 q-65 26 -148 26 q-118 0 -191 -69 q-73 -69 -73 -195 q0 -129 75.5 -197 q75.5 -68 187.5 -68 q108 0 208 59 l0 -57 q-94 -54 -212 -54 ZM285 675 l-20 24 l164 156 l41 -52 l-185 -128 Z" /><glyph glyph-name="cacute" unicode="&#x107;" d="M254 -11 q-100 0 -157.5 59.5 q-57.5 59.5 -57.5 162.5 q0 104 58.5 164 q58.5 60 158.5 60 q73 0 145 -29 l0 -121 l-50 0 l0 88 q-46 14 -92 14 q-79 0 -120 -47 q-41 -47 -41 -126 q0 -82 43 -129.5 q43 -47.5 118 -47.5 q74 0 143 43 l0 -49 q-67 -42 -148 -42 ZM181 506 l-19 24 l155 148 l40 -50 l-176 -122 Z" /><glyph glyph-name="Ccircumflex" unicode="&#x108;" d="M365 -12 q-141 0 -231 84.5 q-90 84.5 -90 231.5 q0 142 86 229.5 q86 87.5 237 87.5 q114 0 208 -46 l0 -144 l-57 0 l0 112 q-65 26 -148 26 q-118 0 -191 -69 q-73 -69 -73 -195 q0 -129 75.5 -197 q75.5 -68 187.5 -68 q108 0 208 59 l0 -57 q-94 -54 -212 -54 ZM212 674 l-17 21 l140 134 l38 0 l141 -134 l-17 -21 l-143 94 l-142 -94 Z" /><glyph glyph-name="ccircumflex" unicode="&#x109;" d="M254 -11 q-100 0 -157.5 59.5 q-57.5 59.5 -57.5 162.5 q0 104 58.5 164 q58.5 60 158.5 60 q73 0 145 -29 l0 -121 l-50 0 l0 88 q-46 14 -92 14 q-79 0 -120 -47 q-41 -47 -41 -126 q0 -82 43 -129.5 q43 -47.5 118 -47.5 q74 0 143 43 l0 -49 q-67 -42 -148 -42 ZM109 505 l-17 20 l134 127 l36 0 l134 -127 l-16 -20 l-136 89 l-135 -89 Z" /><glyph glyph-name="Cdotaccent" unicode="&#x10a;" d="M365 -12 q-141 0 -231 84.5 q-90 84.5 -90 231.5 q0 142 86 229.5 q86 87.5 237 87.5 q114 0 208 -46 l0 -144 l-57 0 l0 112 q-65 26 -148 26 q-118 0 -191 -69 q-73 -69 -73 -195 q0 -129 75.5 -197 q75.5 -68 187.5 -68 q108 0 208 59 l0 -57 q-94 -54 -212 -54 ZM387 690.5 q-13 -13.5 -32 -13.5 q-19 0 -32 13.5 q-13 13.5 -13 31.5 q0 19 13 32 q13 13 32 13 q19 0 32 -13 q13 -13 13 -32 q0 -18 -13 -31.5 Z" /><glyph glyph-name="cdotaccent" unicode="&#x10b;" d="M254 -11 q-100 0 -157.5 59.5 q-57.5 59.5 -57.5 162.5 q0 104 58.5 164 q58.5 60 158.5 60 q73 0 145 -29 l0 -121 l-50 0 l0 88 q-46 14 -92 14 q-79 0 -120 -47 q-41 -47 -41 -126 q0 -82 43 -129.5 q43 -47.5 118 -47.5 q74 0 143 43 l0 -49 q-67 -42 -148 -42 ZM277 531 q-13 -13 -31 -13 q-18 0 -31 13 q-13 13 -13 31 q0 18 13 31 q13 13 31 13 q18 0 31 -13 q13 -13 13 -31 q0 -18 -13 -31 Z" /><glyph glyph-name="Ccaron" unicode="&#x10c;" d="M365 -12 q-141 0 -231 84.5 q-90 84.5 -90 231.5 q0 142 86 229.5 q86 87.5 237 87.5 q114 0 208 -46 l0 -144 l-57 0 l0 112 q-65 26 -148 26 q-118 0 -191 -69 q-73 -69 -73 -195 q0 -129 75.5 -197 q75.5 -68 187.5 -68 q108 0 208 59 l0 -57 q-94 -54 -212 -54 ZM335 677 l-140 135 l17 20 l142 -94 l143 94 l17 -20 l-141 -135 l-38 0 Z" /><glyph glyph-name="ccaron" unicode="&#x10d;" d="M254 -11 q-100 0 -157.5 59.5 q-57.5 59.5 -57.5 162.5 q0 104 58.5 164 q58.5 60 158.5 60 q73 0 145 -29 l0 -121 l-50 0 l0 88 q-46 14 -92 14 q-79 0 -120 -47 q-41 -47 -41 -126 q0 -82 43 -129.5 q43 -47.5 118 -47.5 q74 0 143 43 l0 -49 q-67 -42 -148 -42 ZM225 511 l-134 128 l16 19 l136 -88 l135 88 l17 -19 l-134 -128 l-36 0 Z" /><glyph glyph-name="Dcaron" unicode="&#x10e;" d="M36 0 l0 50 l97 0 l0 509 l-97 0 l0 50 l274 0 q140 0 230 -79 q90 -79 90 -226 q0 -147 -90 -225.5 q-90 -78.5 -230 -78.5 l-274 0 ZM193 50 l118 0 q117 0 187 67.5 q70 67.5 70 186.5 q0 120 -70 187.5 q-70 67.5 -187 67.5 l-118 0 l0 -509 ZM310 676 l-140 135 l17 20 l142 -94 l143 94 l17 -20 l-141 -135 l-38 0 Z" /><glyph glyph-name="dcaron" unicode="&#x10f;" d="M528 713 q20 0 33.5 -15 q13.5 -15 13.5 -42 q0 -33 -19 -70 q-19 -37 -52 -66 l-28 21 q44 54 44 99 q0 41 -33 51 l0 7 q17 15 41 15 ZM223 -11 q-86 0 -135 64 q-49 64 -49 159 q0 96 51.5 159.5 q51.5 63.5 140.5 63.5 q79 0 139 -58 l0 282 l-93 0 l0 48 l150 0 l0 -660 l80 0 l0 -47 l-134 0 l0 61 q-63 -72 -150 -72 ZM234 36 q68 0 136 68 l0 225 q-58 58 -128 58 q-69 0 -106.5 -48.5 q-37.5 -48.5 -37.5 -126.5 q0 -75 34.5 -125.5 q34.5 -50.5 101.5 -50.5 Z" /><glyph glyph-name="Dcroat" unicode="&#x110;" d="M46 282 l0 50 l88 0 l0 227 l-97 0 l0 50 l274 0 q140 0 230 -79 q90 -79 90 -226 q0 -147 -90 -225.5 q-90 -78.5 -230 -78.5 l-274 0 l0 50 l97 0 l0 232 l-88 0 ZM194 50 l118 0 q117 0 187 67.5 q70 67.5 70 186.5 q0 120 -70 187.5 q-70 67.5 -187 67.5 l-118 0 l0 -227 l174 0 l0 -50 l-174 0 l0 -232 Z" /><glyph glyph-name="dcroat" unicode="&#x111;" d="M216 520 l0 43 l154 0 l0 96 l-93 0 l0 48 l150 0 l0 -144 l73 0 l0 -43 l-73 0 l0 -473 l80 0 l0 -47 l-134 0 l0 61 q-63 -72 -150 -72 q-86 0 -135 64 q-49 64 -49 159 q0 96 51.5 159.5 q51.5 63.5 140.5 63.5 q79 0 139 -58 l0 143 l-154 0 ZM234 36 q68 0 136 68 l0 225 q-58 58 -128 58 q-69 0 -106.5 -48.5 q-37.5 -48.5 -37.5 -126.5 q0 -75 34.5 -125.5 q34.5 -50.5 101.5 -50.5 Z" /><glyph glyph-name="Emacron" unicode="&#x112;" d="M36 0 l0 50 l97 0 l0 509 l-97 0 l0 50 l485 0 l0 -164 l-56 0 l0 114 l-272 0 l0 -227 l275 0 l0 -50 l-275 0 l0 -232 l274 0 l0 114 l56 0 l0 -164 l-487 0 ZM176 679 l0 47 l256 0 l0 -47 l-256 0 Z" /><glyph glyph-name="emacron" unicode="&#x113;" d="M249 -11 q-100 0 -155 60.5 q-55 60.5 -55 160.5 q0 101 53.5 163 q53.5 62 142.5 62 q91 0 137 -63 q46 -63 46 -146 q0 -19 -2 -28 l-319 0 q3 -76 44 -119 q41 -43 113 -43 q74 0 143 43 l0 -50 q-70 -40 -148 -40 ZM235 389 q-59 0 -95 -40.5 q-36 -40.5 -42 -106.5 l264 0 q-3 62 -34 104.5 q-31 42.5 -93 42.5 ZM102 527 l0 46 l257 0 l0 -46 l-257 0 Z" /><glyph glyph-name="Ebreve" unicode="&#x114;" d="M36 0 l0 50 l97 0 l0 509 l-97 0 l0 50 l485 0 l0 -164 l-56 0 l0 114 l-272 0 l0 -227 l275 0 l0 -50 l-275 0 l0 -232 l274 0 l0 114 l56 0 l0 -164 l-487 0 ZM305 666 q-59 0 -97.5 35.5 q-38.5 35.5 -43.5 101.5 l47 0 q8 -87 94 -87 q39 0 64.5 21.5 q25.5 21.5 29.5 65.5 l47 0 q-5 -66 -44 -101.5 q-39 -35.5 -97 -35.5 Z" /><glyph glyph-name="ebreve" unicode="&#x115;" d="M249 -11 q-100 0 -155 60.5 q-55 60.5 -55 160.5 q0 101 53.5 163 q53.5 62 142.5 62 q91 0 137 -63 q46 -63 46 -146 q0 -19 -2 -28 l-319 0 q3 -76 44 -119 q41 -43 113 -43 q74 0 143 43 l0 -50 q-70 -40 -148 -40 ZM235 389 q-59 0 -95 -40.5 q-36 -40.5 -42 -106.5 l264 0 q-3 62 -34 104.5 q-31 42.5 -93 42.5 ZM323 545.5 q-37 -33.5 -93 -33.5 q-56 0 -93 33.5 q-37 33.5 -42 96.5 l46 0 q7 -81 89 -81 q82 0 89 81 l46 0 q-5 -63 -42 -96.5 Z" /><glyph glyph-name="Edotaccent" unicode="&#x116;" d="M36 0 l0 50 l97 0 l0 509 l-97 0 l0 50 l485 0 l0 -164 l-56 0 l0 114 l-272 0 l0 -227 l275 0 l0 -50 l-275 0 l0 -232 l274 0 l0 114 l56 0 l0 -164 l-487 0 ZM338 684 q-13 -13 -32 -13 q-19 0 -32 13 q-13 13 -13 32 q0 19 13 32 q13 13 32 13 q19 0 32 -13 q13 -13 13 -32 q0 -19 -13 -32 Z" /><glyph glyph-name="edotaccent" unicode="&#x117;" d="M249 -11 q-100 0 -155 60.5 q-55 60.5 -55 160.5 q0 101 53.5 163 q53.5 62 142.5 62 q91 0 137 -63 q46 -63 46 -146 q0 -19 -2 -28 l-319 0 q3 -76 44 -119 q41 -43 113 -43 q74 0 143 43 l0 -50 q-70 -40 -148 -40 ZM235 389 q-59 0 -95 -40.5 q-36 -40.5 -42 -106.5 l264 0 q-3 62 -34 104.5 q-31 42.5 -93 42.5 ZM230 518 q-19 0 -31.5 13 q-12.5 13 -12.5 31 q0 18 12.5 31 q12.5 13 31.5 13 q18 0 31 -13 q13 -13 13 -31 q0 -18 -13 -31 q-13 -13 -31 -13 Z" /><glyph glyph-name="Eogonek" unicode="&#x118;" d="M36 0 l0 50 l97 0 l0 509 l-97 0 l0 50 l485 0 l0 -164 l-56 0 l0 114 l-272 0 l0 -227 l275 0 l0 -50 l-275 0 l0 -232 l274 0 l0 114 l56 0 l0 -164 l-28 0 q-75 -54 -75 -112 q0 -47 54 -47 q31 0 63 15 l4 -38 q-38 -18 -81 -18 q-42 0 -68.5 19.5 q-26.5 19.5 -26.5 59.5 q0 66 77 121 l-406 0 Z" /><glyph glyph-name="eogonek" unicode="&#x119;" d="M409 -176 q-38 -17 -78 -17 q-40 0 -65 19 q-25 19 -25 57 q0 60 63 112 q-26 -6 -55 -6 q-100 0 -155 60.5 q-55 60.5 -55 160.5 q0 101 53.5 163 q53.5 62 142.5 62 q91 0 137 -63 q46 -63 46 -146 q0 -19 -2 -28 l-319 0 q3 -76 44 -119 q41 -43 113 -43 q74 0 143 43 l0 -50 q-42 -25 -72.5 -61 q-30.5 -36 -30.5 -75 q0 -46 51 -46 q32 0 60 14 l4 -37 ZM235 389 q-59 0 -95 -40.5 q-36 -40.5 -42 -106.5 l264 0 q-3 62 -34 104.5 q-31 42.5 -93 42.5 Z" /><glyph glyph-name="Ecaron" unicode="&#x11a;" d="M36 0 l0 50 l97 0 l0 509 l-97 0 l0 50 l485 0 l0 -164 l-56 0 l0 114 l-272 0 l0 -227 l275 0 l0 -50 l-275 0 l0 -232 l274 0 l0 114 l56 0 l0 -164 l-487 0 ZM289 676 l-140 135 l17 20 l142 -94 l143 94 l17 -20 l-141 -135 l-38 0 Z" /><glyph glyph-name="ecaron" unicode="&#x11b;" d="M249 -11 q-100 0 -155 60.5 q-55 60.5 -55 160.5 q0 101 53.5 163 q53.5 62 142.5 62 q91 0 137 -63 q46 -63 46 -146 q0 -19 -2 -28 l-319 0 q3 -76 44 -119 q41 -43 113 -43 q74 0 143 43 l0 -50 q-70 -40 -148 -40 ZM235 389 q-59 0 -95 -40.5 q-36 -40.5 -42 -106.5 l264 0 q-3 62 -34 104.5 q-31 42.5 -93 42.5 ZM212 511 l-134 128 l16 19 l136 -88 l135 88 l17 -19 l-134 -128 l-36 0 Z" /><glyph glyph-name="Gcircumflex" unicode="&#x11c;" d="M369 -12 q-152 0 -238.5 86 q-86.5 86 -86.5 228 q0 141 86.5 230 q86.5 89 240.5 89 q113 0 223 -46 l0 -137 l-57 0 l0 104 q-88 28 -164 28 q-125 0 -197 -73 q-72 -73 -72 -194 q0 -119 68.5 -191.5 q68.5 -72.5 195.5 -72.5 q84 0 176 37 l0 187 l-157 0 l0 49 l276 0 l0 -49 l-63 0 l0 -219 q-114 -56 -231 -56 ZM217 674 l-17 21 l140 134 l38 0 l141 -134 l-17 -21 l-143 94 l-142 -94 Z" /><glyph glyph-name="gcircumflex" unicode="&#x11d;" d="M364.5 -175.5 q-54.5 -34.5 -151.5 -34.5 q-97 0 -144.5 33.5 q-47.5 33.5 -47.5 87.5 q0 69 75 114 q-35 18 -35 52 q0 41 50 76 q-63 43 -63 126 q0 63 43 109.5 q43 46.5 125 46.5 q38 0 69 -11 l159 0 l0 -47 l-99 2 q39 -39 39 -100 q0 -63 -43 -109 q-43 -46 -125 -46 q-43 0 -73 12 q-30 -21 -30 -42 q0 -20 31.5 -30 q31.5 -10 76.5 -15.5 q45 -5.5 90 -15 q45 -9.5 76.5 -37 q31.5 -27.5 31.5 -74.5 q0 -63 -54.5 -97.5 ZM216 390 q-54 0 -84 -32 q-30 -32 -30 -79 q0 -47 30 -79 q30 -32 84 -32 q55 0 84.5 32 q29.5 32 29.5 79 q0 47 -29.5 79 q-29.5 32 -84.5 32 ZM212 -165 q70 0 110 23.5 q40 23.5 40 61.5 q0 23 -14 38 q-14 15 -40 23 q-26 8 -51.5 12 q-25.5 4 -61.5 8.5 q-36 4.5 -57 9.5 q-65 -36 -65 -92 q0 -39 35.5 -61.5 q35.5 -22.5 103.5 -22.5 ZM80 505 l-16 20 l134 127 l36 0 l134 -127 l-16 -20 l-136 89 l-136 -89 Z" /><glyph glyph-name="Gbreve" unicode="&#x11e;" d="M369 -12 q-152 0 -238.5 86 q-86.5 86 -86.5 228 q0 141 86.5 230 q86.5 89 240.5 89 q113 0 223 -46 l0 -137 l-57 0 l0 104 q-88 28 -164 28 q-125 0 -197 -73 q-72 -73 -72 -194 q0 -119 68.5 -191.5 q68.5 -72.5 195.5 -72.5 q84 0 176 37 l0 187 l-157 0 l0 49 l276 0 l0 -49 l-63 0 l0 -219 q-114 -56 -231 -56 ZM359 670 q-58 0 -97 35.5 q-39 35.5 -43 101.5 l46 0 q10 -87 94 -87 q39 0 64.5 21.5 q25.5 21.5 29.5 65.5 l47 0 q-4 -66 -43 -101.5 q-39 -35.5 -98 -35.5 Z" /><glyph glyph-name="gbreve" unicode="&#x11f;" d="M364.5 -175.5 q-54.5 -34.5 -151.5 -34.5 q-97 0 -144.5 33.5 q-47.5 33.5 -47.5 87.5 q0 69 75 114 q-35 18 -35 52 q0 41 50 76 q-63 43 -63 126 q0 63 43 109.5 q43 46.5 125 46.5 q38 0 69 -11 l159 0 l0 -47 l-99 2 q39 -39 39 -100 q0 -63 -43 -109 q-43 -46 -125 -46 q-43 0 -73 12 q-30 -21 -30 -42 q0 -20 31.5 -30 q31.5 -10 76.5 -15.5 q45 -5.5 90 -15 q45 -9.5 76.5 -37 q31.5 -27.5 31.5 -74.5 q0 -63 -54.5 -97.5 ZM216 390 q-54 0 -84 -32 q-30 -32 -30 -79 q0 -47 30 -79 q30 -32 84 -32 q55 0 84.5 32 q29.5 32 29.5 79 q0 47 -29.5 79 q-29.5 32 -84.5 32 ZM212 -165 q70 0 110 23.5 q40 23.5 40 61.5 q0 23 -14 38 q-14 15 -40 23 q-26 8 -51.5 12 q-25.5 4 -61.5 8.5 q-36 4.5 -57 9.5 q-65 -36 -65 -92 q0 -39 35.5 -61.5 q35.5 -22.5 103.5 -22.5 ZM308.5 545.5 q-36.5 -33.5 -92.5 -33.5 q-56 0 -93 33.5 q-37 33.5 -42 96.5 l45 0 q8 -81 90 -81 q81 0 89 81 l45 0 q-5 -63 -41.5 -96.5 Z" /><glyph glyph-name="Gdotaccent" unicode="&#x120;" d="M369 -12 q-152 0 -238.5 86 q-86.5 86 -86.5 228 q0 141 86.5 230 q86.5 89 240.5 89 q113 0 223 -46 l0 -137 l-57 0 l0 104 q-88 28 -164 28 q-125 0 -197 -73 q-72 -73 -72 -194 q0 -119 68.5 -191.5 q68.5 -72.5 195.5 -72.5 q84 0 176 37 l0 187 l-157 0 l0 49 l276 0 l0 -49 l-63 0 l0 -219 q-114 -56 -231 -56 ZM364 677 q-19 0 -32 13.5 q-13 13.5 -13 31.5 q0 19 13 32 q13 13 32 13 q19 0 31.5 -13 q12.5 -13 12.5 -32 q0 -18 -13 -31.5 q-13 -13.5 -31 -13.5 Z" /><glyph glyph-name="gdotaccent" unicode="&#x121;" d="M364.5 -175.5 q-54.5 -34.5 -151.5 -34.5 q-97 0 -144.5 33.5 q-47.5 33.5 -47.5 87.5 q0 69 75 114 q-35 18 -35 52 q0 41 50 76 q-63 43 -63 126 q0 63 43 109.5 q43 46.5 125 46.5 q38 0 69 -11 l159 0 l0 -47 l-99 2 q39 -39 39 -100 q0 -63 -43 -109 q-43 -46 -125 -46 q-43 0 -73 12 q-30 -21 -30 -42 q0 -20 31.5 -30 q31.5 -10 76.5 -15.5 q45 -5.5 90 -15 q45 -9.5 76.5 -37 q31.5 -27.5 31.5 -74.5 q0 -63 -54.5 -97.5 ZM216 390 q-54 0 -84 -32 q-30 -32 -30 -79 q0 -47 30 -79 q30 -32 84 -32 q55 0 84.5 32 q29.5 32 29.5 79 q0 47 -29.5 79 q-29.5 32 -84.5 32 ZM212 -165 q70 0 110 23.5 q40 23.5 40 61.5 q0 23 -14 38 q-14 15 -40 23 q-26 8 -51.5 12 q-25.5 4 -61.5 8.5 q-36 4.5 -57 9.5 q-65 -36 -65 -92 q0 -39 35.5 -61.5 q35.5 -22.5 103.5 -22.5 ZM216 518 q-19 0 -32 13 q-13 13 -13 31 q0 18 13 31 q13 13 32 13 q18 0 31 -13 q13 -13 13 -31 q0 -18 -13 -31 q-13 -13 -31 -13 Z" /><glyph glyph-name="Gcommaaccent" unicode="&#x122;" d="M360 -78 q21 0 34.5 -15 q13.5 -15 13.5 -42 q0 -33 -19.5 -70 q-19.5 -37 -52.5 -66 l-28 22 q45 54 45 98 q0 41 -34 51 l0 7 q17 15 41 15 ZM369 -12 q-152 0 -238.5 86 q-86.5 86 -86.5 228 q0 141 86.5 230 q86.5 89 240.5 89 q113 0 223 -46 l0 -137 l-57 0 l0 104 q-88 28 -164 28 q-125 0 -197 -73 q-72 -73 -72 -194 q0 -119 68.5 -191.5 q68.5 -72.5 195.5 -72.5 q84 0 176 37 l0 187 l-157 0 l0 49 l276 0 l0 -49 l-63 0 l0 -219 q-114 -56 -231 -56 Z" /><glyph glyph-name="gcommaaccent" unicode="&#x123;" d="M216 504 q-21 0 -34.5 15 q-13.5 15 -13.5 43 q0 32 19.5 69.5 q19.5 37.5 52.5 66.5 l28 -22 q-45 -54 -45 -99 q0 -42 34 -50 l0 -8 q-19 -15 -41 -15 ZM364.5 -175.5 q-54.5 -34.5 -151.5 -34.5 q-97 0 -144.5 33.5 q-47.5 33.5 -47.5 87.5 q0 69 75 114 q-35 18 -35 52 q0 41 50 76 q-63 43 -63 126 q0 63 43 109.5 q43 46.5 125 46.5 q38 0 69 -11 l159 0 l0 -47 l-99 2 q39 -39 39 -100 q0 -63 -43 -109 q-43 -46 -125 -46 q-43 0 -73 12 q-30 -21 -30 -42 q0 -20 31.5 -30 q31.5 -10 76.5 -15.5 q45 -5.5 90 -15 q45 -9.5 76.5 -37 q31.5 -27.5 31.5 -74.5 q0 -63 -54.5 -97.5 ZM216 390 q-54 0 -84 -32 q-30 -32 -30 -79 q0 -47 30 -79 q30 -32 84 -32 q55 0 84.5 32 q29.5 32 29.5 79 q0 47 -29.5 79 q-29.5 32 -84.5 32 ZM212 -165 q70 0 110 23.5 q40 23.5 40 61.5 q0 23 -14 38 q-14 15 -40 23 q-26 8 -51.5 12 q-25.5 4 -61.5 8.5 q-36 4.5 -57 9.5 q-65 -36 -65 -92 q0 -39 35.5 -61.5 q35.5 -22.5 103.5 -22.5 Z" /><glyph glyph-name="Hcircumflex" unicode="&#x124;" d="M36 0 l0 50 l97 0 l0 509 l-97 0 l0 50 l254 0 l0 -50 l-97 0 l0 -226 l364 0 l0 226 l-97 0 l0 50 l254 0 l0 -50 l-97 0 l0 -509 l97 0 l0 -50 l-254 0 l0 50 l97 0 l0 231 l-364 0 l0 -231 l97 0 l0 -50 l-254 0 ZM233 671 l-17 21 l140 134 l38 0 l141 -134 l-17 -21 l-143 94 l-142 -94 Z" /><glyph glyph-name="hcircumflex" unicode="&#x125;" d="M17 0 l0 47 l79 0 l0 613 l-79 0 l0 47 l137 0 l0 -348 q81 76 169 76 q58 0 91 -35.5 q33 -35.5 33 -102.5 l0 -250 l79 0 l0 -47 l-216 0 l0 47 l79 0 l0 243 q0 96 -81 96 q-72 0 -154 -74 l0 -265 l79 0 l0 -47 l-216 0 ZM-25 767 l-17 20 l134 128 l36 0 l134 -128 l-16 -20 l-136 89 l-135 -89 Z" /><glyph glyph-name="Hbar" unicode="&#x126;" d="M48 430 l0 38 l86 0 l0 91 l-97 0 l0 50 l254 0 l0 -50 l-97 0 l0 -91 l364 0 l0 91 l-97 0 l0 50 l253 0 l0 -50 l-96 0 l0 -91 l85 0 l0 -38 l-85 0 l0 -380 l96 0 l0 -50 l-253 0 l0 50 l97 0 l0 231 l-364 0 l0 -231 l97 0 l0 -50 l-254 0 l0 50 l97 0 l0 380 l-86 0 ZM194 333 l364 0 l0 99 l-364 0 l0 -99 Z" /><glyph glyph-name="hbar" unicode="&#x127;" d="M22 520 l0 43 l74 0 l0 97 l-79 0 l0 47 l137 0 l0 -144 l141 0 l0 -43 l-141 0 l0 -161 q81 76 169 76 q58 0 91 -35.5 q33 -35.5 33 -102.5 l0 -250 l79 0 l0 -47 l-216 0 l0 47 l79 0 l0 243 q0 96 -81 96 q-72 0 -154 -74 l0 -265 l79 0 l0 -47 l-216 0 l0 47 l79 0 l0 473 l-74 0 Z" /><glyph glyph-name="Itilde" unicode="&#x128;" d="M36 0 l0 50 l97 0 l0 509 l-97 0 l0 50 l254 0 l0 -50 l-97 0 l0 -509 l97 0 l0 -50 l-254 0 ZM20 673 l-26 13 q10 24 15 34.5 q5 10.5 17 29 q12 18.5 27.5 27 q15.5 8.5 34.5 8.5 q28 0 76 -28 q48 -28 71 -28 q37 0 66 60 l27 -14 q-13 -30 -21.5 -46 q-8.5 -16 -29.5 -34.5 q-21 -18.5 -46 -18.5 q-28 0 -76.5 28 q-48.5 28 -68.5 28 q-36 0 -66 -59 Z" /><glyph glyph-name="itilde" unicode="&#x129;" d="M-12 515 l-27 13 q9 20 15 31.5 q6 11.5 17.5 28 q11.5 16.5 26 24.5 q14.5 8 32.5 8 q27 0 72.5 -27.5 q45.5 -27.5 67.5 -27.5 q33 0 62 56 l26 -14 q-9 -20 -15 -31.5 q-6 -11.5 -18 -28 q-12 -16.5 -27 -25 q-15 -8.5 -33 -8.5 q-27 0 -72 28 q-45 28 -65 28 q-34 0 -62 -55 ZM30 0 l0 47 l79 0 l0 329 l-79 0 l0 48 l137 0 l0 -377 l79 0 l0 -47 l-216 0 Z" /><glyph glyph-name="Imacron" unicode="&#x12a;" d="M36 0 l0 50 l97 0 l0 509 l-97 0 l0 50 l254 0 l0 -50 l-97 0 l0 -509 l97 0 l0 -50 l-254 0 ZM35 679 l0 47 l257 0 l0 -47 l-257 0 Z" /><glyph glyph-name="imacron" unicode="&#x12b;" d="M-7 527 l0 46 l257 0 l0 -46 l-257 0 ZM30 0 l0 47 l79 0 l0 329 l-79 0 l0 48 l137 0 l0 -377 l79 0 l0 -47 l-216 0 Z" /><glyph glyph-name="Ibreve" unicode="&#x12c;" d="M36 0 l0 50 l97 0 l0 509 l-97 0 l0 50 l254 0 l0 -50 l-97 0 l0 -509 l97 0 l0 -50 l-254 0 ZM163 666 q-59 0 -97.5 35.5 q-38.5 35.5 -43.5 101.5 l47 0 q8 -87 94 -87 q39 0 64.5 21.5 q25.5 21.5 29.5 65.5 l47 0 q-5 -66 -44 -101.5 q-39 -35.5 -97 -35.5 Z" /><glyph glyph-name="ibreve" unicode="&#x12d;" d="M216 545.5 q-37 -33.5 -93 -33.5 q-56 0 -93 33.5 q-37 33.5 -42 96.5 l46 0 q7 -81 89 -81 q82 0 89 81 l46 0 q-5 -63 -42 -96.5 ZM30 0 l0 47 l79 0 l0 329 l-79 0 l0 48 l137 0 l0 -377 l79 0 l0 -47 l-216 0 Z" /><glyph glyph-name="Iogonek" unicode="&#x12e;" d="M36 0 l0 50 l97 0 l0 509 l-97 0 l0 50 l254 0 l0 -50 l-97 0 l0 -509 l97 0 l0 -50 l-76 0 q-75 -54 -75 -112 q0 -47 55 -47 q30 0 62 15 l4 -38 q-38 -18 -81 -18 q-42 0 -68.5 19.5 q-26.5 19.5 -26.5 59.5 q0 67 78 121 l-126 0 Z" /><glyph glyph-name="iogonek" unicode="&#x12f;" d="M30 0 l0 47 l79 0 l0 329 l-79 0 l0 48 l137 0 l0 -377 l79 0 l0 -47 l-62 0 q-75 -54 -75 -109 q0 -44 51 -44 q32 0 60 14 l4 -37 q-38 -17 -78 -17 q-40 0 -65 18.5 q-25 18.5 -25 56.5 q0 66 77 118 l-103 0 ZM98.5 547 q-13.5 14 -13.5 33 q0 19 13.5 32.5 q13.5 13.5 32.5 13.5 q19 0 33 -13.5 q14 -13.5 14 -32.5 q0 -20 -14 -33.5 q-14 -13.5 -33 -13.5 q-19 0 -32.5 14 Z" /><glyph glyph-name="Idotaccent" unicode="&#x130;" d="M36 0 l0 50 l97 0 l0 509 l-97 0 l0 50 l254 0 l0 -50 l-97 0 l0 -509 l97 0 l0 -50 l-254 0 ZM195 684 q-13 -13 -32 -13 q-19 0 -32 13 q-13 13 -13 32 q0 19 13 32 q13 13 32 13 q19 0 32 -13 q13 -13 13 -32 q0 -19 -13 -32 Z" /><glyph glyph-name="dotlessi" unicode="&#x131;" d="M30 0 l0 47 l79 0 l0 329 l-79 0 l0 48 l137 0 l0 -377 l79 0 l0 -47 l-216 0 Z" /><glyph glyph-name="Jcircumflex" unicode="&#x134;" d="M46 -166 l-22 42 q98 51 98 129 l0 554 l-94 0 l0 50 l247 0 l0 -50 l-93 0 l0 -556 q0 -46 -22 -81.5 q-22 -35.5 -48 -52.5 q-26 -17 -66 -35 ZM8 671 l-17 21 l140 134 l38 0 l141 -134 l-17 -21 l-143 94 l-142 -94 Z" /><glyph glyph-name="jcircumflex" unicode="&#x135;" d="M32 -218 l-19 38 q84 46 84 112 l0 444 l-83 0 l0 48 l141 0 l0 -494 q0 -101 -123 -148 ZM-26 505 l-17 20 l134 127 l36 0 l134 -127 l-16 -20 l-136 89 l-135 -89 Z" /><glyph glyph-name="Kcommaaccent" unicode="&#x136;" d="M374 -73 q21 0 34 -15 q13 -15 13 -43 q0 -71 -71 -136 l-28 22 q44 53 44 99 q0 42 -33 50 l0 8 q19 15 41 15 ZM517 0 l-272 305 l0 6 l243 249 l-92 0 l0 49 l246 0 l0 -50 l-84 0 l-240 -249 l235 -260 l96 0 l0 -50 l-132 0 ZM36 0 l0 50 l97 0 l0 509 l-97 0 l0 50 l253 0 l0 -50 l-96 0 l0 -509 l100 0 l0 -50 l-257 0 Z" /><glyph glyph-name="kcommaaccent" unicode="&#x137;" d="M281 -73 q20 0 33.5 -15 q13.5 -15 13.5 -43 q0 -71 -71 -136 l-28 22 q44 55 44 99 q0 42 -34 50 l0 8 q21 15 42 15 ZM17 0 l0 47 l79 0 l0 613 l-79 0 l0 47 l137 0 l0 -660 l77 0 l0 -47 l-214 0 ZM441 -11 q-67 0 -136 84 l-112 137 l0 3 l161 165 l-77 0 l0 46 l205 0 l0 -47 l-64 0 l-158 -164 l91 -109 q53 -67 102 -67 q15 0 26 5 l0 -46 q-21 -7 -38 -7 Z" /><glyph glyph-name="kgreenlandic" unicode="&#x138;" d="M30 0 l0 47 l79 0 l0 329 l-79 0 l0 48 l137 0 l0 -377 l78 0 l0 -47 l-215 0 ZM454 -11 q-67 0 -136 84 l-111 137 l0 3 l160 165 l-77 0 l0 46 l206 0 l0 -47 l-65 0 l-158 -164 l91 -109 q55 -67 103 -67 q13 0 26 5 l0 -46 q-23 -7 -39 -7 Z" /><glyph glyph-name="Lacute" unicode="&#x139;" d="M36 0 l0 50 l97 0 l0 509 l-97 0 l0 50 l265 0 l0 -50 l-108 0 l0 -509 l276 0 l0 120 l56 0 l0 -170 l-489 0 ZM125 671 l-19 24 l164 156 l41 -52 l-186 -128 Z" /><glyph glyph-name="lacute" unicode="&#x13a;" d="M17 0 l0 47 l79 0 l0 612 l-79 0 l0 48 l137 0 l0 -660 l79 0 l0 -47 l-216 0 ZM54 771 l-19 24 l155 148 l40 -50 l-176 -122 Z" /><glyph glyph-name="Lcommaaccent" unicode="&#x13b;" d="M313 -73 q20 0 33.5 -15 q13.5 -15 13.5 -43 q0 -71 -71 -136 l-28 22 q44 55 44 99 q0 42 -34 50 l0 8 q21 15 42 15 ZM36 0 l0 50 l97 0 l0 509 l-97 0 l0 50 l265 0 l0 -50 l-108 0 l0 -509 l276 0 l0 120 l56 0 l0 -170 l-489 0 Z" /><glyph glyph-name="lcommaaccent" unicode="&#x13c;" d="M123 -73 q21 0 34.5 -15 q13.5 -15 13.5 -43 q0 -32 -19.5 -69 q-19.5 -37 -52.5 -67 l-28 22 q44 53 44 99 q0 42 -33 50 l0 8 q19 15 41 15 ZM17 0 l0 47 l79 0 l0 612 l-79 0 l0 48 l137 0 l0 -660 l79 0 l0 -47 l-216 0 Z" /><glyph glyph-name="Lcaron" unicode="&#x13d;" d="M414 615 q21 0 34.5 -15 q13.5 -15 13.5 -42 q0 -33 -19.5 -70 q-19.5 -37 -51.5 -66 l-29 21 q45 55 45 99 q0 41 -34 51 l0 7 q17 15 41 15 ZM36 0 l0 50 l97 0 l0 509 l-97 0 l0 50 l265 0 l0 -50 l-108 0 l0 -509 l276 0 l0 120 l56 0 l0 -170 l-489 0 Z" /><glyph glyph-name="lcaron" unicode="&#x13e;" d="M254 713 q21 0 34.5 -15 q13.5 -15 13.5 -42 q0 -33 -19.5 -70 q-19.5 -37 -52.5 -66 l-28 21 q45 55 45 99 q0 41 -34 51 l0 7 q17 15 41 15 ZM17 0 l0 47 l79 0 l0 612 l-79 0 l0 48 l137 0 l0 -660 l79 0 l0 -47 l-216 0 Z" /><glyph glyph-name="Ldot" unicode="&#x13f;" d="M36 0 l0 50 l97 0 l0 509 l-97 0 l0 50 l265 0 l0 -50 l-108 0 l0 -509 l276 0 l0 120 l56 0 l0 -170 l-489 0 ZM454 306 q-13 -13 -32 -13 q-19 0 -31.5 13 q-12.5 13 -12.5 32 q0 19 12.5 32 q12.5 13 31.5 13 q19 0 32 -13 q13 -13 13 -32 q0 -19 -13 -32 Z" /><glyph glyph-name="ldot" unicode="&#x140;" d="M17 0 l0 47 l79 0 l0 612 l-79 0 l0 48 l137 0 l0 -660 l79 0 l0 -47 l-216 0 ZM305 308 q-13 -13 -31 -13 q-18 0 -31 13 q-13 13 -13 31 q0 18 13 31 q13 13 31 13 q18 0 31 -13 q13 -13 13 -31 q0 -18 -13 -31 Z" /><glyph glyph-name="Lslash" unicode="&#x141;" d="M55 216 l-19 37 l98 55 l0 251 l-97 0 l0 50 l265 0 l0 -50 l-108 0 l0 -221 l179 100 l19 -37 l-198 -109 l0 -242 l276 0 l0 120 l56 0 l0 -170 l-489 0 l0 50 l97 0 l0 211 l-79 -45 Z" /><glyph glyph-name="lslash" unicode="&#x142;" d="M25 261 l-20 35 l97 54 l0 309 l-79 0 l0 48 l137 0 l0 -326 l98 55 l20 -35 l-118 -66 l0 -288 l79 0 l0 -47 l-216 0 l0 47 l79 0 l0 257 l-77 -43 Z" /><glyph glyph-name="Nacute" unicode="&#x143;" d="M36 0 l0 50 l97 0 l0 509 l-97 0 l0 50 l159 0 l367 -512 l0 462 l-97 0 l0 50 l250 0 l0 -50 l-97 0 l0 -559 l-54 0 l-374 521 l0 -471 l97 0 l0 -50 l-251 0 ZM323 671 l-20 24 l164 156 l41 -52 l-185 -128 Z" /><glyph glyph-name="nacute" unicode="&#x144;" d="M30 0 l0 47 l79 0 l0 329 l-79 0 l0 48 l136 0 l0 -66 q82 77 170 77 q58 0 91 -35.5 q33 -35.5 33 -102.5 l0 -250 l79 0 l0 -47 l-216 0 l0 47 l79 0 l0 243 q0 96 -81 96 q-72 0 -154 -74 l0 -265 l79 0 l0 -47 l-216 0 ZM216 506 l-20 24 l156 148 l39 -50 l-175 -122 Z" /><glyph glyph-name="Ncommaaccent" unicode="&#x145;" d="M394 -73 q20 0 33.5 -15 q13.5 -15 13.5 -43 q0 -71 -71 -136 l-28 22 q44 55 44 99 q0 42 -34 50 l0 8 q21 15 42 15 ZM36 0 l0 50 l97 0 l0 509 l-97 0 l0 50 l159 0 l367 -512 l0 462 l-97 0 l0 50 l250 0 l0 -50 l-97 0 l0 -559 l-54 0 l-374 521 l0 -471 l97 0 l0 -50 l-251 0 Z" /><glyph glyph-name="ncommaaccent" unicode="&#x146;" d="M286 -73 q21 0 34.5 -15 q13.5 -15 13.5 -43 q0 -32 -19.5 -69 q-19.5 -37 -52.5 -67 l-28 22 q45 54 45 99 q0 42 -34 50 l0 8 q19 15 41 15 ZM30 0 l0 47 l79 0 l0 329 l-79 0 l0 48 l136 0 l0 -66 q82 77 170 77 q58 0 91 -35.5 q33 -35.5 33 -102.5 l0 -250 l79 0 l0 -47 l-216 0 l0 47 l79 0 l0 243 q0 96 -81 96 q-72 0 -154 -74 l0 -265 l79 0 l0 -47 l-216 0 Z" /><glyph glyph-name="Ncaron" unicode="&#x147;" d="M36 0 l0 50 l97 0 l0 509 l-97 0 l0 50 l159 0 l367 -512 l0 462 l-97 0 l0 50 l250 0 l0 -50 l-97 0 l0 -559 l-54 0 l-374 521 l0 -471 l97 0 l0 -50 l-251 0 ZM352 676 l-141 135 l17 20 l143 -94 l142 94 l17 -20 l-141 -135 l-37 0 Z" /><glyph glyph-name="ncaron" unicode="&#x148;" d="M30 0 l0 47 l79 0 l0 329 l-79 0 l0 48 l136 0 l0 -66 q82 77 170 77 q58 0 91 -35.5 q33 -35.5 33 -102.5 l0 -250 l79 0 l0 -47 l-216 0 l0 47 l79 0 l0 243 q0 96 -81 96 q-72 0 -154 -74 l0 -265 l79 0 l0 -47 l-216 0 ZM259 511 l-134 128 l16 19 l136 -88 l135 88 l17 -19 l-134 -128 l-36 0 Z" /><glyph glyph-name="napostrophe" unicode="&#x149;" d="M97 680 q21 0 34.5 -15 q13.5 -15 13.5 -42 q0 -33 -19.5 -70 q-19.5 -37 -51.5 -66 l-29 22 q45 54 45 99 q0 40 -34 50 l0 7 q17 15 41 15 ZM30 0 l0 47 l79 0 l0 329 l-79 0 l0 48 l136 0 l0 -66 q82 77 170 77 q58 0 91 -35.5 q33 -35.5 33 -102.5 l0 -250 l79 0 l0 -47 l-216 0 l0 47 l79 0 l0 243 q0 96 -81 96 q-72 0 -154 -74 l0 -265 l79 0 l0 -47 l-216 0 Z" /><glyph glyph-name="Eng" unicode="&#x14a;" d="M483 -166 l-22 42 q97 51 97 129 l0 14 l-368 502 l0 -471 l97 0 l0 -50 l-251 0 l0 50 l97 0 l0 509 l-97 0 l0 50 l159 0 l367 -501 l0 451 l-97 0 l0 50 l250 0 l0 -50 l-97 0 l0 -556 q0 -67 -36.5 -104.5 q-36.5 -37.5 -98.5 -64.5 Z" /><glyph glyph-name="eng" unicode="&#x14b;" d="M338 -218 l-20 38 q84 46 84 112 l0 358 q0 96 -81 96 q-72 0 -154 -74 l0 -265 l79 0 l0 -47 l-216 0 l0 47 l79 0 l0 329 l-79 0 l0 48 l136 0 l0 -66 q82 77 170 77 q58 0 91 -35.5 q33 -35.5 33 -102.5 l0 -367 q0 -101 -122 -148 Z" /><glyph glyph-name="Omacron" unicode="&#x14c;" d="M353 -12 q-140 0 -225 89.5 q-85 89.5 -85 227.5 q0 137 85 226.5 q85 89.5 225 89.5 q138 0 223 -89.5 q85 -89.5 85 -226.5 q0 -138 -85 -227.5 q-85 -89.5 -223 -89.5 ZM353 39 q110 0 178.5 74 q68.5 74 68.5 192 q0 119 -68 191.5 q-68 72.5 -179 72.5 q-111 0 -179.5 -73 q-68.5 -73 -68.5 -191 q0 -120 68 -193 q68 -73 180 -73 ZM224 683 l0 47 l257 0 l0 -47 l-257 0 Z" /><glyph glyph-name="omacron" unicode="&#x14d;" d="M247 -11 q-92 0 -150 60 q-58 60 -58 163 q0 103 58 163 q58 60 150 60 q93 0 151 -60 q58 -60 58 -163 q0 -103 -58 -163 q-58 -60 -151 -60 ZM138 83.5 q40 -47.5 109 -47.5 q69 0 109 47.5 q40 47.5 40 128.5 q0 81 -40 128 q-40 47 -109 47 q-69 0 -109 -47.5 q-40 -47.5 -40 -127.5 q0 -81 40 -128.5 ZM119 527 l0 46 l257 0 l0 -46 l-257 0 Z" /><glyph glyph-name="Obreve" unicode="&#x14e;" d="M353 -12 q-140 0 -225 89.5 q-85 89.5 -85 227.5 q0 137 85 226.5 q85 89.5 225 89.5 q138 0 223 -89.5 q85 -89.5 85 -226.5 q0 -138 -85 -227.5 q-85 -89.5 -223 -89.5 ZM353 39 q110 0 178.5 74 q68.5 74 68.5 192 q0 119 -68 191.5 q-68 72.5 -179 72.5 q-111 0 -179.5 -73 q-68.5 -73 -68.5 -191 q0 -120 68 -193 q68 -73 180 -73 ZM352 670 q-59 0 -97.5 35.5 q-38.5 35.5 -43.5 101.5 l47 0 q8 -87 94 -87 q39 0 64.5 21.5 q25.5 21.5 29.5 65.5 l47 0 q-5 -66 -44 -101.5 q-39 -35.5 -97 -35.5 Z" /><glyph glyph-name="obreve" unicode="&#x14f;" d="M247 -11 q-92 0 -150 60 q-58 60 -58 163 q0 103 58 163 q58 60 150 60 q93 0 151 -60 q58 -60 58 -163 q0 -103 -58 -163 q-58 -60 -151 -60 ZM138 83.5 q40 -47.5 109 -47.5 q69 0 109 47.5 q40 47.5 40 128.5 q0 81 -40 128 q-40 47 -109 47 q-69 0 -109 -47.5 q-40 -47.5 -40 -127.5 q0 -81 40 -128.5 ZM340 545.5 q-37 -33.5 -93 -33.5 q-56 0 -93 33.5 q-37 33.5 -41 96.5 l45 0 q7 -81 89 -81 q82 0 89 81 l46 0 q-5 -63 -42 -96.5 Z" /><glyph glyph-name="Ohungarumlaut" unicode="&#x150;" d="M353 -12 q-140 0 -225 89.5 q-85 89.5 -85 227.5 q0 137 85 226.5 q85 89.5 225 89.5 q138 0 223 -89.5 q85 -89.5 85 -226.5 q0 -138 -85 -227.5 q-85 -89.5 -223 -89.5 ZM353 39 q110 0 178.5 74 q68.5 74 68.5 192 q0 119 -68 191.5 q-68 72.5 -179 72.5 q-111 0 -179.5 -73 q-68.5 -73 -68.5 -191 q0 -120 68 -193 q68 -73 180 -73 ZM243 676 l-22 18 l126 171 l44 -41 l-148 -148 ZM397 676 l-21 18 l125 171 l45 -41 l-149 -148 Z" /><glyph glyph-name="ohungarumlaut" unicode="&#x151;" d="M247 -11 q-92 0 -150 60 q-58 60 -58 163 q0 103 58 163 q58 60 150 60 q93 0 151 -60 q58 -60 58 -163 q0 -103 -58 -163 q-58 -60 -151 -60 ZM138 83.5 q40 -47.5 109 -47.5 q69 0 109 47.5 q40 47.5 40 128.5 q0 81 -40 128 q-40 47 -109 47 q-69 0 -109 -47.5 q-40 -47.5 -40 -127.5 q0 -81 40 -128.5 ZM142 506 l-21 18 l125 171 l45 -42 l-149 -147 ZM297 506 l-21 18 l125 171 l45 -42 l-149 -147 Z" /><glyph glyph-name="OE" unicode="&#x152;" d="M352 0 q-142 0 -224.5 83.5 q-82.5 83.5 -82.5 220.5 q0 137 82 221 q82 84 225 84 l455 0 l0 -162 l-56 0 l0 112 l-257 0 l0 -227 l261 0 l0 -50 l-261 0 l0 -232 l259 0 l0 113 l56 0 l0 -163 l-457 0 ZM352 51 l84 0 l0 507 l-84 0 q-113 0 -179 -67.5 q-66 -67.5 -66 -185.5 q0 -119 66 -186.5 q66 -67.5 179 -67.5 Z" /><glyph glyph-name="oe" unicode="&#x153;" d="M243 -11 q-90 0 -147 60 q-57 60 -57 163 q0 103 57 163 q57 60 148 60 q127 0 178 -117 q21 55 64.5 86 q43.5 31 103.5 31 q62 0 104.5 -33 q42.5 -33 59.5 -78.5 q17 -45.5 17 -97.5 q0 -19 -1 -28 l-318 0 q3 -76 43.5 -119 q40.5 -43 112.5 -43 q74 0 143 43 l0 -50 q-70 -40 -147 -40 q-138 0 -183 115 q-23 -55 -69.5 -85 q-46.5 -30 -108.5 -30 ZM137.5 83.5 q39.5 -47.5 108.5 -47.5 q69 0 108 47.5 q39 47.5 39 128.5 q0 81 -39 128 q-39 47 -108 47 q-69 0 -108.5 -47 q-39.5 -47 -39.5 -128 q0 -81 39.5 -128.5 ZM589 389 q-59 0 -95 -40.5 q-36 -40.5 -42 -106.5 l264 0 q-3 62 -34 104.5 q-31 42.5 -93 42.5 Z" /><glyph glyph-name="Racute" unicode="&#x154;" d="M36 0 l0 50 l97 0 l0 509 l-97 0 l0 50 l277 0 q60 0 111 -16 q51 -16 88.5 -58.5 q37.5 -42.5 37.5 -106.5 q0 -67 -39 -110.5 q-39 -43.5 -107 -60.5 l114 -207 l93 0 l0 -50 l-132 0 l-133 244 q-12 -1 -34 -1 l-119 0 l0 -193 l97 0 l0 -50 l-254 0 ZM193 292 l121 0 q87 0 131 34.5 q44 34.5 44 98.5 q0 64 -44 99 q-44 35 -131 35 l-121 0 l0 -267 ZM248 671 l-19 24 l163 156 l42 -52 l-186 -128 Z" /><glyph glyph-name="racute" unicode="&#x155;" d="M30 0 l0 47 l79 0 l0 329 l-79 0 l0 48 l136 0 l0 -89 q67 100 162 100 l10 0 l0 -58 l-11 0 q-85 0 -160 -77 l0 -253 l88 0 l0 -47 l-225 0 ZM139 506 l-20 24 l156 148 l39 -50 l-175 -122 Z" /><glyph glyph-name="Rcommaaccent" unicode="&#x156;" d="M354 -73 q21 0 34.5 -15 q13.5 -15 13.5 -43 q0 -32 -19.5 -69 q-19.5 -37 -52.5 -67 l-28 22 q45 54 45 99 q0 42 -34 50 l0 8 q19 15 41 15 ZM36 0 l0 50 l97 0 l0 509 l-97 0 l0 50 l277 0 q60 0 111 -16 q51 -16 88.5 -58.5 q37.5 -42.5 37.5 -106.5 q0 -67 -39 -110.5 q-39 -43.5 -107 -60.5 l114 -207 l93 0 l0 -50 l-132 0 l-133 244 q-12 -1 -34 -1 l-119 0 l0 -193 l97 0 l0 -50 l-254 0 ZM193 292 l121 0 q87 0 131 34.5 q44 34.5 44 98.5 q0 64 -44 99 q-44 35 -131 35 l-121 0 l0 -267 Z" /><glyph glyph-name="rcommaaccent" unicode="&#x157;" d="M138 -73 q21 0 34.5 -15 q13.5 -15 13.5 -43 q0 -32 -19.5 -69 q-19.5 -37 -51.5 -67 l-29 22 q45 54 45 99 q0 42 -34 50 l0 8 q19 15 41 15 ZM30 0 l0 47 l79 0 l0 329 l-79 0 l0 48 l136 0 l0 -89 q67 100 162 100 l10 0 l0 -58 l-11 0 q-85 0 -160 -77 l0 -253 l88 0 l0 -47 l-225 0 Z" /><glyph glyph-name="Rcaron" unicode="&#x158;" d="M36 0 l0 50 l97 0 l0 509 l-97 0 l0 50 l277 0 q60 0 111 -16 q51 -16 88.5 -58.5 q37.5 -42.5 37.5 -106.5 q0 -67 -39 -110.5 q-39 -43.5 -107 -60.5 l114 -207 l93 0 l0 -50 l-132 0 l-133 244 q-12 -1 -34 -1 l-119 0 l0 -193 l97 0 l0 -50 l-254 0 ZM193 292 l121 0 q87 0 131 34.5 q44 34.5 44 98.5 q0 64 -44 99 q-44 35 -131 35 l-121 0 l0 -267 ZM289 676 l-140 135 l17 20 l142 -94 l143 94 l17 -20 l-141 -135 l-38 0 Z" /><glyph glyph-name="rcaron" unicode="&#x159;" d="M30 0 l0 47 l79 0 l0 329 l-79 0 l0 48 l136 0 l0 -89 q67 100 162 100 l10 0 l0 -58 l-11 0 q-85 0 -160 -77 l0 -253 l88 0 l0 -47 l-225 0 ZM175 511 l-133 128 l16 19 l135 -88 l136 88 l16 -19 l-134 -128 l-36 0 Z" /><glyph glyph-name="Sacute" unicode="&#x15a;" d="M250 -12 q-100 0 -202 31 l0 133 l55 0 l0 -94 q69 -20 144 -20 q77 0 119 28.5 q42 28.5 42 80.5 q0 47 -36 77 q-36 30 -87 47 q-51 17 -102 36 q-51 19 -87 57.5 q-36 38.5 -36 97.5 q0 74 53.5 116.5 q53.5 42.5 153.5 42.5 q85 0 178 -28 l0 -132 l-56 0 l0 94 q-58 15 -119 15 q-77 0 -114.5 -28.5 q-37.5 -28.5 -37.5 -75.5 q0 -44 36 -73 q36 -29 87 -46 q51 -17 102.5 -37 q51.5 -20 87.5 -60 q36 -40 36 -101 q0 -80 -58 -120.5 q-58 -40.5 -159 -40.5 ZM205 675 l-20 24 l164 156 l41 -52 l-185 -128 Z" /><glyph glyph-name="sacute" unicode="&#x15b;" d="M195 -11 q-77 0 -154 25 l0 104 l49 0 l0 -68 q54 -15 104 -15 q49 0 79.5 17 q30.5 17 30.5 52 q0 30 -26.5 49 q-26.5 19 -64 29.5 q-37.5 10.5 -74.5 23 q-37 12.5 -63.5 40.5 q-26.5 28 -26.5 71 q0 55 40.5 86.5 q40.5 31.5 115.5 31.5 q64 0 136 -22 l0 -104 l-50 0 l0 69 q-44 11 -86 11 q-49 0 -75 -18.5 q-26 -18.5 -26 -49.5 q0 -31 26.5 -49.5 q26.5 -18.5 63.5 -29 q37 -10.5 74.5 -23 q37.5 -12.5 64 -40.5 q26.5 -28 26.5 -72 q0 -56 -43 -87 q-43 -31 -121 -31 ZM145 506 l-19 24 l155 148 l40 -50 l-176 -122 Z" /><glyph glyph-name="Scircumflex" unicode="&#x15c;" d="M250 -12 q-100 0 -202 31 l0 133 l55 0 l0 -94 q69 -20 144 -20 q77 0 119 28.5 q42 28.5 42 80.5 q0 47 -36 77 q-36 30 -87 47 q-51 17 -102 36 q-51 19 -87 57.5 q-36 38.5 -36 97.5 q0 74 53.5 116.5 q53.5 42.5 153.5 42.5 q85 0 178 -28 l0 -132 l-56 0 l0 94 q-58 15 -119 15 q-77 0 -114.5 -28.5 q-37.5 -28.5 -37.5 -75.5 q0 -44 36 -73 q36 -29 87 -46 q51 -17 102.5 -37 q51.5 -20 87.5 -60 q36 -40 36 -101 q0 -80 -58 -120.5 q-58 -40.5 -159 -40.5 ZM122 674 l-17 21 l140 134 l38 0 l141 -134 l-17 -21 l-143 94 l-142 -94 Z" /><glyph glyph-name="scircumflex" unicode="&#x15d;" d="M195 -11 q-77 0 -154 25 l0 104 l49 0 l0 -68 q54 -15 104 -15 q49 0 79.5 17 q30.5 17 30.5 52 q0 30 -26.5 49 q-26.5 19 -64 29.5 q-37.5 10.5 -74.5 23 q-37 12.5 -63.5 40.5 q-26.5 28 -26.5 71 q0 55 40.5 86.5 q40.5 31.5 115.5 31.5 q64 0 136 -22 l0 -104 l-50 0 l0 69 q-44 11 -86 11 q-49 0 -75 -18.5 q-26 -18.5 -26 -49.5 q0 -31 26.5 -49.5 q26.5 -18.5 63.5 -29 q37 -10.5 74.5 -23 q37.5 -12.5 64 -40.5 q26.5 -28 26.5 -72 q0 -56 -43 -87 q-43 -31 -121 -31 ZM70 505 l-16 20 l133 127 l37 0 l134 -127 l-17 -20 l-135 89 l-136 -89 Z" /><glyph glyph-name="Scedilla" unicode="&#x15e;" d="M219 -193 q-28 0 -51 5 l9 37 q36 -3 41 -3 q74 0 74 42 q0 41 -83 41 l0 19 l20 40 q-99 5 -181 31 l0 133 l55 0 l0 -94 q69 -20 144 -20 q77 0 119 28.5 q42 28.5 42 80.5 q0 47 -36 77 q-36 30 -87 47 q-51 17 -102 36 q-51 19 -87 57.5 q-36 38.5 -36 97.5 q0 74 53.5 116.5 q53.5 42.5 153.5 42.5 q85 0 178 -28 l0 -132 l-56 0 l0 94 q-58 15 -119 15 q-77 0 -114.5 -28.5 q-37.5 -28.5 -37.5 -75.5 q0 -44 36 -73 q36 -29 87 -46 q51 -17 102.5 -37 q51.5 -20 87.5 -60 q36 -40 36 -101 q0 -75 -52.5 -116 q-52.5 -41 -144.5 -45 l-11 -28 q34 -3 59.5 -20.5 q25.5 -17.5 25.5 -52.5 q0 -41 -35.5 -60.5 q-35.5 -19.5 -89.5 -19.5 Z" /><glyph glyph-name="scedilla" unicode="&#x15f;" d="M160 -193 q-27 0 -52 5 l10 37 q36 -3 41 -3 q73 0 73 42 q0 41 -83 41 l0 19 l21 42 q-71 5 -129 24 l0 104 l49 0 l0 -68 q54 -15 104 -15 q49 0 79.5 17 q30.5 17 30.5 52 q0 30 -26.5 49 q-26.5 19 -64 29.5 q-37.5 10.5 -74.5 23 q-37 12.5 -63.5 40.5 q-26.5 28 -26.5 71 q0 55 40.5 86.5 q40.5 31.5 115.5 31.5 q64 0 136 -22 l0 -104 l-50 0 l0 69 q-44 11 -86 11 q-49 0 -75 -18.5 q-26 -18.5 -26 -49.5 q0 -31 26.5 -49.5 q26.5 -18.5 63.5 -29 q37 -10.5 74.5 -23 q37.5 -12.5 64 -40.5 q26.5 -28 26.5 -72 q0 -54 -39 -84 q-39 -30 -110 -34 l-11 -29 q35 -3 60.5 -20.5 q25.5 -17.5 25.5 -52.5 q0 -41 -35.5 -60.5 q-35.5 -19.5 -89.5 -19.5 Z" /><glyph glyph-name="Scaron" unicode="&#x160;" d="M250 -12 q-100 0 -202 31 l0 133 l55 0 l0 -94 q69 -20 144 -20 q77 0 119 28.5 q42 28.5 42 80.5 q0 47 -36 77 q-36 30 -87 47 q-51 17 -102 36 q-51 19 -87 57.5 q-36 38.5 -36 97.5 q0 74 53.5 116.5 q53.5 42.5 153.5 42.5 q85 0 178 -28 l0 -132 l-56 0 l0 94 q-58 15 -119 15 q-77 0 -114.5 -28.5 q-37.5 -28.5 -37.5 -75.5 q0 -44 36 -73 q36 -29 87 -46 q51 -17 102.5 -37 q51.5 -20 87.5 -60 q36 -40 36 -101 q0 -80 -58 -120.5 q-58 -40.5 -159 -40.5 ZM247 677 l-141 135 l17 20 l142 -94 l143 94 l17 -20 l-141 -135 l-37 0 Z" /><glyph glyph-name="scaron" unicode="&#x161;" d="M195 -11 q-77 0 -154 25 l0 104 l49 0 l0 -68 q54 -15 104 -15 q49 0 79.5 17 q30.5 17 30.5 52 q0 30 -26.5 49 q-26.5 19 -64 29.5 q-37.5 10.5 -74.5 23 q-37 12.5 -63.5 40.5 q-26.5 28 -26.5 71 q0 55 40.5 86.5 q40.5 31.5 115.5 31.5 q64 0 136 -22 l0 -104 l-50 0 l0 69 q-44 11 -86 11 q-49 0 -75 -18.5 q-26 -18.5 -26 -49.5 q0 -31 26.5 -49.5 q26.5 -18.5 63.5 -29 q37 -10.5 74.5 -23 q37.5 -12.5 64 -40.5 q26.5 -28 26.5 -72 q0 -56 -43 -87 q-43 -31 -121 -31 ZM186 511 l-134 128 l17 19 l135 -88 l136 88 l16 -19 l-134 -128 l-36 0 Z" /><glyph glyph-name="Tcommaaccent" unicode="&#x162;" d="M288 -73 q20 0 33.5 -15 q13.5 -15 13.5 -43 q0 -32 -19.5 -69 q-19.5 -37 -51.5 -67 l-28 22 q44 55 44 99 q0 42 -34 50 l0 8 q19 15 42 15 ZM156 0 l0 50 l103 0 l0 509 l-182 0 l0 -110 l-55 0 l0 160 l533 0 l0 -160 l-55 0 l0 110 l-181 0 l0 -509 l102 0 l0 -50 l-265 0 Z" /><glyph glyph-name="tcommaaccent" unicode="&#x163;" d="M187 -73 q21 0 34.5 -15 q13.5 -15 13.5 -43 q0 -32 -19.5 -69 q-19.5 -37 -51.5 -67 l-28 22 q44 55 44 99 q0 42 -34 50 l0 8 q19 15 41 15 ZM213 -11 q-121 0 -121 122 l0 265 l-74 0 l0 48 l74 0 l0 110 l58 0 l0 -110 l137 0 l0 -48 l-137 0 l0 -262 q0 -41 18.5 -59.5 q18.5 -18.5 58.5 -18.5 q37 0 65 11 l0 -45 q-38 -13 -79 -13 Z" /><glyph glyph-name="Tcaron" unicode="&#x164;" d="M156 0 l0 50 l103 0 l0 509 l-182 0 l0 -110 l-55 0 l0 160 l533 0 l0 -160 l-55 0 l0 110 l-181 0 l0 -509 l102 0 l0 -50 l-265 0 ZM270 676 l-141 135 l17 20 l143 -94 l142 94 l17 -20 l-141 -135 l-37 0 Z" /><glyph glyph-name="tcaron" unicode="&#x165;" d="M267 684 q21 0 34 -15 q13 -15 13 -43 q0 -33 -19 -70 q-19 -37 -52 -66 l-28 22 q44 53 44 99 q0 42 -33 50 l0 8 q19 15 41 15 ZM213 -11 q-121 0 -121 122 l0 265 l-74 0 l0 48 l74 0 l0 110 l58 0 l0 -110 l137 0 l0 -48 l-137 0 l0 -262 q0 -41 18.5 -59.5 q18.5 -18.5 58.5 -18.5 q37 0 65 11 l0 -45 q-38 -13 -79 -13 Z" /><glyph glyph-name="Tbar" unicode="&#x166;" d="M117 278 l0 44 l144 0 l0 237 l-181 0 l0 -110 l-55 0 l0 160 l533 0 l0 -160 l-56 0 l0 110 l-181 0 l0 -237 l144 0 l0 -44 l-144 0 l0 -228 l103 0 l0 -50 l-266 0 l0 50 l103 0 l0 228 l-144 0 Z" /><glyph glyph-name="tbar" unicode="&#x167;" d="M28 212 l0 43 l65 0 l0 121 l-73 0 l0 48 l73 0 l0 110 l58 0 l0 -110 l137 0 l0 -48 l-137 0 l0 -121 l120 0 l0 -43 l-120 0 l0 -98 q0 -41 18.5 -59.5 q18.5 -18.5 59.5 -18.5 q37 0 64 11 l0 -45 q-38 -13 -79 -13 q-121 0 -121 122 l0 101 l-65 0 Z" /><glyph glyph-name="Utilde" unicode="&#x168;" d="M515 43.5 q-62 -55.5 -166 -55.5 q-104 0 -168.5 54.5 q-64.5 54.5 -64.5 156.5 l0 360 l-97 0 l0 50 l254 0 l0 -50 l-97 0 l0 -356 q0 -82 49 -121.5 q49 -39.5 125 -39.5 q76 0 123 40 q47 40 47 121 l0 356 l-97 0 l0 50 l250 0 l0 -50 l-96 0 l0 -358 q0 -102 -62 -157.5 ZM209 673 l-26 13 q10 24 15 34.5 q5 10.5 17 29 q12 18.5 27.5 27 q15.5 8.5 34.5 8.5 q28 0 76 -28 q48 -28 71 -28 q37 0 66 60 l27 -14 q-13 -30 -21.5 -46 q-8.5 -16 -29.5 -34.5 q-21 -18.5 -46 -18.5 q-28 0 -76.5 28 q-48.5 28 -68.5 28 q-37 0 -66 -59 Z" /><glyph glyph-name="utilde" unicode="&#x169;" d="M215 -11 q-58 0 -91 35 q-33 35 -33 102 l0 250 l-80 0 l0 48 l137 0 l0 -290 q0 -97 81 -97 q71 0 155 74 l0 265 l-82 0 l0 48 l139 0 l0 -377 l80 0 l0 -47 l-136 0 l0 64 q-84 -75 -170 -75 ZM116 515 l-27 13 q12 27 20.5 43 q8.5 16 28 32.5 q19.5 16.5 43.5 16.5 q26 0 71.5 -27.5 q45.5 -27.5 67.5 -27.5 q33 0 62 56 l27 -14 q-10 -21 -16 -31.5 q-6 -10.5 -18 -28 q-12 -17.5 -26.5 -25.5 q-14.5 -8 -32.5 -8 q-27 0 -72.5 28 q-45.5 28 -65.5 28 q-34 0 -62 -55 Z" /><glyph glyph-name="Umacron" unicode="&#x16a;" d="M515 43.5 q-62 -55.5 -166 -55.5 q-104 0 -168.5 54.5 q-64.5 54.5 -64.5 156.5 l0 360 l-97 0 l0 50 l254 0 l0 -50 l-97 0 l0 -356 q0 -82 49 -121.5 q49 -39.5 125 -39.5 q76 0 123 40 q47 40 47 121 l0 356 l-97 0 l0 50 l250 0 l0 -50 l-96 0 l0 -358 q0 -102 -62 -157.5 ZM218 679 l0 47 l257 0 l0 -47 l-257 0 Z" /><glyph glyph-name="umacron" unicode="&#x16b;" d="M215 -11 q-58 0 -91 35 q-33 35 -33 102 l0 250 l-80 0 l0 48 l137 0 l0 -290 q0 -97 81 -97 q71 0 155 74 l0 265 l-82 0 l0 48 l139 0 l0 -377 l80 0 l0 -47 l-136 0 l0 64 q-84 -75 -170 -75 ZM114 527 l0 46 l256 0 l0 -46 l-256 0 Z" /><glyph glyph-name="Ubreve" unicode="&#x16c;" d="M515 43.5 q-62 -55.5 -166 -55.5 q-104 0 -168.5 54.5 q-64.5 54.5 -64.5 156.5 l0 360 l-97 0 l0 50 l254 0 l0 -50 l-97 0 l0 -356 q0 -82 49 -121.5 q49 -39.5 125 -39.5 q76 0 123 40 q47 40 47 121 l0 356 l-97 0 l0 50 l250 0 l0 -50 l-96 0 l0 -358 q0 -102 -62 -157.5 ZM348 666 q-58 0 -97 35.5 q-39 35.5 -43 101.5 l46 0 q10 -87 94 -87 q39 0 64.5 21.5 q25.5 21.5 29.5 65.5 l47 0 q-4 -66 -43 -101.5 q-39 -35.5 -98 -35.5 Z" /><glyph glyph-name="ubreve" unicode="&#x16d;" d="M215 -11 q-58 0 -91 35 q-33 35 -33 102 l0 250 l-80 0 l0 48 l137 0 l0 -290 q0 -97 81 -97 q71 0 155 74 l0 265 l-82 0 l0 48 l139 0 l0 -377 l80 0 l0 -47 l-136 0 l0 64 q-84 -75 -170 -75 ZM339 545.5 q-37 -33.5 -93 -33.5 q-56 0 -93 33.5 q-37 33.5 -41 96.5 l45 0 q8 -81 89 -81 q82 0 90 81 l45 0 q-5 -63 -42 -96.5 Z" /><glyph glyph-name="Uring" unicode="&#x16e;" d="M515 43.5 q-62 -55.5 -166 -55.5 q-104 0 -168.5 54.5 q-64.5 54.5 -64.5 156.5 l0 360 l-97 0 l0 50 l254 0 l0 -50 l-97 0 l0 -356 q0 -82 49 -121.5 q49 -39.5 125 -39.5 q76 0 123 40 q47 40 47 121 l0 356 l-97 0 l0 50 l250 0 l0 -50 l-96 0 l0 -358 q0 -102 -62 -157.5 ZM427.5 692.5 q-29.5 -29.5 -78.5 -29.5 q-49 0 -78 29.5 q-29 29.5 -29 72.5 q0 43 29 72.5 q29 29.5 78 29.5 q49 0 78.5 -29.5 q29.5 -29.5 29.5 -72.5 q0 -43 -29.5 -72.5 ZM304 718.5 q16 -19.5 45 -19.5 q29 0 45 19.5 q16 19.5 16 46.5 q0 27 -16 46.5 q-16 19.5 -45 19.5 q-29 0 -45 -19.5 q-16 -19.5 -16 -46.5 q0 -27 16 -46.5 Z" /><glyph glyph-name="uring" unicode="&#x16f;" d="M215 -11 q-58 0 -91 35 q-33 35 -33 102 l0 250 l-80 0 l0 48 l137 0 l0 -290 q0 -97 81 -97 q71 0 155 74 l0 265 l-82 0 l0 48 l139 0 l0 -377 l80 0 l0 -47 l-136 0 l0 64 q-84 -75 -170 -75 ZM325 532.5 q-29 -29.5 -78 -29.5 q-49 0 -78.5 29.5 q-29.5 29.5 -29.5 72.5 q0 43 29.5 72.5 q29.5 29.5 78.5 29.5 q49 0 78 -29.5 q29 -29.5 29 -72.5 q0 -43 -29 -72.5 ZM247 539 q28 0 44 19.5 q16 19.5 16 46.5 q0 27 -16 46.5 q-16 19.5 -44 19.5 q-29 0 -45 -19.5 q-16 -19.5 -16 -46.5 q0 -27 16 -46.5 q16 -19.5 45 -19.5 Z" /><glyph glyph-name="Uhungarumlaut" unicode="&#x170;" d="M515 43.5 q-62 -55.5 -166 -55.5 q-104 0 -168.5 54.5 q-64.5 54.5 -64.5 156.5 l0 360 l-97 0 l0 50 l254 0 l0 -50 l-97 0 l0 -356 q0 -82 49 -121.5 q49 -39.5 125 -39.5 q76 0 123 40 q47 40 47 121 l0 356 l-97 0 l0 50 l250 0 l0 -50 l-96 0 l0 -358 q0 -102 -62 -157.5 ZM246 673 l-21 18 l126 170 l44 -41 l-149 -147 ZM401 673 l-21 18 l125 170 l45 -41 l-149 -147 Z" /><glyph glyph-name="uhungarumlaut" unicode="&#x171;" d="M215 -11 q-58 0 -91 35 q-33 35 -33 102 l0 250 l-80 0 l0 48 l137 0 l0 -290 q0 -97 81 -97 q71 0 155 74 l0 265 l-82 0 l0 48 l139 0 l0 -377 l80 0 l0 -47 l-136 0 l0 64 q-84 -75 -170 -75 ZM140 506 l-21 18 l126 171 l44 -42 l-149 -147 ZM295 506 l-21 18 l125 171 l45 -42 l-149 -147 Z" /><glyph glyph-name="Uogonek" unicode="&#x172;" d="M422 -200 q-43 0 -69.5 19.5 q-26.5 19.5 -26.5 59.5 q0 62 66 112 q-20 -3 -44 -3 q-103 0 -167.5 55 q-64.5 55 -64.5 156 l0 360 l-97 0 l0 50 l254 0 l0 -50 l-97 0 l0 -356 q0 -82 49 -121.5 q49 -39.5 125 -39.5 q76 0 123 40 q47 40 47 121 l0 356 l-97 0 l0 50 l250 0 l0 -50 l-96 0 l0 -358 q0 -122 -97 -182 q-20 -13 -31.5 -21.5 q-11.5 -8.5 -29.5 -26 q-18 -17.5 -27.5 -37.5 q-9.5 -20 -9.5 -43 q0 -50 53 -50 q31 0 63 15 l4 -38 q-36 -18 -80 -18 Z" /><glyph glyph-name="uogonek" unicode="&#x173;" d="M458 -193 q-39 0 -64 18.5 q-25 18.5 -25 56.5 q0 67 76 118 l-60 0 l0 64 q-84 -75 -170 -75 q-58 0 -91 35 q-33 35 -33 102 l0 250 l-80 0 l0 48 l137 0 l0 -290 q0 -97 81 -97 q71 0 155 74 l0 265 l-82 0 l0 48 l139 0 l0 -377 l80 0 l0 -47 l-25 0 q-74 -53 -74 -109 q0 -44 50 -44 q32 0 60 14 l4 -37 q-38 -17 -78 -17 Z" /><glyph glyph-name="Wcircumflex" unicode="&#x174;" d="M260 0 l-182 559 l-83 0 l0 50 l245 0 l0 -50 l-102 0 l152 -480 l149 425 l-19 55 l-86 0 l0 50 l245 0 l0 -50 l-102 0 l165 -478 l152 478 l-102 0 l0 50 l245 0 l0 -50 l-84 0 l-182 -559 l-55 0 l-149 424 l-152 -424 l-55 0 ZM318 671 l-17 21 l141 134 l37 0 l141 -134 l-17 -21 l-143 94 l-142 -94 Z" /><glyph glyph-name="wcircumflex" unicode="&#x175;" d="M197 0 l-125 377 l-62 0 l0 47 l201 0 l0 -47 l-83 0 l94 -298 l119 345 l51 0 l119 -346 l94 299 l-83 0 l0 47 l199 0 l0 -47 l-64 0 l-122 -377 l-47 0 l-123 342 l-120 -342 l-48 0 ZM230 505 l-16 20 l134 127 l36 0 l134 -127 l-17 -20 l-135 89 l-136 -89 Z" /><glyph glyph-name="Ycircumflex" unicode="&#x176;" d="M186 0 l0 50 l98 0 l0 177 l-206 332 l-85 0 l0 50 l252 0 l0 -50 l-101 0 l170 -278 l170 278 l-100 0 l0 50 l249 0 l0 -50 l-85 0 l-204 -330 l0 -179 l98 0 l0 -50 l-256 0 ZM172 671 l-17 21 l141 134 l37 0 l141 -134 l-17 -21 l-143 94 l-142 -94 Z" /><glyph glyph-name="ycircumflex" unicode="&#x177;" d="M131 -210 q-47 0 -96 29 l17 42 q39 -24 73 -24 q62 0 88 67 l35 96 l-46 0 l-126 376 l-63 0 l0 48 l203 0 l0 -47 l-80 0 l117 -364 l134 364 l-80 0 l0 47 l201 0 l0 -48 l-63 0 l-183 -488 q-36 -98 -131 -98 ZM126 505 l-16 20 l133 127 l37 0 l134 -127 l-17 -20 l-135 89 l-136 -89 Z" /><glyph glyph-name="Ydieresis" unicode="&#x178;" d="M186 0 l0 50 l98 0 l0 177 l-206 332 l-85 0 l0 50 l252 0 l0 -50 l-101 0 l170 -278 l170 278 l-100 0 l0 50 l249 0 l0 -50 l-85 0 l-204 -330 l0 -179 l98 0 l0 -50 l-256 0 ZM259 689.5 q-12 -12.5 -29 -12.5 q-17 0 -29.5 12.5 q-12.5 12.5 -12.5 29.5 q0 18 12.5 30 q12.5 12 29.5 12 q17 0 29 -12 q12 -12 12 -30 q0 -17 -12 -29.5 ZM400 677 q-18 0 -30 12.5 q-12 12.5 -12 29.5 q0 18 12 30 q12 12 30 12 q17 0 29.5 -12 q12.5 -12 12.5 -30 q0 -17 -12.5 -29.5 q-12.5 -12.5 -29.5 -12.5 Z" /><glyph glyph-name="Zacute" unicode="&#x179;" d="M42 0 l0 50 l385 507 l-322 0 l0 -112 l-58 0 l0 164 l453 0 l0 -52 l-385 -506 l345 0 l0 120 l57 0 l0 -171 l-475 0 ZM217 671 l-19 24 l164 156 l41 -52 l-186 -128 Z" /><glyph glyph-name="zacute" unicode="&#x17a;" d="M40 0 l0 39 l264 341 l-211 0 l0 -83 l-51 0 l0 127 l333 0 l0 -38 l-265 -341 l221 0 l0 89 l50 0 l0 -134 l-341 0 ZM156 506 l-19 24 l155 148 l40 -50 l-176 -122 Z" /><glyph glyph-name="Zdotaccent" unicode="&#x17b;" d="M42 0 l0 50 l385 507 l-322 0 l0 -112 l-58 0 l0 164 l453 0 l0 -52 l-385 -506 l345 0 l0 120 l57 0 l0 -171 l-475 0 ZM310 684 q-13 -13 -32 -13 q-19 0 -32 13 q-13 13 -13 32 q0 19 13 32 q13 13 32 13 q19 0 32 -13 q13 -13 13 -32 q0 -19 -13 -32 Z" /><glyph glyph-name="zdotaccent" unicode="&#x17c;" d="M40 0 l0 39 l264 341 l-211 0 l0 -83 l-51 0 l0 127 l333 0 l0 -38 l-265 -341 l221 0 l0 89 l50 0 l0 -134 l-341 0 ZM242 531 q-13 -13 -31 -13 q-18 0 -31 13 q-13 13 -13 31 q0 18 13 31 q13 13 31 13 q18 0 31 -13 q13 -13 13 -31 q0 -18 -13 -31 Z" /><glyph glyph-name="Zcaron" unicode="&#x17d;" d="M42 0 l0 50 l385 507 l-322 0 l0 -112 l-58 0 l0 164 l453 0 l0 -52 l-385 -506 l345 0 l0 120 l57 0 l0 -171 l-475 0 ZM261 676 l-141 135 l17 20 l143 -94 l142 94 l17 -20 l-140 -135 l-38 0 Z" /><glyph glyph-name="zcaron" unicode="&#x17e;" d="M40 0 l0 39 l264 341 l-211 0 l0 -83 l-51 0 l0 127 l333 0 l0 -38 l-265 -341 l221 0 l0 89 l50 0 l0 -134 l-341 0 ZM193 511 l-134 128 l17 19 l135 -88 l136 88 l16 -19 l-134 -128 l-36 0 Z" /><glyph glyph-name="longs" unicode="&#x17f;" d="M34 0 l0 47 l81 0 l0 329 l-90 0 l0 48 l90 0 l0 158 q0 69 38 102.5 q38 33.5 106 33.5 q37 0 72 -8 l0 -45 q-36 6 -60 6 q-99 0 -99 -91 l0 -533 l97 0 l0 -47 l-235 0 Z" /><glyph glyph-name="AEacute" unicode="&#x1fc;" d="M-7 0 l0 51 l80 0 l343 508 l-79 0 l0 50 l528 0 l0 -162 l-56 0 l0 112 l-257 0 l0 -227 l261 0 l0 -50 l-261 0 l0 -232 l259 0 l0 112 l56 0 l0 -162 l-469 0 l0 50 l96 0 l0 152 l-254 0 l-102 -152 l84 0 l0 -50 l-229 0 ZM478 559 l-205 -307 l221 0 l0 307 l-16 0 ZM529 671 l-20 24 l164 156 l41 -52 l-185 -128 Z" /><glyph glyph-name="aeacute" unicode="&#x1fd;" d="M172 -11 q-63 0 -102.5 32 q-39.5 32 -39.5 91 q0 129 191 129 l96 0 l0 42 q0 57 -24 80.5 q-24 23.5 -83 23.5 q-70 0 -145 -29 l0 47 q76 30 153 30 q114 0 139 -84 q50 84 152 84 q90 0 135 -63 q45 -63 45 -146 q0 -19 -2 -28 l-317 0 q2 -76 43 -119 q41 -43 113 -43 q72 0 143 43 l0 -50 q-72 -40 -148 -40 q-110 0 -162 74 q-88 -74 -187 -74 ZM182 36 q81 0 157 61 q-21 48 -21 103 l-95 0 q-135 0 -135 -86 q0 -37 25 -57.5 q25 -20.5 69 -20.5 ZM507 390 q-59 0 -95 -41 q-36 -41 -42 -107 l264 0 q-3 63 -34 105.5 q-31 42.5 -93 42.5 ZM326 506 l-20 24 l156 148 l39 -50 l-175 -122 Z" /><glyph glyph-name="Oslashacute" unicode="&#x1fe;" d="M353 -12 q-112 0 -191 59 l-50 -62 l-26 21 l51 63 q-94 88 -94 235 q0 138 85 227.5 q85 89.5 225 89.5 q108 0 188 -59 l52 62 l26 -22 l-51 -62 q93 -90 93 -236 q0 -138 -85 -227 q-85 -89 -223 -89 ZM353 39 q110 0 178.5 73 q68.5 73 68.5 191 q0 118 -69 192 l-333 -406 q62 -50 155 -50 ZM353 569 q-111 0 -179.5 -73 q-68.5 -73 -68.5 -191 q0 -121 68 -192 l334 405 q-65 51 -154 51 ZM283 675 l-19 24 l164 156 l41 -52 l-186 -128 Z" /><glyph glyph-name="oslashacute" unicode="&#x1ff;" d="M249 -11 q-81 0 -134 45 l-42 -49 l-22 18 l43 50 q-54 60 -54 159 q0 103 58 163 q58 60 151 60 q75 0 133 -45 l42 49 l21 -19 l-42 -50 q54 -60 54 -158 q0 -103 -58 -163 q-58 -60 -150 -60 ZM249 36 q69 0 108.5 47.5 q39.5 47.5 39.5 128.5 q0 70 -31 115 l-217 -254 q39 -37 100 -37 ZM249 387 q-69 0 -109 -47 q-40 -47 -40 -128 q0 -73 31 -116 l217 254 q-39 37 -99 37 ZM187 506 l-19 24 l155 148 l40 -50 l-176 -122 Z" /><glyph glyph-name="Scommaaccent" unicode="&#x218;" d="M269 -78 q20 0 33.5 -15 q13.5 -15 13.5 -42 q0 -33 -19 -70 q-19 -37 -52 -66 l-28 22 q44 55 44 98 q0 41 -34 51 l0 7 q18 15 42 15 ZM250 -12 q-100 0 -202 31 l0 133 l55 0 l0 -94 q69 -20 144 -20 q77 0 119 28.5 q42 28.5 42 80.5 q0 47 -36 77 q-36 30 -87 47 q-51 17 -102 36 q-51 19 -87 57.5 q-36 38.5 -36 97.5 q0 74 53.5 116.5 q53.5 42.5 153.5 42.5 q85 0 178 -28 l0 -132 l-56 0 l0 94 q-58 15 -119 15 q-77 0 -114.5 -28.5 q-37.5 -28.5 -37.5 -75.5 q0 -44 36 -73 q36 -29 87 -46 q51 -17 102.5 -37 q51.5 -20 87.5 -60 q36 -40 36 -101 q0 -80 -58 -120.5 q-58 -40.5 -159 -40.5 Z" /><glyph glyph-name="scommaaccent" unicode="&#x219;" d="M205 -78 q21 0 34.5 -15 q13.5 -15 13.5 -42 q0 -33 -19.5 -70 q-19.5 -37 -52.5 -66 l-28 22 q45 54 45 98 q0 41 -34 51 l0 7 q17 15 41 15 ZM195 -11 q-77 0 -154 25 l0 104 l49 0 l0 -68 q54 -15 104 -15 q49 0 79.5 17 q30.5 17 30.5 52 q0 30 -26.5 49 q-26.5 19 -64 29.5 q-37.5 10.5 -74.5 23 q-37 12.5 -63.5 40.5 q-26.5 28 -26.5 71 q0 55 40.5 86.5 q40.5 31.5 115.5 31.5 q64 0 136 -22 l0 -104 l-50 0 l0 69 q-44 11 -86 11 q-49 0 -75 -18.5 q-26 -18.5 -26 -49.5 q0 -31 26.5 -49.5 q26.5 -18.5 63.5 -29 q37 -10.5 74.5 -23 q37.5 -12.5 64 -40.5 q26.5 -28 26.5 -72 q0 -56 -43 -87 q-43 -31 -121 -31 Z" /><glyph glyph-name="uni021A" unicode="&#x21a;" d="M288 -73 q20 0 33.5 -15 q13.5 -15 13.5 -43 q0 -32 -19.5 -69 q-19.5 -37 -51.5 -67 l-28 22 q44 55 44 99 q0 42 -34 50 l0 8 q19 15 42 15 ZM156 0 l0 50 l103 0 l0 509 l-182 0 l0 -110 l-55 0 l0 160 l533 0 l0 -160 l-55 0 l0 110 l-181 0 l0 -509 l102 0 l0 -50 l-265 0 Z" /><glyph glyph-name="uni021B" unicode="&#x21b;" d="M187 -73 q21 0 34.5 -15 q13.5 -15 13.5 -43 q0 -32 -19.5 -69 q-19.5 -37 -51.5 -67 l-28 22 q44 55 44 99 q0 42 -34 50 l0 8 q19 15 41 15 ZM213 -11 q-121 0 -121 122 l0 265 l-74 0 l0 48 l74 0 l0 110 l58 0 l0 -110 l137 0 l0 -48 l-137 0 l0 -262 q0 -41 18.5 -59.5 q18.5 -18.5 58.5 -18.5 q37 0 65 11 l0 -45 q-38 -13 -79 -13 Z" /><glyph glyph-name="dotlessj" unicode="&#x237;" d="M32 -218 l-19 38 q84 46 84 112 l0 444 l-83 0 l0 48 l141 0 l0 -494 q0 -101 -123 -148 Z" /><glyph glyph-name="circumflex" unicode="&#x2c6;" d="M81 505 l-16 20 l134 127 l36 0 l134 -127 l-17 -20 l-135 89 l-136 -89 Z" /><glyph glyph-name="caron" unicode="&#x2c7;" d="M198 511 l-133 128 l16 19 l136 -88 l135 88 l17 -19 l-134 -128 l-37 0 Z" /><glyph glyph-name="breve" unicode="&#x2d8;" d="M273 545.5 q-37 -33.5 -93 -33.5 q-56 0 -93 33.5 q-37 33.5 -42 96.5 l46 0 q7 -81 89 -81 q82 0 89 81 l46 0 q-5 -63 -42 -96.5 Z" /><glyph glyph-name="dotaccent" unicode="&#x2d9;" d="M120 518 q-19 0 -31.5 13 q-12.5 13 -12.5 31 q0 18 12.5 31 q12.5 13 31.5 13 q18 0 31 -13 q13 -13 13 -31 q0 -18 -13 -31 q-13 -13 -31 -13 Z" /><glyph glyph-name="ring" unicode="&#x2da;" d="M261.5 532.5 q-29.5 -29.5 -78.5 -29.5 q-49 0 -78 29.5 q-29 29.5 -29 72.5 q0 43 29 72.5 q29 29.5 78 29.5 q49 0 78.5 -29.5 q29.5 -29.5 29.5 -72.5 q0 -43 -29.5 -72.5 ZM138 558.5 q16 -19.5 45 -19.5 q29 0 45 19.5 q16 19.5 16 46.5 q0 27 -16 46.5 q-16 19.5 -45 19.5 q-29 0 -45 -19.5 q-16 -19.5 -16 -46.5 q0 -27 16 -46.5 Z" /><glyph glyph-name="ogonek" unicode="&#x2db;" d="M149 -193 q-40 0 -65 18.5 q-25 18.5 -25 56.5 q0 77 114 140 l23 -15 q-30 -19 -57 -50.5 q-27 -31.5 -27 -65.5 q0 -44 51 -44 q30 0 60 14 l3 -37 q-38 -17 -77 -17 Z" /><glyph glyph-name="tilde" unicode="&#x2dc;" d="M97 515 l-27 13 q12 27 20.5 43 q8.5 16 28 32.5 q19.5 16.5 43.5 16.5 q26 0 71.5 -27.5 q45.5 -27.5 67.5 -27.5 q33 0 62 56 l27 -14 q-12 -26 -21 -42.5 q-9 -16.5 -29 -33.5 q-20 -17 -43 -17 q-27 0 -72.5 28 q-45.5 28 -65.5 28 q-32 0 -62 -55 Z" /><glyph glyph-name="hungarumlaut" unicode="&#x2dd;" d="M86 506 l-21 18 l125 171 l45 -42 l-149 -147 ZM241 506 l-22 18 l126 171 l45 -42 l-149 -147 Z" /><glyph glyph-name="endash" unicode="&#x2013;" d="M60 205 l0 51 l466 0 l0 -51 l-466 0 Z" /><glyph glyph-name="emdash" unicode="&#x2014;" d="M60 205 l0 51 l661 0 l0 -51 l-661 0 Z" /><glyph glyph-name="quoteleft" unicode="&#x2018;" d="M90 436 q-21 0 -32.5 14 q-11.5 14 -11.5 37 q0 32 22.5 75.5 q22.5 43.5 55.5 74.5 l26 -20 q-41 -48 -50 -100 q16 -1 25.5 -12 q9.5 -11 9.5 -26 q0 -18 -12.5 -30.5 q-12.5 -12.5 -32.5 -12.5 Z" /><glyph glyph-name="quoteright" unicode="&#x2019;" d="M106 638 q21 0 32.5 -14 q11.5 -14 11.5 -37 q0 -32 -22.5 -76 q-22.5 -44 -55.5 -75 l-26 21 q41 48 50 99 q-16 2 -25.5 13 q-9.5 11 -9.5 26 q0 18 12.5 30.5 q12.5 12.5 32.5 12.5 Z" /><glyph glyph-name="quotesinglbase" unicode="&#x201a;" d="M109 80 q21 0 32.5 -14 q11.5 -14 11.5 -38 q0 -32 -22.5 -75.5 q-22.5 -43.5 -55.5 -74.5 l-26 21 q41 48 50 99 q-16 1 -25.5 12.5 q-9.5 11.5 -9.5 26.5 q0 18 12.5 30.5 q12.5 12.5 32.5 12.5 Z" /><glyph glyph-name="quotedblleft" unicode="&#x201c;" d="M253 436 q-21 0 -32.5 14 q-11.5 14 -11.5 37 q0 32 22.5 75.5 q22.5 43.5 55.5 74.5 l26 -20 q-41 -48 -50 -100 q16 -1 25.5 -12 q9.5 -11 9.5 -26 q0 -18 -12.5 -30.5 q-12.5 -12.5 -32.5 -12.5 ZM90 436 q-21 0 -32.5 14 q-11.5 14 -11.5 37 q0 32 22.5 75.5 q22.5 43.5 55.5 74.5 l26 -20 q-41 -48 -50 -100 q16 -1 25.5 -12 q9.5 -11 9.5 -26 q0 -18 -12.5 -30.5 q-12.5 -12.5 -32.5 -12.5 Z" /><glyph glyph-name="quotedblright" unicode="&#x201d;" d="M106 638 q21 0 32.5 -14 q11.5 -14 11.5 -37 q0 -32 -22.5 -76 q-22.5 -44 -55.5 -75 l-26 21 q41 48 50 99 q-16 2 -25.5 13 q-9.5 11 -9.5 26 q0 18 12.5 30.5 q12.5 12.5 32.5 12.5 ZM269 638 q21 0 33 -14 q12 -14 12 -37 q0 -32 -23 -75.5 q-23 -43.5 -56 -75.5 l-26 21 q41 48 50 99 q-34 5 -34 39 q0 18 12 30.5 q12 12.5 32 12.5 Z" /><glyph glyph-name="quotedblbase" unicode="&#x201e;" d="M109 80 q21 0 32.5 -14 q11.5 -14 11.5 -37 q0 -32 -22.5 -76 q-22.5 -44 -55.5 -75 l-26 21 q41 48 50 99 q-16 2 -25.5 13 q-9.5 11 -9.5 26 q0 18 12.5 30.5 q12.5 12.5 32.5 12.5 ZM272 80 q21 0 33 -14 q12 -14 12 -37 q0 -32 -23 -75.5 q-23 -43.5 -56 -75.5 l-26 21 q41 48 50 99 q-34 5 -34 39 q0 18 12 30.5 q12 12.5 32 12.5 Z" /><glyph glyph-name="dagger" unicode="&#x2020;" d="M229 -55.5 q-3 -1.5 -7 -1.5 q-4 0 -6.5 1.5 q-2.5 1.5 -4 4.5 q-1.5 3 -2.5 6 q-1 3 -1.5 8.5 q-0.5 5.5 -0.5 8.5 q0 3 0 9 q0 6 0 8 q0 226 -25 307 q27 45 27 72 q0 22 -14.5 36.5 q-14.5 14.5 -35.5 14.5 q-21 0 -49.5 -8 q-28.5 -8 -41.5 -8 q-42 0 -42 29 q0 28 42 28 q13 0 41.5 -8 q28.5 -8 49.5 -8 q21 0 35.5 15.5 q14.5 15.5 14.5 36.5 q0 20 -8 48 q-8 28 -8 41 q0 22 9 32.5 q9 10.5 20 10.5 q29 0 29 -43 q0 -13 -8 -41 q-8 -28 -8 -48 q0 -21 15 -36.5 q15 -15.5 36 -15.5 q20 0 49 8 q29 8 42 8 q41 0 41 -28 q0 -29 -41 -29 q-13 0 -42 8 q-29 8 -49 8 q-21 0 -36 -14.5 q-15 -14.5 -15 -36.5 q0 -27 27 -72 q-24 -78 -24 -307 q0 -1 0 -7 q0 -6 0 -9 q0 -3 -0.5 -8.5 q-0.5 -5.5 -1.5 -8.5 q-1 -3 -2.5 -6.5 q-1.5 -3.5 -4.5 -5 Z" /><glyph glyph-name="daggerdbl" unicode="&#x2021;" d="M268 -14 q0 -43 -29 -43 q-29 0 -29 43 q0 13 8 41.5 q8 28.5 8 47.5 q0 21 -15 36.5 q-15 15.5 -36 15.5 q-20 0 -48.5 -8 q-28.5 -8 -41.5 -8 q-42 0 -42 28 q0 29 42 29 q13 0 41.5 -8 q28.5 -8 48.5 -8 q21 0 36 14.5 q15 14.5 15 36.5 q0 38 -27 83 q27 43 27 82 q0 22 -15 36.5 q-15 14.5 -36 14.5 q-20 0 -48.5 -8 q-28.5 -8 -41.5 -8 q-42 0 -42 29 q0 28 42 28 q13 0 41.5 -8 q28.5 -8 48.5 -8 q21 0 36 15.5 q15 15.5 15 36.5 q0 20 -8 48 q-8 28 -8 41 q0 43 29 43 q29 0 29 -43 q0 -13 -8 -41 q-8 -28 -8 -48 q0 -21 15 -36.5 q15 -15.5 36 -15.5 q20 0 48.5 8 q28.5 8 41.5 8 q42 0 42 -28 q0 -29 -42 -29 q-13 0 -41.5 8 q-28.5 8 -48.5 8 q-21 0 -36 -14.5 q-15 -14.5 -15 -36.5 q0 -39 27 -82 q-27 -45 -27 -83 q0 -22 15 -36.5 q15 -14.5 36 -14.5 q20 0 48.5 8 q28.5 8 41.5 8 q42 0 42 -29 q0 -28 -42 -28 q-13 0 -41.5 8 q-28.5 8 -48.5 8 q-21 0 -36 -15.5 q-15 -15.5 -15 -36.5 q0 -19 8 -47.5 q8 -28.5 8 -41.5 Z" /><glyph glyph-name="bullet" unicode="&#x2022;" d="M246.5 220.5 q-29.5 -29.5 -71.5 -29.5 q-42 0 -71.5 29.5 q-29.5 29.5 -29.5 71.5 q0 42 29.5 71.5 q29.5 29.5 71.5 29.5 q42 0 71.5 -29.5 q29.5 -29.5 29.5 -71.5 q0 -42 -29.5 -71.5 Z" /><glyph glyph-name="ellipsis" unicode="&#x2026;" d="M131 4 q-13 -13 -31 -13 q-18 0 -31 13 q-13 13 -13 32 q0 18 13 31 q13 13 31 13 q18 0 31 -13 q13 -13 13 -31 q0 -19 -13 -32 ZM418.5 4 q-12.5 -13 -30.5 -13 q-18 0 -31 13 q-13 13 -13 32 q0 18 13 31 q13 13 31 13 q18 0 30.5 -13 q12.5 -13 12.5 -31 q0 -19 -12.5 -32 ZM706 4 q-13 -13 -31 -13 q-18 0 -31 13 q-13 13 -13 32 q0 18 13 31 q13 13 31 13 q18 0 31 -13 q13 -13 13 -31 q0 -19 -13 -32 Z" /><glyph glyph-name="perthousand" unicode="&#x2030;" d="M452 -1 q-52 0 -81 34 q-29 34 -29 89 q0 55 29 89 q29 34 81 34 q51 0 80.5 -34 q29.5 -34 29.5 -89 q0 -55 -29.5 -89 q-29.5 -34 -80.5 -34 ZM452 36 q30 0 46 23.5 q16 23.5 16 62.5 q0 40 -15.5 63 q-15.5 23 -46.5 23 q-31 0 -47 -23 q-16 -23 -16 -63 q0 -39 16 -62.5 q16 -23.5 47 -23.5 ZM239 268 q-29 -34 -81 -34 q-52 0 -81 34 q-29 34 -29 89 q0 55 29 89 q29 34 81 34 q52 0 81 -34 q29 -34 29 -89 q0 -55 -29 -89 ZM111 294.5 q16 -23.5 47 -23.5 q31 0 47 23 q16 23 16 63 q0 40 -16 63 q-16 23 -47 23 q-31 0 -47 -23.5 q-16 -23.5 -16 -62.5 q0 -39 16 -62.5 ZM796 33 q-29 -34 -81 -34 q-52 0 -81 34 q-29 34 -29 89 q0 55 29 89 q29 34 81 34 q52 0 81 -34 q29 -34 29 -89 q0 -55 -29 -89 ZM668 59.5 q16 -23.5 47 -23.5 q31 0 47 23.5 q16 23.5 16 62.5 q0 39 -16 62.5 q-16 23.5 -47 23.5 q-31 0 -47 -23 q-16 -23 -16 -63 q0 -39 16 -62.5 ZM120 2 l-31 27 l400 448 l30 -27 l-399 -448 Z" /><glyph glyph-name="guilsinglleft" unicode="&#x2039;" d="M185 83 l-148 175 l0 4 l148 176 l66 0 l-151 -178 l151 -177 l-66 0 Z" /><glyph glyph-name="guilsinglright" unicode="&#x203a;" d="M42 83 l150 177 l-150 178 l66 0 l147 -176 l0 -4 l-147 -175 l-66 0 Z" /><glyph glyph-name="fraction" unicode="&#x2044;" d="M32 -8 l-37 20 l354 605 l36 -19 l-353 -606 Z" /><glyph glyph-name="Euro" unicode="&#x20ac;" d="M342 -7 q-96 0 -157 52.5 q-61 52.5 -77 137.5 l-75 0 l10 27 l61 0 q-2 16 -2 31 q0 19 3 38 l-72 0 l10 27 l66 0 q18 82 79 132.5 q61 50.5 157 50.5 q83 0 153 -34 l0 -101 l-50 0 l0 71 q-50 18 -101 18 q-72 0 -119 -37 q-47 -37 -63 -100 l197 0 l-9 -27 l-192 0 q-3 -19 -3 -35 q0 -23 2 -34 l172 0 l-9 -27 l-158 0 q16 -65 62 -104 q46 -39 118 -39 q80 0 155 47 l0 -50 q-73 -44 -158 -44 Z" /><glyph glyph-name="numero" unicode="&#x2116;" d="M835 158 q-69 0 -113.5 44.5 q-44.5 44.5 -44.5 121.5 q0 76 44.5 120.5 q44.5 44.5 113.5 44.5 q70 0 114 -44.5 q44 -44.5 44 -120.5 q0 -77 -44 -121.5 q-44 -44.5 -114 -44.5 ZM835 205 q47 0 76.5 32 q29.5 32 29.5 87 q0 54 -30 86.5 q-30 32.5 -76 32.5 q-46 0 -75.5 -32.5 q-29.5 -32.5 -29.5 -86.5 q0 -55 29.5 -87 q29.5 -32 75.5 -32 ZM682 42 l0 46 l307 0 l0 -46 l-307 0 ZM38 0 l0 49 l96 0 l0 511 l-96 0 l0 49 l153 0 l322 -510 l0 461 l-96 0 l0 49 l245 0 l0 -49 l-96 0 l0 -560 l-50 0 l-329 520 l0 -471 l96 0 l0 -49 l-245 0 Z" /><glyph glyph-name="trademark" unicode="&#x2122;" d="M322 364 l0 24 l36 0 l9 197 l-35 0 l0 24 l73 0 l80 -183 l82 183 l73 0 l0 -25 l-36 0 l10 -196 l35 0 l0 -24 l-103 0 l0 24 l38 0 l-7 177 l-82 -176 l-20 0 l-82 177 l-7 -178 l38 0 l0 -24 l-102 0 ZM120 364 l0 24 l41 0 l0 196 l-65 0 l0 -49 l-28 0 l0 74 l218 0 l0 -74 l-28 0 l0 49 l-65 0 l0 -196 l41 0 l0 -24 l-114 0 Z" /><glyph glyph-name="minus" unicode="&#x2212;" d="M63 211 l0 47 l404 0 l0 -47 l-404 0 Z" /><glyph glyph-name="approxequal" unicode="&#x2248;" d="M92 278 l-33 16 q24 58 56.5 95 q32.5 37 82.5 37 q36 0 74 -24 q38 -24 72 -48 q34 -24 61 -24 q32 0 53 25.5 q21 25.5 40 67.5 l33 -16 q-50 -130 -126 -130 q-33 0 -70 24.5 q-37 24.5 -73 48.5 q-36 24 -66 24 q-35 0 -59 -26 q-24 -26 -45 -70 ZM92 86 l-33 16 q24 59 56.5 96 q32.5 37 82.5 37 q36 0 74 -24 q38 -24 72 -48 q34 -24 61 -24 q32 0 53.5 25.5 q21.5 25.5 39.5 67.5 l33 -17 q-49 -129 -126 -129 q-33 0 -70 24 q-37 24 -73 48.5 q-36 24.5 -66 24.5 q-58 0 -104 -97 Z" /><glyph glyph-name="notequal" unicode="&#x2260;" d="M164 -74 l-31 15 l71 153 l-117 0 l0 48 l139 0 l85 183 l-224 0 l0 48 l248 0 l79 169 l31 -15 l-72 -154 l118 0 l0 -48 l-140 0 l-85 -183 l225 0 l0 -48 l-248 0 l-79 -168 Z" /><glyph glyph-name="lessequal" unicode="&#x2264;" d="M59 37 l0 41 l367 0 l0 -41 l-367 0 ZM426 123 l-367 145 l0 32 l367 146 l0 -49 l-296 -113 l296 -114 l0 -47 Z" /><glyph glyph-name="greaterequal" unicode="&#x2265;" d="M63 37 l0 41 l368 0 l0 -41 l-368 0 ZM63 123 l0 47 l297 114 l-297 113 l0 49 l368 -146 l0 -32 l-368 -145 Z" /><glyph glyph-name="OE.smcp" unicode="&#xe04a;" d="M299 0 q-118 0 -187 66.5 q-69 66.5 -69 176.5 q0 111 68.5 177.5 q68.5 66.5 187.5 66.5 l384 0 l0 -133 l-53 0 l0 87 l-208 0 l0 -173 l211 0 l0 -45 l-211 0 l0 -177 l209 0 l0 88 l53 0 l0 -134 l-385 0 ZM299 47 l67 0 l0 393 l-67 0 q-91 0 -144 -52.5 q-53 -52.5 -53 -143.5 q0 -92 53 -144.5 q53 -52.5 144 -52.5 Z" /><glyph glyph-name="dotaccent.cap" unicode="&#xefed;" d="M150 684 q-13 -13 -32 -13 q-19 0 -32 13 q-13 13 -13 32 q0 19 13 32 q13 13 32 13 q19 0 32 -13 q13 -13 13 -32 q0 -19 -13 -32 Z" /><glyph glyph-name="breve.cap" unicode="&#xefee;" d="M192 666 q-59 0 -97.5 35.5 q-38.5 35.5 -43.5 101.5 l47 0 q8 -87 94 -87 q39 0 64 21.5 q25 21.5 29 65.5 l48 0 q-5 -66 -44 -101.5 q-39 -35.5 -97 -35.5 Z" /><glyph glyph-name="ogonek.cap" unicode="&#xeff1;" d="M159 -200 q-42 0 -68.5 19.5 q-26.5 19.5 -26.5 59.5 q0 81 120 147 l23 -17 q-33 -21 -60.5 -53.5 q-27.5 -32.5 -27.5 -67.5 q0 -47 54 -47 q31 0 63 15 l3 -38 q-36 -18 -80 -18 Z" /><glyph glyph-name="cedilla.cap" unicode="&#xeff2;" d="M105 -193 q-28 0 -51 5 l9 37 q36 -3 41 -3 q74 0 74 42 q0 41 -83 41 l0 19 l38 77 l33 -11 l-22 -54 q35 -3 60.5 -20.5 q25.5 -17.5 25.5 -52.5 q0 -41 -35.5 -60.5 q-35.5 -19.5 -89.5 -19.5 Z" /><glyph glyph-name="ring.cap" unicode="&#xeff3;" d="M252.5 692.5 q-29.5 -29.5 -78.5 -29.5 q-49 0 -78 29.5 q-29 29.5 -29 72.5 q0 43 29 72.5 q29 29.5 78 29.5 q49 0 78.5 -29.5 q29.5 -29.5 29.5 -72.5 q0 -43 -29.5 -72.5 ZM129 718.5 q16 -19.5 45 -19.5 q29 0 45 19.5 q16 19.5 16 46.5 q0 27 -16 46.5 q-16 19.5 -45 19.5 q-29 0 -45 -19.5 q-16 -19.5 -16 -46.5 q0 -27 16 -46.5 Z" /><glyph glyph-name="tilde.cap" unicode="&#xeff5;" d="M87 673 l-25 13 q10 25 14.5 34.5 q4.5 9.5 17 29 q12.5 19.5 27.5 27.5 q15 8 34 8 q29 0 77 -28 q48 -28 70 -28 q38 0 67 60 l26 -14 q-10 -23 -15.5 -34 q-5.5 -11 -18 -29.5 q-12.5 -18.5 -28 -27 q-15.5 -8.5 -34.5 -8.5 q-28 0 -76.5 28 q-48.5 28 -68.5 28 q-36 0 -67 -59 Z" /><glyph glyph-name="circumflex.cap" unicode="&#xeff7;" d="M74 671 l-17 21 l141 134 l37 0 l141 -134 l-17 -21 l-142 94 l-143 -94 Z" /><glyph glyph-name="at.cap" unicode="&#xf633;" d="M341 123 q-64 0 -99.5 43 q-35.5 43 -35.5 109 q0 81 52 141 q52 60 130 60 q86 0 113 -76 l2 0 q3 23 18 60 l41 0 q-43 -146 -43 -228 q0 -77 51 -77 q45 0 75.5 46 q30.5 46 30.5 124 q0 128 -81.5 209 q-81.5 81 -203.5 81 q-133 0 -224.5 -93 q-91.5 -93 -91.5 -223 q0 -127 89.5 -217.5 q89.5 -90.5 217.5 -90.5 q92 0 167 52 l19 -27 q-87 -57 -187 -57 q-144 0 -241 100 q-97 100 -97 243 q0 148 103.5 246.5 q103.5 98.5 246.5 98.5 q134 0 224.5 -90 q90.5 -90 90.5 -232 q0 -95 -41 -148.5 q-41 -53.5 -104 -53.5 q-33 0 -53.5 16 q-20.5 16 -25 30 q-4.5 14 -6.5 29 l-3 0 q-51 -75 -134 -75 ZM350 163 q57 0 94 48.5 q37 48.5 37 117.5 q0 107 -88 107 q-58 0 -98 -47.5 q-40 -47.5 -40 -112.5 q0 -52 25.5 -82.5 q25.5 -30.5 69.5 -30.5 Z" /><glyph glyph-name="Abreve.smcp" unicode="&#xf66d;" d="M5 0 l0 46 l70 0 l165 395 l-73 0 l0 46 l159 0 l183 -441 l71 0 l0 -46 l-212 0 l0 46 l83 0 l-48 115 l-225 0 l-47 -115 l82 0 l0 -46 l-208 0 ZM196 207 l190 0 l-94 229 l-96 -229 ZM279 545 q-53 0 -88 31.5 q-35 31.5 -38 87.5 l44 0 q7 -72 82 -72 q76 0 83 72 l44 0 q-4 -56 -38.5 -87.5 q-34.5 -31.5 -88.5 -31.5 Z" /><glyph glyph-name="Amacron.smcp" unicode="&#xf66e;" d="M5 0 l0 46 l70 0 l165 395 l-73 0 l0 46 l159 0 l183 -441 l71 0 l0 -46 l-212 0 l0 46 l83 0 l-48 115 l-225 0 l-47 -115 l82 0 l0 -46 l-208 0 ZM196 207 l190 0 l-94 229 l-96 -229 ZM161 560 l0 45 l230 0 l0 -45 l-230 0 Z" /><glyph glyph-name="Aogonek.smcp" unicode="&#xf66f;" d="M499 -177 q-37 0 -61 17 q-24 17 -24 51 q0 60 74 109 l-120 0 l0 46 l83 0 l-48 115 l-225 0 l-47 -115 l82 0 l0 -46 l-208 0 l0 46 l70 0 l165 395 l-73 0 l0 46 l159 0 l183 -441 l71 0 l0 -46 l-45 0 q-68 -45 -68 -98 q0 -41 47 -41 q27 0 55 13 l4 -36 q-36 -15 -74 -15 ZM196 207 l190 0 l-94 229 l-96 -229 Z" /><glyph glyph-name="AEacute.smcp" unicode="&#xf670;" d="M5 0 l0 47 l65 0 l278 394 l-63 0 l0 46 l452 0 l0 -133 l-53 0 l0 87 l-208 0 l0 -173 l211 0 l0 -45 l-211 0 l0 -177 l209 0 l0 88 l53 0 l0 -134 l-394 0 l0 46 l76 0 l0 114 l-207 0 l-80 -114 l70 0 l0 -46 l-198 0 ZM408 441 l-166 -236 l178 0 l0 236 l-12 0 ZM448 544 l-19 23 l144 135 l40 -48 l-165 -110 Z" /><glyph glyph-name="Cacute.smcp" unicode="&#xf671;" d="M309 -10 q-118 0 -192.5 67 q-74.5 67 -74.5 185 q0 115 73 185 q73 70 196 70 q88 0 175 -37 l0 -119 l-55 0 l0 89 q-53 20 -117 20 q-96 0 -154.5 -54 q-58.5 -54 -58.5 -152 q0 -99 60 -152.5 q60 -53.5 154 -53.5 q88 0 173 47 l0 -51 q-75 -44 -179 -44 ZM243 548 l-19 23 l145 136 l39 -49 l-165 -110 Z" /><glyph glyph-name="Ccaron.smcp" unicode="&#xf672;" d="M309 -10 q-118 0 -192.5 67 q-74.5 67 -74.5 185 q0 115 73 185 q73 70 196 70 q88 0 175 -37 l0 -119 l-55 0 l0 89 q-53 20 -117 20 q-96 0 -154.5 -54 q-58.5 -54 -58.5 -152 q0 -99 60 -152.5 q60 -53.5 154 -53.5 q88 0 173 47 l0 -51 q-75 -44 -179 -44 ZM283 553 l-125 118 l16 18 l127 -79 l128 79 l16 -18 l-125 -118 l-37 0 Z" /><glyph glyph-name="Ccircumflex.smcp" unicode="&#xf673;" d="M309 -10 q-118 0 -192.5 67 q-74.5 67 -74.5 185 q0 115 73 185 q73 70 196 70 q88 0 175 -37 l0 -119 l-55 0 l0 89 q-53 20 -117 20 q-96 0 -154.5 -54 q-58.5 -54 -58.5 -152 q0 -99 60 -152.5 q60 -53.5 154 -53.5 q88 0 173 47 l0 -51 q-75 -44 -179 -44 ZM172 548 l-16 19 l124 117 l38 0 l125 -117 l-16 -19 l-128 79 l-127 -79 Z" /><glyph glyph-name="Cdotaccent.smcp" unicode="&#xf674;" d="M309 -10 q-118 0 -192.5 67 q-74.5 67 -74.5 185 q0 115 73 185 q73 70 196 70 q88 0 175 -37 l0 -119 l-55 0 l0 89 q-53 20 -117 20 q-96 0 -154.5 -54 q-58.5 -54 -58.5 -152 q0 -99 60 -152.5 q60 -53.5 154 -53.5 q88 0 173 47 l0 -51 q-75 -44 -179 -44 ZM301 553 q-18 0 -30 12.5 q-12 12.5 -12 29.5 q0 18 12 30 q12 12 30 12 q17 0 29.5 -12 q12.5 -12 12.5 -30 q0 -17 -12.5 -29.5 q-12.5 -12.5 -29.5 -12.5 Z" /><glyph glyph-name="Dcaron.smcp" unicode="&#xf675;" d="M39 0 l0 46 l78 0 l0 395 l-78 0 l0 46 l224 0 q120 0 194.5 -64 q74.5 -64 74.5 -180 q0 -116 -74.5 -179.5 q-74.5 -63.5 -194.5 -63.5 l-224 0 ZM175 46 l90 0 q95 0 151.5 52.5 q56.5 52.5 56.5 144.5 q0 93 -56 145.5 q-56 52.5 -152 52.5 l-90 0 l0 -395 ZM262 548 l-124 118 l15 18 l128 -79 l127 79 l16 -18 l-124 -118 l-38 0 Z" /><glyph glyph-name="Dcroat.smcp" unicode="&#xf676;" d="M46 224 l0 43 l72 0 l0 174 l-78 0 l0 46 l224 0 q119 0 194 -64 q75 -64 75 -180 q0 -116 -75 -179.5 q-75 -63.5 -194 -63.5 l-224 0 l0 46 l78 0 l0 178 l-72 0 ZM175 46 l91 0 q95 0 151.5 52.5 q56.5 52.5 56.5 144.5 q0 93 -56 145.5 q-56 52.5 -152 52.5 l-91 0 l0 -174 l139 0 l0 -43 l-139 0 l0 -178 Z" /><glyph glyph-name="Ebreve.smcp" unicode="&#xf677;" d="M39 0 l0 46 l78 0 l0 395 l-78 0 l0 46 l406 0 l0 -133 l-53 0 l0 87 l-217 0 l0 -173 l221 0 l0 -45 l-221 0 l0 -177 l219 0 l0 88 l53 0 l0 -134 l-408 0 ZM263 545 q-54 0 -88.5 31.5 q-34.5 31.5 -38.5 87.5 l44 0 q7 -72 83 -72 q75 0 82 72 l44 0 q-4 -56 -38.5 -87.5 q-34.5 -31.5 -87.5 -31.5 Z" /><glyph glyph-name="Ecaron.smcp" unicode="&#xf678;" d="M39 0 l0 46 l78 0 l0 395 l-78 0 l0 46 l406 0 l0 -133 l-53 0 l0 87 l-217 0 l0 -173 l221 0 l0 -45 l-221 0 l0 -177 l219 0 l0 88 l53 0 l0 -134 l-408 0 ZM246 548 l-124 118 l15 18 l128 -79 l127 79 l16 -18 l-125 -118 l-37 0 Z" /><glyph glyph-name="Edotaccent.smcp" unicode="&#xf679;" d="M39 0 l0 46 l78 0 l0 395 l-78 0 l0 46 l406 0 l0 -133 l-53 0 l0 87 l-217 0 l0 -173 l221 0 l0 -45 l-221 0 l0 -177 l219 0 l0 88 l53 0 l0 -134 l-408 0 ZM263 549 q-17 0 -29.5 12.5 q-12.5 12.5 -12.5 29.5 q0 17 12.5 29.5 q12.5 12.5 29.5 12.5 q18 0 30 -12.5 q12 -12.5 12 -29.5 q0 -17 -12 -29.5 q-12 -12.5 -30 -12.5 Z" /><glyph glyph-name="Emacron.smcp" unicode="&#xf67a;" d="M39 0 l0 46 l78 0 l0 395 l-78 0 l0 46 l406 0 l0 -133 l-53 0 l0 87 l-217 0 l0 -173 l221 0 l0 -45 l-221 0 l0 -177 l219 0 l0 88 l53 0 l0 -134 l-408 0 ZM146 560 l0 45 l230 0 l0 -45 l-230 0 Z" /><glyph glyph-name="Eng.smcp" unicode="&#xf67b;" d="M407 -136 l-20 39 q83 40 83 104 l0 10 l-299 390 l0 -361 l81 0 l0 -46 l-214 0 l0 46 l80 0 l0 395 l-80 0 l0 46 l137 0 l298 -391 l0 345 l-82 0 l0 46 l214 0 l0 -46 l-79 0 l0 -436 q0 -30 -11 -54.5 q-11 -24.5 -31 -41 q-20 -16.5 -36.5 -26 q-16.5 -9.5 -40.5 -19.5 Z" /><glyph glyph-name="Eogonek.smcp" unicode="&#xf67c;" d="M39 0 l0 46 l78 0 l0 395 l-78 0 l0 46 l406 0 l0 -133 l-53 0 l0 87 l-217 0 l0 -173 l221 0 l0 -45 l-221 0 l0 -177 l219 0 l0 88 l53 0 l0 -134 l-23 0 q-69 -46 -69 -98 q0 -41 47 -41 q28 0 56 13 l3 -36 q-36 -15 -73 -15 q-38 0 -62 17 q-24 17 -24 51 q0 60 75 109 l-338 0 Z" /><glyph glyph-name="Gbreve.smcp" unicode="&#xf67d;" d="M314 -10 q-130 0 -201 69 q-71 69 -71 183 q0 116 74 185.5 q74 69.5 202 69.5 q96 0 184 -36 l0 -112 l-54 0 l0 80 q-64 20 -128 20 q-101 0 -160.5 -55 q-59.5 -55 -59.5 -150 q0 -90 54.5 -148.5 q54.5 -58.5 159.5 -58.5 q64 0 143 29 l0 142 l-126 0 l0 45 l228 0 l0 -45 l-48 0 l0 -173 q-109 -45 -197 -45 ZM310 549 q-53 0 -88 31.5 q-35 31.5 -38 88.5 l44 0 q7 -73 82 -73 q76 0 83 73 l44 0 q-4 -57 -38.5 -88.5 q-34.5 -31.5 -88.5 -31.5 Z" /><glyph glyph-name="Gcircumflex.smcp" unicode="&#xf67e;" d="M314 -10 q-130 0 -201 69 q-71 69 -71 183 q0 116 74 185.5 q74 69.5 202 69.5 q96 0 184 -36 l0 -112 l-54 0 l0 80 q-64 20 -128 20 q-101 0 -160.5 -55 q-59.5 -55 -59.5 -150 q0 -90 54.5 -148.5 q54.5 -58.5 159.5 -58.5 q64 0 143 29 l0 142 l-126 0 l0 45 l228 0 l0 -45 l-48 0 l0 -173 q-109 -45 -197 -45 ZM180 549 l-16 18 l125 118 l37 0 l125 -118 l-16 -18 l-127 79 l-128 -79 Z" /><glyph glyph-name="Gcommaaccent.smcp" unicode="&#xf67f;" d="M309 -74 q18 0 31 -14.5 q13 -14.5 13 -39.5 q0 -29 -18 -63.5 q-18 -34.5 -47 -60.5 l-27 20 q41 50 41 90 q0 39 -31 46 l0 8 q18 14 38 14 ZM314 -10 q-130 0 -201 69 q-71 69 -71 183 q0 116 74 185.5 q74 69.5 202 69.5 q96 0 184 -36 l0 -112 l-54 0 l0 80 q-64 20 -128 20 q-101 0 -160.5 -55 q-59.5 -55 -59.5 -150 q0 -90 54.5 -148.5 q54.5 -58.5 159.5 -58.5 q64 0 143 29 l0 142 l-126 0 l0 45 l228 0 l0 -45 l-48 0 l0 -173 q-109 -45 -197 -45 Z" /><glyph glyph-name="Gdotaccent.smcp" unicode="&#xf680;" d="M314 -10 q-130 0 -201 69 q-71 69 -71 183 q0 116 74 185.5 q74 69.5 202 69.5 q96 0 184 -36 l0 -112 l-54 0 l0 80 q-64 20 -128 20 q-101 0 -160.5 -55 q-59.5 -55 -59.5 -150 q0 -90 54.5 -148.5 q54.5 -58.5 159.5 -58.5 q64 0 143 29 l0 142 l-126 0 l0 45 l228 0 l0 -45 l-48 0 l0 -173 q-109 -45 -197 -45 ZM312 553 q-17 0 -29.5 12.5 q-12.5 12.5 -12.5 29.5 q0 18 12.5 30 q12.5 12 29.5 12 q18 0 30 -12 q12 -12 12 -30 q0 -17 -12 -29.5 q-12 -12.5 -30 -12.5 Z" /><glyph glyph-name="Hbar.smcp" unicode="&#xf681;" d="M47 342 l0 31 l70 0 l0 68 l-78 0 l0 46 l213 0 l0 -46 l-78 0 l0 -68 l293 0 l0 68 l-79 0 l0 46 l214 0 l0 -46 l-78 0 l0 -68 l70 0 l0 -31 l-70 0 l0 -296 l78 0 l0 -46 l-214 0 l0 46 l79 0 l0 177 l-293 0 l0 -177 l78 0 l0 -46 l-213 0 l0 46 l78 0 l0 296 l-70 0 ZM174 270 l293 0 l0 73 l-293 0 l0 -73 Z" /><glyph glyph-name="Hcircumflex.smcp" unicode="&#xf682;" d="M39 0 l0 46 l78 0 l0 395 l-78 0 l0 46 l214 0 l0 -46 l-78 0 l0 -171 l292 0 l0 171 l-78 0 l0 46 l214 0 l0 -46 l-79 0 l0 -395 l79 0 l0 -46 l-214 0 l0 46 l78 0 l0 177 l-292 0 l0 -177 l78 0 l0 -46 l-214 0 ZM193 544 l-16 18 l125 118 l37 0 l125 -118 l-16 -18 l-127 79 l-128 -79 Z" /><glyph glyph-name="Ibreve.smcp" unicode="&#xf683;" d="M39 0 l0 46 l78 0 l0 395 l-78 0 l0 46 l214 0 l0 -46 l-78 0 l0 -395 l78 0 l0 -46 l-214 0 ZM145 545 q-53 0 -88 31.5 q-35 31.5 -38 87.5 l44 0 q7 -72 82 -72 q76 0 83 72 l44 0 q-4 -56 -38.5 -87.5 q-34.5 -31.5 -88.5 -31.5 Z" /><glyph glyph-name="Imacron.smcp" unicode="&#xf685;" d="M39 0 l0 46 l78 0 l0 395 l-78 0 l0 46 l214 0 l0 -46 l-78 0 l0 -395 l78 0 l0 -46 l-214 0 ZM31 560 l0 45 l230 0 l0 -45 l-230 0 Z" /><glyph glyph-name="Iogonek.smcp" unicode="&#xf686;" d="M39 0 l0 46 l78 0 l0 395 l-78 0 l0 46 l214 0 l0 -46 l-78 0 l0 -395 l78 0 l0 -46 l-60 0 q-69 -46 -69 -98 q0 -41 47 -41 q28 0 56 13 l3 -36 q-36 -15 -73 -15 q-38 0 -62 17 q-24 17 -24 51 q0 60 75 109 l-107 0 Z" /><glyph glyph-name="Itilde.smcp" unicode="&#xf687;" d="M39 0 l0 46 l78 0 l0 395 l-78 0 l0 46 l214 0 l0 -46 l-78 0 l0 -395 l78 0 l0 -46 l-214 0 ZM19 547 l-24 12 q8 20 13 30.5 q5 10.5 15.5 26.5 q10.5 16 24.5 23.5 q14 7.5 32 7.5 q25 0 67.5 -24 q42.5 -24 62.5 -24 q33 0 59 51 l24 -13 q-10 -24 -18.5 -39.5 q-8.5 -15.5 -27 -31.5 q-18.5 -16 -41.5 -16 q-25 0 -67.5 23.5 q-42.5 23.5 -60.5 23.5 q-34 0 -59 -50 Z" /><glyph glyph-name="Jcircumflex.smcp" unicode="&#xf688;" d="M45 -136 l-20 39 q82 40 82 104 l0 434 l-78 0 l0 46 l214 0 l0 -46 l-78 0 l0 -439 q0 -29 -11 -53 q-11 -24 -31.5 -40 q-20.5 -16 -37 -25.5 q-16.5 -9.5 -40.5 -19.5 ZM8 544 l-16 18 l124 118 l38 0 l124 -118 l-15 -18 l-128 79 l-127 -79 Z" /><glyph glyph-name="Kcommaaccent.smcp" unicode="&#xf689;" d="M323 -69 q19 0 32 -14.5 q13 -14.5 13 -39.5 q0 -29 -18 -63.5 q-18 -34.5 -48 -60.5 l-26 20 q41 52 41 90 q0 39 -32 46 l0 8 q20 14 38 14 ZM436 0 l-222 243 l0 4 l199 195 l-78 0 l0 45 l209 0 l0 -46 l-67 0 l-196 -192 l189 -203 l81 0 l0 -46 l-115 0 ZM39 0 l0 46 l78 0 l0 395 l-78 0 l0 46 l214 0 l0 -46 l-78 0 l0 -395 l78 0 l0 -46 l-214 0 Z" /><glyph glyph-name="Lacute.smcp" unicode="&#xf68a;" d="M39 0 l0 46 l78 0 l0 395 l-78 0 l0 46 l222 0 l0 -46 l-86 0 l0 -395 l219 0 l0 93 l53 0 l0 -139 l-408 0 ZM115 544 l-19 23 l144 135 l40 -48 l-165 -110 Z" /><glyph glyph-name="Lcaron.smcp" unicode="&#xf68b;" d="M354 492 q19 0 32 -14 q13 -14 13 -39 q0 -30 -18 -64 q-18 -34 -47 -60 l-27 20 q41 49 41 89 q0 39 -32 46 l0 8 q17 14 38 14 ZM39 0 l0 46 l78 0 l0 395 l-78 0 l0 46 l222 0 l0 -46 l-86 0 l0 -395 l219 0 l0 93 l53 0 l0 -139 l-408 0 Z" /><glyph glyph-name="Lcommaaccent.smcp" unicode="&#xf68c;" d="M270 -69 q19 0 32 -14.5 q13 -14.5 13 -39.5 q0 -29 -18 -63.5 q-18 -34.5 -48 -60.5 l-26 20 q41 52 41 90 q0 39 -32 46 l0 8 q20 14 38 14 ZM39 0 l0 46 l78 0 l0 395 l-78 0 l0 46 l222 0 l0 -46 l-86 0 l0 -395 l219 0 l0 93 l53 0 l0 -139 l-408 0 Z" /><glyph glyph-name="Ldot.smcp" unicode="&#xf68d;" d="M39 0 l0 46 l78 0 l0 395 l-78 0 l0 46 l222 0 l0 -46 l-86 0 l0 -395 l219 0 l0 93 l53 0 l0 -139 l-408 0 ZM365 233 q-18 0 -30 12.5 q-12 12.5 -12 29.5 q0 18 12 30 q12 12 30 12 q17 0 29.5 -12 q12.5 -12 12.5 -30 q0 -17 -12.5 -29.5 q-12.5 -12.5 -29.5 -12.5 Z" /><glyph glyph-name="Nacute.smcp" unicode="&#xf68e;" d="M38 0 l0 46 l80 0 l0 395 l-80 0 l0 46 l137 0 l298 -401 l0 355 l-82 0 l0 46 l214 0 l0 -46 l-79 0 l0 -441 l-50 0 l-305 407 l0 -361 l81 0 l0 -46 l-214 0 ZM275 544 l-19 23 l145 135 l39 -48 l-165 -110 Z" /><glyph glyph-name="Ncaron.smcp" unicode="&#xf68f;" d="M38 0 l0 46 l80 0 l0 395 l-80 0 l0 46 l137 0 l298 -401 l0 355 l-82 0 l0 46 l214 0 l0 -46 l-79 0 l0 -441 l-50 0 l-305 407 l0 -361 l81 0 l0 -46 l-214 0 ZM301 548 l-124 118 l16 18 l127 -79 l128 79 l16 -18 l-125 -118 l-38 0 Z" /><glyph glyph-name="Ncommaaccent.smcp" unicode="&#xf690;" d="M333 -69 q19 0 32 -14.5 q13 -14.5 13 -39.5 q0 -29 -18 -63.5 q-18 -34.5 -48 -60.5 l-26 20 q41 52 41 90 q0 39 -32 46 l0 8 q20 14 38 14 ZM38 0 l0 46 l80 0 l0 395 l-80 0 l0 46 l137 0 l298 -401 l0 355 l-82 0 l0 46 l214 0 l0 -46 l-79 0 l0 -441 l-50 0 l-305 407 l0 -361 l81 0 l0 -46 l-214 0 Z" /><glyph glyph-name="Obreve.smcp" unicode="&#xf691;" d="M488 61.5 q-71 -71.5 -188 -71.5 q-117 0 -187.5 71.5 q-70.5 71.5 -70.5 182.5 q0 111 70.5 182 q70.5 71 187.5 71 q117 0 188 -71 q71 -71 71 -182 q0 -111 -71 -182.5 ZM155.5 94.5 q55.5 -56.5 144.5 -56.5 q89 0 144.5 56.5 q55.5 56.5 55.5 149.5 q0 93 -55 149 q-55 56 -145 56 q-90 0 -145 -56 q-55 -56 -55 -149 q0 -93 55.5 -149.5 ZM300 549 q-54 0 -88.5 31.5 q-34.5 31.5 -38.5 88.5 l44 0 q7 -73 83 -73 q75 0 82 73 l44 0 q-4 -57 -38.5 -88.5 q-34.5 -31.5 -87.5 -31.5 Z" /><glyph glyph-name="Ohungarumlaut.smcp" unicode="&#xf692;" d="M488 61.5 q-71 -71.5 -188 -71.5 q-117 0 -187.5 71.5 q-70.5 71.5 -70.5 182.5 q0 111 70.5 182 q70.5 71 187.5 71 q117 0 188 -71 q71 -71 71 -182 q0 -111 -71 -182.5 ZM155.5 94.5 q55.5 -56.5 144.5 -56.5 q89 0 144.5 56.5 q55.5 56.5 55.5 149.5 q0 93 -55 149 q-55 56 -145 56 q-90 0 -145 -56 q-55 -56 -55 -149 q0 -93 55.5 -149.5 ZM202 548 l-19 16 l111 149 l42 -39 l-134 -126 ZM342 548 l-19 16 l111 149 l41 -39 l-133 -126 Z" /><glyph glyph-name="Omacron.smcp" unicode="&#xf693;" d="M488 61.5 q-71 -71.5 -188 -71.5 q-117 0 -187.5 71.5 q-70.5 71.5 -70.5 182.5 q0 111 70.5 182 q70.5 71 187.5 71 q117 0 188 -71 q71 -71 71 -182 q0 -111 -71 -182.5 ZM155.5 94.5 q55.5 -56.5 144.5 -56.5 q89 0 144.5 56.5 q55.5 56.5 55.5 149.5 q0 93 -55 149 q-55 56 -145 56 q-90 0 -145 -56 q-55 -56 -55 -149 q0 -93 55.5 -149.5 ZM186 564 l0 45 l230 0 l0 -45 l-230 0 Z" /><glyph glyph-name="Oslashacute.smcp" unicode="&#xf694;" d="M299 -10 q-95 0 -161 49 l-43 -48 l-23 20 l42 47 q-73 71 -73 186 q0 111 70.5 182 q70.5 71 187.5 71 q96 0 162 -49 l43 48 l23 -19 l-43 -49 q74 -71 74 -184 q0 -111 -71 -182.5 q-71 -71.5 -188 -71.5 ZM299 449 q-90 0 -145 -56 q-55 -56 -55 -149 q0 -89 51 -146 l276 310 q-50 41 -127 41 ZM299 38 q89 0 144.5 56.5 q55.5 56.5 55.5 149.5 q0 90 -51 144 l-275 -310 q51 -40 126 -40 ZM246 548 l-19 23 l144 136 l40 -49 l-165 -110 Z" /><glyph glyph-name="Racute.smcp" unicode="&#xf695;" d="M39 0 l0 46 l78 0 l0 395 l-78 0 l0 46 l233 0 q81 0 139 -37 q58 -37 58 -110 q0 -51 -31 -86 q-31 -35 -88 -49 l91 -159 l78 0 l0 -46 l-116 0 l-107 192 q-10 -1 -28 -1 l-93 0 l0 -145 l78 0 l0 -46 l-214 0 ZM175 236 l97 0 q70 0 105 27.5 q35 27.5 35 74.5 q0 49 -35 76 q-35 27 -105 27 l-97 0 l0 -205 ZM211 544 l-19 23 l144 135 l40 -48 l-165 -110 Z" /><glyph glyph-name="Rcaron.smcp" unicode="&#xf696;" d="M39 0 l0 46 l78 0 l0 395 l-78 0 l0 46 l233 0 q81 0 139 -37 q58 -37 58 -110 q0 -51 -31 -86 q-31 -35 -88 -49 l91 -159 l78 0 l0 -46 l-116 0 l-107 192 q-10 -1 -28 -1 l-93 0 l0 -145 l78 0 l0 -46 l-214 0 ZM175 236 l97 0 q70 0 105 27.5 q35 27.5 35 74.5 q0 49 -35 76 q-35 27 -105 27 l-97 0 l0 -205 ZM246 548 l-125 118 l16 18 l128 -79 l127 79 l16 -18 l-125 -118 l-37 0 Z" /><glyph glyph-name="Rcommaaccent.smcp" unicode="&#xf697;" d="M303 -69 q19 0 31.5 -14.5 q12.5 -14.5 12.5 -39.5 q0 -30 -17.5 -64 q-17.5 -34 -47.5 -60 l-27 20 q41 50 41 90 q0 39 -31 46 l0 8 q18 14 38 14 ZM39 0 l0 46 l78 0 l0 395 l-78 0 l0 46 l233 0 q81 0 139 -37 q58 -37 58 -110 q0 -51 -31 -86 q-31 -35 -88 -49 l91 -159 l78 0 l0 -46 l-116 0 l-107 192 q-10 -1 -28 -1 l-93 0 l0 -145 l78 0 l0 -46 l-214 0 ZM175 236 l97 0 q70 0 105 27.5 q35 27.5 35 74.5 q0 49 -35 76 q-35 27 -105 27 l-97 0 l0 -205 Z" /><glyph glyph-name="Sacute.smcp" unicode="&#xf698;" d="M215 -10 q-82 0 -168 25 l0 112 l52 0 l0 -76 q58 -15 116 -15 q57 0 91.5 21 q34.5 21 34.5 62 q0 36 -29.5 59 q-29.5 23 -71 36.5 q-41.5 13.5 -83 28.5 q-41.5 15 -71 46.5 q-29.5 31.5 -29.5 79.5 q0 60 44.5 94 q44.5 34 126.5 34 q78 0 151 -23 l0 -110 l-53 0 l0 75 q-52 12 -96 12 q-58 0 -88 -22 q-30 -22 -30 -58 q0 -34 29.5 -56 q29.5 -22 71.5 -36 q42 -14 83.5 -30 q41.5 -16 71 -48 q29.5 -32 29.5 -81 q0 -65 -48.5 -97.5 q-48.5 -32.5 -133.5 -32.5 ZM174 549 l-19 23 l145 135 l39 -48 l-165 -110 Z" /><glyph glyph-name="Scedilla.smcp" unicode="&#xf699;" d="M186 -178 q-24 0 -48 4 l9 35 q30 -3 38 -3 q63 0 63 35 q0 37 -73 37 l0 16 l23 44 q-78 3 -151 25 l0 112 l52 0 l0 -76 q58 -15 116 -15 q57 0 91.5 21 q34.5 21 34.5 62 q0 36 -29.5 59 q-29.5 23 -71 36.5 q-41.5 13.5 -83 28.5 q-41.5 15 -71 46.5 q-29.5 31.5 -29.5 79.5 q0 60 44.5 94 q44.5 34 126.5 34 q78 0 151 -23 l0 -110 l-53 0 l0 75 q-52 12 -96 12 q-58 0 -88 -22 q-30 -22 -30 -58 q0 -34 29.5 -56 q29.5 -22 71.5 -36 q42 -14 83.5 -30 q41.5 -16 71 -48 q29.5 -32 29.5 -81 q0 -61 -42.5 -93 q-42.5 -32 -118.5 -36 l-14 -32 q31 -3 54 -19.5 q23 -16.5 23 -46.5 q0 -36 -32.5 -53.5 q-32.5 -17.5 -80.5 -17.5 Z" /><glyph glyph-name="Scircumflex.smcp" unicode="&#xf69a;" d="M215 -10 q-82 0 -168 25 l0 112 l52 0 l0 -76 q58 -15 116 -15 q57 0 91.5 21 q34.5 21 34.5 62 q0 36 -29.5 59 q-29.5 23 -71 36.5 q-41.5 13.5 -83 28.5 q-41.5 15 -71 46.5 q-29.5 31.5 -29.5 79.5 q0 60 44.5 94 q44.5 34 126.5 34 q78 0 151 -23 l0 -110 l-53 0 l0 75 q-52 12 -96 12 q-58 0 -88 -22 q-30 -22 -30 -58 q0 -34 29.5 -56 q29.5 -22 71.5 -36 q42 -14 83.5 -30 q41.5 -16 71 -48 q29.5 -32 29.5 -81 q0 -65 -48.5 -97.5 q-48.5 -32.5 -133.5 -32.5 ZM101 548 l-16 19 l125 117 l37 0 l125 -117 l-16 -19 l-127 79 l-128 -79 Z" /><glyph glyph-name="Scommaaccent.smcp" unicode="&#xf69b;" d="M192 -88 q18 14 37 14 q19 0 32 -14.5 q13 -14.5 13 -39.5 q0 -29 -18 -63.5 q-18 -34.5 -47 -60.5 l-27 20 q41 50 41 90 q0 39 -31 46 l0 8 ZM215 -10 q-82 0 -168 25 l0 112 l52 0 l0 -76 q58 -15 116 -15 q57 0 91.5 21 q34.5 21 34.5 62 q0 36 -29.5 59 q-29.5 23 -71 36.5 q-41.5 13.5 -83 28.5 q-41.5 15 -71 46.5 q-29.5 31.5 -29.5 79.5 q0 60 44.5 94 q44.5 34 126.5 34 q78 0 151 -23 l0 -110 l-53 0 l0 75 q-52 12 -96 12 q-58 0 -88 -22 q-30 -22 -30 -58 q0 -34 29.5 -56 q29.5 -22 71.5 -36 q42 -14 83.5 -30 q41.5 -16 71 -48 q29.5 -32 29.5 -81 q0 -65 -48.5 -97.5 q-48.5 -32.5 -133.5 -32.5 Z" /><glyph glyph-name="Tbar.smcp" unicode="&#xf69c;" d="M102 217 l0 39 l120 0 l0 185 l-142 0 l0 -87 l-53 0 l0 133 l447 0 l0 -133 l-53 0 l0 87 l-142 0 l0 -185 l120 0 l0 -39 l-120 0 l0 -171 l86 0 l0 -46 l-228 0 l0 46 l85 0 l0 171 l-120 0 Z" /><glyph glyph-name="Tcaron.smcp" unicode="&#xf69d;" d="M136 0 l0 46 l85 0 l0 395 l-142 0 l0 -87 l-53 0 l0 133 l447 0 l0 -133 l-53 0 l0 87 l-142 0 l0 -395 l86 0 l0 -46 l-228 0 ZM230 548 l-124 118 l16 18 l127 -79 l128 79 l16 -18 l-125 -118 l-38 0 Z" /><glyph glyph-name="Tcommaaccent.smcp" unicode="&#xf69e;" d="M250 -69 q19 0 31.5 -14.5 q12.5 -14.5 12.5 -39.5 q0 -30 -17.5 -64 q-17.5 -34 -47.5 -60 l-26 20 q40 51 40 90 q0 39 -31 46 l0 8 q20 14 38 14 ZM136 0 l0 46 l85 0 l0 395 l-142 0 l0 -87 l-53 0 l0 133 l447 0 l0 -133 l-53 0 l0 87 l-142 0 l0 -395 l86 0 l0 -46 l-228 0 Z" /><glyph glyph-name="Ubreve.smcp" unicode="&#xf69f;" d="M299 -10 q-87 0 -141.5 43.5 q-54.5 43.5 -54.5 126.5 l0 281 l-78 0 l0 46 l214 0 l0 -46 l-78 0 l0 -279 q0 -64 38.5 -94 q38.5 -30 100.5 -30 q61 0 99 30.5 q38 30.5 38 93.5 l0 279 l-79 0 l0 46 l212 0 l0 -46 l-78 0 l0 -278 q0 -83 -52 -128 q-52 -45 -141 -45 ZM387.5 576.5 q-34.5 -31.5 -88.5 -31.5 q-54 0 -88.5 31.5 q-34.5 31.5 -37.5 87.5 l43 0 q8 -72 83 -72 q76 0 83 72 l44 0 q-4 -56 -38.5 -87.5 Z" /><glyph glyph-name="Uhungarumlaut.smcp" unicode="&#xf6a0;" d="M299 -10 q-87 0 -141.5 43.5 q-54.5 43.5 -54.5 126.5 l0 281 l-78 0 l0 46 l214 0 l0 -46 l-78 0 l0 -279 q0 -64 38.5 -94 q38.5 -30 100.5 -30 q61 0 99 30.5 q38 30.5 38 93.5 l0 279 l-79 0 l0 46 l212 0 l0 -46 l-78 0 l0 -278 q0 -83 -52 -128 q-52 -45 -141 -45 ZM209 543 l-19 17 l111 149 l41 -40 l-133 -126 ZM349 543 l-19 17 l111 149 l41 -40 l-133 -126 Z" /><glyph glyph-name="Umacron.smcp" unicode="&#xf6a1;" d="M299 -10 q-87 0 -141.5 43.5 q-54.5 43.5 -54.5 126.5 l0 281 l-78 0 l0 46 l214 0 l0 -46 l-78 0 l0 -279 q0 -64 38.5 -94 q38.5 -30 100.5 -30 q61 0 99 30.5 q38 30.5 38 93.5 l0 279 l-79 0 l0 46 l212 0 l0 -46 l-78 0 l0 -278 q0 -83 -52 -128 q-52 -45 -141 -45 ZM182 560 l0 45 l230 0 l0 -45 l-230 0 Z" /><glyph glyph-name="Uogonek.smcp" unicode="&#xf6a2;" d="M358 -177 q-38 0 -62 17 q-24 17 -24 51 q0 55 62 101 q-24 -2 -36 -2 q-86 0 -140.5 43.5 q-54.5 43.5 -54.5 126.5 l0 281 l-78 0 l0 46 l214 0 l0 -46 l-78 0 l0 -279 q0 -64 38.5 -94 q38.5 -30 100.5 -30 q61 0 99 30.5 q38 30.5 38 93.5 l0 279 l-79 0 l0 46 l212 0 l0 -46 l-78 0 l0 -278 q0 -58 -23 -91.5 q-23 -33.5 -62 -58.5 q-82 -56 -82 -109 q0 -43 48 -43 q27 0 55 13 l4 -36 q-39 -15 -74 -15 Z" /><glyph glyph-name="Uring.smcp" unicode="&#xf6a3;" d="M299 -10 q-87 0 -141.5 43.5 q-54.5 43.5 -54.5 126.5 l0 281 l-78 0 l0 46 l214 0 l0 -46 l-78 0 l0 -279 q0 -64 38.5 -94 q38.5 -30 100.5 -30 q61 0 99 30.5 q38 30.5 38 93.5 l0 279 l-79 0 l0 46 l212 0 l0 -46 l-78 0 l0 -278 q0 -83 -52 -128 q-52 -45 -141 -45 ZM371 565.5 q-25 -25.5 -70 -25.5 q-45 0 -70.5 25.5 q-25.5 25.5 -25.5 64.5 q0 38 25.5 63.5 q25.5 25.5 70.5 25.5 q45 0 70 -25.5 q25 -25.5 25 -63.5 q0 -39 -25 -64.5 ZM262 590.5 q14 -15.5 39 -15.5 q25 0 38.5 15.5 q13.5 15.5 13.5 39.5 q0 23 -13.5 38.5 q-13.5 15.5 -38.5 15.5 q-25 0 -39 -15 q-14 -15 -14 -39 q0 -24 14 -39.5 Z" /><glyph glyph-name="Utilde.smcp" unicode="&#xf6a4;" d="M299 -10 q-87 0 -141.5 43.5 q-54.5 43.5 -54.5 126.5 l0 281 l-78 0 l0 46 l214 0 l0 -46 l-78 0 l0 -279 q0 -64 38.5 -94 q38.5 -30 100.5 -30 q61 0 99 30.5 q38 30.5 38 93.5 l0 279 l-79 0 l0 46 l212 0 l0 -46 l-78 0 l0 -278 q0 -83 -52 -128 q-52 -45 -141 -45 ZM173 547 l-25 12 q12 28 19 41.5 q7 13.5 25 30 q18 16.5 41 16.5 q25 0 68 -24 q43 -24 62 -24 q34 0 60 51 l24 -13 q-36 -87 -88 -87 q-25 0 -67.5 23.5 q-42.5 23.5 -60.5 23.5 q-33 0 -58 -50 Z" /><glyph glyph-name="Wcircumflex.smcp" unicode="&#xf6a6;" d="M225 0 l-151 441 l-70 0 l0 46 l210 0 l0 -44 l-83 0 l123 -372 l120 327 l-18 45 l-71 0 l0 44 l211 0 l0 -44 l-84 0 l134 -371 l122 370 l-83 0 l0 45 l208 0 l0 -46 l-70 0 l-152 -441 l-53 0 l-119 326 l-121 -326 l-53 0 ZM264 544 l-16 18 l124 118 l38 0 l124 -118 l-15 -18 l-128 79 l-127 -79 Z" /><glyph glyph-name="Ycircumflex.smcp" unicode="&#xf6a9;" d="M159 0 l0 46 l82 0 l0 135 l-167 260 l-71 0 l0 46 l213 0 l0 -45 l-81 0 l136 -211 l136 212 l-80 0 l0 44 l210 0 l0 -46 l-72 0 l-167 -260 l0 -135 l82 0 l0 -46 l-221 0 ZM143 544 l-16 18 l125 118 l37 0 l125 -118 l-16 -18 l-128 79 l-127 -79 Z" /><glyph glyph-name="Zacute.smcp" unicode="&#xf6ab;" d="M42 0 l0 46 l316 394 l-256 0 l0 -90 l-55 0 l0 137 l380 0 l0 -47 l-316 -394 l277 0 l0 96 l53 0 l0 -142 l-399 0 ZM190 544 l-19 23 l144 135 l40 -48 l-165 -110 Z" /><glyph glyph-name="Zdotaccent.smcp" unicode="&#xf6ac;" d="M42 0 l0 46 l316 394 l-256 0 l0 -90 l-55 0 l0 137 l380 0 l0 -47 l-316 -394 l277 0 l0 96 l53 0 l0 -142 l-399 0 ZM244 549 q-18 0 -30 12.5 q-12 12.5 -12 29.5 q0 17 12 29.5 q12 12.5 30 12.5 q17 0 29.5 -12.5 q12.5 -12.5 12.5 -29.5 q0 -17 -12.5 -29.5 q-12.5 -12.5 -29.5 -12.5 Z" /><glyph glyph-name="Idotaccent.smcp" unicode="&#xf6ad;" d="M39 0 l0 46 l78 0 l0 395 l-78 0 l0 46 l214 0 l0 -46 l-78 0 l0 -395 l78 0 l0 -46 l-214 0 ZM145 549 q-17 0 -29 12.5 q-12 12.5 -12 29.5 q0 17 12 29.5 q12 12.5 29 12.5 q18 0 30 -12.5 q12 -12.5 12 -29.5 q0 -17 -12 -29.5 q-12 -12.5 -30 -12.5 Z" /><glyph glyph-name="parenleft.cap" unicode="&#xf6ae;" d="M179 -148 q-68 97 -104.5 217.5 q-36.5 120.5 -36.5 234.5 q0 113 37 234.5 q37 121.5 104 218.5 l61 0 q-69 -96 -107 -215.5 q-38 -119.5 -38 -237.5 q0 -118 38 -237.5 q38 -119.5 107 -214.5 l-61 0 Z" /><glyph glyph-name="parenright.cap" unicode="&#xf6af;" d="M8 -148 q69 95 107 214.5 q38 119.5 38 237.5 q0 118 -38 237.5 q-38 119.5 -107 215.5 l62 0 q67 -98 103.5 -219 q36.5 -121 36.5 -234 q0 -114 -36.5 -234.5 q-36.5 -120.5 -103.5 -217.5 l-62 0 Z" /><glyph glyph-name="bracketleft.cap" unicode="&#xf6b0;" d="M82 -148 l0 905 l184 0 l0 -42 l-131 0 l0 -822 l131 0 l0 -41 l-184 0 Z" /><glyph glyph-name="bracketright.cap" unicode="&#xf6b1;" d="M18 -148 l0 41 l130 0 l0 822 l-130 0 l0 42 l184 0 l0 -905 l-184 0 Z" /><glyph glyph-name="braceleft.cap" unicode="&#xf6b2;" d="M198 -161 q-48 0 -72 26 q-24 26 -24 70 q0 26 15 102.5 q15 76.5 15 115.5 q0 121 -124 127 l0 49 q124 6 124 127 q0 39 -15 115.5 q-15 76.5 -15 102.5 q0 44 24 70 q24 26 72 26 q25 0 55 -10 l0 -37 q-27 8 -44 8 q-54 0 -54 -59 q0 -23 15 -102 q15 -79 15 -121 q0 -125 -112 -144 q112 -20 112 -145 q0 -42 -15 -121 q-15 -79 -15 -101 q0 -60 54 -60 q17 0 44 8 l0 -37 q-30 -10 -55 -10 Z" /><glyph glyph-name="braceright.cap" unicode="&#xf6b3;" d="M81 -161 q-25 0 -55 10 l0 37 q27 -8 44 -8 q54 0 54 60 q0 22 -15 101 q-15 79 -15 121 q0 125 112 145 q-112 19 -112 144 q0 42 15 121 q15 79 15 102 q0 59 -54 59 q-17 0 -44 -8 l0 37 q30 10 55 10 q47 0 71.5 -26 q24.5 -26 24.5 -70 q0 -26 -15 -102.5 q-15 -76.5 -15 -115.5 q0 -121 124 -127 l0 -49 q-124 -6 -124 -127 q0 -39 15 -115.5 q15 -76.5 15 -102.5 q0 -44 -24.5 -70 q-24.5 -26 -71.5 -26 Z" /><glyph glyph-name="exclamdown.cap" unicode="&#xf6b4;" d="M138 451 l12 -451 l-66 0 l12 451 l42 0 ZM86 605 q13 13 31 13 q18 0 31 -13 q13 -13 13 -32 q0 -18 -13 -31 q-13 -13 -31 -13 q-18 0 -31 13 q-13 13 -13 31 q0 19 13 32 Z" /><glyph glyph-name="questiondown.cap" unicode="&#xf6b5;" d="M209 -11 q-76 0 -122 37 q-46 37 -46 106 q0 46 23.5 85.5 q23.5 39.5 51 62.5 q27.5 23 51 54.5 q23.5 31.5 23.5 63.5 q0 27 -12 53 l55 0 q10 -23 10 -53 q0 -32 -14.5 -60.5 q-14.5 -28.5 -35.5 -50 q-21 -21.5 -42 -42.5 q-21 -21 -35.5 -49.5 q-14.5 -28.5 -14.5 -60.5 q0 -98 116 -98 q50 0 117 21 l0 -47 q-62 -22 -125 -22 ZM175 605 q13 13 31 13 q18 0 31 -13 q13 -13 13 -32 q0 -18 -13 -31 q-13 -13 -31 -13 q-18 0 -31 13 q-13 13 -13 31 q0 19 13 32 Z" /><glyph glyph-name="guillemotleft.cap" unicode="&#xf6b6;" d="M405 127 l-147 176 l0 4 l147 175 l66 0 l-150 -177 l150 -178 l-66 0 ZM195 127 l-147 176 l0 4 l147 175 l67 0 l-151 -177 l151 -178 l-67 0 Z" /><glyph glyph-name="guillemotright.cap" unicode="&#xf6b7;" d="M55 127 l151 178 l-151 177 l67 0 l147 -175 l0 -4 l-147 -176 l-67 0 ZM265 127 l151 178 l-151 177 l66 0 l147 -175 l0 -4 l-147 -176 l-66 0 Z" /><glyph glyph-name="guilsinglleft.cap" unicode="&#xf6b8;" d="M195 127 l-147 176 l0 4 l147 175 l67 0 l-151 -177 l151 -178 l-67 0 Z" /><glyph glyph-name="guilsinglright.cap" unicode="&#xf6b9;" d="M55 127 l151 178 l-151 177 l67 0 l147 -175 l0 -4 l-147 -176 l-67 0 Z" /><glyph glyph-name="hyphen.cap" unicode="&#xf6ba;" d="M60 279 l0 51 l259 0 l0 -51 l-259 0 Z" /><glyph glyph-name="endash.cap" unicode="&#xf6bb;" d="M60 279 l0 51 l466 0 l0 -51 l-466 0 Z" /><glyph glyph-name="emdash.cap" unicode="&#xf6bc;" d="M60 279 l0 51 l661 0 l0 -51 l-661 0 Z" /><glyph glyph-name="periodcentered.cap" unicode="&#xf6bd;" d="M132.5 271 q-12.5 -13 -30.5 -13 q-18 0 -31 13 q-13 13 -13 32 q0 18 13 30.5 q13 12.5 31 12.5 q18 0 30.5 -12.5 q12.5 -12.5 12.5 -30.5 q0 -19 -12.5 -32 Z" /><glyph glyph-name="acute.cap" unicode="&#xf6c9;" d="M82 671 l-19 24 l164 156 l41 -52 l-186 -128 Z" /><glyph glyph-name="caron.cap" unicode="&#xf6ca;" d="M199 676 l-140 135 l17 20 l142 -94 l143 94 l17 -20 l-141 -135 l-38 0 Z" /><glyph glyph-name="dieresis.cap" unicode="&#xf6cb;" d="M157.5 689.5 q-12.5 -12.5 -29.5 -12.5 q-17 0 -29.5 12.5 q-12.5 12.5 -12.5 29.5 q0 18 12.5 30 q12.5 12 29.5 12 q17 0 29.5 -12 q12.5 -12 12.5 -30 q0 -17 -12.5 -29.5 ZM327.5 689.5 q-12.5 -12.5 -29.5 -12.5 q-17 0 -29.5 12.5 q-12.5 12.5 -12.5 29.5 q0 18 12.5 30 q12.5 12 29.5 12 q17 0 29.5 -12 q12.5 -12 12.5 -30 q0 -17 -12.5 -29.5 Z" /><glyph glyph-name="grave.cap" unicode="&#xf6ce;" d="M255 671 l-185 128 l41 52 l164 -156 l-20 -24 Z" /><glyph glyph-name="hungarumlaut.cap" unicode="&#xf6cf;" d="M103 673 l-22 18 l126 170 l45 -41 l-149 -147 ZM258 673 l-22 18 l126 170 l44 -41 l-148 -147 Z" /><glyph glyph-name="macron.cap" unicode="&#xf6d0;" d="M81 679 l0 47 l257 0 l0 -47 l-257 0 Z" /><glyph glyph-name="breve.smcp" unicode="&#xf6f4;" d="M161 545 q-54 0 -88.5 31.5 q-34.5 31.5 -38.5 87.5 l44 0 q7 -72 83 -72 q75 0 82 72 l44 0 q-4 -56 -38.5 -87.5 q-34.5 -31.5 -87.5 -31.5 Z" /><glyph glyph-name="caron.smcp" unicode="&#xf6f5;" d="M164 548 l-124 118 l16 18 l127 -79 l128 79 l16 -18 l-125 -118 l-38 0 Z" /><glyph glyph-name="circumflex.smcp" unicode="&#xf6f6;" d="M57 544 l-16 18 l125 118 l37 0 l125 -118 l-16 -18 l-127 79 l-128 -79 Z" /><glyph glyph-name="dotaccent.smcp" unicode="&#xf6f7;" d="M102 549 q-18 0 -30 12.5 q-12 12.5 -12 29.5 q0 17 12 29.5 q12 12.5 30 12.5 q17 0 29.5 -12.5 q12.5 -12.5 12.5 -29.5 q0 -17 -12.5 -29.5 q-12.5 -12.5 -29.5 -12.5 Z" /><glyph glyph-name="hungarumlaut.smcp" unicode="&#xf6f8;" d="M72 543 l-19 17 l111 149 l42 -40 l-134 -126 ZM212 543 l-19 17 l111 149 l42 -40 l-134 -126 Z" /><glyph glyph-name="Lslash.smcp" unicode="&#xf6f9;" d="M56 172 l-18 33 l79 41 l0 195 l-78 0 l0 46 l222 0 l0 -46 l-86 0 l0 -167 l148 77 l16 -33 l-164 -86 l0 -186 l219 0 l0 93 l53 0 l0 -139 l-408 0 l0 46 l78 0 l0 158 l-61 -32 Z" /><glyph glyph-name="ogonek.smcp" unicode="&#xf6fb;" d="M130 -177 q-37 0 -61 17 q-24 17 -24 51 q0 73 108 129 l23 -14 q-78 -52 -78 -104 q0 -41 47 -41 q27 0 55 13 l4 -36 q-36 -15 -74 -15 Z" /><glyph glyph-name="ring.smcp" unicode="&#xf6fc;" d="M222.5 565.5 q-25.5 -25.5 -70.5 -25.5 q-45 0 -70.5 26 q-25.5 26 -25.5 64 q0 38 25.5 63.5 q25.5 25.5 70.5 25.5 q46 0 71 -25.5 q25 -25.5 25 -63.5 q0 -39 -25.5 -64.5 ZM113.5 590.5 q13.5 -15.5 38.5 -15.5 q25 0 39 15.5 q14 15.5 14 39.5 q0 24 -14 39 q-14 15 -39 15 q-25 0 -38.5 -15.5 q-13.5 -15.5 -13.5 -38.5 q0 -24 13.5 -39.5 Z" /><glyph glyph-name="Scaron.smcp" unicode="&#xf6fd;" d="M215 -10 q-82 0 -168 25 l0 112 l52 0 l0 -76 q58 -15 116 -15 q57 0 91.5 21 q34.5 21 34.5 62 q0 36 -29.5 59 q-29.5 23 -71 36.5 q-41.5 13.5 -83 28.5 q-41.5 15 -71 46.5 q-29.5 31.5 -29.5 79.5 q0 60 44.5 94 q44.5 34 126.5 34 q78 0 151 -23 l0 -110 l-53 0 l0 75 q-52 12 -96 12 q-58 0 -88 -22 q-30 -22 -30 -58 q0 -34 29.5 -56 q29.5 -22 71.5 -36 q42 -14 83.5 -30 q41.5 -16 71 -48 q29.5 -32 29.5 -81 q0 -65 -48.5 -97.5 q-48.5 -32.5 -133.5 -32.5 ZM210 552 l-124 118 l15 18 l128 -79 l127 79 l16 -18 l-125 -118 l-37 0 Z" /><glyph glyph-name="tilde.smcp" unicode="&#xf6fe;" d="M79 547 l-25 12 q12 28 19 41.5 q7 13.5 25 30 q18 16.5 41 16.5 q25 0 67.5 -24 q42.5 -24 62.5 -24 q34 0 60 51 l24 -13 q-36 -87 -88 -87 q-25 0 -67.5 23.5 q-42.5 23.5 -60.5 23.5 q-33 0 -58 -50 Z" /><glyph glyph-name="Zcaron.smcp" unicode="&#xf6ff;" d="M42 0 l0 46 l316 394 l-256 0 l0 -90 l-55 0 l0 137 l380 0 l0 -47 l-316 -394 l277 0 l0 96 l53 0 l0 -142 l-399 0 ZM225 548 l-125 118 l16 18 l127 -79 l128 79 l16 -18 l-125 -118 l-37 0 Z" /><glyph glyph-name="exclam.smcp" unicode="&#xf721;" d="M94 129 l-10 358 l61 0 l-10 -358 l-41 0 ZM114 -7 q-16 0 -28 11.5 q-12 11.5 -12 28.5 q0 17 11.5 28.5 q11.5 11.5 28.5 11.5 q17 0 29 -11.5 q12 -11.5 12 -28.5 q0 -17 -12 -28.5 q-12 -11.5 -29 -11.5 Z" /><glyph glyph-name="ampersand.smcp" unicode="&#xf726;" d="M209 -9 q-73 0 -118.5 34 q-45.5 34 -45.5 96 q0 51 29 85 q29 34 84 69 l-6 8 q-53 59 -53 108 q0 44 31 74.5 q31 30.5 86 30.5 q54 0 83 -29.5 q29 -29.5 29 -71.5 q0 -39 -25 -68 q-25 -29 -69 -57 l131 -146 q37 53 47 129 l-63 0 l0 41 l169 0 l0 -41 l-57 0 q-12 -97 -62 -166 q46 -49 80 -49 q13 0 27 6 l0 -47 q-20 -6 -39 -6 q-48 0 -103 57 q-62 -57 -155 -57 ZM214 36 q69 0 118 47 l-142 157 q-44 -27 -67.5 -52 q-23.5 -25 -23.5 -62 q0 -43 32.5 -66.5 q32.5 -23.5 82.5 -23.5 ZM216 456 q-28 0 -46 -17 q-18 -17 -18 -45 q0 -29 43 -81 l9 -10 q75 48 75 93 q0 25 -16.5 42.5 q-16.5 17.5 -46.5 17.5 Z" /><glyph glyph-name="question.smcp" unicode="&#xf73f;" d="M141 496 q64 0 103 -29 q39 -29 39 -84 q0 -37 -19.5 -68.5 q-19.5 -31.5 -42.5 -50 q-23 -18.5 -42.5 -43.5 q-19.5 -25 -19.5 -50 q0 -22 10 -42 l-53 0 q-8 16 -8 43 q0 29 18.5 56.5 q18.5 27.5 40 45.5 q21.5 18 40 46 q18.5 28 18.5 58 q0 75 -93 75 q-41 0 -97 -16 l0 43 q56 16 106 16 ZM171.5 4.5 q-11.5 -11.5 -28.5 -11.5 q-17 0 -28.5 11.5 q-11.5 11.5 -11.5 28.5 q0 17 11.5 28.5 q11.5 11.5 28.5 11.5 q17 0 28.5 -11.5 q11.5 -11.5 11.5 -28.5 q0 -17 -11.5 -28.5 Z" /><glyph glyph-name="grave.smcp" unicode="&#xf760;" d="M214 544 l-165 110 l40 48 l144 -135 l-19 -23 Z" /><glyph glyph-name="A.smcp" unicode="&#xf761;" d="M5 0 l0 46 l70 0 l165 395 l-73 0 l0 46 l159 0 l183 -441 l71 0 l0 -46 l-212 0 l0 46 l83 0 l-48 115 l-225 0 l-47 -115 l82 0 l0 -46 l-208 0 ZM196 207 l190 0 l-94 229 l-96 -229 Z" /><glyph glyph-name="B.smcp" unicode="&#xf762;" d="M39 0 l0 45 l78 0 l0 397 l-78 0 l0 45 l232 0 q81 0 131.5 -32.5 q50.5 -32.5 50.5 -91.5 q0 -88 -102 -113 q63 -11 93 -44 q30 -33 30 -78 q0 -60 -51.5 -94 q-51.5 -34 -137.5 -34 l-246 0 ZM174 45 l109 0 q62 0 98 23 q36 23 36 66 q0 44 -37 68 q-37 24 -102 24 l-104 0 l0 -181 ZM174 269 l88 0 q64 0 100 23 q36 23 36 64 q0 42 -34 64 q-34 22 -94 22 l-96 0 l0 -173 Z" /><glyph glyph-name="C.smcp" unicode="&#xf763;" d="M309 -10 q-118 0 -192.5 67 q-74.5 67 -74.5 185 q0 115 73 185 q73 70 196 70 q88 0 175 -37 l0 -119 l-55 0 l0 89 q-53 20 -117 20 q-96 0 -154.5 -54 q-58.5 -54 -58.5 -152 q0 -99 60 -152.5 q60 -53.5 154 -53.5 q88 0 173 47 l0 -51 q-75 -44 -179 -44 Z" /><glyph glyph-name="D.smcp" unicode="&#xf764;" d="M39 0 l0 46 l78 0 l0 395 l-78 0 l0 46 l224 0 q120 0 194.5 -64 q74.5 -64 74.5 -180 q0 -116 -74.5 -179.5 q-74.5 -63.5 -194.5 -63.5 l-224 0 ZM175 46 l90 0 q95 0 151.5 52.5 q56.5 52.5 56.5 144.5 q0 93 -56 145.5 q-56 52.5 -152 52.5 l-90 0 l0 -395 Z" /><glyph glyph-name="E.smcp" unicode="&#xf765;" d="M39 0 l0 46 l78 0 l0 395 l-78 0 l0 46 l406 0 l0 -133 l-53 0 l0 87 l-217 0 l0 -173 l221 0 l0 -45 l-221 0 l0 -177 l219 0 l0 88 l53 0 l0 -134 l-408 0 Z" /><glyph glyph-name="F.smcp" unicode="&#xf766;" d="M39 0 l0 46 l78 0 l0 395 l-78 0 l0 46 l402 0 l0 -143 l-53 0 l0 97 l-213 0 l0 -184 l205 0 l0 -46 l-205 0 l0 -165 l91 0 l0 -46 l-227 0 Z" /><glyph glyph-name="G.smcp" unicode="&#xf767;" d="M314 -10 q-130 0 -201 69 q-71 69 -71 183 q0 116 74 185.5 q74 69.5 202 69.5 q96 0 184 -36 l0 -112 l-54 0 l0 80 q-64 20 -128 20 q-101 0 -160.5 -55 q-59.5 -55 -59.5 -150 q0 -90 54.5 -148.5 q54.5 -58.5 159.5 -58.5 q64 0 143 29 l0 142 l-126 0 l0 45 l228 0 l0 -45 l-48 0 l0 -173 q-109 -45 -197 -45 Z" /><glyph glyph-name="H.smcp" unicode="&#xf768;" d="M39 0 l0 46 l78 0 l0 395 l-78 0 l0 46 l214 0 l0 -46 l-78 0 l0 -171 l292 0 l0 171 l-78 0 l0 46 l214 0 l0 -46 l-79 0 l0 -395 l79 0 l0 -46 l-214 0 l0 46 l78 0 l0 177 l-292 0 l0 -177 l78 0 l0 -46 l-214 0 Z" /><glyph glyph-name="I.smcp" unicode="&#xf769;" d="M39 0 l0 46 l78 0 l0 395 l-78 0 l0 46 l214 0 l0 -46 l-78 0 l0 -395 l78 0 l0 -46 l-214 0 Z" /><glyph glyph-name="J.smcp" unicode="&#xf76a;" d="M45 -136 l-20 39 q82 40 82 104 l0 434 l-78 0 l0 46 l214 0 l0 -46 l-78 0 l0 -439 q0 -29 -11 -53 q-11 -24 -31.5 -40 q-20.5 -16 -37 -25.5 q-16.5 -9.5 -40.5 -19.5 Z" /><glyph glyph-name="K.smcp" unicode="&#xf76b;" d="M436 0 l-222 243 l0 4 l199 195 l-78 0 l0 45 l209 0 l0 -46 l-67 0 l-196 -192 l189 -203 l81 0 l0 -46 l-115 0 ZM39 0 l0 46 l78 0 l0 395 l-78 0 l0 46 l214 0 l0 -46 l-78 0 l0 -395 l78 0 l0 -46 l-214 0 Z" /><glyph glyph-name="L.smcp" unicode="&#xf76c;" d="M39 0 l0 46 l78 0 l0 395 l-78 0 l0 46 l222 0 l0 -46 l-86 0 l0 -395 l219 0 l0 93 l53 0 l0 -139 l-408 0 Z" /><glyph glyph-name="M.smcp" unicode="&#xf76d;" d="M34 0 l0 46 l77 0 l15 396 l-76 0 l0 45 l162 0 l166 -382 l167 382 l162 0 l0 -45 l-76 0 l15 -396 l76 0 l0 -46 l-206 0 l0 46 l79 0 l-16 390 l-181 -408 l-39 0 l-181 408 l-15 -390 l78 0 l0 -46 l-207 0 Z" /><glyph glyph-name="N.smcp" unicode="&#xf76e;" d="M38 0 l0 46 l80 0 l0 395 l-80 0 l0 46 l137 0 l298 -401 l0 355 l-82 0 l0 46 l214 0 l0 -46 l-79 0 l0 -441 l-50 0 l-305 407 l0 -361 l81 0 l0 -46 l-214 0 Z" /><glyph glyph-name="O.smcp" unicode="&#xf76f;" d="M488 61.5 q-71 -71.5 -188 -71.5 q-117 0 -187.5 71.5 q-70.5 71.5 -70.5 182.5 q0 111 70.5 182 q70.5 71 187.5 71 q117 0 188 -71 q71 -71 71 -182 q0 -111 -71 -182.5 ZM155.5 94.5 q55.5 -56.5 144.5 -56.5 q89 0 144.5 56.5 q55.5 56.5 55.5 149.5 q0 93 -55 149 q-55 56 -145 56 q-90 0 -145 -56 q-55 -56 -55 -149 q0 -93 55.5 -149.5 Z" /><glyph glyph-name="P.smcp" unicode="&#xf770;" d="M39 0 l0 46 l78 0 l0 395 l-78 0 l0 46 l224 0 q82 0 140 -38.5 q58 -38.5 58 -113.5 q0 -75 -58 -113 q-58 -38 -140 -38 l-88 0 l0 -138 l94 0 l0 -46 l-230 0 ZM175 441 l0 -212 l89 0 q70 0 105 28.5 q35 28.5 35 77.5 q0 49 -35 77.5 q-35 28.5 -105 28.5 l-89 0 Z" /><glyph glyph-name="Q.smcp" unicode="&#xf771;" d="M455 -111 l-161 101 q-115 2 -183.5 73 q-68.5 71 -68.5 181 q0 111 70.5 182 q70.5 71 187.5 71 q117 0 188 -71 q71 -71 71 -182 q0 -94 -52 -160.5 q-52 -66.5 -141 -84.5 l118 -65 l-29 -45 ZM155.5 94.5 q55.5 -56.5 144.5 -56.5 q89 0 144.5 56.5 q55.5 56.5 55.5 149.5 q0 93 -55 149 q-55 56 -145 56 q-90 0 -145 -56 q-55 -56 -55 -149 q0 -93 55.5 -149.5 Z" /><glyph glyph-name="R.smcp" unicode="&#xf772;" d="M39 0 l0 46 l78 0 l0 395 l-78 0 l0 46 l233 0 q81 0 139 -37 q58 -37 58 -110 q0 -51 -31 -86 q-31 -35 -88 -49 l91 -159 l78 0 l0 -46 l-116 0 l-107 192 q-10 -1 -28 -1 l-93 0 l0 -145 l78 0 l0 -46 l-214 0 ZM175 236 l97 0 q70 0 105 27.5 q35 27.5 35 74.5 q0 49 -35 76 q-35 27 -105 27 l-97 0 l0 -205 Z" /><glyph glyph-name="S.smcp" unicode="&#xf773;" d="M215 -10 q-82 0 -168 25 l0 112 l52 0 l0 -76 q58 -15 116 -15 q57 0 91.5 21 q34.5 21 34.5 62 q0 36 -29.5 59 q-29.5 23 -71 36.5 q-41.5 13.5 -83 28.5 q-41.5 15 -71 46.5 q-29.5 31.5 -29.5 79.5 q0 60 44.5 94 q44.5 34 126.5 34 q78 0 151 -23 l0 -110 l-53 0 l0 75 q-52 12 -96 12 q-58 0 -88 -22 q-30 -22 -30 -58 q0 -34 29.5 -56 q29.5 -22 71.5 -36 q42 -14 83.5 -30 q41.5 -16 71 -48 q29.5 -32 29.5 -81 q0 -65 -48.5 -97.5 q-48.5 -32.5 -133.5 -32.5 Z" /><glyph glyph-name="T.smcp" unicode="&#xf774;" d="M136 0 l0 46 l85 0 l0 395 l-142 0 l0 -87 l-53 0 l0 133 l447 0 l0 -133 l-53 0 l0 87 l-142 0 l0 -395 l86 0 l0 -46 l-228 0 Z" /><glyph glyph-name="U.smcp" unicode="&#xf775;" d="M299 -10 q-87 0 -141.5 43.5 q-54.5 43.5 -54.5 126.5 l0 281 l-78 0 l0 46 l214 0 l0 -46 l-78 0 l0 -279 q0 -64 38.5 -94 q38.5 -30 100.5 -30 q61 0 99 30.5 q38 30.5 38 93.5 l0 279 l-79 0 l0 46 l212 0 l0 -46 l-78 0 l0 -278 q0 -83 -52 -128 q-52 -45 -141 -45 Z" /><glyph glyph-name="V.smcp" unicode="&#xf776;" d="M254 0 l-182 441 l-70 0 l0 46 l215 0 l0 -45 l-86 0 l151 -377 l152 377 l-86 0 l0 45 l213 0 l0 -46 l-70 0 l-182 -441 l-55 0 Z" /><glyph glyph-name="W.smcp" unicode="&#xf777;" d="M225 0 l-151 441 l-70 0 l0 46 l210 0 l0 -44 l-83 0 l123 -372 l120 327 l-18 45 l-71 0 l0 44 l211 0 l0 -44 l-84 0 l134 -371 l122 370 l-83 0 l0 45 l208 0 l0 -46 l-70 0 l-152 -441 l-53 0 l-119 326 l-121 -326 l-53 0 Z" /><glyph glyph-name="X.smcp" unicode="&#xf778;" d="M19 0 l0 45 l66 0 l158 201 l-149 195 l-68 0 l0 46 l208 0 l0 -44 l-78 0 l120 -158 l122 158 l-77 0 l0 44 l205 0 l0 -46 l-68 0 l-153 -194 l156 -202 l69 0 l0 -45 l-209 0 l0 45 l77 0 l-125 163 l-127 -163 l78 0 l0 -45 l-205 0 Z" /><glyph glyph-name="Y.smcp" unicode="&#xf779;" d="M159 0 l0 46 l82 0 l0 135 l-167 260 l-71 0 l0 46 l213 0 l0 -45 l-81 0 l136 -211 l136 212 l-80 0 l0 44 l210 0 l0 -46 l-72 0 l-167 -260 l0 -135 l82 0 l0 -46 l-221 0 Z" /><glyph glyph-name="Z.smcp" unicode="&#xf77a;" d="M42 0 l0 46 l316 394 l-256 0 l0 -90 l-55 0 l0 137 l380 0 l0 -47 l-316 -394 l277 0 l0 96 l53 0 l0 -142 l-399 0 Z" /><glyph glyph-name="exclamdown.smcp" unicode="&#xf7a1;" d="M134 358 l10 -358 l-61 0 l10 358 l41 0 ZM85 482 q12 12 29 12 q17 0 28.5 -12 q11.5 -12 11.5 -29 q0 -16 -11.5 -27.5 q-11.5 -11.5 -28.5 -11.5 q-17 0 -29 11.5 q-12 11.5 -12 27.5 q0 17 12 29 Z" /><glyph glyph-name="dieresis.smcp" unicode="&#xf7a8;" d="M121.5 564.5 q-11.5 -11.5 -27.5 -11.5 q-16 0 -27.5 11.5 q-11.5 11.5 -11.5 27.5 q0 16 11.5 27.5 q11.5 11.5 27.5 11.5 q16 0 27.5 -11.5 q11.5 -11.5 11.5 -27.5 q0 -16 -11.5 -27.5 ZM275 564.5 q-11 -11.5 -28 -11.5 q-17 0 -28 11.5 q-11 11.5 -11 27.5 q0 16 11 27.5 q11 11.5 28 11.5 q17 0 28 -11.5 q11 -11.5 11 -27.5 q0 -16 -11 -27.5 Z" /><glyph glyph-name="macron.smcp" unicode="&#xf7af;" d="M57 560 l0 45 l230 0 l0 -45 l-230 0 Z" /><glyph glyph-name="acute.smcp" unicode="&#xf7b4;" d="M67 544 l-19 23 l145 135 l39 -48 l-165 -110 Z" /><glyph glyph-name="cedilla.smcp" unicode="&#xf7b8;" d="M88 -178 q-24 0 -48 4 l9 35 q30 -3 38 -3 q63 0 63 35 q0 37 -73 37 l0 16 l38 73 l30 -10 l-21 -50 q31 -3 54 -19.5 q23 -16.5 23 -46.5 q0 -36 -32.5 -53.5 q-32.5 -17.5 -80.5 -17.5 Z" /><glyph glyph-name="questiondown.smcp" unicode="&#xf7bf;" d="M188 -9 q-64 0 -103 29 q-39 29 -39 84 q0 37 19.5 68.5 q19.5 31.5 42.5 50 q23 18.5 42.5 43.5 q19.5 25 19.5 50 q0 20 -10 42 l54 0 q7 -17 7 -43 q0 -24 -12 -46 q-12 -22 -29 -39.5 q-17 -17.5 -34 -34.5 q-17 -17 -29 -39 q-12 -22 -12 -47 q0 -75 93 -75 q47 0 97 16 l0 -43 q-56 -16 -107 -16 ZM157.5 482 q11.5 12 28.5 12 q17 0 29 -12 q12 -12 12 -29 q0 -16 -12 -27.5 q-12 -11.5 -29 -11.5 q-17 0 -28.5 11.5 q-11.5 11.5 -11.5 27.5 q0 17 11.5 29 Z" /><glyph glyph-name="Agrave.smcp" unicode="&#xf7e0;" d="M5 0 l0 46 l70 0 l165 395 l-73 0 l0 46 l159 0 l183 -441 l71 0 l0 -46 l-212 0 l0 46 l83 0 l-48 115 l-225 0 l-47 -115 l82 0 l0 -46 l-208 0 ZM196 207 l190 0 l-94 229 l-96 -229 ZM333 544 l-166 110 l40 48 l145 -135 l-19 -23 Z" /><glyph glyph-name="Aacute.smcp" unicode="&#xf7e1;" d="M5 0 l0 46 l70 0 l165 395 l-73 0 l0 46 l159 0 l183 -441 l71 0 l0 -46 l-212 0 l0 46 l83 0 l-48 115 l-225 0 l-47 -115 l82 0 l0 -46 l-208 0 ZM196 207 l190 0 l-94 229 l-96 -229 ZM219 544 l-19 23 l145 135 l40 -48 l-166 -110 Z" /><glyph glyph-name="Acircumflex.smcp" unicode="&#xf7e2;" d="M5 0 l0 46 l70 0 l165 395 l-73 0 l0 46 l159 0 l183 -441 l71 0 l0 -46 l-212 0 l0 46 l83 0 l-48 115 l-225 0 l-47 -115 l82 0 l0 -46 l-208 0 ZM196 207 l190 0 l-94 229 l-96 -229 ZM150 544 l-16 18 l124 118 l38 0 l124 -118 l-15 -18 l-128 79 l-127 -79 Z" /><glyph glyph-name="Atilde.smcp" unicode="&#xf7e3;" d="M5 0 l0 46 l70 0 l165 395 l-73 0 l0 46 l159 0 l183 -441 l71 0 l0 -46 l-212 0 l0 46 l83 0 l-48 115 l-225 0 l-47 -115 l82 0 l0 -46 l-208 0 ZM196 207 l190 0 l-94 229 l-96 -229 ZM153 547 l-24 12 q8 20 13 30.5 q5 10.5 15.5 26.5 q10.5 16 24.5 23.5 q14 7.5 32 7.5 q25 0 67.5 -24 q42.5 -24 62.5 -24 q33 0 59 51 l24 -13 q-10 -24 -18.5 -39.5 q-8.5 -15.5 -27 -31.5 q-18.5 -16 -41.5 -16 q-25 0 -67.5 23.5 q-42.5 23.5 -60.5 23.5 q-34 0 -59 -50 Z" /><glyph glyph-name="Adieresis.smcp" unicode="&#xf7e4;" d="M5 0 l0 46 l70 0 l165 395 l-73 0 l0 46 l159 0 l183 -441 l71 0 l0 -46 l-212 0 l0 46 l83 0 l-48 115 l-225 0 l-47 -115 l82 0 l0 -46 l-208 0 ZM196 207 l190 0 l-94 229 l-96 -229 ZM229 564.5 q-11 -11.5 -28 -11.5 q-17 0 -28 11.5 q-11 11.5 -11 27.5 q0 16 11 27.5 q11 11.5 28 11.5 q17 0 28 -11.5 q11 -11.5 11 -27.5 q0 -16 -11 -27.5 ZM381.5 564.5 q-11.5 -11.5 -27.5 -11.5 q-16 0 -27.5 11.5 q-11.5 11.5 -11.5 27.5 q0 16 11.5 27.5 q11.5 11.5 27.5 11.5 q16 0 27.5 -11.5 q11.5 -11.5 11.5 -27.5 q0 -16 -11.5 -27.5 Z" /><glyph glyph-name="Aring.smcp" unicode="&#xf7e5;" d="M5 0 l0 46 l70 0 l165 395 l-73 0 l0 46 l159 0 l183 -441 l71 0 l0 -46 l-212 0 l0 46 l83 0 l-48 115 l-225 0 l-47 -115 l82 0 l0 -46 l-208 0 ZM196 207 l190 0 l-94 229 l-96 -229 ZM350.5 565.5 q-25.5 -25.5 -70.5 -25.5 q-45 0 -70.5 26 q-25.5 26 -25.5 64 q0 38 25.5 63.5 q25.5 25.5 70.5 25.5 q46 0 71 -25.5 q25 -25.5 25 -63.5 q0 -39 -25.5 -64.5 ZM241.5 590.5 q13.5 -15.5 38.5 -15.5 q25 0 39 15.5 q14 15.5 14 39.5 q0 24 -14 39 q-14 15 -39 15 q-25 0 -38.5 -15.5 q-13.5 -15.5 -13.5 -38.5 q0 -24 13.5 -39.5 Z" /><glyph glyph-name="AE.smcp" unicode="&#xf7e6;" d="M5 0 l0 47 l65 0 l278 394 l-63 0 l0 46 l452 0 l0 -133 l-53 0 l0 87 l-208 0 l0 -173 l211 0 l0 -45 l-211 0 l0 -177 l209 0 l0 88 l53 0 l0 -134 l-394 0 l0 46 l76 0 l0 114 l-207 0 l-80 -114 l70 0 l0 -46 l-198 0 ZM408 441 l-166 -236 l178 0 l0 236 l-12 0 Z" /><glyph glyph-name="Ccedilla.smcp" unicode="&#xf7e7;" d="M272 -178 q-23 0 -49 4 l10 35 q30 -3 38 -3 q62 0 62 35 q0 37 -73 37 l0 16 l24 45 q-108 7 -175 73 q-67 66 -67 178 q0 115 73 185 q73 70 196 70 q88 0 175 -37 l0 -119 l-55 0 l0 89 q-53 20 -117 20 q-96 0 -154.5 -54 q-58.5 -54 -58.5 -152 q0 -99 60 -152.5 q60 -53.5 154 -53.5 q88 0 173 47 l0 -51 q-72 -41 -167 -44 l-14 -31 q31 -3 54 -19.5 q23 -16.5 23 -46.5 q0 -36 -32 -53.5 q-32 -17.5 -80 -17.5 Z" /><glyph glyph-name="Egrave.smcp" unicode="&#xf7e8;" d="M39 0 l0 46 l78 0 l0 395 l-78 0 l0 46 l406 0 l0 -133 l-53 0 l0 87 l-217 0 l0 -173 l221 0 l0 -45 l-221 0 l0 -177 l219 0 l0 88 l53 0 l0 -134 l-408 0 ZM307 544 l-165 110 l40 48 l144 -135 l-19 -23 Z" /><glyph glyph-name="Eacute.smcp" unicode="&#xf7e9;" d="M39 0 l0 46 l78 0 l0 395 l-78 0 l0 46 l406 0 l0 -133 l-53 0 l0 87 l-217 0 l0 -173 l221 0 l0 -45 l-221 0 l0 -177 l219 0 l0 88 l53 0 l0 -134 l-408 0 ZM206 544 l-19 23 l144 135 l40 -48 l-165 -110 Z" /><glyph glyph-name="Ecircumflex.smcp" unicode="&#xf7ea;" d="M39 0 l0 46 l78 0 l0 395 l-78 0 l0 46 l406 0 l0 -133 l-53 0 l0 87 l-217 0 l0 -173 l221 0 l0 -45 l-221 0 l0 -177 l219 0 l0 88 l53 0 l0 -134 l-408 0 ZM130 544 l-16 18 l125 118 l37 0 l125 -118 l-16 -18 l-128 79 l-127 -79 Z" /><glyph glyph-name="Edieresis.smcp" unicode="&#xf7eb;" d="M39 0 l0 46 l78 0 l0 395 l-78 0 l0 46 l406 0 l0 -133 l-53 0 l0 87 l-217 0 l0 -173 l221 0 l0 -45 l-221 0 l0 -177 l219 0 l0 88 l53 0 l0 -134 l-408 0 ZM211.5 564.5 q-11.5 -11.5 -27.5 -11.5 q-16 0 -27.5 11.5 q-11.5 11.5 -11.5 27.5 q0 16 11.5 27.5 q11.5 11.5 27.5 11.5 q16 0 27.5 -11.5 q11.5 -11.5 11.5 -27.5 q0 -16 -11.5 -27.5 ZM365 564.5 q-11 -11.5 -28 -11.5 q-17 0 -28 11.5 q-11 11.5 -11 27.5 q0 16 11 27.5 q11 11.5 28 11.5 q17 0 28 -11.5 q11 -11.5 11 -27.5 q0 -16 -11 -27.5 Z" /><glyph glyph-name="Igrave.smcp" unicode="&#xf7ec;" d="M39 0 l0 46 l78 0 l0 395 l-78 0 l0 46 l214 0 l0 -46 l-78 0 l0 -395 l78 0 l0 -46 l-214 0 ZM210 544 l-165 110 l40 48 l144 -135 l-19 -23 Z" /><glyph glyph-name="Iacute.smcp" unicode="&#xf7ed;" d="M39 0 l0 46 l78 0 l0 395 l-78 0 l0 46 l214 0 l0 -46 l-78 0 l0 -395 l78 0 l0 -46 l-214 0 ZM86 544 l-19 23 l145 135 l39 -48 l-165 -110 Z" /><glyph glyph-name="Icircumflex.smcp" unicode="&#xf7ee;" d="M39 0 l0 46 l78 0 l0 395 l-78 0 l0 46 l214 0 l0 -46 l-78 0 l0 -395 l78 0 l0 -46 l-214 0 ZM18 544 l-16 18 l125 118 l37 0 l125 -118 l-16 -18 l-128 79 l-127 -79 Z" /><glyph glyph-name="Idieresis.smcp" unicode="&#xf7ef;" d="M39 0 l0 46 l78 0 l0 395 l-78 0 l0 46 l214 0 l0 -46 l-78 0 l0 -395 l78 0 l0 -46 l-214 0 ZM97 564.5 q-11 -11.5 -28 -11.5 q-17 0 -28 11.5 q-11 11.5 -11 27.5 q0 16 11 27.5 q11 11.5 28 11.5 q17 0 28 -11.5 q11 -11.5 11 -27.5 q0 -16 -11 -27.5 ZM249.5 564.5 q-11.5 -11.5 -27.5 -11.5 q-16 0 -27.5 11.5 q-11.5 11.5 -11.5 27.5 q0 16 11.5 27.5 q11.5 11.5 27.5 11.5 q16 0 27.5 -11.5 q11.5 -11.5 11.5 -27.5 q0 -16 -11.5 -27.5 Z" /><glyph glyph-name="Eth.smcp" unicode="&#xf7f0;" d="M46 224 l0 43 l72 0 l0 174 l-78 0 l0 46 l224 0 q119 0 194 -64 q75 -64 75 -180 q0 -116 -75 -179.5 q-75 -63.5 -194 -63.5 l-224 0 l0 46 l78 0 l0 178 l-72 0 ZM175 46 l91 0 q95 0 151.5 52.5 q56.5 52.5 56.5 144.5 q0 93 -56 145.5 q-56 52.5 -152 52.5 l-91 0 l0 -174 l139 0 l0 -43 l-139 0 l0 -178 Z" /><glyph glyph-name="Ntilde.smcp" unicode="&#xf7f1;" d="M38 0 l0 46 l80 0 l0 395 l-80 0 l0 46 l137 0 l298 -401 l0 355 l-82 0 l0 46 l214 0 l0 -46 l-79 0 l0 -441 l-50 0 l-305 407 l0 -361 l81 0 l0 -46 l-214 0 ZM196 547 l-24 12 q8 20 13 30.5 q5 10.5 15.5 26.5 q10.5 16 24.5 23.5 q14 7.5 32 7.5 q25 0 67.5 -24 q42.5 -24 62.5 -24 q33 0 59 51 l24 -13 q-10 -24 -18.5 -39.5 q-8.5 -15.5 -27 -31.5 q-18.5 -16 -41.5 -16 q-25 0 -67.5 23.5 q-42.5 23.5 -60.5 23.5 q-34 0 -59 -50 Z" /><glyph glyph-name="Ograve.smcp" unicode="&#xf7f2;" d="M488 61.5 q-71 -71.5 -188 -71.5 q-117 0 -187.5 71.5 q-70.5 71.5 -70.5 182.5 q0 111 70.5 182 q70.5 71 187.5 71 q117 0 188 -71 q71 -71 71 -182 q0 -111 -71 -182.5 ZM155.5 94.5 q55.5 -56.5 144.5 -56.5 q89 0 144.5 56.5 q55.5 56.5 55.5 149.5 q0 93 -55 149 q-55 56 -145 56 q-90 0 -145 -56 q-55 -56 -55 -149 q0 -93 55.5 -149.5 ZM337 548 l-165 110 l39 49 l145 -136 l-19 -23 Z" /><glyph glyph-name="Oacute.smcp" unicode="&#xf7f3;" d="M488 61.5 q-71 -71.5 -188 -71.5 q-117 0 -187.5 71.5 q-70.5 71.5 -70.5 182.5 q0 111 70.5 182 q70.5 71 187.5 71 q117 0 188 -71 q71 -71 71 -182 q0 -111 -71 -182.5 ZM155.5 94.5 q55.5 -56.5 144.5 -56.5 q89 0 144.5 56.5 q55.5 56.5 55.5 149.5 q0 93 -55 149 q-55 56 -145 56 q-90 0 -145 -56 q-55 -56 -55 -149 q0 -93 55.5 -149.5 ZM247 548 l-19 23 l144 136 l40 -49 l-165 -110 Z" /><glyph glyph-name="Ocircumflex.smcp" unicode="&#xf7f4;" d="M488 61.5 q-71 -71.5 -188 -71.5 q-117 0 -187.5 71.5 q-70.5 71.5 -70.5 182.5 q0 111 70.5 182 q70.5 71 187.5 71 q117 0 188 -71 q71 -71 71 -182 q0 -111 -71 -182.5 ZM155.5 94.5 q55.5 -56.5 144.5 -56.5 q89 0 144.5 56.5 q55.5 56.5 55.5 149.5 q0 93 -55 149 q-55 56 -145 56 q-90 0 -145 -56 q-55 -56 -55 -149 q0 -93 55.5 -149.5 ZM173 548 l-16 19 l125 117 l37 0 l125 -117 l-16 -19 l-128 79 l-127 -79 Z" /><glyph glyph-name="Otilde.smcp" unicode="&#xf7f5;" d="M488 61.5 q-71 -71.5 -188 -71.5 q-117 0 -187.5 71.5 q-70.5 71.5 -70.5 182.5 q0 111 70.5 182 q70.5 71 187.5 71 q117 0 188 -71 q71 -71 71 -182 q0 -111 -71 -182.5 ZM155.5 94.5 q55.5 -56.5 144.5 -56.5 q89 0 144.5 56.5 q55.5 56.5 55.5 149.5 q0 93 -55 149 q-55 56 -145 56 q-90 0 -145 -56 q-55 -56 -55 -149 q0 -93 55.5 -149.5 ZM174 552 l-25 11 q8 20 13 30.5 q5 10.5 15.5 26.5 q10.5 16 24.5 23.5 q14 7.5 32 7.5 q26 0 68 -23.5 q42 -23.5 62 -23.5 q32 0 60 51 l24 -14 q-36 -87 -88 -87 q-25 0 -67.5 23.5 q-42.5 23.5 -60.5 23.5 q-34 0 -58 -49 Z" /><glyph glyph-name="Odieresis.smcp" unicode="&#xf7f6;" d="M488 61.5 q-71 -71.5 -188 -71.5 q-117 0 -187.5 71.5 q-70.5 71.5 -70.5 182.5 q0 111 70.5 182 q70.5 71 187.5 71 q117 0 188 -71 q71 -71 71 -182 q0 -111 -71 -182.5 ZM155.5 94.5 q55.5 -56.5 144.5 -56.5 q89 0 144.5 56.5 q55.5 56.5 55.5 149.5 q0 93 -55 149 q-55 56 -145 56 q-90 0 -145 -56 q-55 -56 -55 -149 q0 -93 55.5 -149.5 ZM251.5 568.5 q-11.5 -11.5 -27.5 -11.5 q-16 0 -27.5 11.5 q-11.5 11.5 -11.5 27.5 q0 16 11.5 27.5 q11.5 11.5 27.5 11.5 q16 0 27.5 -11.5 q11.5 -11.5 11.5 -27.5 q0 -16 -11.5 -27.5 ZM405 568.5 q-11 -11.5 -28 -11.5 q-17 0 -28 11.5 q-11 11.5 -11 27.5 q0 16 11 27.5 q11 11.5 28 11.5 q17 0 28 -11.5 q11 -11.5 11 -27.5 q0 -16 -11 -27.5 Z" /><glyph glyph-name="Oslash.smcp" unicode="&#xf7f8;" d="M299 -10 q-95 0 -161 49 l-43 -48 l-23 20 l42 47 q-73 71 -73 186 q0 111 70.5 182 q70.5 71 187.5 71 q96 0 162 -49 l43 48 l23 -19 l-43 -49 q74 -71 74 -184 q0 -111 -71 -182.5 q-71 -71.5 -188 -71.5 ZM299 449 q-90 0 -145 -56 q-55 -56 -55 -149 q0 -89 51 -146 l276 310 q-50 41 -127 41 ZM299 38 q89 0 144.5 56.5 q55.5 56.5 55.5 149.5 q0 90 -51 144 l-275 -310 q51 -40 126 -40 Z" /><glyph glyph-name="Ugrave.smcp" unicode="&#xf7f9;" d="M299 -10 q-87 0 -141.5 43.5 q-54.5 43.5 -54.5 126.5 l0 281 l-78 0 l0 46 l214 0 l0 -46 l-78 0 l0 -279 q0 -64 38.5 -94 q38.5 -30 100.5 -30 q61 0 99 30.5 q38 30.5 38 93.5 l0 279 l-79 0 l0 46 l212 0 l0 -46 l-78 0 l0 -278 q0 -83 -52 -128 q-52 -45 -141 -45 ZM336 544 l-165 110 l40 48 l144 -135 l-19 -23 Z" /><glyph glyph-name="Uacute.smcp" unicode="&#xf7fa;" d="M299 -10 q-87 0 -141.5 43.5 q-54.5 43.5 -54.5 126.5 l0 281 l-78 0 l0 46 l214 0 l0 -46 l-78 0 l0 -279 q0 -64 38.5 -94 q38.5 -30 100.5 -30 q61 0 99 30.5 q38 30.5 38 93.5 l0 279 l-79 0 l0 46 l212 0 l0 -46 l-78 0 l0 -278 q0 -83 -52 -128 q-52 -45 -141 -45 ZM252 544 l-19 23 l145 135 l39 -48 l-165 -110 Z" /><glyph glyph-name="Ucircumflex.smcp" unicode="&#xf7fb;" d="M299 -10 q-87 0 -141.5 43.5 q-54.5 43.5 -54.5 126.5 l0 281 l-78 0 l0 46 l214 0 l0 -46 l-78 0 l0 -279 q0 -64 38.5 -94 q38.5 -30 100.5 -30 q61 0 99 30.5 q38 30.5 38 93.5 l0 279 l-79 0 l0 46 l212 0 l0 -46 l-78 0 l0 -278 q0 -83 -52 -128 q-52 -45 -141 -45 ZM173 544 l-16 18 l124 118 l38 0 l124 -118 l-15 -18 l-128 79 l-127 -79 Z" /><glyph glyph-name="Udieresis.smcp" unicode="&#xf7fc;" d="M299 -10 q-87 0 -141.5 43.5 q-54.5 43.5 -54.5 126.5 l0 281 l-78 0 l0 46 l214 0 l0 -46 l-78 0 l0 -279 q0 -64 38.5 -94 q38.5 -30 100.5 -30 q61 0 99 30.5 q38 30.5 38 93.5 l0 279 l-79 0 l0 46 l212 0 l0 -46 l-78 0 l0 -278 q0 -83 -52 -128 q-52 -45 -141 -45 ZM251 564.5 q-11 -11.5 -28 -11.5 q-17 0 -28 11.5 q-11 11.5 -11 27.5 q0 16 11 27.5 q11 11.5 28 11.5 q17 0 28 -11.5 q11 -11.5 11 -27.5 q0 -16 -11 -27.5 ZM403.5 564.5 q-11.5 -11.5 -27.5 -11.5 q-16 0 -27.5 11.5 q-11.5 11.5 -11.5 27.5 q0 16 11.5 27.5 q11.5 11.5 27.5 11.5 q16 0 27.5 -11.5 q11.5 -11.5 11.5 -27.5 q0 -16 -11.5 -27.5 Z" /><glyph glyph-name="Yacute.smcp" unicode="&#xf7fd;" d="M159 0 l0 46 l82 0 l0 135 l-167 260 l-71 0 l0 46 l213 0 l0 -45 l-81 0 l136 -211 l136 212 l-80 0 l0 44 l210 0 l0 -46 l-72 0 l-167 -260 l0 -135 l82 0 l0 -46 l-221 0 ZM218 544 l-19 23 l145 135 l40 -48 l-166 -110 Z" /><glyph glyph-name="Thorn.smcp" unicode="&#xf7fe;" d="M40 0 l0 46 l76 0 l0 395 l-76 0 l0 46 l226 0 l0 -46 l-93 0 l0 -52 l87 0 q82 0 136.5 -34 q54.5 -34 54.5 -108 q0 -73 -54 -107 q-54 -34 -137 -34 l-87 0 l0 -60 l93 0 l0 -46 l-226 0 ZM173 151 l88 0 q133 0 133 96 q0 96 -133 96 l-88 0 l0 -192 Z" /><glyph glyph-name="Ydieresis.smcp" unicode="&#xf7ff;" d="M159 0 l0 46 l82 0 l0 135 l-167 260 l-71 0 l0 46 l213 0 l0 -45 l-81 0 l136 -211 l136 212 l-80 0 l0 44 l210 0 l0 -46 l-72 0 l-167 -260 l0 -135 l82 0 l0 -46 l-221 0 ZM195 553 q-17 0 -28.5 11.5 q-11.5 11.5 -11.5 27.5 q0 16 11.5 27.5 q11.5 11.5 28.5 11.5 q16 0 27.5 -11.5 q11.5 -11.5 11.5 -27.5 q0 -16 -11.5 -27.5 q-11.5 -11.5 -27.5 -11.5 ZM347 553 q-16 0 -27.5 11.5 q-11.5 11.5 -11.5 27.5 q0 16 11.5 27.5 q11.5 11.5 27.5 11.5 q17 0 28.5 -11.5 q11.5 -11.5 11.5 -27.5 q0 -16 -11.5 -27.5 q-11.5 -11.5 -28.5 -11.5 Z" /><glyph glyph-name="f_f" unicode="&#xfb00;" d="M34 0 l0 47 l81 0 l0 329 l-90 0 l0 48 l90 0 l0 130 q0 78 47 116.5 q47 38.5 123 38.5 q64 0 150 -32 q37 41 112 41 q36 0 73 -8 l0 -45 q-38 6 -61 6 q-99 0 -99 -91 l0 -156 l123 0 l0 -48 l-123 0 l0 -329 l97 0 l0 -47 l-235 0 l0 47 l81 0 l0 329 l-231 0 l0 -329 l97 0 l0 -47 l-235 0 ZM291 661 q-119 0 -119 -110 l0 -127 l231 0 l0 158 q0 33 8 56 q-65 23 -120 23 Z" /><glyph glyph-name="fi" unicode="&#xfb01;" d="M34 0 l0 47 l81 0 l0 329 l-90 0 l0 48 l90 0 l0 151 q0 143 167 143 q62 0 144 -21 l-8 -43 q-72 17 -127 17 q-56 0 -87.5 -21.5 q-31.5 -21.5 -31.5 -76.5 l0 -149 l288 0 l0 -377 l80 0 l0 -47 l-214 0 l0 47 l77 0 l0 329 l-231 0 l0 -329 l97 0 l0 -47 l-235 0 Z" /><glyph glyph-name="fl" unicode="&#xfb02;" d="M34 0 l0 47 l81 0 l0 329 l-90 0 l0 48 l90 0 l0 151 q0 143 167 143 q47 0 102 -11 l76 0 l0 -660 l80 0 l0 -47 l-217 0 l0 47 l80 0 l0 610 q-64 14 -112 14 q-56 0 -87.5 -21.5 q-31.5 -21.5 -31.5 -76.5 l0 -149 l123 0 l0 -48 l-123 0 l0 -329 l97 0 l0 -47 l-235 0 Z" /><glyph glyph-name="f_f_i" unicode="&#xfb03;" d="M34 0 l0 47 l81 0 l0 329 l-90 0 l0 48 l90 0 l0 130 q0 78 47 116.5 q47 38.5 123 38.5 q59 0 154 -33 q42 42 132 42 q61 0 143 -21 l-8 -43 q-70 17 -126 17 q-56 0 -88 -21.5 q-32 -21.5 -32 -76.5 l0 -149 l289 0 l0 -377 l79 0 l0 -47 l-214 0 l0 47 l77 0 l0 329 l-231 0 l0 -329 l97 0 l0 -47 l-235 0 l0 47 l81 0 l0 329 l-231 0 l0 -329 l97 0 l0 -47 l-235 0 ZM291 661 q-119 0 -119 -110 l0 -127 l231 0 l0 151 q0 39 11 62 q-65 24 -123 24 Z" /><glyph glyph-name="f_f_l" unicode="&#xfb04;" d="M322 0 l0 47 l81 0 l0 329 l-231 0 l0 -329 l97 0 l0 -47 l-235 0 l0 47 l81 0 l0 329 l-90 0 l0 48 l90 0 l0 130 q0 78 47 116.5 q47 38.5 123 38.5 q59 0 154 -33 q42 42 132 42 q46 0 101 -11 l77 0 l0 -660 l79 0 l0 -47 l-216 0 l0 47 l79 0 l0 610 q-64 14 -111 14 q-56 0 -88 -21.5 q-32 -21.5 -32 -76.5 l0 -149 l123 0 l0 -48 l-123 0 l0 -329 l97 0 l0 -47 l-235 0 ZM172 424 l231 0 l0 151 q0 39 11 62 q-65 24 -123 24 q-119 0 -119 -110 l0 -127 Z" /><glyph glyph-name="s_t" unicode="&#xfb06;" d="M195 -11 q-77 0 -154 25 l0 104 l49 0 l0 -68 q54 -15 104 -15 q49 0 79.5 17 q30.5 17 30.5 52 q0 30 -26.5 49 q-26.5 19 -64 29.5 q-37.5 10.5 -74.5 23 q-37 12.5 -63.5 40.5 q-26.5 28 -26.5 71 q0 55 40.5 86.5 q40.5 31.5 115.5 31.5 q31 0 89 -10 l0 38 q0 56 32.5 88.5 q32.5 32.5 98.5 32.5 l132 0 l0 -160 l137 0 l0 -48 l-137 0 l0 -262 q0 -41 18.5 -59.5 q18.5 -18.5 59.5 -18.5 q37 0 64 11 l0 -45 q-38 -13 -79 -13 q-121 0 -121 122 l0 265 l-73 0 l0 48 l73 0 l0 116 l-73 0 q-85 0 -85 -82 l0 -147 l-50 0 l0 67 q-53 11 -85 11 q-49 0 -75.5 -18.5 q-26.5 -18.5 -26.5 -49.5 q0 -31 26.5 -49.5 q26.5 -18.5 63.5 -29 q37 -10.5 74.5 -23 q37.5 -12.5 64 -40.5 q26.5 -28 26.5 -72 q0 -56 -43 -87 q-43 -31 -121 -31 Z" /></font>
</defs>
</svg>
