<?xml version="1.0" standalone="no"?><!DOCTYPE svg PUBLIC "-//W3C//DTD SVG 1.1//EN" "http://www.w3.org/Graphics/SVG/1.1/DTD/svg11.dtd" ><svg xmlns="http://www.w3.org/2000/svg"><metadata></metadata><defs><font id="MattMcInerney,PabloImpallari,RodrigoFuenzalida: Raleway Thin Italic: 2012" horiz-adv-x="1271"><font-face font-family="Raleway Thin" font-weight="250" font-stretch="normal" units-per-em="1000" panose-1="2 11 2 3 3 1 1 6 0 3" ascent="940" descent="-234" x-height="3" bbox="-275 -224 1334 940" underline-thickness="50" underline-position="-75" unicode-range="U+0000-fb06" /><missing-glyph horiz-adv-x="0"  /><glyph glyph-name="A" unicode="a" d="M406 710 l18 0 l142 -710 l-22 0 l-51 254 l-351 0 l-159 -254 l-22 0 l445 710 ZM489 274 l-80 407 l-255 -407 l335 0 Z" /><glyph glyph-name="AE" unicode="æ" d="M511 710 l440 0 l-5 -20 l-414 0 l-67 -317 l363 0 l-5 -20 l-363 0 l-70 -333 l422 0 l-4 -20 l-443 0 l54 254 l-266 0 l-212 -254 l-25 0 l595 710 ZM424 274 l85 404 l-340 -404 l255 0 Z" /><glyph glyph-name="AEacute" unicode="&#x1fc;" d="M511 710 l440 0 l-5 -20 l-414 0 l-67 -317 l363 0 l-5 -20 l-363 0 l-70 -333 l422 0 l-4 -20 l-443 0 l54 254 l-266 0 l-212 -254 l-25 0 l595 710 ZM424 274 l85 404 l-340 -404 l255 0 ZM532 833 l-13 12 l76 73 l33 0 l-96 -85 Z" /><glyph glyph-name="acute" unicode="´" d="M53 645 l-13 12 l76 73 l33 0 l-96 -85 Z" /><glyph glyph-name="Aacute" unicode="á" d="M406 710 l18 0 l142 -710 l-22 0 l-51 254 l-351 0 l-159 -254 l-22 0 l445 710 ZM489 274 l-80 407 l-255 -407 l335 0 ZM428 833 l-13 12 l76 73 l33 0 l-96 -85 Z" /><glyph glyph-name="Abreve" unicode="&#x102;" d="M406 710 l18 0 l142 -710 l-22 0 l-51 254 l-351 0 l-159 -254 l-22 0 l445 710 ZM489 274 l-80 407 l-255 -407 l335 0 ZM438 858 q20 0 39 17.5 q19 17.5 27 42.5 l18 0 q-3 -15 -12 -29 q-9 -14 -21 -24.5 q-12 -10.5 -26 -17 q-14 -6.5 -28 -6.5 q-25 0 -41 18 q-16 18 -16 44 q0 5 2 15 l19 0 q-1 -4 -1 -11 q0 -20 11.5 -34.5 q11.5 -14.5 28.5 -14.5 Z" /><glyph glyph-name="breve" unicode="&#x2d8;" d="M106 670 q20 0 39 17.5 q19 17.5 27 42.5 l18 0 q-3 -15 -12 -29 q-9 -14 -21 -24.5 q-12 -10.5 -26 -17 q-14 -6.5 -28 -6.5 q-25 0 -41 18 q-16 18 -16 44 q0 5 2 15 l19 0 q-1 -4 -1 -11 q0 -20 11.5 -34.5 q11.5 -14.5 28.5 -14.5 Z" /><glyph glyph-name="Acircumflex" unicode="â" d="M406 710 l18 0 l142 -710 l-22 0 l-51 254 l-351 0 l-159 -254 l-22 0 l445 710 ZM489 274 l-80 407 l-255 -407 l335 0 ZM346 844 l104 74 l16 0 l73 -74 l-18 -12 l-68 63 l-94 -63 l-13 12 Z" /><glyph glyph-name="circumflex" unicode="&#x2c6;" d="M48 656 l104 74 l16 0 l73 -74 l-18 -12 l-68 63 l-94 -63 l-13 12 Z" /><glyph glyph-name="Adieresis" unicode="ä" d="M406 710 l18 0 l142 -710 l-22 0 l-51 254 l-351 0 l-159 -254 l-22 0 l445 710 ZM489 274 l-80 407 l-255 -407 l335 0 ZM374 841 l16 77 l20 0 l-16 -77 l-20 0 ZM485 841 l16 77 l20 0 l-16 -77 l-20 0 Z" /><glyph glyph-name="dieresis" unicode="¨" d="M40 653 l16 77 l20 0 l-16 -77 l-20 0 ZM151 653 l16 77 l20 0 l-16 -77 l-20 0 Z" /><glyph glyph-name="Agrave" unicode="à" d="M406 710 l18 0 l142 -710 l-22 0 l-51 254 l-351 0 l-159 -254 l-22 0 l445 710 ZM489 274 l-80 407 l-255 -407 l335 0 ZM386 918 l32 0 l46 -73 l-18 -12 l-60 85 Z" /><glyph glyph-name="grave" unicode="`" d="M55 730 l32 0 l46 -73 l-18 -12 l-60 85 Z" /><glyph glyph-name="Amacron" unicode="&#x100;" d="M406 710 l18 0 l142 -710 l-22 0 l-51 254 l-351 0 l-159 -254 l-22 0 l445 710 ZM489 274 l-80 407 l-255 -407 l335 0 ZM313 874 l4 20 l266 0 l-4 -20 l-266 0 Z" /><glyph glyph-name="macron" unicode="¯" d="M46 686 l4 20 l266 0 l-4 -20 l-266 0 Z" /><glyph glyph-name="Aogonek" unicode="&#x104;" d="M485 -159 q-19 5 -28.5 18.5 q-9.5 13.5 -9.5 30.5 q0 28 21 53.5 q21 25.5 75 60.5 l-50 250 l-351 0 l-159 -254 l-22 0 l445 710 l18 0 l142 -710 q-29 -18 -48.5 -32.5 q-19.5 -14.5 -30.5 -26.5 q-11 -12 -15.5 -23 q-4.5 -11 -4.5 -23 q0 -29 34 -37 l-16 -17 ZM489 274 l-80 407 l-255 -407 l335 0 Z" /><glyph glyph-name="ogonek" unicode="&#x2db;" d="M61 -159 q-19 5 -28.5 18.5 q-9.5 13.5 -9.5 30.5 q0 29 24 56.5 q24 27.5 86 67.5 l9 -14 q-29 -18 -48.5 -32.5 q-19.5 -14.5 -30.5 -26.5 q-11 -12 -15.5 -23 q-4.5 -11 -4.5 -23 q0 -30 34 -37 l-16 -17 Z" /><glyph glyph-name="Aring" unicode="å" d="M406 710 l18 0 l142 -710 l-22 0 l-51 254 l-351 0 l-159 -254 l-22 0 l445 710 ZM489 274 l-80 407 l-255 -407 l335 0 ZM389 850 q0 14 5.5 26.5 q5.5 12.5 15 21.5 q9.5 9 22 14.5 q12.5 5.5 25.5 5.5 q20 0 31.5 -13 q11.5 -13 11.5 -33 q0 -14 -5.5 -26.5 q-5.5 -12.5 -15 -21.5 q-9.5 -9 -22 -14.5 q-12.5 -5.5 -25.5 -5.5 q-20 0 -31.5 13 q-11.5 13 -11.5 33 ZM453 902 q-18 0 -33 -13.5 q-15 -13.5 -15 -35.5 q0 -14 8.5 -23.5 q8.5 -9.5 22.5 -9.5 q16 0 32.5 14 q16.5 14 16.5 35 q0 15 -9 24 q-9 9 -23 9 Z" /><glyph glyph-name="ring" unicode="&#x2da;" d="M58 662 q0 14 5.5 26.5 q5.5 12.5 15 21.5 q9.5 9 22 14.5 q12.5 5.5 25.5 5.5 q20 0 31.5 -13 q11.5 -13 11.5 -33 q0 -14 -5.5 -26.5 q-5.5 -12.5 -15 -21.5 q-9.5 -9 -22 -14.5 q-12.5 -5.5 -25.5 -5.5 q-20 0 -31.5 13 q-11.5 13 -11.5 33 ZM122 714 q-18 0 -33 -13.5 q-15 -13.5 -15 -35.5 q0 -14 8.5 -23.5 q8.5 -9.5 22.5 -9.5 q16 0 32.5 14 q16.5 14 16.5 35 q0 15 -9 24 q-9 9 -23 9 Z" /><glyph glyph-name="Aringacute" unicode="&#x1fa;" d="M369 740 q0 14 5.5 26.5 q5.5 12.5 15 21.5 q9.5 9 22 14.5 q12.5 5.5 25.5 5.5 q20 0 31.5 -13 q11.5 -13 11.5 -33 q0 -24 -15.5 -42.5 q-15.5 -18.5 -37.5 -23.5 l139 -696 l-22 0 l-51 254 l-351 0 l-159 -254 l-22 0 l436 696 q-28 10 -28 44 ZM489 274 l-80 407 l-255 -407 l335 0 ZM433 792 q-18 0 -33 -13.5 q-15 -13.5 -15 -35.5 q0 -14 8.5 -23.5 q8.5 -9.5 22.5 -9.5 q16 0 32.5 14 q16.5 14 16.5 35 q0 15 -9 24 q-9 9 -23 9 ZM470 833 l-13 12 l76 73 l33 0 l-96 -85 Z" /><glyph glyph-name="Atilde" unicode="ã" d="M406 710 l18 0 l142 -710 l-22 0 l-51 254 l-351 0 l-159 -254 l-22 0 l445 710 ZM489 274 l-80 407 l-255 -407 l335 0 ZM497 851 q-21 0 -35.5 6 q-14.5 6 -26.5 13 q-12 7 -23 13 q-11 6 -26 6 q-15 0 -26 -6.5 q-11 -6.5 -18 -15 q-7 -8.5 -10.5 -16.5 q-3.5 -8 -4.5 -10 l-19 0 q0 2 4.5 13 q4.5 11 14 23 q9.5 12 25.5 21.5 q16 9.5 40 9.5 q18 0 31 -6 q13 -6 24.5 -13 q11.5 -7 24.5 -13 q13 -6 31 -6 q19 0 32 7 q13 7 20.5 15.5 q7.5 8.5 10.5 16 q3 7.5 3 9.5 l19 0 q-1 -3 -5.5 -14 q-4.5 -11 -15 -23 q-10.5 -12 -27.5 -21 q-17 -9 -43 -9 Z" /><glyph glyph-name="tilde" unicode="&#x2dc;" d="M231 663 q-21 0 -35.5 6 q-14.5 6 -26.5 13 q-12 7 -23 13 q-11 6 -26 6 q-15 0 -26 -6.5 q-11 -6.5 -18 -15 q-7 -8.5 -10.5 -16.5 q-3.5 -8 -4.5 -10 l-19 0 q0 2 4.5 13 q4.5 11 14 23 q9.5 12 25.5 21.5 q16 9.5 40 9.5 q18 0 31 -6 q13 -6 24.5 -13 q11.5 -7 24.5 -13 q13 -6 31 -6 q19 0 32 7 q13 7 20.5 15.5 q7.5 8.5 10.5 16 q3 7.5 3 9.5 l19 0 q-1 -3 -5.5 -14 q-4.5 -11 -15 -23 q-10.5 -12 -27.5 -21 q-17 -9 -43 -9 Z" /><glyph glyph-name="B" unicode="b" d="M184 710 l299 0 q30 0 52.5 -12.5 q22.5 -12.5 37.5 -32.5 q15 -20 22.5 -46 q7.5 -26 7.5 -54 q0 -33 -10.5 -63.5 q-10.5 -30.5 -29 -57 q-18.5 -26.5 -43.5 -47 q-25 -20.5 -54 -33.5 q45 -15 68.5 -55.5 q23.5 -40.5 23.5 -90.5 q0 -43 -18.5 -82.5 q-18.5 -39.5 -48.5 -69.5 q-30 -30 -68 -48 q-38 -18 -77 -18 l-313 0 l151 710 ZM350 20 q35 0 68.5 17 q33.5 17 60 44.5 q26.5 27.5 42.5 62.5 q16 35 16 71 q0 27 -7.5 51 q-7.5 24 -22 42 q-14.5 18 -35 29 q-20.5 11 -46.5 11 l-299 0 l-70 -328 l293 0 ZM404 368 q35 0 67.5 17 q32.5 17 57 44.5 q24.5 27.5 39.5 62.5 q15 35 15 70 q0 26 -7 49 q-7 23 -20.5 40.5 q-13.5 17.5 -33 28 q-19.5 10.5 -44.5 10.5 l-278 0 l-69 -322 l273 0 Z" /><glyph glyph-name="C" unicode="c" d="M296 -6 q-58 0 -103.5 25 q-45.5 25 -76.5 67 q-31 42 -47.5 96 q-16.5 54 -16.5 111 q0 72 30 147 q30 75 84 136 q54 61 127.5 99.5 q73.5 38.5 160.5 38.5 q45 0 81 -11.5 q36 -11.5 62.5 -32 q26.5 -20.5 44 -49 q17.5 -28.5 25.5 -62.5 l-20 -6 q-11 39 -32 66 q-21 27 -47.5 43.5 q-26.5 16.5 -58 24 q-31.5 7.5 -63.5 7.5 q-81 0 -149.5 -36.5 q-68.5 -36.5 -118.5 -94.5 q-50 -58 -78 -129.5 q-28 -71.5 -28 -140.5 q0 -57 16.5 -107.5 q16.5 -50.5 46.5 -88.5 q30 -38 73 -60.5 q43 -22.5 96 -22.5 q33 0 70 9 q37 9 73.5 27 q36.5 18 70.5 46.5 q34 28.5 62 67.5 l18 -5 q-26 -40 -62 -71 q-36 -31 -76.5 -52 q-40.5 -21 -82.5 -31.5 q-42 -10.5 -81 -10.5 Z" /><glyph glyph-name="nonmarkingreturn" unicode="" d="" /><glyph glyph-name="Cacute" unicode="&#x106;" d="M296 -6 q-58 0 -103.5 25 q-45.5 25 -76.5 67 q-31 42 -47.5 96 q-16.5 54 -16.5 111 q0 72 30 147 q30 75 84 136 q54 61 127.5 99.5 q73.5 38.5 160.5 38.5 q45 0 81 -11.5 q36 -11.5 62.5 -32 q26.5 -20.5 44 -49 q17.5 -28.5 25.5 -62.5 l-20 -6 q-11 39 -32 66 q-21 27 -47.5 43.5 q-26.5 16.5 -58 24 q-31.5 7.5 -63.5 7.5 q-81 0 -149.5 -36.5 q-68.5 -36.5 -118.5 -94.5 q-50 -58 -78 -129.5 q-28 -71.5 -28 -140.5 q0 -57 16.5 -107.5 q16.5 -50.5 46.5 -88.5 q30 -38 73 -60.5 q43 -22.5 96 -22.5 q33 0 70 9 q37 9 73.5 27 q36.5 18 70.5 46.5 q34 28.5 62 67.5 l18 -5 q-26 -40 -62 -71 q-36 -31 -76.5 -52 q-40.5 -21 -82.5 -31.5 q-42 -10.5 -81 -10.5 ZM474 833 l-13 12 l76 73 l33 0 l-96 -85 Z" /><glyph glyph-name="Ccaron" unicode="&#x10c;" d="M296 -6 q-58 0 -103.5 25 q-45.5 25 -76.5 67 q-31 42 -47.5 96 q-16.5 54 -16.5 111 q0 72 30 147 q30 75 84 136 q54 61 127.5 99.5 q73.5 38.5 160.5 38.5 q45 0 81 -11.5 q36 -11.5 62.5 -32 q26.5 -20.5 44 -49 q17.5 -28.5 25.5 -62.5 l-20 -6 q-11 39 -32 66 q-21 27 -47.5 43.5 q-26.5 16.5 -58 24 q-31.5 7.5 -63.5 7.5 q-81 0 -149.5 -36.5 q-68.5 -36.5 -118.5 -94.5 q-50 -58 -78 -129.5 q-28 -71.5 -28 -140.5 q0 -57 16.5 -107.5 q16.5 -50.5 46.5 -88.5 q30 -38 73 -60.5 q43 -22.5 96 -22.5 q33 0 70 9 q37 9 73.5 27 q36.5 18 70.5 46.5 q34 28.5 62 67.5 l18 -5 q-26 -40 -62 -71 q-36 -31 -76.5 -52 q-40.5 -21 -82.5 -31.5 q-42 -10.5 -81 -10.5 ZM397 906 l18 12 l68 -63 l94 63 l13 -12 l-104 -74 l-16 0 l-73 74 Z" /><glyph glyph-name="caron" unicode="&#x2c7;" d="M48 718 l18 12 l68 -63 l94 63 l13 -12 l-104 -74 l-16 0 l-73 74 Z" /><glyph glyph-name="Ccedilla" unicode="ç" d="M199 -125 q14 -7 34.5 -12.5 q20.5 -5.5 44.5 -5.5 q65 0 65 47 q0 16 -11 22.5 q-11 6.5 -28 6.5 q-20 0 -43 -5.5 q-23 -5.5 -37 -10.5 l58 78 q-56 2 -99 28 q-43 26 -73 67 q-30 41 -45.5 94 q-15.5 53 -15.5 109 q0 72 30 147 q30 75 84 136 q54 61 127.5 99.5 q73.5 38.5 160.5 38.5 q45 0 81 -11.5 q36 -11.5 62.5 -32 q26.5 -20.5 44 -49 q17.5 -28.5 25.5 -62.5 l-20 -6 q-11 39 -32 66 q-21 27 -47.5 43.5 q-26.5 16.5 -58 24 q-31.5 7.5 -63.5 7.5 q-81 0 -149.5 -36.5 q-68.5 -36.5 -118.5 -94.5 q-50 -58 -78 -129.5 q-28 -71.5 -28 -140.5 q0 -57 16.5 -107.5 q16.5 -50.5 46.5 -88.5 q30 -38 73 -60.5 q43 -22.5 96 -22.5 q33 0 70 9 q37 9 73.5 27 q36.5 18 70.5 46.5 q34 28.5 62 67.5 l18 -5 q-25 -39 -59.5 -68.5 q-34.5 -29.5 -73 -50.5 q-38.5 -21 -79 -32.5 q-40.5 -11.5 -78.5 -12.5 l-39 -52 q11 4 22.5 5 q11.5 1 19.5 1 q54 0 54 -42 q0 -35 -24.5 -52 q-24.5 -17 -66.5 -17 q-25 0 -46.5 5.5 q-21.5 5.5 -38.5 13.5 l13 18 Z" /><glyph glyph-name="cedilla" unicode="¸" d="M4 -125 q14 -7 34.5 -12.5 q20.5 -5.5 44.5 -5.5 q65 0 65 47 q0 16 -11 22.5 q-11 6.5 -28 6.5 q-20 0 -43 -5.5 q-23 -5.5 -37 -10.5 l71 94 l15 -11 l-44 -57 q11 4 22.5 5 q11.5 1 19.5 1 q54 0 54 -42 q0 -35 -24.5 -52 q-24.5 -17 -66.5 -17 q-25 0 -46.5 5.5 q-21.5 5.5 -38.5 13.5 l13 18 Z" /><glyph glyph-name="Ccircumflex" unicode="&#x108;" d="M296 -6 q-58 0 -103.5 25 q-45.5 25 -76.5 67 q-31 42 -47.5 96 q-16.5 54 -16.5 111 q0 72 30 147 q30 75 84 136 q54 61 127.5 99.5 q73.5 38.5 160.5 38.5 q45 0 81 -11.5 q36 -11.5 62.5 -32 q26.5 -20.5 44 -49 q17.5 -28.5 25.5 -62.5 l-20 -6 q-11 39 -32 66 q-21 27 -47.5 43.5 q-26.5 16.5 -58 24 q-31.5 7.5 -63.5 7.5 q-81 0 -149.5 -36.5 q-68.5 -36.5 -118.5 -94.5 q-50 -58 -78 -129.5 q-28 -71.5 -28 -140.5 q0 -57 16.5 -107.5 q16.5 -50.5 46.5 -88.5 q30 -38 73 -60.5 q43 -22.5 96 -22.5 q33 0 70 9 q37 9 73.5 27 q36.5 18 70.5 46.5 q34 28.5 62 67.5 l18 -5 q-26 -40 -62 -71 q-36 -31 -76.5 -52 q-40.5 -21 -82.5 -31.5 q-42 -10.5 -81 -10.5 ZM392 844 l104 74 l16 0 l73 -74 l-18 -12 l-68 63 l-94 -63 l-13 12 Z" /><glyph glyph-name="Cdotaccent" unicode="&#x10a;" d="M296 -6 q-58 0 -103.5 25 q-45.5 25 -76.5 67 q-31 42 -47.5 96 q-16.5 54 -16.5 111 q0 72 30 147 q30 75 84 136 q54 61 127.5 99.5 q73.5 38.5 160.5 38.5 q45 0 81 -11.5 q36 -11.5 62.5 -32 q26.5 -20.5 44 -49 q17.5 -28.5 25.5 -62.5 l-20 -6 q-11 39 -32 66 q-21 27 -47.5 43.5 q-26.5 16.5 -58 24 q-31.5 7.5 -63.5 7.5 q-81 0 -149.5 -36.5 q-68.5 -36.5 -118.5 -94.5 q-50 -58 -78 -129.5 q-28 -71.5 -28 -140.5 q0 -57 16.5 -107.5 q16.5 -50.5 46.5 -88.5 q30 -38 73 -60.5 q43 -22.5 96 -22.5 q33 0 70 9 q37 9 73.5 27 q36.5 18 70.5 46.5 q34 28.5 62 67.5 l18 -5 q-26 -40 -62 -71 q-36 -31 -76.5 -52 q-40.5 -21 -82.5 -31.5 q-42 -10.5 -81 -10.5 ZM478 841 l16 77 l20 0 l-16 -77 l-20 0 Z" /><glyph glyph-name="dotaccent" unicode="&#x2d9;" d="M39 653 l16 77 l20 0 l-16 -77 l-20 0 Z" /><glyph glyph-name="D" unicode="d" d="M184 710 l217 0 q65 0 112.5 -21 q47.5 -21 78.5 -57.5 q31 -36.5 46 -85.5 q15 -49 15 -106 q0 -95 -30 -175.5 q-30 -80.5 -84 -139 q-54 -58.5 -128 -92 q-74 -33.5 -161 -33.5 l-217 0 l151 710 ZM254 20 q89 0 159.5 34 q70.5 34 119 91.5 q48.5 57.5 74.5 132.5 q26 75 26 157 q0 56 -15 103 q-15 47 -44.5 80.5 q-29.5 33.5 -74 52.5 q-44.5 19 -102.5 19 l-197 0 l-143 -670 l197 0 Z" /><glyph glyph-name="Dcaron" unicode="&#x10e;" d="M184 710 l217 0 q65 0 112.5 -21 q47.5 -21 78.5 -57.5 q31 -36.5 46 -85.5 q15 -49 15 -106 q0 -95 -30 -175.5 q-30 -80.5 -84 -139 q-54 -58.5 -128 -92 q-74 -33.5 -161 -33.5 l-217 0 l151 710 ZM254 20 q89 0 159.5 34 q70.5 34 119 91.5 q48.5 57.5 74.5 132.5 q26 75 26 157 q0 56 -15 103 q-15 47 -44.5 80.5 q-29.5 33.5 -74 52.5 q-44.5 19 -102.5 19 l-197 0 l-143 -670 l197 0 ZM364 906 l18 12 l68 -63 l94 63 l13 -12 l-104 -74 l-16 0 l-73 74 Z" /><glyph glyph-name="Dcroat" unicode="&#x110;" d="M51 367 l67 0 l73 343 l217 0 q65 0 112.5 -21 q47.5 -21 78.5 -57.5 q31 -36.5 46 -85.5 q15 -49 15 -106 q0 -95 -30 -175.5 q-30 -80.5 -84 -139 q-54 -58.5 -128 -92 q-74 -33.5 -161 -33.5 l-217 0 l74 347 l-67 0 l4 20 ZM261 20 q89 0 159.5 34 q70.5 34 119 91.5 q48.5 57.5 74.5 132.5 q26 75 26 157 q0 56 -15 103 q-15 47 -44.5 80.5 q-29.5 33.5 -74 52.5 q-44.5 19 -102.5 19 l-197 0 l-69 -323 l182 0 l-4 -20 l-183 0 l-69 -327 l197 0 Z" /><glyph glyph-name="E" unicode="e" d="M184 710 l434 0 l-4 -20 l-414 0 l-68 -317 l363 0 l-4 -20 l-363 0 l-71 -333 l423 0 l-4 -20 l-443 0 l151 710 Z" /><glyph glyph-name="Eacute" unicode="é" d="M184 710 l434 0 l-4 -20 l-414 0 l-68 -317 l363 0 l-4 -20 l-363 0 l-71 -333 l423 0 l-4 -20 l-443 0 l151 710 ZM398 833 l-13 12 l76 73 l33 0 l-96 -85 Z" /><glyph glyph-name="Ebreve" unicode="&#x114;" d="M184 710 l434 0 l-4 -20 l-414 0 l-68 -317 l363 0 l-4 -20 l-363 0 l-71 -333 l423 0 l-4 -20 l-443 0 l151 710 ZM429 858 q20 0 39 17.5 q19 17.5 27 42.5 l18 0 q-3 -15 -12 -29 q-9 -14 -21 -24.5 q-12 -10.5 -26 -17 q-14 -6.5 -28 -6.5 q-25 0 -41 18 q-16 18 -16 44 q0 5 2 15 l19 0 q-1 -4 -1 -11 q0 -20 11.5 -34.5 q11.5 -14.5 28.5 -14.5 Z" /><glyph glyph-name="Ecaron" unicode="&#x11a;" d="M184 710 l434 0 l-4 -20 l-414 0 l-68 -317 l363 0 l-4 -20 l-363 0 l-71 -333 l423 0 l-4 -20 l-443 0 l151 710 ZM340 906 l18 12 l68 -63 l94 63 l13 -12 l-104 -74 l-16 0 l-73 74 Z" /><glyph glyph-name="Ecircumflex" unicode="ê" d="M184 710 l434 0 l-4 -20 l-414 0 l-68 -317 l363 0 l-4 -20 l-363 0 l-71 -333 l423 0 l-4 -20 l-443 0 l151 710 ZM338 844 l104 74 l16 0 l73 -74 l-18 -12 l-68 63 l-94 -63 l-13 12 Z" /><glyph glyph-name="Edieresis" unicode="ë" d="M184 710 l434 0 l-4 -20 l-414 0 l-68 -317 l363 0 l-4 -20 l-363 0 l-71 -333 l423 0 l-4 -20 l-443 0 l151 710 ZM361 841 l16 77 l20 0 l-16 -77 l-20 0 ZM472 841 l16 77 l20 0 l-16 -77 l-20 0 Z" /><glyph glyph-name="Edotaccent" unicode="&#x116;" d="M184 710 l434 0 l-4 -20 l-414 0 l-68 -317 l363 0 l-4 -20 l-363 0 l-71 -333 l423 0 l-4 -20 l-443 0 l151 710 ZM423 841 l16 77 l20 0 l-16 -77 l-20 0 Z" /><glyph glyph-name="Egrave" unicode="è" d="M184 710 l434 0 l-4 -20 l-414 0 l-68 -317 l363 0 l-4 -20 l-363 0 l-71 -333 l423 0 l-4 -20 l-443 0 l151 710 ZM368 918 l32 0 l46 -73 l-18 -12 l-60 85 Z" /><glyph glyph-name="Emacron" unicode="&#x112;" d="M184 710 l434 0 l-4 -20 l-414 0 l-68 -317 l363 0 l-4 -20 l-363 0 l-71 -333 l423 0 l-4 -20 l-443 0 l151 710 ZM302 874 l4 20 l266 0 l-4 -20 l-266 0 Z" /><glyph glyph-name="Eng" unicode="&#x14a;" d="M419 -170 q-28 0 -50.5 7 q-22.5 7 -37.5 27 l18 12 q14 -16 34 -21 q20 -5 40 -5 q19 0 40.5 9 q21.5 9 40 24 q18.5 15 32.5 36 q14 21 19 45 l7 32 l-366 675 l-143 -671 l-20 0 l151 710 l15 0 l369 -681 l145 680 l20 0 l-158 -745 q-6 -29 -23 -53.5 q-17 -24.5 -39 -42.5 q-22 -18 -47 -28 q-25 -10 -47 -10 Z" /><glyph glyph-name="Eogonek" unicode="&#x118;" d="M184 710 l434 0 l-4 -20 l-414 0 l-68 -317 l363 0 l-4 -20 l-363 0 l-71 -333 l423 0 l-4 -20 l-198 0 q-29 -18 -48.5 -32.5 q-19.5 -14.5 -30.5 -26.5 q-11 -12 -15.5 -23 q-4.5 -11 -4.5 -23 q0 -29 34 -37 l-16 -17 q-19 5 -28.5 18.5 q-9.5 13.5 -9.5 30.5 q0 27 19.5 51.5 q19.5 24.5 69.5 58.5 l-215 0 l151 710 Z" /><glyph glyph-name="Eth" unicode="ð" d="M51 367 l67 0 l73 343 l217 0 q65 0 112.5 -21 q47.5 -21 78.5 -57.5 q31 -36.5 46 -85.5 q15 -49 15 -106 q0 -95 -30 -175.5 q-30 -80.5 -84 -139 q-54 -58.5 -128 -92 q-74 -33.5 -161 -33.5 l-217 0 l74 347 l-67 0 l4 20 ZM261 20 q89 0 159.5 34 q70.5 34 119 91.5 q48.5 57.5 74.5 132.5 q26 75 26 157 q0 56 -15 103 q-15 47 -44.5 80.5 q-29.5 33.5 -74 52.5 q-44.5 19 -102.5 19 l-197 0 l-69 -323 l182 0 l-4 -20 l-183 0 l-69 -327 l197 0 Z" /><glyph glyph-name="Etilde" unicode="&#x1ebc;" d="M184 710 l434 0 l-4 -20 l-414 0 l-68 -317 l363 0 l-4 -20 l-363 0 l-71 -333 l423 0 l-4 -20 l-443 0 l151 710 ZM478 851 q-21 0 -35.5 6 q-14.5 6 -26.5 13 q-12 7 -23 13 q-11 6 -26 6 q-15 0 -26 -6.5 q-11 -6.5 -18 -15 q-7 -8.5 -10.5 -16.5 q-3.5 -8 -4.5 -10 l-19 0 q0 2 4.5 13 q4.5 11 14 23 q9.5 12 25.5 21.5 q16 9.5 40 9.5 q18 0 31 -6 q13 -6 24.5 -13 q11.5 -7 24.5 -13 q13 -6 31 -6 q19 0 32 7 q13 7 20.5 15.5 q7.5 8.5 10.5 16 q3 7.5 3 9.5 l19 0 q-1 -3 -5.5 -14 q-4.5 -11 -15 -23 q-10.5 -12 -27.5 -21 q-17 -9 -43 -9 Z" /><glyph glyph-name="Euro" unicode="&#x20ac;" d="M162 401 q18 60 54 116.5 q36 56.5 86 100 q50 43.5 112.5 70 q62.5 26.5 133.5 26.5 q45 0 81 -11.5 q36 -11.5 62.5 -32 q26.5 -20.5 44 -49 q17.5 -28.5 25.5 -62.5 l-20 -6 q-11 39 -32 66 q-21 27 -47.5 43.5 q-26.5 16.5 -58 24 q-31.5 7.5 -63.5 7.5 q-66 0 -123.5 -24.5 q-57.5 -24.5 -104 -65 q-46.5 -40.5 -80 -93.5 q-33.5 -53 -50.5 -110 l377 0 l-14 -20 l-368 0 q-5 -18 -7.5 -35.5 q-2.5 -17.5 -3.5 -34.5 l336 0 l-14 -20 l-322 0 q0 -56 16.5 -106.5 q16.5 -50.5 47 -88.5 q30.5 -38 73 -60 q42.5 -22 95.5 -22 q33 0 70 9 q37 9 73.5 27 q36.5 18 71 46.5 q34.5 28.5 62.5 67.5 l17 -5 q-26 -40 -62 -71 q-36 -31 -76.5 -52 q-40.5 -21 -82.5 -31.5 q-42 -10.5 -81 -10.5 q-58 0 -103.5 25 q-45.5 25 -76.5 66 q-31 41 -47.5 95 q-16.5 54 -16.5 111 l-116 0 l14 20 l102 0 q1 17 3.5 34.5 q2.5 17.5 7.5 35.5 l-70 0 l14 20 l61 0 Z" /><glyph glyph-name="F" unicode="f" d="M184 710 l434 0 l-4 -20 l-414 0 l-67 -316 l353 0 l-4 -20 l-354 0 l-75 -354 l-20 0 l151 710 Z" /><glyph glyph-name="G" unicode="g" d="M571 121 q-132 -126 -269 -126 q-60 0 -106.5 25.5 q-46.5 25.5 -78.5 67 q-32 41.5 -48.5 95 q-16.5 53.5 -16.5 109.5 q0 77 32.5 153 q32.5 76 86.5 136 q54 60 125 97 q71 37 148 37 q52 0 90.5 -11.5 q38.5 -11.5 65 -32 q26.5 -20.5 43 -49 q16.5 -28.5 25.5 -62.5 l-20 -6 q-23 75 -76.5 108 q-53.5 33 -132.5 33 q-76 0 -143 -36.5 q-67 -36.5 -116.5 -94.5 q-49.5 -58 -78.5 -129.5 q-29 -71.5 -29 -141.5 q0 -56 16.5 -106.5 q16.5 -50.5 47 -88.5 q30.5 -38 74 -60.5 q43.5 -22.5 96.5 -22.5 q66 0 132.5 32 q66.5 32 138.5 102 l36 169 l-158 0 l4 20 l178 0 l-72 -338 l-20 0 l26 121 Z" /><glyph glyph-name="Gbreve" unicode="&#x11e;" d="M571 121 q-132 -126 -269 -126 q-60 0 -106.5 25.5 q-46.5 25.5 -78.5 67 q-32 41.5 -48.5 95 q-16.5 53.5 -16.5 109.5 q0 77 32.5 153 q32.5 76 86.5 136 q54 60 125 97 q71 37 148 37 q52 0 90.5 -11.5 q38.5 -11.5 65 -32 q26.5 -20.5 43 -49 q16.5 -28.5 25.5 -62.5 l-20 -6 q-23 75 -76.5 108 q-53.5 33 -132.5 33 q-76 0 -143 -36.5 q-67 -36.5 -116.5 -94.5 q-49.5 -58 -78.5 -129.5 q-29 -71.5 -29 -141.5 q0 -56 16.5 -106.5 q16.5 -50.5 47 -88.5 q30.5 -38 74 -60.5 q43.5 -22.5 96.5 -22.5 q66 0 132.5 32 q66.5 32 138.5 102 l36 169 l-158 0 l4 20 l178 0 l-72 -338 l-20 0 l26 121 ZM469 858 q20 0 39 17.5 q19 17.5 27 42.5 l18 0 q-3 -15 -12 -29 q-9 -14 -21 -24.5 q-12 -10.5 -26 -17 q-14 -6.5 -28 -6.5 q-25 0 -41 18 q-16 18 -16 44 q0 5 2 15 l19 0 q-1 -4 -1 -11 q0 -20 11.5 -34.5 q11.5 -14.5 28.5 -14.5 Z" /><glyph glyph-name="Gcircumflex" unicode="&#x11c;" d="M571 121 q-132 -126 -269 -126 q-60 0 -106.5 25.5 q-46.5 25.5 -78.5 67 q-32 41.5 -48.5 95 q-16.5 53.5 -16.5 109.5 q0 77 32.5 153 q32.5 76 86.5 136 q54 60 125 97 q71 37 148 37 q52 0 90.5 -11.5 q38.5 -11.5 65 -32 q26.5 -20.5 43 -49 q16.5 -28.5 25.5 -62.5 l-20 -6 q-23 75 -76.5 108 q-53.5 33 -132.5 33 q-76 0 -143 -36.5 q-67 -36.5 -116.5 -94.5 q-49.5 -58 -78.5 -129.5 q-29 -71.5 -29 -141.5 q0 -56 16.5 -106.5 q16.5 -50.5 47 -88.5 q30.5 -38 74 -60.5 q43.5 -22.5 96.5 -22.5 q66 0 132.5 32 q66.5 32 138.5 102 l36 169 l-158 0 l4 20 l178 0 l-72 -338 l-20 0 l26 121 ZM375 844 l104 74 l16 0 l73 -74 l-18 -12 l-68 63 l-94 -63 l-13 12 Z" /><glyph glyph-name="Gcommaaccent" unicode="&#x122;" d="M571 121 q-132 -126 -269 -126 q-60 0 -106.5 25.5 q-46.5 25.5 -78.5 67 q-32 41.5 -48.5 95 q-16.5 53.5 -16.5 109.5 q0 77 32.5 153 q32.5 76 86.5 136 q54 60 125 97 q71 37 148 37 q52 0 90.5 -11.5 q38.5 -11.5 65 -32 q26.5 -20.5 43 -49 q16.5 -28.5 25.5 -62.5 l-20 -6 q-23 75 -76.5 108 q-53.5 33 -132.5 33 q-76 0 -143 -36.5 q-67 -36.5 -116.5 -94.5 q-49.5 -58 -78.5 -129.5 q-29 -71.5 -29 -141.5 q0 -56 16.5 -106.5 q16.5 -50.5 47 -88.5 q30.5 -38 74 -60.5 q43.5 -22.5 96.5 -22.5 q66 0 132.5 32 q66.5 32 138.5 102 l36 169 l-158 0 l4 20 l178 0 l-72 -338 l-20 0 l26 121 ZM244 -167 l22 58 l-9 0 l13 59 l25 0 l-12 -59 l-25 -58 l-14 0 Z" /><glyph glyph-name="commaaccent" unicode="&#xf6c3;" d="M15 -167 l22 58 l-9 0 l13 59 l25 0 l-12 -59 l-25 -58 l-14 0 Z" /><glyph glyph-name="Gdotaccent" unicode="&#x120;" d="M571 121 q-132 -126 -269 -126 q-60 0 -106.5 25.5 q-46.5 25.5 -78.5 67 q-32 41.5 -48.5 95 q-16.5 53.5 -16.5 109.5 q0 77 32.5 153 q32.5 76 86.5 136 q54 60 125 97 q71 37 148 37 q52 0 90.5 -11.5 q38.5 -11.5 65 -32 q26.5 -20.5 43 -49 q16.5 -28.5 25.5 -62.5 l-20 -6 q-23 75 -76.5 108 q-53.5 33 -132.5 33 q-76 0 -143 -36.5 q-67 -36.5 -116.5 -94.5 q-49.5 -58 -78.5 -129.5 q-29 -71.5 -29 -141.5 q0 -56 16.5 -106.5 q16.5 -50.5 47 -88.5 q30.5 -38 74 -60.5 q43.5 -22.5 96.5 -22.5 q66 0 132.5 32 q66.5 32 138.5 102 l36 169 l-158 0 l4 20 l178 0 l-72 -338 l-20 0 l26 121 ZM462 841 l16 77 l20 0 l-16 -77 l-20 0 Z" /><glyph glyph-name="H" unicode="h" d="M184 710 l20 0 l-72 -337 l467 0 l72 337 l20 0 l-151 -710 l-20 0 l75 353 l-467 0 l-75 -353 l-20 0 l151 710 Z" /><glyph glyph-name="Hbar" unicode="&#x126;" d="M112 574 l47 0 l29 136 l20 0 l-29 -136 l467 0 l29 136 l20 0 l-29 -136 l47 0 l-4 -20 l-47 0 l-118 -554 l-20 0 l75 353 l-467 0 l-75 -353 l-20 0 l118 554 l-48 0 l5 20 ZM603 373 l38 181 l-467 0 l-38 -181 l467 0 Z" /><glyph glyph-name="Hcircumflex" unicode="&#x124;" d="M184 710 l20 0 l-72 -337 l467 0 l72 337 l20 0 l-151 -710 l-20 0 l75 353 l-467 0 l-75 -353 l-20 0 l151 710 ZM370 844 l104 74 l16 0 l73 -74 l-18 -12 l-68 63 l-94 -63 l-13 12 Z" /><glyph glyph-name="I" unicode="i" d="M184 709 l20 0 l-151 -709 l-20 0 l151 709 Z" /><glyph glyph-name="IJ" unicode="&#x132;" d="M184 709 l20 0 l-151 -709 l-20 0 l151 709 ZM319 -11 q-85 0 -137 44 l14 16 q46 -40 127 -40 q60 0 101 23.5 q41 23.5 68.5 67 q27.5 43.5 46.5 106.5 q19 63 36 143 l77 360 l20 0 l-77 -360 q-17 -81 -37.5 -147.5 q-20.5 -66.5 -51 -113.5 q-30.5 -47 -75.5 -73 q-45 -26 -112 -26 Z" /><glyph glyph-name="J" unicode="j" d="M105 -11 q-85 0 -137 44 l14 16 q46 -40 127 -40 q60 0 101 23.5 q41 23.5 68.5 67 q27.5 43.5 46.5 106.5 q19 63 36 143 l77 360 l20 0 l-77 -360 q-17 -81 -37.5 -147.5 q-20.5 -66.5 -51 -113.5 q-30.5 -47 -75.5 -73 q-45 -26 -112 -26 Z" /><glyph glyph-name="Iacute" unicode="í" d="M184 709 l20 0 l-151 -709 l-20 0 l151 709 ZM209 833 l-13 12 l76 73 l33 0 l-96 -85 Z" /><glyph glyph-name="Ibreve" unicode="&#x12c;" d="M184 709 l20 0 l-151 -709 l-20 0 l151 709 ZM216 858 q20 0 39 17.5 q19 17.5 27 42.5 l18 0 q-3 -15 -12 -29 q-9 -14 -21 -24.5 q-12 -10.5 -26 -17 q-14 -6.5 -28 -6.5 q-25 0 -41 18 q-16 18 -16 44 q0 5 2 15 l19 0 q-1 -4 -1 -11 q0 -20 11.5 -34.5 q11.5 -14.5 28.5 -14.5 Z" /><glyph glyph-name="Icircumflex" unicode="î" d="M184 709 l20 0 l-151 -709 l-20 0 l151 709 ZM126 844 l104 74 l16 0 l73 -74 l-18 -12 l-68 63 l-94 -63 l-13 12 Z" /><glyph glyph-name="Idieresis" unicode="ï" d="M184 709 l20 0 l-151 -709 l-20 0 l151 709 ZM154 841 l16 77 l20 0 l-16 -77 l-20 0 ZM265 841 l16 77 l20 0 l-16 -77 l-20 0 Z" /><glyph glyph-name="Idotaccent" unicode="&#x130;" d="M184 709 l20 0 l-151 -709 l-20 0 l151 709 ZM211 841 l16 77 l20 0 l-16 -77 l-20 0 Z" /><glyph glyph-name="Igrave" unicode="ì" d="M184 709 l20 0 l-151 -709 l-20 0 l151 709 ZM159 918 l32 0 l46 -73 l-18 -12 l-60 85 Z" /><glyph glyph-name="Imacron" unicode="&#x12a;" d="M184 709 l20 0 l-151 -709 l-20 0 l151 709 ZM95 874 l4 20 l266 0 l-4 -20 l-266 0 Z" /><glyph glyph-name="Iogonek" unicode="&#x12e;" d="M-27 -159 q-19 5 -28.5 18.5 q-9.5 13.5 -9.5 30.5 q0 14 5.5 27.5 q5.5 13.5 17.5 27.5 q12 14 31 29.5 q19 15.5 47 34.5 l149 700 l20 0 l-151 -709 q-29 -18 -48.5 -32.5 q-19.5 -14.5 -30.5 -26.5 q-11 -12 -15.5 -23 q-4.5 -11 -4.5 -23 q0 -30 34 -37 l-16 -17 Z" /><glyph glyph-name="Itilde" unicode="&#x128;" d="M184 709 l20 0 l-151 -709 l-20 0 l151 709 ZM274 851 q-21 0 -35.5 6 q-14.5 6 -26.5 13 q-12 7 -23 13 q-11 6 -26 6 q-15 0 -26 -6.5 q-11 -6.5 -18 -15 q-7 -8.5 -10.5 -16.5 q-3.5 -8 -4.5 -10 l-19 0 q0 2 4.5 13 q4.5 11 14 23 q9.5 12 25.5 21.5 q16 9.5 40 9.5 q18 0 31 -6 q13 -6 24.5 -13 q11.5 -7 24.5 -13 q13 -6 31 -6 q19 0 32 7 q13 7 20.5 15.5 q7.5 8.5 10.5 16 q3 7.5 3 9.5 l19 0 q-1 -3 -5.5 -14 q-4.5 -11 -15 -23 q-10.5 -12 -27.5 -21 q-17 -9 -43 -9 Z" /><glyph glyph-name="Jcircumflex" unicode="&#x134;" d="M105 -11 q-85 0 -137 44 l14 16 q46 -40 127 -40 q60 0 101 23.5 q41 23.5 68.5 67 q27.5 43.5 46.5 106.5 q19 63 36 143 l77 360 l20 0 l-77 -360 q-17 -81 -37.5 -147.5 q-20.5 -66.5 -51 -113.5 q-30.5 -47 -75.5 -73 q-45 -26 -112 -26 ZM375 844 l104 74 l16 0 l73 -74 l-18 -12 l-68 63 l-94 -63 l-13 12 Z" /><glyph glyph-name="K" unicode="k" d="M184 709 l20 0 l-98 -460 l526 461 l29 0 l-354 -310 l216 -400 l-26 0 l-208 386 l-189 -165 l-47 -221 l-20 0 l151 709 Z" /><glyph glyph-name="Kcommaaccent" unicode="&#x136;" d="M184 709 l20 0 l-98 -460 l526 461 l29 0 l-354 -310 l216 -400 l-26 0 l-208 386 l-189 -165 l-47 -221 l-20 0 l151 709 ZM186 -167 l22 58 l-9 0 l13 59 l25 0 l-12 -59 l-25 -58 l-14 0 Z" /><glyph glyph-name="L" unicode="l" d="M184 710 l20 0 l-147 -690 l423 0 l-4 -20 l-443 0 l151 710 Z" /><glyph glyph-name="Lacute" unicode="&#x139;" d="M184 710 l20 0 l-147 -690 l423 0 l-4 -20 l-443 0 l151 710 ZM213 833 l-13 12 l76 73 l33 0 l-96 -85 Z" /><glyph glyph-name="Lcaron" unicode="&#x13d;" d="M184 710 l20 0 l-147 -690 l423 0 l-4 -20 l-443 0 l151 710 ZM255 657 l76 73 l33 0 l-96 -85 l-13 12 Z" /><glyph glyph-name="Lcommaaccent" unicode="&#x13b;" d="M184 710 l20 0 l-147 -690 l423 0 l-4 -20 l-443 0 l151 710 ZM202 -167 l22 58 l-9 0 l13 59 l25 0 l-12 -59 l-25 -58 l-14 0 Z" /><glyph glyph-name="Ldot" unicode="&#x13f;" d="M184 710 l20 0 l-147 -690 l423 0 l-4 -20 l-443 0 l151 710 ZM334 360 l18 83 l19 0 l-17 -83 l-20 0 Z" /><glyph glyph-name="periodcentered" unicode="·" d="M56 250 l18 83 l19 0 l-17 -83 l-20 0 Z" /><glyph glyph-name="Lslash" unicode="&#x141;" d="M18 236 l89 76 l85 398 l20 0 l-80 -377 l218 188 l10 -15 l-234 -201 l-61 -285 l423 0 l-4 -20 l-443 0 l60 284 l-73 -63 l-10 15 Z" /><glyph glyph-name="M" unicode="m" d="M184 710 l16 0 l194 -546 l426 546 l16 0 l-151 -710 l-20 0 l141 666 l-409 -526 l-16 0 l-186 526 l-142 -666 l-20 0 l151 710 Z" /><glyph glyph-name="N" unicode="n" d="M184 710 l15 0 l370 -681 l144 680 l20 0 l-151 -709 l-22 0 l-364 671 l-143 -671 l-20 0 l151 710 Z" /><glyph glyph-name=".null" unicode="" d="" /><glyph glyph-name="Nacute" unicode="&#x143;" d="M184 710 l15 0 l370 -681 l144 680 l20 0 l-151 -709 l-22 0 l-364 671 l-143 -671 l-20 0 l151 710 ZM478 833 l-13 12 l76 73 l33 0 l-96 -85 Z" /><glyph glyph-name="Ncaron" unicode="&#x147;" d="M184 710 l15 0 l370 -681 l144 680 l20 0 l-151 -709 l-22 0 l-364 671 l-143 -671 l-20 0 l151 710 ZM407 906 l18 12 l68 -63 l94 63 l13 -12 l-104 -74 l-16 0 l-73 74 Z" /><glyph glyph-name="Ncommaaccent" unicode="&#x145;" d="M184 710 l15 0 l370 -681 l144 680 l20 0 l-151 -709 l-22 0 l-364 671 l-143 -671 l-20 0 l151 710 ZM266 -167 l22 58 l-9 0 l13 59 l25 0 l-12 -59 l-25 -58 l-14 0 Z" /><glyph glyph-name="Ndotaccent" unicode="&#x1e44;" d="M184 710 l15 0 l370 -681 l144 680 l20 0 l-151 -709 l-22 0 l-364 671 l-143 -671 l-20 0 l151 710 ZM487 841 l16 77 l20 0 l-16 -77 l-20 0 Z" /><glyph glyph-name="Ntilde" unicode="ñ" d="M184 710 l15 0 l370 -681 l144 680 l20 0 l-151 -709 l-22 0 l-364 671 l-143 -671 l-20 0 l151 710 ZM554 851 q-21 0 -35.5 6 q-14.5 6 -26.5 13 q-12 7 -23 13 q-11 6 -26 6 q-15 0 -26 -6.5 q-11 -6.5 -18 -15 q-7 -8.5 -10.5 -16.5 q-3.5 -8 -4.5 -10 l-19 0 q0 2 4.5 13 q4.5 11 14 23 q9.5 12 25.5 21.5 q16 9.5 40 9.5 q18 0 31 -6 q13 -6 24.5 -13 q11.5 -7 24.5 -13 q13 -6 31 -6 q19 0 32 7 q13 7 20.5 15.5 q7.5 8.5 10.5 16 q3 7.5 3 9.5 l19 0 q-1 -3 -5.5 -14 q-4.5 -11 -15 -23 q-10.5 -12 -27.5 -21 q-17 -9 -43 -9 Z" /><glyph glyph-name="O" unicode="o" d="M298 -5 q-59 0 -105 24 q-46 24 -77.5 64.5 q-31.5 40.5 -47.5 93.5 q-16 53 -16 110 q0 82 34 159 q34 77 90 137 q56 60 127.5 96 q71.5 36 147.5 36 q59 0 105 -25 q46 -25 77.5 -66 q31.5 -41 47.5 -94 q16 -53 16 -109 q0 -81 -34 -158 q-34 -77 -90 -136.5 q-56 -59.5 -127.5 -95.5 q-71.5 -36 -147.5 -36 ZM303 15 q75 0 143 36 q68 36 119 94 q51 58 81.5 130 q30.5 72 30.5 144 q0 55 -16 105 q-16 50 -46 88 q-30 38 -72.5 60.5 q-42.5 22.5 -95.5 22.5 q-75 0 -143 -36 q-68 -36 -119.5 -94 q-51.5 -58 -82 -130 q-30.5 -72 -30.5 -145 q0 -55 15.5 -105 q15.5 -50 45.5 -87.5 q30 -37.5 73 -60 q43 -22.5 97 -22.5 Z" /><glyph glyph-name="OE" unicode="&#x152;" d="M301 -5 q-60 0 -106 24.5 q-46 24.5 -78 65 q-32 40.5 -48.5 93.5 q-16.5 53 -16.5 110 q0 81 34 158 q34 77 90 137 q56 60 128 96 q72 36 148 36 q54 0 96.5 -19 q42.5 -19 73 -52 q30.5 -33 49 -76.5 q18.5 -43.5 23.5 -92.5 l50 235 l435 0 l-5 -20 l-414 0 l-67 -317 l363 0 l-5 -20 l-363 0 l-70 -333 l422 0 l-4 -20 l-443 0 l50 234 q-27 -50 -64.5 -94 q-37.5 -44 -82.5 -76 q-45 -32 -94.5 -50.5 q-49.5 -18.5 -100.5 -18.5 ZM303 15 q75 0 143 36 q68 36 119 94 q51 58 81.5 130 q30.5 72 30.5 144 q0 55 -16 105 q-16 50 -45.5 88 q-29.5 38 -72 60.5 q-42.5 22.5 -95.5 22.5 q-75 0 -143 -36 q-68 -36 -120 -94 q-52 -58 -82.5 -130 q-30.5 -72 -30.5 -145 q0 -55 15.5 -105 q15.5 -50 45.5 -87.5 q30 -37.5 73 -60 q43 -22.5 97 -22.5 Z" /><glyph glyph-name="Oacute" unicode="ó" d="M298 -5 q-59 0 -105 24 q-46 24 -77.5 64.5 q-31.5 40.5 -47.5 93.5 q-16 53 -16 110 q0 82 34 159 q34 77 90 137 q56 60 127.5 96 q71.5 36 147.5 36 q59 0 105 -25 q46 -25 77.5 -66 q31.5 -41 47.5 -94 q16 -53 16 -109 q0 -81 -34 -158 q-34 -77 -90 -136.5 q-56 -59.5 -127.5 -95.5 q-71.5 -36 -147.5 -36 ZM303 15 q75 0 143 36 q68 36 119 94 q51 58 81.5 130 q30.5 72 30.5 144 q0 55 -16 105 q-16 50 -46 88 q-30 38 -72.5 60.5 q-42.5 22.5 -95.5 22.5 q-75 0 -143 -36 q-68 -36 -119.5 -94 q-51.5 -58 -82 -130 q-30.5 -72 -30.5 -145 q0 -55 15.5 -105 q15.5 -50 45.5 -87.5 q30 -37.5 73 -60 q43 -22.5 97 -22.5 ZM466 833 l-13 12 l76 73 l33 0 l-96 -85 Z" /><glyph glyph-name="Obreve" unicode="&#x14e;" d="M298 -5 q-59 0 -105 24 q-46 24 -77.5 64.5 q-31.5 40.5 -47.5 93.5 q-16 53 -16 110 q0 82 34 159 q34 77 90 137 q56 60 127.5 96 q71.5 36 147.5 36 q59 0 105 -25 q46 -25 77.5 -66 q31.5 -41 47.5 -94 q16 -53 16 -109 q0 -81 -34 -158 q-34 -77 -90 -136.5 q-56 -59.5 -127.5 -95.5 q-71.5 -36 -147.5 -36 ZM303 15 q75 0 143 36 q68 36 119 94 q51 58 81.5 130 q30.5 72 30.5 144 q0 55 -16 105 q-16 50 -46 88 q-30 38 -72.5 60.5 q-42.5 22.5 -95.5 22.5 q-75 0 -143 -36 q-68 -36 -119.5 -94 q-51.5 -58 -82 -130 q-30.5 -72 -30.5 -145 q0 -55 15.5 -105 q15.5 -50 45.5 -87.5 q30 -37.5 73 -60 q43 -22.5 97 -22.5 ZM475 858 q20 0 39 17.5 q19 17.5 27 42.5 l18 0 q-3 -15 -12 -29 q-9 -14 -21 -24.5 q-12 -10.5 -26 -17 q-14 -6.5 -28 -6.5 q-25 0 -41 18 q-16 18 -16 44 q0 5 2 15 l19 0 q-1 -4 -1 -11 q0 -20 11.5 -34.5 q11.5 -14.5 28.5 -14.5 Z" /><glyph glyph-name="Ocircumflex" unicode="ô" d="M298 -5 q-59 0 -105 24 q-46 24 -77.5 64.5 q-31.5 40.5 -47.5 93.5 q-16 53 -16 110 q0 82 34 159 q34 77 90 137 q56 60 127.5 96 q71.5 36 147.5 36 q59 0 105 -25 q46 -25 77.5 -66 q31.5 -41 47.5 -94 q16 -53 16 -109 q0 -81 -34 -158 q-34 -77 -90 -136.5 q-56 -59.5 -127.5 -95.5 q-71.5 -36 -147.5 -36 ZM303 15 q75 0 143 36 q68 36 119 94 q51 58 81.5 130 q30.5 72 30.5 144 q0 55 -16 105 q-16 50 -46 88 q-30 38 -72.5 60.5 q-42.5 22.5 -95.5 22.5 q-75 0 -143 -36 q-68 -36 -119.5 -94 q-51.5 -58 -82 -130 q-30.5 -72 -30.5 -145 q0 -55 15.5 -105 q15.5 -50 45.5 -87.5 q30 -37.5 73 -60 q43 -22.5 97 -22.5 ZM385 844 l104 74 l16 0 l73 -74 l-18 -12 l-68 63 l-94 -63 l-13 12 Z" /><glyph glyph-name="Odieresis" unicode="ö" d="M298 -5 q-59 0 -105 24 q-46 24 -77.5 64.5 q-31.5 40.5 -47.5 93.5 q-16 53 -16 110 q0 82 34 159 q34 77 90 137 q56 60 127.5 96 q71.5 36 147.5 36 q59 0 105 -25 q46 -25 77.5 -66 q31.5 -41 47.5 -94 q16 -53 16 -109 q0 -81 -34 -158 q-34 -77 -90 -136.5 q-56 -59.5 -127.5 -95.5 q-71.5 -36 -147.5 -36 ZM303 15 q75 0 143 36 q68 36 119 94 q51 58 81.5 130 q30.5 72 30.5 144 q0 55 -16 105 q-16 50 -46 88 q-30 38 -72.5 60.5 q-42.5 22.5 -95.5 22.5 q-75 0 -143 -36 q-68 -36 -119.5 -94 q-51.5 -58 -82 -130 q-30.5 -72 -30.5 -145 q0 -55 15.5 -105 q15.5 -50 45.5 -87.5 q30 -37.5 73 -60 q43 -22.5 97 -22.5 ZM412 841 l16 77 l20 0 l-16 -77 l-20 0 ZM523 841 l16 77 l20 0 l-16 -77 l-20 0 Z" /><glyph glyph-name="Ograve" unicode="ò" d="M298 -5 q-59 0 -105 24 q-46 24 -77.5 64.5 q-31.5 40.5 -47.5 93.5 q-16 53 -16 110 q0 82 34 159 q34 77 90 137 q56 60 127.5 96 q71.5 36 147.5 36 q59 0 105 -25 q46 -25 77.5 -66 q31.5 -41 47.5 -94 q16 -53 16 -109 q0 -81 -34 -158 q-34 -77 -90 -136.5 q-56 -59.5 -127.5 -95.5 q-71.5 -36 -147.5 -36 ZM303 15 q75 0 143 36 q68 36 119 94 q51 58 81.5 130 q30.5 72 30.5 144 q0 55 -16 105 q-16 50 -46 88 q-30 38 -72.5 60.5 q-42.5 22.5 -95.5 22.5 q-75 0 -143 -36 q-68 -36 -119.5 -94 q-51.5 -58 -82 -130 q-30.5 -72 -30.5 -145 q0 -55 15.5 -105 q15.5 -50 45.5 -87.5 q30 -37.5 73 -60 q43 -22.5 97 -22.5 ZM425 918 l32 0 l46 -73 l-18 -12 l-60 85 Z" /><glyph glyph-name="Ohungarumlaut" unicode="&#x150;" d="M298 -5 q-59 0 -105 24 q-46 24 -77.5 64.5 q-31.5 40.5 -47.5 93.5 q-16 53 -16 110 q0 82 34 159 q34 77 90 137 q56 60 127.5 96 q71.5 36 147.5 36 q59 0 105 -25 q46 -25 77.5 -66 q31.5 -41 47.5 -94 q16 -53 16 -109 q0 -81 -34 -158 q-34 -77 -90 -136.5 q-56 -59.5 -127.5 -95.5 q-71.5 -36 -147.5 -36 ZM303 15 q75 0 143 36 q68 36 119 94 q51 58 81.5 130 q30.5 72 30.5 144 q0 55 -16 105 q-16 50 -46 88 q-30 38 -72.5 60.5 q-42.5 22.5 -95.5 22.5 q-75 0 -143 -36 q-68 -36 -119.5 -94 q-51.5 -58 -82 -130 q-30.5 -72 -30.5 -145 q0 -55 15.5 -105 q15.5 -50 45.5 -87.5 q30 -37.5 73 -60 q43 -22.5 97 -22.5 ZM397 833 l-13 12 l76 73 l33 0 l-96 -85 ZM493 833 l-13 12 l76 73 l33 0 l-96 -85 Z" /><glyph glyph-name="hungarumlaut" unicode="&#x2dd;" d="M53 645 l-13 12 l76 73 l33 0 l-96 -85 ZM149 645 l-13 12 l76 73 l33 0 l-96 -85 Z" /><glyph glyph-name="Omacron" unicode="&#x14c;" d="M298 -5 q-59 0 -105 24 q-46 24 -77.5 64.5 q-31.5 40.5 -47.5 93.5 q-16 53 -16 110 q0 82 34 159 q34 77 90 137 q56 60 127.5 96 q71.5 36 147.5 36 q59 0 105 -25 q46 -25 77.5 -66 q31.5 -41 47.5 -94 q16 -53 16 -109 q0 -81 -34 -158 q-34 -77 -90 -136.5 q-56 -59.5 -127.5 -95.5 q-71.5 -36 -147.5 -36 ZM303 15 q75 0 143 36 q68 36 119 94 q51 58 81.5 130 q30.5 72 30.5 144 q0 55 -16 105 q-16 50 -46 88 q-30 38 -72.5 60.5 q-42.5 22.5 -95.5 22.5 q-75 0 -143 -36 q-68 -36 -119.5 -94 q-51.5 -58 -82 -130 q-30.5 -72 -30.5 -145 q0 -55 15.5 -105 q15.5 -50 45.5 -87.5 q30 -37.5 73 -60 q43 -22.5 97 -22.5 ZM349 874 l4 20 l266 0 l-4 -20 l-266 0 Z" /><glyph glyph-name="Oogonek" unicode="&#x1ea;" d="M232 -163 q-19 5 -28.5 18.5 q-9.5 13.5 -9.5 30.5 q0 27 19 51.5 q19 24.5 69 58.5 q-56 3 -98.5 28 q-42.5 25 -72 65 q-29.5 40 -44.5 91.5 q-15 51.5 -15 106.5 q0 82 34 159 q34 77 90 137 q56 60 127.5 96 q71.5 36 147.5 36 q59 0 105 -25 q46 -25 77.5 -66 q31.5 -41 47.5 -94 q16 -53 16 -109 q0 -80 -32.5 -155 q-32.5 -75 -86 -134 q-53.5 -59 -123 -96 q-69.5 -37 -143.5 -40 q-29 -18 -48 -32.5 q-19 -14.5 -30 -26.5 q-11 -12 -15.5 -23 q-4.5 -11 -4.5 -23 q0 -29 34 -37 l-16 -17 ZM303 15 q75 0 143 36 q68 36 119 94 q51 58 81.5 130 q30.5 72 30.5 144 q0 55 -16 105 q-16 50 -46 88 q-30 38 -72.5 60.5 q-42.5 22.5 -95.5 22.5 q-75 0 -143 -36 q-68 -36 -119.5 -94 q-51.5 -58 -82 -130 q-30.5 -72 -30.5 -145 q0 -55 15.5 -105 q15.5 -50 45.5 -87.5 q30 -37.5 73 -60 q43 -22.5 97 -22.5 Z" /><glyph glyph-name="Oslash" unicode="ø" d="M680 710 l-59 -72 q37 -42 56.5 -98.5 q19.5 -56.5 19.5 -118.5 q0 -81 -34 -158 q-34 -77 -90 -136.5 q-56 -59.5 -127.5 -95.5 q-71.5 -36 -147.5 -36 q-48 0 -87.5 16 q-39.5 16 -69.5 44 l-45 -55 l-25 0 l57 69 q-38 42 -57 98.5 q-19 56.5 -19 119.5 q0 82 34 159 q34 77 90 137 q56 60 127.5 96 q71.5 36 147.5 36 q48 0 87.5 -17 q39.5 -17 69.5 -46 l47 58 l25 0 ZM72 290 q0 -60 17.5 -113 q17.5 -53 52.5 -91 l452 549 q-29 28 -65.5 44 q-36.5 16 -81.5 16 q-75 0 -143 -36 q-68 -36 -119.5 -94 q-51.5 -58 -82 -130 q-30.5 -72 -30.5 -145 ZM303 15 q75 0 143 36 q68 36 119 94 q51 58 81.5 130 q30.5 72 30.5 144 q0 59 -18 111.5 q-18 52.5 -52 90.5 l-452 -549 q29 -27 66 -42 q37 -15 82 -15 Z" /><glyph glyph-name="slash" unicode="/" d="M583 710 l-584 -710 l-25 0 l584 710 l25 0 Z" /><glyph glyph-name="Oslashacute" unicode="&#x1fe;" d="M680 710 l-59 -72 q37 -42 56.5 -98.5 q19.5 -56.5 19.5 -118.5 q0 -81 -34 -158 q-34 -77 -90 -136.5 q-56 -59.5 -127.5 -95.5 q-71.5 -36 -147.5 -36 q-48 0 -87.5 16 q-39.5 16 -69.5 44 l-45 -55 l-25 0 l57 69 q-38 42 -57 98.5 q-19 56.5 -19 119.5 q0 82 34 159 q34 77 90 137 q56 60 127.5 96 q71.5 36 147.5 36 q48 0 87.5 -17 q39.5 -17 69.5 -46 l47 58 l25 0 ZM72 290 q0 -60 17.5 -113 q17.5 -53 52.5 -91 l452 549 q-29 28 -65.5 44 q-36.5 16 -81.5 16 q-75 0 -143 -36 q-68 -36 -119.5 -94 q-51.5 -58 -82 -130 q-30.5 -72 -30.5 -145 ZM303 15 q75 0 143 36 q68 36 119 94 q51 58 81.5 130 q30.5 72 30.5 144 q0 59 -18 111.5 q-18 52.5 -52 90.5 l-452 -549 q29 -27 66 -42 q37 -15 82 -15 ZM454 833 l-13 12 l76 73 l33 0 l-96 -85 Z" /><glyph glyph-name="Otilde" unicode="õ" d="M298 -5 q-59 0 -105 24 q-46 24 -77.5 64.5 q-31.5 40.5 -47.5 93.5 q-16 53 -16 110 q0 82 34 159 q34 77 90 137 q56 60 127.5 96 q71.5 36 147.5 36 q59 0 105 -25 q46 -25 77.5 -66 q31.5 -41 47.5 -94 q16 -53 16 -109 q0 -81 -34 -158 q-34 -77 -90 -136.5 q-56 -59.5 -127.5 -95.5 q-71.5 -36 -147.5 -36 ZM303 15 q75 0 143 36 q68 36 119 94 q51 58 81.5 130 q30.5 72 30.5 144 q0 55 -16 105 q-16 50 -46 88 q-30 38 -72.5 60.5 q-42.5 22.5 -95.5 22.5 q-75 0 -143 -36 q-68 -36 -119.5 -94 q-51.5 -58 -82 -130 q-30.5 -72 -30.5 -145 q0 -55 15.5 -105 q15.5 -50 45.5 -87.5 q30 -37.5 73 -60 q43 -22.5 97 -22.5 ZM535 851 q-21 0 -35.5 6 q-14.5 6 -26.5 13 q-12 7 -23 13 q-11 6 -26 6 q-15 0 -26 -6.5 q-11 -6.5 -18 -15 q-7 -8.5 -10.5 -16.5 q-3.5 -8 -4.5 -10 l-19 0 q0 2 4.5 13 q4.5 11 14 23 q9.5 12 25.5 21.5 q16 9.5 40 9.5 q18 0 31 -6 q13 -6 24.5 -13 q11.5 -7 24.5 -13 q13 -6 31 -6 q19 0 32 7 q13 7 20.5 15.5 q7.5 8.5 10.5 16 q3 7.5 3 9.5 l19 0 q-1 -3 -5.5 -14 q-4.5 -11 -15 -23 q-10.5 -12 -27.5 -21 q-17 -9 -43 -9 Z" /><glyph glyph-name="P" unicode="p" d="M184 710 l275 0 q35 0 63 -15 q28 -15 47 -40 q19 -25 29 -56.5 q10 -31.5 10 -65.5 q0 -46 -19 -91.5 q-19 -45.5 -51 -81.5 q-32 -36 -74.5 -58.5 q-42.5 -22.5 -89.5 -22.5 l-262 0 l-59 -279 l-20 0 l151 710 ZM378 299 q44 0 82.5 21 q38.5 21 67 54.5 q28.5 33.5 44.5 74.5 q16 41 16 81 q0 32 -9.5 61 q-9.5 29 -27 51 q-17.5 22 -42.5 35 q-25 13 -55 13 l-254 0 l-83 -391 l261 0 Z" /><glyph glyph-name="Q" unicode="q" d="M514 73 q-48 -37 -103 -57.5 q-55 -20.5 -112 -20.5 q-59 0 -105 24 q-46 24 -77.5 64.5 q-31.5 40.5 -48 93.5 q-16.5 53 -16.5 110 q0 82 34 159 q34 77 90 137 q56 60 128 96 q72 36 148 36 q59 0 105 -25 q46 -25 77 -66 q31 -41 47 -94 q16 -53 16 -109 q0 -48 -12 -95 q-12 -47 -34 -90 q-22 -43 -52.5 -81 q-30.5 -38 -67.5 -68 l48 -87 l-25 0 l-40 73 ZM303 15 q55 0 106 19.5 q51 19.5 96 54.5 l-53 97 l25 0 l45 -83 q35 30 63.5 66.5 q28.5 36.5 49 78 q20.5 41.5 31.5 85 q11 43.5 11 86.5 q0 55 -16 105 q-16 50 -45.5 88 q-29.5 38 -72 60.5 q-42.5 22.5 -95.5 22.5 q-75 0 -143 -36 q-68 -36 -120 -94 q-52 -58 -82.5 -130 q-30.5 -72 -30.5 -145 q0 -55 15.5 -105 q15.5 -50 45.5 -87.5 q30 -37.5 73 -60 q43 -22.5 97 -22.5 Z" /><glyph glyph-name="R" unicode="r" d="M33 0 l151 710 l275 0 q35 0 63 -15 q28 -15 47 -40 q19 -25 29 -56.5 q10 -31.5 10 -65.5 q0 -46 -18 -90 q-18 -44 -48 -79.5 q-30 -35.5 -70.5 -58.5 q-40.5 -23 -85.5 -26 l111 -279 l-24 0 l-111 279 l-250 0 l-59 -279 l-20 0 ZM378 299 q44 0 82 21 q38 21 66.5 54 q28.5 33 45 74 q16.5 41 16.5 82 q0 32 -9.5 61 q-9.5 29 -27 51 q-17.5 22 -42.5 35 q-25 13 -55 13 l-254 0 l-83 -391 l261 0 Z" /><glyph glyph-name="Racute" unicode="&#x154;" d="M33 0 l151 710 l275 0 q35 0 63 -15 q28 -15 47 -40 q19 -25 29 -56.5 q10 -31.5 10 -65.5 q0 -46 -18 -90 q-18 -44 -48 -79.5 q-30 -35.5 -70.5 -58.5 q-40.5 -23 -85.5 -26 l111 -279 l-24 0 l-111 279 l-250 0 l-59 -279 l-20 0 ZM378 299 q44 0 82 21 q38 21 66.5 54 q28.5 33 45 74 q16.5 41 16.5 82 q0 32 -9.5 61 q-9.5 29 -27 51 q-17.5 22 -42.5 35 q-25 13 -55 13 l-254 0 l-83 -391 l261 0 ZM393 836 l-13 12 l76 73 l33 0 l-96 -85 Z" /><glyph glyph-name="Rcaron" unicode="&#x158;" d="M33 0 l151 710 l275 0 q35 0 63 -15 q28 -15 47 -40 q19 -25 29 -56.5 q10 -31.5 10 -65.5 q0 -46 -18 -90 q-18 -44 -48 -79.5 q-30 -35.5 -70.5 -58.5 q-40.5 -23 -85.5 -26 l111 -279 l-24 0 l-111 279 l-250 0 l-59 -279 l-20 0 ZM378 299 q44 0 82 21 q38 21 66.5 54 q28.5 33 45 74 q16.5 41 16.5 82 q0 32 -9.5 61 q-9.5 29 -27 51 q-17.5 22 -42.5 35 q-25 13 -55 13 l-254 0 l-83 -391 l261 0 ZM342 909 l18 12 l68 -63 l94 63 l13 -12 l-104 -74 l-16 0 l-73 74 Z" /><glyph glyph-name="Rcommaaccent" unicode="&#x156;" d="M33 0 l151 710 l275 0 q35 0 63 -15 q28 -15 47 -40 q19 -25 29 -56.5 q10 -31.5 10 -65.5 q0 -46 -18 -90 q-18 -44 -48 -79.5 q-30 -35.5 -70.5 -58.5 q-40.5 -23 -85.5 -26 l111 -279 l-24 0 l-111 279 l-250 0 l-59 -279 l-20 0 ZM378 299 q44 0 82 21 q38 21 66.5 54 q28.5 33 45 74 q16.5 41 16.5 82 q0 32 -9.5 61 q-9.5 29 -27 51 q-17.5 22 -42.5 35 q-25 13 -55 13 l-254 0 l-83 -391 l261 0 ZM199 -167 l22 58 l-9 0 l13 59 l25 0 l-12 -59 l-25 -58 l-14 0 Z" /><glyph glyph-name="S" unicode="s" d="M238 -5 q-81 0 -139 26.5 q-58 26.5 -100 83.5 l17 13 q40 -56 94.5 -81 q54.5 -25 132.5 -25 q58 0 105 12.5 q47 12.5 80 36.5 q33 24 51 59.5 q18 35.5 18 82.5 q0 30 -12 52.5 q-12 22.5 -36 39 q-24 16.5 -60 28.5 q-36 12 -84 23 q-47 10 -84 21 q-37 11 -62.5 27 q-25.5 16 -39 39.5 q-13.5 23.5 -13.5 57.5 q0 52 20.5 93.5 q20.5 41.5 58 70.5 q37.5 29 89 44.5 q51.5 15.5 113.5 15.5 q65 0 109 -19.5 q44 -19.5 74 -65.5 l-16 -14 q-30 47 -69.5 63.5 q-39.5 16.5 -99.5 16.5 q-69 0 -118 -15.5 q-49 -15.5 -80 -43 q-31 -27.5 -45.5 -64 q-14.5 -36.5 -14.5 -78.5 q0 -29 11 -49 q11 -20 33.5 -34.5 q22.5 -14.5 57 -25.5 q34.5 -11 80.5 -21 q47 -11 85.5 -23 q38.5 -12 66 -29.5 q27.5 -17.5 42.5 -43 q15 -25.5 15 -61.5 q0 -50 -20 -89.5 q-20 -39.5 -56.5 -67 q-36.5 -27.5 -88.5 -42 q-52 -14.5 -115 -14.5 Z" /><glyph glyph-name="Sacute" unicode="&#x15a;" d="M238 -5 q-81 0 -139 26.5 q-58 26.5 -100 83.5 l17 13 q40 -56 94.5 -81 q54.5 -25 132.5 -25 q58 0 105 12.5 q47 12.5 80 36.5 q33 24 51 59.5 q18 35.5 18 82.5 q0 30 -12 52.5 q-12 22.5 -36 39 q-24 16.5 -60 28.5 q-36 12 -84 23 q-47 10 -84 21 q-37 11 -62.5 27 q-25.5 16 -39 39.5 q-13.5 23.5 -13.5 57.5 q0 52 20.5 93.5 q20.5 41.5 58 70.5 q37.5 29 89 44.5 q51.5 15.5 113.5 15.5 q65 0 109 -19.5 q44 -19.5 74 -65.5 l-16 -14 q-30 47 -69.5 63.5 q-39.5 16.5 -99.5 16.5 q-69 0 -118 -15.5 q-49 -15.5 -80 -43 q-31 -27.5 -45.5 -64 q-14.5 -36.5 -14.5 -78.5 q0 -29 11 -49 q11 -20 33.5 -34.5 q22.5 -14.5 57 -25.5 q34.5 -11 80.5 -21 q47 -11 85.5 -23 q38.5 -12 66 -29.5 q27.5 -17.5 42.5 -43 q15 -25.5 15 -61.5 q0 -50 -20 -89.5 q-20 -39.5 -56.5 -67 q-36.5 -27.5 -88.5 -42 q-52 -14.5 -115 -14.5 ZM392 855 l-13 12 l76 73 l33 0 l-96 -85 Z" /><glyph glyph-name="Scaron" unicode="&#x160;" d="M238 -5 q-81 0 -139 26.5 q-58 26.5 -100 83.5 l17 13 q40 -56 94.5 -81 q54.5 -25 132.5 -25 q58 0 105 12.5 q47 12.5 80 36.5 q33 24 51 59.5 q18 35.5 18 82.5 q0 30 -12 52.5 q-12 22.5 -36 39 q-24 16.5 -60 28.5 q-36 12 -84 23 q-47 10 -84 21 q-37 11 -62.5 27 q-25.5 16 -39 39.5 q-13.5 23.5 -13.5 57.5 q0 52 20.5 93.5 q20.5 41.5 58 70.5 q37.5 29 89 44.5 q51.5 15.5 113.5 15.5 q65 0 109 -19.5 q44 -19.5 74 -65.5 l-16 -14 q-30 47 -69.5 63.5 q-39.5 16.5 -99.5 16.5 q-69 0 -118 -15.5 q-49 -15.5 -80 -43 q-31 -27.5 -45.5 -64 q-14.5 -36.5 -14.5 -78.5 q0 -29 11 -49 q11 -20 33.5 -34.5 q22.5 -14.5 57 -25.5 q34.5 -11 80.5 -21 q47 -11 85.5 -23 q38.5 -12 66 -29.5 q27.5 -17.5 42.5 -43 q15 -25.5 15 -61.5 q0 -50 -20 -89.5 q-20 -39.5 -56.5 -67 q-36.5 -27.5 -88.5 -42 q-52 -14.5 -115 -14.5 ZM336 928 l18 12 l68 -63 l94 63 l13 -12 l-104 -74 l-16 0 l-73 74 Z" /><glyph glyph-name="Scircumflex" unicode="&#x15c;" d="M238 -5 q-81 0 -139 26.5 q-58 26.5 -100 83.5 l17 13 q40 -56 94.5 -81 q54.5 -25 132.5 -25 q58 0 105 12.5 q47 12.5 80 36.5 q33 24 51 59.5 q18 35.5 18 82.5 q0 30 -12 52.5 q-12 22.5 -36 39 q-24 16.5 -60 28.5 q-36 12 -84 23 q-47 10 -84 21 q-37 11 -62.5 27 q-25.5 16 -39 39.5 q-13.5 23.5 -13.5 57.5 q0 52 20.5 93.5 q20.5 41.5 58 70.5 q37.5 29 89 44.5 q51.5 15.5 113.5 15.5 q65 0 109 -19.5 q44 -19.5 74 -65.5 l-16 -14 q-30 47 -69.5 63.5 q-39.5 16.5 -99.5 16.5 q-69 0 -118 -15.5 q-49 -15.5 -80 -43 q-31 -27.5 -45.5 -64 q-14.5 -36.5 -14.5 -78.5 q0 -29 11 -49 q11 -20 33.5 -34.5 q22.5 -14.5 57 -25.5 q34.5 -11 80.5 -21 q47 -11 85.5 -23 q38.5 -12 66 -29.5 q27.5 -17.5 42.5 -43 q15 -25.5 15 -61.5 q0 -50 -20 -89.5 q-20 -39.5 -56.5 -67 q-36.5 -27.5 -88.5 -42 q-52 -14.5 -115 -14.5 ZM326 866 l104 74 l16 0 l73 -74 l-18 -12 l-68 63 l-94 -63 l-13 12 Z" /><glyph glyph-name="T" unicode="t" d="M356 690 l-258 0 l4 20 l536 0 l-4 -20 l-258 0 l-147 -690 l-20 0 l147 690 Z" /><glyph glyph-name="Tbar" unicode="&#x166;" d="M92 424 l229 0 l57 266 l-258 0 l4 20 l537 0 l-5 -20 l-258 0 l-57 -266 l230 0 l-4 -20 l-230 0 l-85 -404 l-20 0 l85 404 l-229 0 l4 20 Z" /><glyph glyph-name="Tcaron" unicode="&#x164;" d="M356 690 l-258 0 l4 20 l536 0 l-4 -20 l-258 0 l-147 -690 l-20 0 l147 690 ZM308 906 l18 12 l68 -63 l94 63 l13 -12 l-104 -74 l-16 0 l-73 74 Z" /><glyph glyph-name="Thorn" unicode="þ" d="M184 710 l20 0 l-32 -150 l236 0 q35 0 63 -15 q28 -15 47 -40 q19 -25 29 -56.5 q10 -31.5 10 -65.5 q0 -46 -19 -91.5 q-19 -45.5 -51 -81.5 q-32 -36 -74.5 -58.5 q-42.5 -22.5 -89.5 -22.5 l-243 0 l-27 -129 l-20 0 l151 710 ZM327 149 q44 0 82.5 21 q38.5 21 67 54.5 q28.5 33.5 44.5 74.5 q16 41 16 81 q0 32 -9.5 61 q-9.5 29 -27 51 q-17.5 22 -42.5 35 q-25 13 -55 13 l-235 0 l-83 -391 l242 0 Z" /><glyph glyph-name="U" unicode="u" d="M298 -5 q-61 0 -102 18 q-41 18 -66 49.5 q-25 31.5 -36 73.5 q-11 42 -11 90 q0 31 4 63.5 q4 32.5 11 65.5 l75 355 l20 0 l-75 -355 q-7 -32 -11 -64 q-4 -32 -4 -62 q0 -45 10 -84 q10 -39 33 -68 q23 -29 61 -45.5 q38 -16.5 94 -16.5 q76 0 132 30 q56 30 95.5 78 q39.5 48 64 109 q24.5 61 37.5 123 l75 355 l20 0 l-75 -355 q-15 -71 -43 -136 q-28 -65 -70.5 -114.5 q-42.5 -49.5 -101.5 -79.5 q-59 -30 -137 -30 Z" /><glyph glyph-name="Uacute" unicode="ú" d="M298 -5 q-61 0 -102 18 q-41 18 -66 49.5 q-25 31.5 -36 73.5 q-11 42 -11 90 q0 31 4 63.5 q4 32.5 11 65.5 l75 355 l20 0 l-75 -355 q-7 -32 -11 -64 q-4 -32 -4 -62 q0 -45 10 -84 q10 -39 33 -68 q23 -29 61 -45.5 q38 -16.5 94 -16.5 q76 0 132 30 q56 30 95.5 78 q39.5 48 64 109 q24.5 61 37.5 123 l75 355 l20 0 l-75 -355 q-15 -71 -43 -136 q-28 -65 -70.5 -114.5 q-42.5 -49.5 -101.5 -79.5 q-59 -30 -137 -30 ZM445 833 l-13 12 l76 73 l33 0 l-96 -85 Z" /><glyph glyph-name="Ubreve" unicode="&#x16c;" d="M298 -5 q-61 0 -102 18 q-41 18 -66 49.5 q-25 31.5 -36 73.5 q-11 42 -11 90 q0 31 4 63.5 q4 32.5 11 65.5 l75 355 l20 0 l-75 -355 q-7 -32 -11 -64 q-4 -32 -4 -62 q0 -45 10 -84 q10 -39 33 -68 q23 -29 61 -45.5 q38 -16.5 94 -16.5 q76 0 132 30 q56 30 95.5 78 q39.5 48 64 109 q24.5 61 37.5 123 l75 355 l20 0 l-75 -355 q-15 -71 -43 -136 q-28 -65 -70.5 -114.5 q-42.5 -49.5 -101.5 -79.5 q-59 -30 -137 -30 ZM474 858 q20 0 39 17.5 q19 17.5 27 42.5 l18 0 q-3 -15 -12 -29 q-9 -14 -21 -24.5 q-12 -10.5 -26 -17 q-14 -6.5 -28 -6.5 q-25 0 -41 18 q-16 18 -16 44 q0 5 2 15 l19 0 q-1 -4 -1 -11 q0 -20 11.5 -34.5 q11.5 -14.5 28.5 -14.5 Z" /><glyph glyph-name="Ucircumflex" unicode="û" d="M298 -5 q-61 0 -102 18 q-41 18 -66 49.5 q-25 31.5 -36 73.5 q-11 42 -11 90 q0 31 4 63.5 q4 32.5 11 65.5 l75 355 l20 0 l-75 -355 q-7 -32 -11 -64 q-4 -32 -4 -62 q0 -45 10 -84 q10 -39 33 -68 q23 -29 61 -45.5 q38 -16.5 94 -16.5 q76 0 132 30 q56 30 95.5 78 q39.5 48 64 109 q24.5 61 37.5 123 l75 355 l20 0 l-75 -355 q-15 -71 -43 -136 q-28 -65 -70.5 -114.5 q-42.5 -49.5 -101.5 -79.5 q-59 -30 -137 -30 ZM383 844 l104 74 l16 0 l73 -74 l-18 -12 l-68 63 l-94 -63 l-13 12 Z" /><glyph glyph-name="Udieresis" unicode="ü" d="M298 -5 q-61 0 -102 18 q-41 18 -66 49.5 q-25 31.5 -36 73.5 q-11 42 -11 90 q0 31 4 63.5 q4 32.5 11 65.5 l75 355 l20 0 l-75 -355 q-7 -32 -11 -64 q-4 -32 -4 -62 q0 -45 10 -84 q10 -39 33 -68 q23 -29 61 -45.5 q38 -16.5 94 -16.5 q76 0 132 30 q56 30 95.5 78 q39.5 48 64 109 q24.5 61 37.5 123 l75 355 l20 0 l-75 -355 q-15 -71 -43 -136 q-28 -65 -70.5 -114.5 q-42.5 -49.5 -101.5 -79.5 q-59 -30 -137 -30 ZM410 841 l16 77 l20 0 l-16 -77 l-20 0 ZM521 841 l16 77 l20 0 l-16 -77 l-20 0 Z" /><glyph glyph-name="Ugrave" unicode="ù" d="M298 -5 q-61 0 -102 18 q-41 18 -66 49.5 q-25 31.5 -36 73.5 q-11 42 -11 90 q0 31 4 63.5 q4 32.5 11 65.5 l75 355 l20 0 l-75 -355 q-7 -32 -11 -64 q-4 -32 -4 -62 q0 -45 10 -84 q10 -39 33 -68 q23 -29 61 -45.5 q38 -16.5 94 -16.5 q76 0 132 30 q56 30 95.5 78 q39.5 48 64 109 q24.5 61 37.5 123 l75 355 l20 0 l-75 -355 q-15 -71 -43 -136 q-28 -65 -70.5 -114.5 q-42.5 -49.5 -101.5 -79.5 q-59 -30 -137 -30 ZM427 918 l32 0 l46 -73 l-18 -12 l-60 85 Z" /><glyph glyph-name="Uhungarumlaut" unicode="&#x170;" d="M298 -5 q-61 0 -102 18 q-41 18 -66 49.5 q-25 31.5 -36 73.5 q-11 42 -11 90 q0 31 4 63.5 q4 32.5 11 65.5 l75 355 l20 0 l-75 -355 q-7 -32 -11 -64 q-4 -32 -4 -62 q0 -45 10 -84 q10 -39 33 -68 q23 -29 61 -45.5 q38 -16.5 94 -16.5 q76 0 132 30 q56 30 95.5 78 q39.5 48 64 109 q24.5 61 37.5 123 l75 355 l20 0 l-75 -355 q-15 -71 -43 -136 q-28 -65 -70.5 -114.5 q-42.5 -49.5 -101.5 -79.5 q-59 -30 -137 -30 ZM400 833 l-13 12 l76 73 l33 0 l-96 -85 ZM496 833 l-13 12 l76 73 l33 0 l-96 -85 Z" /><glyph glyph-name="Umacron" unicode="&#x16a;" d="M298 -5 q-61 0 -102 18 q-41 18 -66 49.5 q-25 31.5 -36 73.5 q-11 42 -11 90 q0 31 4 63.5 q4 32.5 11 65.5 l75 355 l20 0 l-75 -355 q-7 -32 -11 -64 q-4 -32 -4 -62 q0 -45 10 -84 q10 -39 33 -68 q23 -29 61 -45.5 q38 -16.5 94 -16.5 q76 0 132 30 q56 30 95.5 78 q39.5 48 64 109 q24.5 61 37.5 123 l75 355 l20 0 l-75 -355 q-15 -71 -43 -136 q-28 -65 -70.5 -114.5 q-42.5 -49.5 -101.5 -79.5 q-59 -30 -137 -30 ZM347 874 l4 20 l266 0 l-4 -20 l-266 0 Z" /><glyph glyph-name="Uogonek" unicode="&#x172;" d="M230 -163 q-19 5 -28.5 18.5 q-9.5 13.5 -9.5 30.5 q0 26 19 51 q19 25 69 59 q-56 3 -93.5 22 q-37.5 19 -60.5 50 q-23 31 -33 71.5 q-10 40.5 -10 86.5 q0 31 4 63.5 q4 32.5 11 65.5 l75 355 l20 0 l-75 -355 q-7 -32 -11 -64 q-4 -32 -4 -62 q0 -45 10 -84 q10 -39 33 -68 q23 -29 61 -45.5 q38 -16.5 94 -16.5 q76 0 132 30 q56 30 95.5 78 q39.5 48 64 109 q24.5 61 37.5 123 l75 355 l20 0 l-75 -355 q-15 -69 -42 -133 q-27 -64 -68 -113.5 q-41 -49.5 -98 -80 q-57 -30.5 -132 -32.5 q-29 -18 -48 -32.5 q-19 -14.5 -30 -26.5 q-11 -12 -15.5 -23 q-4.5 -11 -4.5 -23 q0 -30 34 -37 l-16 -17 Z" /><glyph glyph-name="Uring" unicode="&#x16e;" d="M298 -5 q-61 0 -102 18 q-41 18 -66 49.5 q-25 31.5 -36 73.5 q-11 42 -11 90 q0 31 4 63.5 q4 32.5 11 65.5 l75 355 l20 0 l-75 -355 q-7 -32 -11 -64 q-4 -32 -4 -62 q0 -45 10 -84 q10 -39 33 -68 q23 -29 61 -45.5 q38 -16.5 94 -16.5 q76 0 132 30 q56 30 95.5 78 q39.5 48 64 109 q24.5 61 37.5 123 l75 355 l20 0 l-75 -355 q-15 -71 -43 -136 q-28 -65 -70.5 -114.5 q-42.5 -49.5 -101.5 -79.5 q-59 -30 -137 -30 ZM424 850 q0 14 5.5 26.5 q5.5 12.5 15 21.5 q9.5 9 22 14.5 q12.5 5.5 25.5 5.5 q20 0 31.5 -13 q11.5 -13 11.5 -33 q0 -14 -5.5 -26.5 q-5.5 -12.5 -15 -21.5 q-9.5 -9 -22 -14.5 q-12.5 -5.5 -25.5 -5.5 q-20 0 -31.5 13 q-11.5 13 -11.5 33 ZM488 902 q-18 0 -33 -13.5 q-15 -13.5 -15 -35.5 q0 -14 8.5 -23.5 q8.5 -9.5 22.5 -9.5 q16 0 32.5 14 q16.5 14 16.5 35 q0 15 -9 24 q-9 9 -23 9 Z" /><glyph glyph-name="Utilde" unicode="&#x168;" d="M298 -5 q-61 0 -102 18 q-41 18 -66 49.5 q-25 31.5 -36 73.5 q-11 42 -11 90 q0 31 4 63.5 q4 32.5 11 65.5 l75 355 l20 0 l-75 -355 q-7 -32 -11 -64 q-4 -32 -4 -62 q0 -45 10 -84 q10 -39 33 -68 q23 -29 61 -45.5 q38 -16.5 94 -16.5 q76 0 132 30 q56 30 95.5 78 q39.5 48 64 109 q24.5 61 37.5 123 l75 355 l20 0 l-75 -355 q-15 -71 -43 -136 q-28 -65 -70.5 -114.5 q-42.5 -49.5 -101.5 -79.5 q-59 -30 -137 -30 ZM533 851 q-21 0 -35.5 6 q-14.5 6 -26.5 13 q-12 7 -23 13 q-11 6 -26 6 q-15 0 -26 -6.5 q-11 -6.5 -18 -15 q-7 -8.5 -10.5 -16.5 q-3.5 -8 -4.5 -10 l-19 0 q0 2 4.5 13 q4.5 11 14 23 q9.5 12 25.5 21.5 q16 9.5 40 9.5 q18 0 31 -6 q13 -6 24.5 -13 q11.5 -7 24.5 -13 q13 -6 31 -6 q19 0 32 7 q13 7 20.5 15.5 q7.5 8.5 10.5 16 q3 7.5 3 9.5 l19 0 q-1 -3 -5.5 -14 q-4.5 -11 -15 -23 q-10.5 -12 -27.5 -21 q-17 -9 -43 -9 Z" /><glyph glyph-name="V" unicode="v" d="M101 710 l21 0 l138 -685 l427 685 l22 0 l-444 -710 l-22 0 l-142 710 Z" /><glyph glyph-name="W" unicode="w" d="M101 710 l22 0 l137 -685 l242 389 l-59 290 l22 0 l52 -266 l167 266 l22 0 l-183 -290 l79 -389 l427 685 l22 0 l-444 -710 l-22 0 l-77 389 l-243 -389 l-22 0 l-142 710 Z" /><glyph glyph-name="Wacute" unicode="&#x1e82;" d="M101 710 l22 0 l137 -685 l242 389 l-59 290 l22 0 l52 -266 l167 266 l22 0 l-183 -290 l79 -389 l427 685 l22 0 l-444 -710 l-22 0 l-77 389 l-243 -389 l-22 0 l-142 710 ZM587 833 l-13 12 l76 73 l33 0 l-96 -85 Z" /><glyph glyph-name="Wcircumflex" unicode="&#x174;" d="M101 710 l22 0 l137 -685 l242 389 l-59 290 l22 0 l52 -266 l167 266 l22 0 l-183 -290 l79 -389 l427 685 l22 0 l-444 -710 l-22 0 l-77 389 l-243 -389 l-22 0 l-142 710 ZM508 844 l104 74 l16 0 l73 -74 l-18 -12 l-68 63 l-94 -63 l-13 12 Z" /><glyph glyph-name="Wdieresis" unicode="&#x1e84;" d="M101 710 l22 0 l137 -685 l242 389 l-59 290 l22 0 l52 -266 l167 266 l22 0 l-183 -290 l79 -389 l427 685 l22 0 l-444 -710 l-22 0 l-77 389 l-243 -389 l-22 0 l-142 710 ZM533 841 l16 77 l20 0 l-16 -77 l-20 0 ZM644 841 l16 77 l20 0 l-16 -77 l-20 0 Z" /><glyph glyph-name="Wgrave" unicode="&#x1e80;" d="M101 710 l22 0 l137 -685 l242 389 l-59 290 l22 0 l52 -266 l167 266 l22 0 l-183 -290 l79 -389 l427 685 l22 0 l-444 -710 l-22 0 l-77 389 l-243 -389 l-22 0 l-142 710 ZM567 918 l32 0 l46 -73 l-18 -12 l-60 85 Z" /><glyph glyph-name="X" unicode="x" d="M292 350 l-196 360 l26 0 l186 -344 l333 344 l25 0 l-349 -360 l190 -350 l-25 0 l-180 334 l-323 -334 l-26 0 l339 350 Z" /><glyph glyph-name="Y" unicode="y" d="M277 277 l-180 433 l23 0 l172 -412 l348 412 l23 0 l-366 -435 l-59 -275 l-20 0 l59 277 Z" /><glyph glyph-name="Yacute" unicode="ý" d="M277 277 l-180 433 l23 0 l172 -412 l348 412 l23 0 l-366 -435 l-59 -275 l-20 0 l59 277 ZM374 833 l-13 12 l76 73 l33 0 l-96 -85 Z" /><glyph glyph-name="Ycircumflex" unicode="&#x176;" d="M277 277 l-180 433 l23 0 l172 -412 l348 412 l23 0 l-366 -435 l-59 -275 l-20 0 l59 277 ZM314 844 l104 74 l16 0 l73 -74 l-18 -12 l-68 63 l-94 -63 l-13 12 Z" /><glyph glyph-name="Ydieresis" unicode="&#x178;" d="M277 277 l-180 433 l23 0 l172 -412 l348 412 l23 0 l-366 -435 l-59 -275 l-20 0 l59 277 ZM338 841 l16 77 l20 0 l-16 -77 l-20 0 ZM449 841 l16 77 l20 0 l-16 -77 l-20 0 Z" /><glyph glyph-name="Ygrave" unicode="&#x1ef2;" d="M277 277 l-180 433 l23 0 l172 -412 l348 412 l23 0 l-366 -435 l-59 -275 l-20 0 l59 277 ZM352 918 l32 0 l46 -73 l-18 -12 l-60 85 Z" /><glyph glyph-name="Ytilde" unicode="&#x1ef8;" d="M277 277 l-180 433 l23 0 l172 -412 l348 412 l23 0 l-366 -435 l-59 -275 l-20 0 l59 277 ZM449 851 q-21 0 -35.5 6 q-14.5 6 -26.5 13 q-12 7 -23 13 q-11 6 -26 6 q-15 0 -26 -6.5 q-11 -6.5 -18 -15 q-7 -8.5 -10.5 -16.5 q-3.5 -8 -4.5 -10 l-19 0 q0 2 4.5 13 q4.5 11 14 23 q9.5 12 25.5 21.5 q16 9.5 40 9.5 q18 0 31 -6 q13 -6 24.5 -13 q11.5 -7 24.5 -13 q13 -6 31 -6 q19 0 32 7 q13 7 20.5 15.5 q7.5 8.5 10.5 16 q3 7.5 3 9.5 l19 0 q-1 -3 -5.5 -14 q-4.5 -11 -15 -23 q-10.5 -12 -27.5 -21 q-17 -9 -43 -9 Z" /><glyph glyph-name="Z" unicode="z" d="M-36 20 l656 670 l-509 0 l5 20 l534 0 l-5 -20 l-656 -670 l510 0 l-4 -20 l-535 0 l4 20 Z" /><glyph glyph-name="Zacute" unicode="&#x179;" d="M-36 20 l656 670 l-509 0 l5 20 l534 0 l-5 -20 l-656 -670 l510 0 l-4 -20 l-535 0 l4 20 ZM375 833 l-13 12 l76 73 l33 0 l-96 -85 Z" /><glyph glyph-name="Zcaron" unicode="&#x17d;" d="M-36 20 l656 670 l-509 0 l5 20 l534 0 l-5 -20 l-656 -670 l510 0 l-4 -20 l-535 0 l4 20 ZM322 906 l18 12 l68 -63 l94 63 l13 -12 l-104 -74 l-16 0 l-73 74 Z" /><glyph glyph-name="Zdotaccent" unicode="&#x17b;" d="M-36 20 l656 670 l-509 0 l5 20 l534 0 l-5 -20 l-656 -670 l510 0 l-4 -20 l-535 0 l4 20 ZM399 841 l16 77 l20 0 l-16 -77 l-20 0 Z" /><glyph glyph-name="a" unicode="a" d="M216 -10 q-43 0 -77.5 18.5 q-34.5 18.5 -58.5 49 q-24 30.5 -36.5 70.5 q-12.5 40 -12.5 82 q0 60 24 117 q24 57 64.5 101.5 q40.5 44.5 93 71.5 q52.5 27 108.5 27 q35 0 63.5 -10.5 q28.5 -10.5 50 -28 q21.5 -17.5 37.5 -41 q16 -23.5 25 -49.5 l26 121 l21 0 l-102 -475 q-2 -6 -2 -12 q0 -12 12 -12 l-4 -20 q-6 0 -9 1 q-19 6 -19 28 q0 2 0.5 5 q0.5 3 2 10.5 q1.5 7.5 4.5 22.5 q3 15 8 41 q-21 -26 -47 -47.5 q-26 -21.5 -54.5 -37.5 q-28.5 -16 -58.5 -24.5 q-30 -8.5 -59 -8.5 ZM218 10 q32 0 68.5 13 q36.5 13 69.5 35 q33 22 58 50.5 q25 28.5 34 60.5 l40 187 q-4 30 -18.5 57 q-14.5 27 -37.5 48 q-23 21 -53.5 33.5 q-30.5 12.5 -65.5 12.5 q-52 0 -99.5 -26.5 q-47.5 -26.5 -83.5 -69.5 q-36 -43 -57.5 -96 q-21.5 -53 -21.5 -105 q0 -40 12.5 -76 q12.5 -36 35 -63.5 q22.5 -27.5 53 -44 q30.5 -16.5 66.5 -16.5 Z" /><glyph glyph-name="aacute" unicode="á" d="M216 -10 q-43 0 -77.5 18.5 q-34.5 18.5 -58.5 49 q-24 30.5 -36.5 70.5 q-12.5 40 -12.5 82 q0 60 24 117 q24 57 64.5 101.5 q40.5 44.5 93 71.5 q52.5 27 108.5 27 q35 0 63.5 -10.5 q28.5 -10.5 50 -28 q21.5 -17.5 37.5 -41 q16 -23.5 25 -49.5 l26 121 l21 0 l-102 -475 q-2 -6 -2 -12 q0 -12 12 -12 l-4 -20 q-6 0 -9 1 q-19 6 -19 28 q0 2 0.5 5 q0.5 3 2 10.5 q1.5 7.5 4.5 22.5 q3 15 8 41 q-21 -26 -47 -47.5 q-26 -21.5 -54.5 -37.5 q-28.5 -16 -58.5 -24.5 q-30 -8.5 -59 -8.5 ZM218 10 q32 0 68.5 13 q36.5 13 69.5 35 q33 22 58 50.5 q25 28.5 34 60.5 l40 187 q-4 30 -18.5 57 q-14.5 27 -37.5 48 q-23 21 -53.5 33.5 q-30.5 12.5 -65.5 12.5 q-52 0 -99.5 -26.5 q-47.5 -26.5 -83.5 -69.5 q-36 -43 -57.5 -96 q-21.5 -53 -21.5 -105 q0 -40 12.5 -76 q12.5 -36 35 -63.5 q22.5 -27.5 53 -44 q30.5 -16.5 66.5 -16.5 ZM341 645 l-13 12 l76 73 l33 0 l-96 -85 Z" /><glyph glyph-name="abreve" unicode="&#x103;" d="M216 -10 q-43 0 -77.5 18.5 q-34.5 18.5 -58.5 49 q-24 30.5 -36.5 70.5 q-12.5 40 -12.5 82 q0 60 24 117 q24 57 64.5 101.5 q40.5 44.5 93 71.5 q52.5 27 108.5 27 q35 0 63.5 -10.5 q28.5 -10.5 50 -28 q21.5 -17.5 37.5 -41 q16 -23.5 25 -49.5 l26 121 l21 0 l-102 -475 q-2 -6 -2 -12 q0 -12 12 -12 l-4 -20 q-6 0 -9 1 q-19 6 -19 28 q0 2 0.5 5 q0.5 3 2 10.5 q1.5 7.5 4.5 22.5 q3 15 8 41 q-21 -26 -47 -47.5 q-26 -21.5 -54.5 -37.5 q-28.5 -16 -58.5 -24.5 q-30 -8.5 -59 -8.5 ZM218 10 q32 0 68.5 13 q36.5 13 69.5 35 q33 22 58 50.5 q25 28.5 34 60.5 l40 187 q-4 30 -18.5 57 q-14.5 27 -37.5 48 q-23 21 -53.5 33.5 q-30.5 12.5 -65.5 12.5 q-52 0 -99.5 -26.5 q-47.5 -26.5 -83.5 -69.5 q-36 -43 -57.5 -96 q-21.5 -53 -21.5 -105 q0 -40 12.5 -76 q12.5 -36 35 -63.5 q22.5 -27.5 53 -44 q30.5 -16.5 66.5 -16.5 ZM359 670 q20 0 39 17.5 q19 17.5 27 42.5 l18 0 q-3 -15 -12 -29 q-9 -14 -21 -24.5 q-12 -10.5 -26 -17 q-14 -6.5 -28 -6.5 q-25 0 -41 18 q-16 18 -16 44 q0 5 2 15 l19 0 q-1 -4 -1 -11 q0 -20 11.5 -34.5 q11.5 -14.5 28.5 -14.5 Z" /><glyph glyph-name="acircumflex" unicode="â" d="M216 -10 q-43 0 -77.5 18.5 q-34.5 18.5 -58.5 49 q-24 30.5 -36.5 70.5 q-12.5 40 -12.5 82 q0 60 24 117 q24 57 64.5 101.5 q40.5 44.5 93 71.5 q52.5 27 108.5 27 q35 0 63.5 -10.5 q28.5 -10.5 50 -28 q21.5 -17.5 37.5 -41 q16 -23.5 25 -49.5 l26 121 l21 0 l-102 -475 q-2 -6 -2 -12 q0 -12 12 -12 l-4 -20 q-6 0 -9 1 q-19 6 -19 28 q0 2 0.5 5 q0.5 3 2 10.5 q1.5 7.5 4.5 22.5 q3 15 8 41 q-21 -26 -47 -47.5 q-26 -21.5 -54.5 -37.5 q-28.5 -16 -58.5 -24.5 q-30 -8.5 -59 -8.5 ZM218 10 q32 0 68.5 13 q36.5 13 69.5 35 q33 22 58 50.5 q25 28.5 34 60.5 l40 187 q-4 30 -18.5 57 q-14.5 27 -37.5 48 q-23 21 -53.5 33.5 q-30.5 12.5 -65.5 12.5 q-52 0 -99.5 -26.5 q-47.5 -26.5 -83.5 -69.5 q-36 -43 -57.5 -96 q-21.5 -53 -21.5 -105 q0 -40 12.5 -76 q12.5 -36 35 -63.5 q22.5 -27.5 53 -44 q30.5 -16.5 66.5 -16.5 ZM269 656 l104 74 l16 0 l73 -74 l-18 -12 l-68 63 l-94 -63 l-13 12 Z" /><glyph glyph-name="adieresis" unicode="ä" d="M216 -10 q-43 0 -77.5 18.5 q-34.5 18.5 -58.5 49 q-24 30.5 -36.5 70.5 q-12.5 40 -12.5 82 q0 60 24 117 q24 57 64.5 101.5 q40.5 44.5 93 71.5 q52.5 27 108.5 27 q35 0 63.5 -10.5 q28.5 -10.5 50 -28 q21.5 -17.5 37.5 -41 q16 -23.5 25 -49.5 l26 121 l21 0 l-102 -475 q-2 -6 -2 -12 q0 -12 12 -12 l-4 -20 q-6 0 -9 1 q-19 6 -19 28 q0 2 0.5 5 q0.5 3 2 10.5 q1.5 7.5 4.5 22.5 q3 15 8 41 q-21 -26 -47 -47.5 q-26 -21.5 -54.5 -37.5 q-28.5 -16 -58.5 -24.5 q-30 -8.5 -59 -8.5 ZM218 10 q32 0 68.5 13 q36.5 13 69.5 35 q33 22 58 50.5 q25 28.5 34 60.5 l40 187 q-4 30 -18.5 57 q-14.5 27 -37.5 48 q-23 21 -53.5 33.5 q-30.5 12.5 -65.5 12.5 q-52 0 -99.5 -26.5 q-47.5 -26.5 -83.5 -69.5 q-36 -43 -57.5 -96 q-21.5 -53 -21.5 -105 q0 -40 12.5 -76 q12.5 -36 35 -63.5 q22.5 -27.5 53 -44 q30.5 -16.5 66.5 -16.5 ZM295 653 l16 77 l20 0 l-16 -77 l-20 0 ZM406 653 l16 77 l20 0 l-16 -77 l-20 0 Z" /><glyph glyph-name="ae" unicode="æ" d="M137 -10 q-34 0 -59.5 10.5 q-25.5 10.5 -42.5 28.5 q-17 18 -25.5 41.5 q-8.5 23.5 -8.5 49.5 q0 40 18.5 72.5 q18.5 32.5 51 55.5 q32.5 23 76.5 36 q44 13 94 13 q34 0 68.5 -5.5 q34.5 -5.5 63.5 -14.5 q7 26 18 51 q11 25 25 48 q0 60 -33 95.5 q-33 35.5 -92 35.5 q-39 0 -83.5 -16.5 q-44.5 -16.5 -92.5 -47.5 l-8 16 q56 35 101 51.5 q45 16.5 87 16.5 q58 0 96.5 -31.5 q38.5 -31.5 43.5 -92.5 q43 56 102 90 q59 34 122 34 q41 0 76 -15 q35 -15 60.5 -41.5 q25.5 -26.5 40 -63 q14.5 -36.5 14.5 -79.5 q0 -17 -2.5 -40.5 q-2.5 -23.5 -10.5 -39.5 l-450 0 q-3 -23 -3 -42 q0 -42 12 -78 q12 -36 34.5 -62.5 q22.5 -26.5 54 -41 q31.5 -14.5 70.5 -14.5 q28 0 57 8 q29 8 55.5 22.5 q26.5 14.5 49 34.5 q22.5 20 37.5 44 l18 -5 q-16 -27 -40.5 -49.5 q-24.5 -22.5 -54.5 -39 q-30 -16.5 -62.5 -26 q-32.5 -9.5 -64.5 -9.5 q-62 0 -106.5 33 q-44.5 33 -65.5 88 q-22 -33 -52.5 -56 q-30.5 -23 -64 -37.5 q-33.5 -14.5 -66.5 -21 q-33 -6.5 -58 -6.5 ZM143 10 q31 0 67 9.5 q36 9.5 68.5 26.5 q32.5 17 57.5 40 q25 23 34 51 q-8 30 -8 62 q0 27 6 57 q-30 11 -63.5 16 q-33.5 5 -65.5 5 q-48 0 -88 -11 q-40 -11 -69 -31 q-29 -20 -45 -48 q-16 -28 -16 -63 q0 -22 7 -42.5 q7 -20.5 22 -36.5 q15 -16 38 -25.5 q23 -9.5 55 -9.5 ZM821 268 q7 27 7 57 q0 35 -10.5 68 q-10.5 33 -32 58.5 q-21.5 25.5 -54 40.5 q-32.5 15 -75.5 15 q-44 0 -86 -18 q-42 -18 -77 -50 q-35 -32 -62 -76 q-27 -44 -40 -95 l430 0 Z" /><glyph glyph-name="aeacute" unicode="&#x1fd;" d="M138 -10 q-34 0 -59.5 10.5 q-25.5 10.5 -42.5 28.5 q-17 18 -25.5 41.5 q-8.5 23.5 -8.5 49.5 q0 40 18.5 72.5 q18.5 32.5 51 55.5 q32.5 23 76.5 36 q44 13 94 13 q34 0 68.5 -5.5 q34.5 -5.5 63.5 -14.5 q7 26 18 51 q11 25 25 48 q0 60 -33 95.5 q-33 35.5 -92 35.5 q-39 0 -83.5 -16.5 q-44.5 -16.5 -92.5 -47.5 l-8 16 q56 35 101 51.5 q45 16.5 87 16.5 q58 0 96.5 -31.5 q38.5 -31.5 43.5 -92.5 q43 56 102 90 q59 34 122 34 q41 0 76 -15 q35 -15 60.5 -41.5 q25.5 -26.5 40 -63 q14.5 -36.5 14.5 -79.5 q0 -17 -2.5 -40.5 q-2.5 -23.5 -10.5 -39.5 l-450 0 q-3 -23 -3 -42 q0 -42 12 -78 q12 -36 34.5 -62.5 q22.5 -26.5 54 -41 q31.5 -14.5 70.5 -14.5 q28 0 57 8 q29 8 55.5 22.5 q26.5 14.5 49 34.5 q22.5 20 37.5 44 l18 -5 q-16 -27 -40.5 -49.5 q-24.5 -22.5 -54.5 -39 q-30 -16.5 -62.5 -26 q-32.5 -9.5 -64.5 -9.5 q-62 0 -106.5 33 q-44.5 33 -65.5 88 q-22 -33 -52.5 -56 q-30.5 -23 -64 -37.5 q-33.5 -14.5 -66.5 -21 q-33 -6.5 -58 -6.5 ZM144 10 q31 0 67 9.5 q36 9.5 68.5 26.5 q32.5 17 57.5 40 q25 23 34 51 q-8 30 -8 62 q0 27 6 57 q-30 11 -63.5 16 q-33.5 5 -65.5 5 q-48 0 -88 -11 q-40 -11 -69 -31 q-29 -20 -45 -48 q-16 -28 -16 -63 q0 -22 7 -42.5 q7 -20.5 22 -36.5 q15 -16 38 -25.5 q23 -9.5 55 -9.5 ZM822 268 q7 27 7 57 q0 35 -10.5 68 q-10.5 33 -32 58.5 q-21.5 25.5 -54 40.5 q-32.5 15 -75.5 15 q-44 0 -86 -18 q-42 -18 -77 -50 q-35 -32 -62 -76 q-27 -44 -40 -95 l430 0 ZM470 645 l-13 12 l76 73 l33 0 l-96 -85 Z" /><glyph glyph-name="agrave" unicode="à" d="M216 -10 q-43 0 -77.5 18.5 q-34.5 18.5 -58.5 49 q-24 30.5 -36.5 70.5 q-12.5 40 -12.5 82 q0 60 24 117 q24 57 64.5 101.5 q40.5 44.5 93 71.5 q52.5 27 108.5 27 q35 0 63.5 -10.5 q28.5 -10.5 50 -28 q21.5 -17.5 37.5 -41 q16 -23.5 25 -49.5 l26 121 l21 0 l-102 -475 q-2 -6 -2 -12 q0 -12 12 -12 l-4 -20 q-6 0 -9 1 q-19 6 -19 28 q0 2 0.5 5 q0.5 3 2 10.5 q1.5 7.5 4.5 22.5 q3 15 8 41 q-21 -26 -47 -47.5 q-26 -21.5 -54.5 -37.5 q-28.5 -16 -58.5 -24.5 q-30 -8.5 -59 -8.5 ZM218 10 q32 0 68.5 13 q36.5 13 69.5 35 q33 22 58 50.5 q25 28.5 34 60.5 l40 187 q-4 30 -18.5 57 q-14.5 27 -37.5 48 q-23 21 -53.5 33.5 q-30.5 12.5 -65.5 12.5 q-52 0 -99.5 -26.5 q-47.5 -26.5 -83.5 -69.5 q-36 -43 -57.5 -96 q-21.5 -53 -21.5 -105 q0 -40 12.5 -76 q12.5 -36 35 -63.5 q22.5 -27.5 53 -44 q30.5 -16.5 66.5 -16.5 ZM328 730 l32 0 l46 -73 l-18 -12 l-60 85 Z" /><glyph glyph-name="amacron" unicode="&#x101;" d="M216 -10 q-43 0 -77.5 18.5 q-34.5 18.5 -58.5 49 q-24 30.5 -36.5 70.5 q-12.5 40 -12.5 82 q0 60 24 117 q24 57 64.5 101.5 q40.5 44.5 93 71.5 q52.5 27 108.5 27 q35 0 63.5 -10.5 q28.5 -10.5 50 -28 q21.5 -17.5 37.5 -41 q16 -23.5 25 -49.5 l26 121 l21 0 l-102 -475 q-2 -6 -2 -12 q0 -12 12 -12 l-4 -20 q-6 0 -9 1 q-19 6 -19 28 q0 2 0.5 5 q0.5 3 2 10.5 q1.5 7.5 4.5 22.5 q3 15 8 41 q-21 -26 -47 -47.5 q-26 -21.5 -54.5 -37.5 q-28.5 -16 -58.5 -24.5 q-30 -8.5 -59 -8.5 ZM218 10 q32 0 68.5 13 q36.5 13 69.5 35 q33 22 58 50.5 q25 28.5 34 60.5 l40 187 q-4 30 -18.5 57 q-14.5 27 -37.5 48 q-23 21 -53.5 33.5 q-30.5 12.5 -65.5 12.5 q-52 0 -99.5 -26.5 q-47.5 -26.5 -83.5 -69.5 q-36 -43 -57.5 -96 q-21.5 -53 -21.5 -105 q0 -40 12.5 -76 q12.5 -36 35 -63.5 q22.5 -27.5 53 -44 q30.5 -16.5 66.5 -16.5 ZM236 686 l4 20 l266 0 l-4 -20 l-266 0 Z" /><glyph glyph-name="ampersand" unicode="&amp;" d="M424 120 q-51 -61 -111.5 -95.5 q-60.5 -34.5 -124.5 -34.5 q-37 0 -68 12 q-31 12 -53 34 q-22 22 -34.5 52.5 q-12.5 30.5 -12.5 67.5 q0 34 11 66 q11 32 35 63.5 q24 31.5 63 62 q39 30.5 96 62.5 q-34 52 -47.5 84 q-13.5 32 -13.5 60 q0 33 16 62.5 q16 29.5 43 52.5 q27 23 62.5 36.5 q35.5 13.5 74.5 13.5 q54 0 95.5 -27.5 q41.5 -27.5 63.5 -77.5 l-14 -12 q-20 47 -58.5 73 q-38.5 26 -89.5 26 q-34 0 -65 -12 q-31 -12 -55 -32.5 q-24 -20.5 -38.5 -47 q-14.5 -26.5 -14.5 -54.5 q0 -27 15 -60 q15 -33 47 -80 l181 -259 q38 53 66.5 119 q28.5 66 42.5 141 l120 0 l-4 -20 l-98 0 q-17 -75 -46 -140 q-29 -65 -69 -117 l97 -139 l-29 0 l-83 120 ZM191 11 q60 0 116.5 33.5 q56.5 33.5 104.5 92.5 l-177 257 q-101 -59 -147 -115.5 q-46 -56.5 -46 -120.5 q0 -33 11 -60 q11 -27 30.5 -46.5 q19.5 -19.5 47 -30 q27.5 -10.5 60.5 -10.5 Z" /><glyph glyph-name="aogonek" unicode="&#x105;" d="M367 -159 q-19 5 -28.5 18.5 q-9.5 13.5 -9.5 30.5 q0 14 5 27 q5 13 16.5 27 q11.5 14 30.5 29.5 q19 15.5 47 33.5 q-8 7 -8 22 q0 2 0.5 5 q0.5 3 2 10.5 q1.5 7.5 4.5 22.5 q3 15 8 41 q-21 -26 -47 -47.5 q-26 -21.5 -54.5 -37.5 q-28.5 -16 -58.5 -24.5 q-30 -8.5 -59 -8.5 q-43 0 -77.5 18.5 q-34.5 18.5 -58.5 49 q-24 30.5 -36.5 70.5 q-12.5 40 -12.5 82 q0 60 24 117 q24 57 64.5 101.5 q40.5 44.5 93 71.5 q52.5 27 108.5 27 q35 0 63.5 -10.5 q28.5 -10.5 50 -28 q21.5 -17.5 37.5 -41 q16 -23.5 25 -49.5 l26 121 l21 0 l-102 -475 q-2 -6 -2 -12 q0 -12 12 -12 l-4 -20 q-29 -18 -48.5 -32.5 q-19.5 -14.5 -30.5 -26.5 q-11 -12 -15.5 -23 q-4.5 -11 -4.5 -23 q0 -29 34 -37 l-16 -17 ZM218 10 q32 0 68.5 13 q36.5 13 69.5 35 q33 22 58 50.5 q25 28.5 34 60.5 l40 187 q-4 30 -18.5 57 q-14.5 27 -37.5 48 q-23 21 -53.5 33.5 q-30.5 12.5 -65.5 12.5 q-52 0 -99.5 -26.5 q-47.5 -26.5 -83.5 -69.5 q-36 -43 -57.5 -96 q-21.5 -53 -21.5 -105 q0 -40 12.5 -76 q12.5 -36 35 -63.5 q22.5 -27.5 53 -44 q30.5 -16.5 66.5 -16.5 Z" /><glyph glyph-name="apostrophe" unicode="&#x2bc;" d="M412 730 l-96 -85 l-13 12 l49 47 l8 26 l52 0 Z" /><glyph glyph-name="aring" unicode="å" d="M216 -10 q-43 0 -77.5 18.5 q-34.5 18.5 -58.5 49 q-24 30.5 -36.5 70.5 q-12.5 40 -12.5 82 q0 60 24 117 q24 57 64.5 101.5 q40.5 44.5 93 71.5 q52.5 27 108.5 27 q35 0 63.5 -10.5 q28.5 -10.5 50 -28 q21.5 -17.5 37.5 -41 q16 -23.5 25 -49.5 l26 121 l21 0 l-102 -475 q-2 -6 -2 -12 q0 -12 12 -12 l-4 -20 q-6 0 -9 1 q-19 6 -19 28 q0 2 0.5 5 q0.5 3 2 10.5 q1.5 7.5 4.5 22.5 q3 15 8 41 q-21 -26 -47 -47.5 q-26 -21.5 -54.5 -37.5 q-28.5 -16 -58.5 -24.5 q-30 -8.5 -59 -8.5 ZM218 10 q32 0 68.5 13 q36.5 13 69.5 35 q33 22 58 50.5 q25 28.5 34 60.5 l40 187 q-4 30 -18.5 57 q-14.5 27 -37.5 48 q-23 21 -53.5 33.5 q-30.5 12.5 -65.5 12.5 q-52 0 -99.5 -26.5 q-47.5 -26.5 -83.5 -69.5 q-36 -43 -57.5 -96 q-21.5 -53 -21.5 -105 q0 -40 12.5 -76 q12.5 -36 35 -63.5 q22.5 -27.5 53 -44 q30.5 -16.5 66.5 -16.5 ZM309 662 q0 14 5.5 26.5 q5.5 12.5 15 21.5 q9.5 9 22 14.5 q12.5 5.5 25.5 5.5 q20 0 31.5 -13 q11.5 -13 11.5 -33 q0 -14 -5.5 -26.5 q-5.5 -12.5 -15 -21.5 q-9.5 -9 -22 -14.5 q-12.5 -5.5 -25.5 -5.5 q-20 0 -31.5 13 q-11.5 13 -11.5 33 ZM373 714 q-18 0 -33 -13.5 q-15 -13.5 -15 -35.5 q0 -14 8.5 -23.5 q8.5 -9.5 22.5 -9.5 q16 0 32.5 14 q16.5 14 16.5 35 q0 15 -9 24 q-9 9 -23 9 Z" /><glyph glyph-name="aringacute" unicode="&#x1fb;" d="M216 -10 q-43 0 -77.5 18.5 q-34.5 18.5 -58.5 49 q-24 30.5 -36.5 70.5 q-12.5 40 -12.5 82 q0 60 24 117 q24 57 64.5 101.5 q40.5 44.5 93 71.5 q52.5 27 108.5 27 q35 0 63.5 -10.5 q28.5 -10.5 50 -28 q21.5 -17.5 37.5 -41 q16 -23.5 25 -49.5 l26 121 l21 0 l-102 -475 q-2 -6 -2 -12 q0 -12 12 -12 l-4 -20 q-6 0 -9 1 q-19 6 -19 28 q0 2 0.5 5 q0.5 3 2 10.5 q1.5 7.5 4.5 22.5 q3 15 8 41 q-21 -26 -47 -47.5 q-26 -21.5 -54.5 -37.5 q-28.5 -16 -58.5 -24.5 q-30 -8.5 -59 -8.5 ZM218 10 q32 0 68.5 13 q36.5 13 69.5 35 q33 22 58 50.5 q25 28.5 34 60.5 l40 187 q-4 30 -18.5 57 q-14.5 27 -37.5 48 q-23 21 -53.5 33.5 q-30.5 12.5 -65.5 12.5 q-52 0 -99.5 -26.5 q-47.5 -26.5 -83.5 -69.5 q-36 -43 -57.5 -96 q-21.5 -53 -21.5 -105 q0 -40 12.5 -76 q12.5 -36 35 -63.5 q22.5 -27.5 53 -44 q30.5 -16.5 66.5 -16.5 ZM310 662 q0 14 5.5 26.5 q5.5 12.5 15 21.5 q9.5 9 22 14.5 q12.5 5.5 25.5 5.5 q20 0 31.5 -13 q11.5 -13 11.5 -33 q0 -14 -5.5 -26.5 q-5.5 -12.5 -15 -21.5 q-9.5 -9 -22 -14.5 q-12.5 -5.5 -25.5 -5.5 q-20 0 -31.5 13 q-11.5 13 -11.5 33 ZM374 714 q-18 0 -33 -13.5 q-15 -13.5 -15 -35.5 q0 -14 8.5 -23.5 q8.5 -9.5 22.5 -9.5 q16 0 32.5 14 q16.5 14 16.5 35 q0 15 -9 24 q-9 9 -23 9 ZM359 780 l-13 12 l76 73 l33 0 l-96 -85 Z" /><glyph glyph-name="asciicircum" unicode="^" d="M55 303 l198 407 l18 0 l197 -407 l-23 0 l-183 378 l-186 -378 l-21 0 Z" /><glyph glyph-name="asciitilde" unicode="~" d="M56 251 q0 1 4.5 14 q4.5 13 15 28 q10.5 15 26 27 q15.5 12 38.5 12 q20 0 38.5 -9.5 q18.5 -9.5 36.5 -21 q18 -11.5 36 -21 q18 -9.5 38 -9.5 q18 0 31 7.5 q13 7.5 22 17.5 q9 10 13 18.5 q4 8.5 4 10.5 l20 -1 q-5 -12 -12 -25 q-7 -13 -17.5 -23.5 q-10.5 -10.5 -25.5 -17.5 q-15 -7 -35 -7 q-24 0 -44 9.5 q-20 9.5 -38 21 q-18 11.5 -34.5 21 q-16.5 9.5 -32.5 9.5 q-15 0 -27 -9.5 q-12 -9.5 -20.5 -20.5 q-8.5 -11 -12.5 -20.5 q-4 -9.5 -4 -10.5 l-20 0 Z" /><glyph glyph-name="asterisk" unicode="*" d="M144 564 l51 57 l-59 22 l10 19 l59 -22 l15 70 l19 0 l-15 -70 l70 22 l0 -19 l-68 -22 l28 -57 l-19 -12 l-27 57 l-51 -57 l-13 12 Z" /><glyph glyph-name="at" unicode="@" d="M540 4 q32 0 62 25.5 q30 25.5 53.5 67.5 q23.5 42 37.5 95 q14 53 14 108 q0 63 -19.5 115.5 q-19.5 52.5 -54.5 89.5 q-35 37 -82.5 57.5 q-47.5 20.5 -104.5 20.5 q-76 0 -148 -35.5 q-72 -35.5 -128 -95 q-56 -59.5 -90 -136 q-34 -76.5 -34 -158.5 q0 -61 19.5 -113 q19.5 -52 54 -90 q34.5 -38 83 -59.5 q48.5 -21.5 105.5 -21.5 q73 0 148 38 l6 -18 q-42 -20 -84.5 -30 q-42.5 -10 -80.5 -10 q-59 0 -108.5 23.5 q-49.5 23.5 -85.5 64.5 q-36 41 -56.5 96 q-20.5 55 -20.5 119 q0 58 16.5 113 q16.5 55 46 104.5 q29.5 49.5 69.5 91.5 q40 42 87 72.5 q47 30.5 99 47.5 q52 17 105 17 q59 0 110 -21.5 q51 -21.5 88.5 -61 q37.5 -39.5 58.5 -95 q21 -55.5 21 -122.5 q0 -59 -16 -116 q-16 -57 -43 -102 q-27 -45 -62.5 -73 q-35.5 -28 -75.5 -28 q-27 0 -39 14 q-12 14 -12 46 q0 8 1 18.5 q1 10.5 3 21.5 q-34 -33 -78 -52.5 q-44 -19.5 -85 -19.5 q-32 0 -58 12.5 q-26 12.5 -45 35 q-19 22.5 -29 54.5 q-10 32 -10 70 q0 53 19 101 q19 48 51.5 84.5 q32.5 36.5 75.5 58 q43 21.5 90 21.5 q47 0 80.5 -22.5 q33.5 -22.5 50.5 -64.5 l18 88 l20 0 l-75 -351 q-5 -22 -6 -34 q-1 -12 -1 -18 q0 -43 39 -43 ZM325 32 q25 0 51.5 8.5 q26.5 8.5 50.5 23 q24 14.5 42.5 34 q18.5 19.5 27.5 41.5 l40 195 q-13 45 -46 69.5 q-33 24.5 -80 24.5 q-42 0 -80.5 -20 q-38.5 -20 -68 -53 q-29.5 -33 -47 -77 q-17.5 -44 -17.5 -92 q0 -33 9 -61.5 q9 -28.5 25.5 -49 q16.5 -20.5 40 -32 q23.5 -11.5 52.5 -11.5 Z" /><glyph glyph-name="atilde" unicode="ã" d="M216 -10 q-43 0 -77.5 18.5 q-34.5 18.5 -58.5 49 q-24 30.5 -36.5 70.5 q-12.5 40 -12.5 82 q0 60 24 117 q24 57 64.5 101.5 q40.5 44.5 93 71.5 q52.5 27 108.5 27 q35 0 63.5 -10.5 q28.5 -10.5 50 -28 q21.5 -17.5 37.5 -41 q16 -23.5 25 -49.5 l26 121 l21 0 l-102 -475 q-2 -6 -2 -12 q0 -12 12 -12 l-4 -20 q-6 0 -9 1 q-19 6 -19 28 q0 2 0.5 5 q0.5 3 2 10.5 q1.5 7.5 4.5 22.5 q3 15 8 41 q-21 -26 -47 -47.5 q-26 -21.5 -54.5 -37.5 q-28.5 -16 -58.5 -24.5 q-30 -8.5 -59 -8.5 ZM218 10 q32 0 68.5 13 q36.5 13 69.5 35 q33 22 58 50.5 q25 28.5 34 60.5 l40 187 q-4 30 -18.5 57 q-14.5 27 -37.5 48 q-23 21 -53.5 33.5 q-30.5 12.5 -65.5 12.5 q-52 0 -99.5 -26.5 q-47.5 -26.5 -83.5 -69.5 q-36 -43 -57.5 -96 q-21.5 -53 -21.5 -105 q0 -40 12.5 -76 q12.5 -36 35 -63.5 q22.5 -27.5 53 -44 q30.5 -16.5 66.5 -16.5 ZM417 663 q-21 0 -35.5 6 q-14.5 6 -26.5 13 q-12 7 -23 13 q-11 6 -26 6 q-15 0 -26 -6.5 q-11 -6.5 -18 -15 q-7 -8.5 -10.5 -16.5 q-3.5 -8 -4.5 -10 l-19 0 q0 2 4.5 13 q4.5 11 14 23 q9.5 12 25.5 21.5 q16 9.5 40 9.5 q18 0 31 -6 q13 -6 24.5 -13 q11.5 -7 24.5 -13 q13 -6 31 -6 q19 0 32 7 q13 7 20.5 15.5 q7.5 8.5 10.5 16 q3 7.5 3 9.5 l19 0 q-1 -3 -5.5 -14 q-4.5 -11 -15 -23 q-10.5 -12 -27.5 -21 q-17 -9 -43 -9 Z" /><glyph glyph-name="b" unicode="b" d="M231 -10 q-33 0 -60.5 9.5 q-27.5 9.5 -49 26 q-21.5 16.5 -37 38 q-15.5 21.5 -24.5 44.5 l-23 -108 l-20 0 l155 730 l20 0 l-70 -332 q51 57 107 93 q56 36 120 36 q46 0 79.5 -19 q33.5 -19 56 -49 q22.5 -30 33.5 -68.5 q11 -38.5 11 -77.5 q0 -63 -26 -121 q-26 -58 -68 -103 q-42 -45 -95.5 -72 q-53.5 -27 -108.5 -27 ZM233 10 q53 0 102.5 26 q49.5 26 88 68.5 q38.5 42.5 61.5 96.5 q23 54 23 111 q0 37 -11 72.5 q-11 35.5 -32 62.5 q-21 27 -52 43.5 q-31 16.5 -71 16.5 q-34 0 -65 -11.5 q-31 -11.5 -59 -31 q-28 -19.5 -54 -45 q-26 -25.5 -50 -53.5 l-46 -225 q11 -61 57 -96 q46 -35 108 -35 Z" /><glyph glyph-name="backslash" unicode="\" d="M130 710 l262 -710 l-25 0 l-263 710 l26 0 Z" /><glyph glyph-name="bar" unicode="|" d="M122 -130 l0 905 l20 0 l0 -905 l-20 0 Z" /><glyph glyph-name="braceleft" unicode="{" d="M204 720 l-65 -304 q-1 -5 -7.5 -23.5 q-6.5 -18.5 -24.5 -32.5 q6 -7 8 -16 q2 -9 2 -18 q0 -8 -1 -14 q-1 -6 -1 -8 l-67 -315 l53 0 l-5 -20 l-50 0 q-6 0 -11 4 q-5 4 -5 15 q0 7 1 11 l65 305 q2 10 2 17 q0 11 -4.5 19.5 q-4.5 8.5 -16.5 10.5 l4 20 q10 0 17 6 q7 6 11.5 13.5 q4.5 7.5 6.5 15 q2 7.5 3 10.5 l63 294 q4 20 13.5 25 q9.5 5 14.5 5 l50 0 l-4 -20 l-52 0 Z" /><glyph glyph-name="braceright" unicode="}" d="M140 720 l4 20 l50 0 q3 0 10 -3.5 q7 -3.5 7 -17.5 q0 -6 -1 -9 l-63 -294 q-2 -6 -2 -17 q0 -10 4 -19 q4 -9 17 -9 l-4 -20 q-17 -2 -26.5 -17 q-9.5 -15 -12.5 -30 l-64 -305 q-4 -17 -12.5 -23.5 q-8.5 -6.5 -16.5 -6.5 l-50 0 l4 20 l52 0 l67 315 q1 5 8 23.5 q7 18.5 24 32.5 q-6 8 -8 17 q-2 9 -2 17 q0 16 2 22 l65 304 l-52 0 Z" /><glyph glyph-name="bracketleft" unicode="[" d="M23 -40 l166 780 l67 0 l-4 -20 l-48 0 l-157 -740 l48 0 l-4 -20 l-68 0 Z" /><glyph glyph-name="bracketright" unicode="]" d="M-20 -40 l4 20 l48 0 l157 740 l-47 0 l4 20 l67 0 l-165 -780 l-68 0 Z" /><glyph glyph-name="brokenbar" unicode="¦" d="M139 285 l0 -415 l-20 0 l0 415 l20 0 ZM139 775 l0 -415 l-20 0 l0 415 l20 0 Z" /><glyph glyph-name="bullet" unicode="&#x2022;" d="M250 357 q0 -19 -8 -36 q-8 -17 -20.5 -29.5 q-12.5 -12.5 -29.5 -20 q-17 -7.5 -35 -7.5 q-26 0 -43 18.5 q-17 18.5 -17 46.5 q0 18 8 35 q8 17 21.5 29.5 q13.5 12.5 30.5 20 q17 7.5 34 7.5 q27 0 43 -19 q16 -19 16 -45 Z" /><glyph glyph-name="c" unicode="c" d="M219 -10 q-42 0 -76.5 17 q-34.5 17 -59.5 47 q-25 30 -38.5 70 q-13.5 40 -13.5 86 q0 64 25 122 q25 58 67 101 q42 43 96.5 68.5 q54.5 25.5 112.5 25.5 q63 0 105 -30.5 q42 -30.5 56 -85.5 l-22 -7 q-14 48 -53 75.5 q-39 27.5 -93 27.5 q-52 0 -101.5 -23.5 q-49.5 -23.5 -87.5 -63.5 q-38 -40 -61.5 -93.5 q-23.5 -53.5 -23.5 -112.5 q0 -42 12.5 -79.5 q12.5 -37.5 34.5 -65 q22 -27.5 53 -43.5 q31 -16 69 -16 q29 0 59.5 9 q30.5 9 57.5 24 q27 15 48.5 35 q21.5 20 31.5 41 l19 -6 q-14 -26 -37.5 -48.5 q-23.5 -22.5 -53 -39 q-29.5 -16.5 -62 -26 q-32.5 -9.5 -64.5 -9.5 Z" /><glyph glyph-name="cacute" unicode="&#x107;" d="M219 -10 q-42 0 -76.5 17 q-34.5 17 -59.5 47 q-25 30 -38.5 70 q-13.5 40 -13.5 86 q0 64 25 122 q25 58 67 101 q42 43 96.5 68.5 q54.5 25.5 112.5 25.5 q63 0 105 -30.5 q42 -30.5 56 -85.5 l-22 -7 q-14 48 -53 75.5 q-39 27.5 -93 27.5 q-52 0 -101.5 -23.5 q-49.5 -23.5 -87.5 -63.5 q-38 -40 -61.5 -93.5 q-23.5 -53.5 -23.5 -112.5 q0 -42 12.5 -79.5 q12.5 -37.5 34.5 -65 q22 -27.5 53 -43.5 q31 -16 69 -16 q29 0 59.5 9 q30.5 9 57.5 24 q27 15 48.5 35 q21.5 20 31.5 41 l19 -6 q-14 -26 -37.5 -48.5 q-23.5 -22.5 -53 -39 q-29.5 -16.5 -62 -26 q-32.5 -9.5 -64.5 -9.5 ZM329 645 l-13 12 l76 73 l33 0 l-96 -85 Z" /><glyph glyph-name="ccaron" unicode="&#x10d;" d="M219 -10 q-42 0 -76.5 17 q-34.5 17 -59.5 47 q-25 30 -38.5 70 q-13.5 40 -13.5 86 q0 64 25 122 q25 58 67 101 q42 43 96.5 68.5 q54.5 25.5 112.5 25.5 q63 0 105 -30.5 q42 -30.5 56 -85.5 l-22 -7 q-14 48 -53 75.5 q-39 27.5 -93 27.5 q-52 0 -101.5 -23.5 q-49.5 -23.5 -87.5 -63.5 q-38 -40 -61.5 -93.5 q-23.5 -53.5 -23.5 -112.5 q0 -42 12.5 -79.5 q12.5 -37.5 34.5 -65 q22 -27.5 53 -43.5 q31 -16 69 -16 q29 0 59.5 9 q30.5 9 57.5 24 q27 15 48.5 35 q21.5 20 31.5 41 l19 -6 q-14 -26 -37.5 -48.5 q-23.5 -22.5 -53 -39 q-29.5 -16.5 -62 -26 q-32.5 -9.5 -64.5 -9.5 ZM276 718 l18 12 l68 -63 l94 63 l13 -12 l-104 -74 l-16 0 l-73 74 Z" /><glyph glyph-name="ccedilla" unicode="ç" d="M123 -126 q14 -7 34.5 -12.5 q20.5 -5.5 44.5 -5.5 q65 0 65 47 q0 16 -11 22.5 q-11 6.5 -28 6.5 q-20 0 -43 -5.5 q-23 -5.5 -37 -10.5 l56 75 q-39 3 -71 21 q-32 18 -54.5 47.5 q-22.5 29.5 -35 68 q-12.5 38.5 -12.5 82.5 q0 64 25 122 q25 58 67 101 q42 43 96.5 68.5 q54.5 25.5 112.5 25.5 q63 0 105 -30.5 q42 -30.5 56 -85.5 l-22 -7 q-14 48 -53 75.5 q-39 27.5 -93 27.5 q-52 0 -101.5 -23.5 q-49.5 -23.5 -87.5 -63.5 q-38 -40 -61.5 -93.5 q-23.5 -53.5 -23.5 -112.5 q0 -42 12.5 -79.5 q12.5 -37.5 34.5 -65 q22 -27.5 53 -43.5 q31 -16 69 -16 q29 0 59.5 9 q30.5 9 57.5 24 q27 15 48.5 35 q21.5 20 31.5 41 l19 -6 q-14 -26 -36.5 -47.5 q-22.5 -21.5 -50.5 -38 q-28 -16.5 -59.5 -26.5 q-31.5 -10 -62.5 -11 l-37 -48 q11 4 22.5 5 q11.5 1 19.5 1 q54 0 54 -42 q0 -35 -24.5 -52 q-24.5 -17 -66.5 -17 q-25 0 -46.5 5.5 q-21.5 5.5 -38.5 13.5 l13 18 Z" /><glyph glyph-name="ccircumflex" unicode="&#x109;" d="M219 -10 q-42 0 -76.5 17 q-34.5 17 -59.5 47 q-25 30 -38.5 70 q-13.5 40 -13.5 86 q0 64 25 122 q25 58 67 101 q42 43 96.5 68.5 q54.5 25.5 112.5 25.5 q63 0 105 -30.5 q42 -30.5 56 -85.5 l-22 -7 q-14 48 -53 75.5 q-39 27.5 -93 27.5 q-52 0 -101.5 -23.5 q-49.5 -23.5 -87.5 -63.5 q-38 -40 -61.5 -93.5 q-23.5 -53.5 -23.5 -112.5 q0 -42 12.5 -79.5 q12.5 -37.5 34.5 -65 q22 -27.5 53 -43.5 q31 -16 69 -16 q29 0 59.5 9 q30.5 9 57.5 24 q27 15 48.5 35 q21.5 20 31.5 41 l19 -6 q-14 -26 -37.5 -48.5 q-23.5 -22.5 -53 -39 q-29.5 -16.5 -62 -26 q-32.5 -9.5 -64.5 -9.5 ZM271 656 l104 74 l16 0 l73 -74 l-18 -12 l-68 63 l-94 -63 l-13 12 Z" /><glyph glyph-name="cdotaccent" unicode="&#x10b;" d="M219 -10 q-42 0 -76.5 17 q-34.5 17 -59.5 47 q-25 30 -38.5 70 q-13.5 40 -13.5 86 q0 64 25 122 q25 58 67 101 q42 43 96.5 68.5 q54.5 25.5 112.5 25.5 q63 0 105 -30.5 q42 -30.5 56 -85.5 l-22 -7 q-14 48 -53 75.5 q-39 27.5 -93 27.5 q-52 0 -101.5 -23.5 q-49.5 -23.5 -87.5 -63.5 q-38 -40 -61.5 -93.5 q-23.5 -53.5 -23.5 -112.5 q0 -42 12.5 -79.5 q12.5 -37.5 34.5 -65 q22 -27.5 53 -43.5 q31 -16 69 -16 q29 0 59.5 9 q30.5 9 57.5 24 q27 15 48.5 35 q21.5 20 31.5 41 l19 -6 q-14 -26 -37.5 -48.5 q-23.5 -22.5 -53 -39 q-29.5 -16.5 -62 -26 q-32.5 -9.5 -64.5 -9.5 ZM352 653 l16 77 l20 0 l-16 -77 l-20 0 Z" /><glyph glyph-name="cent" unicode="¢" d="M175 -120 l24 111 q-40 3 -71.5 23 q-31.5 20 -53 50 q-21.5 30 -32.5 68 q-11 38 -11 78 q0 57 23 112.5 q23 55.5 61.5 100 q38.5 44.5 89.5 73 q51 28.5 108 31.5 l25 118 l19 0 l-25 -118 q37 -1 64 -10 q27 -9 46 -24.5 q19 -15.5 31 -36 q12 -20.5 19 -45.5 l-21 -7 q-16 52 -53.5 76.5 q-37.5 24.5 -89.5 26.5 l-106 -497 q23 0 52 7.5 q29 7.5 57 22 q28 14.5 51.5 34.5 q23.5 20 34.5 45 l19 -6 q-16 -30 -42 -53 q-26 -23 -56 -38.5 q-30 -15.5 -61.5 -23.5 q-31.5 -8 -58.5 -8 l-24 -110 l-19 0 ZM51 212 q0 -38 10.5 -73 q10.5 -35 30.5 -62.5 q20 -27.5 48 -45 q28 -17.5 63 -20.5 l105 496 q-56 -3 -103 -31.5 q-47 -28.5 -81 -71 q-34 -42.5 -53.5 -93.5 q-19.5 -51 -19.5 -99 Z" /><glyph glyph-name="colon" unicode=":" d="M99 453 l14 64 l20 0 l-14 -64 l-20 0 ZM3 0 l14 64 l19 0 l-13 -64 l-20 0 Z" /><glyph glyph-name="comma" unicode="," d="M32 -81 l25 71 l-9 0 l16 74 l25 0 l-16 -74 l-27 -71 l-14 0 Z" /><glyph glyph-name="copyright" unicode="©" d="M429 -7 q-78 0 -144 27.5 q-66 27.5 -114 76 q-48 48.5 -75.5 114.5 q-27.5 66 -27.5 144 q0 77 27.5 143 q27.5 66 75.5 114 q48 48 114 75.5 q66 27.5 144 27.5 q78 0 144 -27.5 q66 -27.5 114 -75.5 q48 -48 75.5 -114 q27.5 -66 27.5 -143 q0 -78 -27.5 -144 q-27.5 -66 -75.5 -114.5 q-48 -48.5 -114 -76 q-66 -27.5 -144 -27.5 ZM430 13 q72 0 133.5 24.5 q61.5 24.5 107.5 69.5 q46 45 72 107.5 q26 62.5 26 137.5 q0 74 -25.5 137 q-25.5 63 -71 108.5 q-45.5 45.5 -107.5 71.5 q-62 26 -135 26 q-74 0 -136 -25.5 q-62 -25.5 -108 -71.5 q-46 -46 -71.5 -108.5 q-25.5 -62.5 -25.5 -135.5 q0 -73 25.5 -135.5 q25.5 -62.5 71 -108 q45.5 -45.5 108 -71.5 q62.5 -26 136.5 -26 ZM436 127 q-38 0 -77 15 q-39 15 -70.5 44.5 q-31.5 29.5 -51.5 72 q-20 42.5 -20 96.5 q0 40 12.5 81 q12.5 41 38 74.5 q25.5 33.5 65.5 54.5 q40 21 95 21 q56 0 103 -24 q47 -24 67 -75 l-19 -7 q-12 27 -30.5 44 q-18.5 17 -40 26.5 q-21.5 9.5 -43 12.5 q-21.5 3 -37.5 3 q-50 0 -86 -19.5 q-36 -19.5 -59 -50 q-23 -30.5 -34.5 -68 q-11.5 -37.5 -11.5 -73.5 q0 -50 18.5 -88.5 q18.5 -38.5 47 -65 q28.5 -26.5 63 -40.5 q34.5 -14 66.5 -14 q22 0 45.5 6.5 q23.5 6.5 45.5 18 q22 11.5 39.5 28.5 q17.5 17 26.5 38 l19 -5 q-4 -13 -18 -31.5 q-14 -18.5 -36.5 -35 q-22.5 -16.5 -52.5 -28 q-30 -11.5 -65 -11.5 Z" /><glyph glyph-name="d" unicode="d" d="M218 -10 q-44 0 -79 18.5 q-35 18.5 -59 49 q-24 30.5 -36.5 70.5 q-12.5 40 -12.5 83 q0 60 24 116.5 q24 56.5 64.5 101 q40.5 44.5 93.5 71.5 q53 27 110 27 q34 0 62 -10.5 q28 -10.5 49.5 -28 q21.5 -17.5 37.5 -41 q16 -23.5 25 -49.5 l70 332 l21 0 l-147 -687 q-1 -3 -1 -5.5 q0 -2.5 0 -4.5 q0 -13 12 -13 l-4 -20 q-6 0 -12 2 q-16 6 -16 28 q0 1 0 3.5 q0 2.5 1.5 10 q1.5 7.5 4.5 22.5 q3 15 9 42 q-21 -26 -47 -47.5 q-26 -21.5 -54.5 -37.5 q-28.5 -16 -58 -24.5 q-29.5 -8.5 -57.5 -8.5 ZM222 10 q29 0 64.5 13 q35.5 13 68.5 34.5 q33 21.5 58.5 50.5 q25.5 29 34.5 61 l40 187 q-4 31 -19.5 58.5 q-15.5 27.5 -39 48 q-23.5 20.5 -52 32.5 q-28.5 12 -58.5 12 q-55 0 -104 -26.5 q-49 -26.5 -85.5 -68.5 q-36.5 -42 -57.5 -94.5 q-21 -52.5 -21 -104.5 q0 -41 12 -78 q12 -37 34.5 -64.5 q22.5 -27.5 54 -44 q31.5 -16.5 70.5 -16.5 Z" /><glyph glyph-name="dagger" unicode="&#x2020;" d="M78 -130 l83 391 l-125 0 l4 20 l126 0 l105 494 l20 0 l-105 -494 l124 0 l-4 -20 l-125 0 l-83 -391 l-20 0 Z" /><glyph glyph-name="daggerdbl" unicode="&#x2021;" d="M82 -130 l70 331 l-125 0 l4 20 l126 0 l23 110 l-125 0 l4 20 l125 0 l90 424 l20 0 l-90 -424 l125 0 l-5 -20 l-124 0 l-23 -110 l124 0 l-4 -20 l-125 0 l-70 -331 l-20 0 Z" /><glyph glyph-name="dcaron" unicode="&#x10f;" d="M218 -10 q-44 0 -79 18.5 q-35 18.5 -59 49 q-24 30.5 -36.5 70.5 q-12.5 40 -12.5 83 q0 60 24 116.5 q24 56.5 64.5 101 q40.5 44.5 93.5 71.5 q53 27 110 27 q34 0 62 -10.5 q28 -10.5 49.5 -28 q21.5 -17.5 37.5 -41 q16 -23.5 25 -49.5 l70 332 l21 0 l-147 -687 q-1 -3 -1 -5.5 q0 -2.5 0 -4.5 q0 -13 12 -13 l-4 -20 q-6 0 -12 2 q-16 6 -16 28 q0 1 0 3.5 q0 2.5 1.5 10 q1.5 7.5 4.5 22.5 q3 15 9 42 q-21 -26 -47 -47.5 q-26 -21.5 -54.5 -37.5 q-28.5 -16 -58 -24.5 q-29.5 -8.5 -57.5 -8.5 ZM222 10 q29 0 64.5 13 q35.5 13 68.5 34.5 q33 21.5 58.5 50.5 q25.5 29 34.5 61 l40 187 q-4 31 -19.5 58.5 q-15.5 27.5 -39 48 q-23.5 20.5 -52 32.5 q-28.5 12 -58.5 12 q-55 0 -104 -26.5 q-49 -26.5 -85.5 -68.5 q-36.5 -42 -57.5 -94.5 q-21 -52.5 -21 -104.5 q0 -41 12 -78 q12 -37 34.5 -64.5 q22.5 -27.5 54 -44 q31.5 -16.5 70.5 -16.5 ZM614 657 l76 73 l33 0 l-96 -85 l-13 12 Z" /><glyph glyph-name="dcroat" unicode="&#x111;" d="M433 653 l117 0 l17 77 l21 0 l-17 -77 l72 0 l-4 -20 l-72 0 l-126 -593 q-1 -2 -1 -7 q0 -13 12 -13 l-4 -20 q-15 0 -21.5 8.5 q-6.5 8.5 -6.5 21.5 q0 7 1 10 l14 68 q-21 -26 -47 -47.5 q-26 -21.5 -54.5 -37.5 q-28.5 -16 -58 -24.5 q-29.5 -8.5 -57.5 -8.5 q-44 0 -79 18.5 q-35 18.5 -59 49 q-24 30.5 -36.5 70.5 q-12.5 40 -12.5 83 q0 60 24 116.5 q24 56.5 64.5 101 q40.5 44.5 93.5 71.5 q53 27 110 27 q34 0 62 -10.5 q28 -10.5 49.5 -28 q21.5 -17.5 37.5 -41 q16 -23.5 25 -49.5 l49 235 l-117 0 l4 20 ZM222 10 q29 0 64.5 13 q35.5 13 68.5 34.5 q33 21.5 58.5 50.5 q25.5 29 34.5 61 l40 187 q-4 31 -19.5 58.5 q-15.5 27.5 -39 48 q-23.5 20.5 -52 32.5 q-28.5 12 -58.5 12 q-55 0 -104 -26.5 q-49 -26.5 -85.5 -68.5 q-36.5 -42 -57.5 -94.5 q-21 -52.5 -21 -104.5 q0 -41 12 -78 q12 -37 34.5 -64.5 q22.5 -27.5 54 -44 q31.5 -16.5 70.5 -16.5 Z" /><glyph glyph-name="degree" unicode="°" d="M180 586 q-23 0 -38 15.5 q-15 15.5 -15 38.5 q0 15 6.5 30 q6.5 15 18 27 q11.5 12 26.5 19.5 q15 7.5 32 7.5 q23 0 38 -16.5 q15 -16.5 15 -40.5 q0 -16 -7 -30.5 q-7 -14.5 -18.5 -26 q-11.5 -11.5 -26.5 -18 q-15 -6.5 -31 -6.5 ZM185 606 q9 0 19.5 4.5 q10.5 4.5 19 12.5 q8.5 8 14 18.5 q5.5 10.5 5.5 22.5 q0 20 -10.5 28.5 q-10.5 8.5 -27.5 8.5 q-22 0 -38.5 -16 q-16.5 -16 -16.5 -39 q0 -17 9 -28.5 q9 -11.5 26 -11.5 Z" /><glyph glyph-name="divide" unicode="÷" d="M257 385 l0 64 l20 0 l0 -64 l-20 0 ZM257 92 l0 64 l20 0 l0 -64 l-20 0 ZM66 261 l0 20 l403 0 l0 -20 l-403 0 Z" /><glyph glyph-name="dollar" unicode="$" d="M561 616 q-30 47 -69.5 63.5 q-39.5 16.5 -99.5 16.5 l-71 -332 q46 -11 83.5 -23 q37.5 -12 64.5 -29.5 q27 -17.5 41.5 -42.5 q14.5 -25 14.5 -61 q0 -50 -20 -89.5 q-20 -39.5 -57 -67 q-37 -27.5 -89 -42 q-52 -14.5 -116 -14.5 l-18 -88 l-20 0 l19 89 q-73 3 -126 29 q-53 26 -92 80 l17 13 q37 -52 86 -77 q49 -25 118 -29 l72 337 q-44 9 -78.5 20 q-34.5 11 -58.5 27 q-24 16 -36.5 39 q-12.5 23 -12.5 56 q0 50 19.5 90.5 q19.5 40.5 54 69.5 q34.5 29 83 45.5 q48.5 16.5 106.5 18.5 l22 100 l20 0 l-22 -100 q64 -1 107.5 -20.5 q43.5 -19.5 73.5 -64.5 l-16 -14 ZM504 203 q0 60 -46 90.5 q-46 30.5 -141 51.5 l-71 -333 q59 0 107 12.5 q48 12.5 81.5 36.5 q33.5 24 51.5 59.5 q18 35.5 18 82.5 ZM134 495 q0 -28 10.5 -47.5 q10.5 -19.5 31.5 -34 q21 -14.5 52.5 -25 q31.5 -10.5 74.5 -20.5 l70 328 q-64 -2 -109 -18.5 q-45 -16.5 -74 -43.5 q-29 -27 -42.5 -63 q-13.5 -36 -13.5 -76 Z" /><glyph glyph-name="dotlessi" unicode="&#x131;" d="M127 519 l20 0 l-110 -519 l-20 0 l110 519 Z" /><glyph glyph-name="dotlessj" unicode="&#x237;" d="M-126 -170 q-28 0 -51 7 q-23 7 -37 27 l18 12 q14 -16 33.5 -21 q19.5 -5 39.5 -5 q19 0 40.5 9 q21.5 9 40 24 q18.5 15 32.5 36 q14 21 19 45 l118 555 l20 0 l-118 -555 q-6 -29 -23 -53.5 q-17 -24.5 -39 -42.5 q-22 -18 -46.5 -28 q-24.5 -10 -46.5 -10 Z" /><glyph glyph-name="e" unicode="e" d="M220 -10 q-45 0 -80 17.5 q-35 17.5 -59 47.5 q-24 30 -37 70 q-13 40 -13 85 q0 59 23 116 q23 57 63.5 101.5 q40.5 44.5 95.5 72 q55 27.5 120 27.5 q25 0 52.5 -9 q27.5 -9 49.5 -26 q22 -17 36.5 -42.5 q14.5 -25.5 14.5 -59.5 q0 -142 -262 -142 q-38 0 -78 1 q-40 1 -91 4 q-3 -21 -3 -42 q0 -41 11 -77.5 q11 -36.5 33 -64 q22 -27.5 55 -43.5 q33 -16 76 -16 q27 0 56 8.5 q29 8.5 56 23.5 q27 15 49.5 37 q22.5 22 37.5 49 l19 -6 q-17 -30 -41.5 -54.5 q-24.5 -24.5 -54 -41.5 q-29.5 -17 -62.5 -26.5 q-33 -9.5 -67 -9.5 ZM329 507 q-49 0 -93 -19.5 q-44 -19.5 -79.5 -52 q-35.5 -32.5 -61 -75 q-25.5 -42.5 -36.5 -87.5 q51 -3 90.5 -4 q39.5 -1 77.5 -1 q66 0 111.5 9 q45.5 9 73.5 25.5 q28 16.5 40.5 39 q12.5 22.5 12.5 49.5 q0 30 -13 52 q-13 22 -33 36.5 q-20 14.5 -44 21 q-24 6.5 -46 6.5 Z" /><glyph glyph-name="eacute" unicode="é" d="M220 -10 q-45 0 -80 17.5 q-35 17.5 -59 47.5 q-24 30 -37 70 q-13 40 -13 85 q0 59 23 116 q23 57 63.5 101.5 q40.5 44.5 95.5 72 q55 27.5 120 27.5 q25 0 52.5 -9 q27.5 -9 49.5 -26 q22 -17 36.5 -42.5 q14.5 -25.5 14.5 -59.5 q0 -142 -262 -142 q-38 0 -78 1 q-40 1 -91 4 q-3 -21 -3 -42 q0 -41 11 -77.5 q11 -36.5 33 -64 q22 -27.5 55 -43.5 q33 -16 76 -16 q27 0 56 8.5 q29 8.5 56 23.5 q27 15 49.5 37 q22.5 22 37.5 49 l19 -6 q-17 -30 -41.5 -54.5 q-24.5 -24.5 -54 -41.5 q-29.5 -17 -62.5 -26.5 q-33 -9.5 -67 -9.5 ZM329 507 q-49 0 -93 -19.5 q-44 -19.5 -79.5 -52 q-35.5 -32.5 -61 -75 q-25.5 -42.5 -36.5 -87.5 q51 -3 90.5 -4 q39.5 -1 77.5 -1 q66 0 111.5 9 q45.5 9 73.5 25.5 q28 16.5 40.5 39 q12.5 22.5 12.5 49.5 q0 30 -13 52 q-13 22 -33 36.5 q-20 14.5 -44 21 q-24 6.5 -46 6.5 ZM330 645 l-13 12 l76 73 l33 0 l-96 -85 Z" /><glyph glyph-name="ebreve" unicode="&#x115;" d="M220 -10 q-45 0 -80 17.5 q-35 17.5 -59 47.5 q-24 30 -37 70 q-13 40 -13 85 q0 59 23 116 q23 57 63.5 101.5 q40.5 44.5 95.5 72 q55 27.5 120 27.5 q25 0 52.5 -9 q27.5 -9 49.5 -26 q22 -17 36.5 -42.5 q14.5 -25.5 14.5 -59.5 q0 -142 -262 -142 q-38 0 -78 1 q-40 1 -91 4 q-3 -21 -3 -42 q0 -41 11 -77.5 q11 -36.5 33 -64 q22 -27.5 55 -43.5 q33 -16 76 -16 q27 0 56 8.5 q29 8.5 56 23.5 q27 15 49.5 37 q22.5 22 37.5 49 l19 -6 q-17 -30 -41.5 -54.5 q-24.5 -24.5 -54 -41.5 q-29.5 -17 -62.5 -26.5 q-33 -9.5 -67 -9.5 ZM329 507 q-49 0 -93 -19.5 q-44 -19.5 -79.5 -52 q-35.5 -32.5 -61 -75 q-25.5 -42.5 -36.5 -87.5 q51 -3 90.5 -4 q39.5 -1 77.5 -1 q66 0 111.5 9 q45.5 9 73.5 25.5 q28 16.5 40.5 39 q12.5 22.5 12.5 49.5 q0 30 -13 52 q-13 22 -33 36.5 q-20 14.5 -44 21 q-24 6.5 -46 6.5 ZM364 670 q20 0 39 17.5 q19 17.5 27 42.5 l18 0 q-3 -15 -12 -29 q-9 -14 -21 -24.5 q-12 -10.5 -26 -17 q-14 -6.5 -28 -6.5 q-25 0 -41 18 q-16 18 -16 44 q0 5 2 15 l19 0 q-1 -4 -1 -11 q0 -20 11.5 -34.5 q11.5 -14.5 28.5 -14.5 Z" /><glyph glyph-name="ecaron" unicode="&#x11b;" d="M220 -10 q-45 0 -80 17.5 q-35 17.5 -59 47.5 q-24 30 -37 70 q-13 40 -13 85 q0 59 23 116 q23 57 63.5 101.5 q40.5 44.5 95.5 72 q55 27.5 120 27.5 q25 0 52.5 -9 q27.5 -9 49.5 -26 q22 -17 36.5 -42.5 q14.5 -25.5 14.5 -59.5 q0 -142 -262 -142 q-38 0 -78 1 q-40 1 -91 4 q-3 -21 -3 -42 q0 -41 11 -77.5 q11 -36.5 33 -64 q22 -27.5 55 -43.5 q33 -16 76 -16 q27 0 56 8.5 q29 8.5 56 23.5 q27 15 49.5 37 q22.5 22 37.5 49 l19 -6 q-17 -30 -41.5 -54.5 q-24.5 -24.5 -54 -41.5 q-29.5 -17 -62.5 -26.5 q-33 -9.5 -67 -9.5 ZM329 507 q-49 0 -93 -19.5 q-44 -19.5 -79.5 -52 q-35.5 -32.5 -61 -75 q-25.5 -42.5 -36.5 -87.5 q51 -3 90.5 -4 q39.5 -1 77.5 -1 q66 0 111.5 9 q45.5 9 73.5 25.5 q28 16.5 40.5 39 q12.5 22.5 12.5 49.5 q0 30 -13 52 q-13 22 -33 36.5 q-20 14.5 -44 21 q-24 6.5 -46 6.5 ZM273 718 l18 12 l68 -63 l94 63 l13 -12 l-104 -74 l-16 0 l-73 74 Z" /><glyph glyph-name="ecircumflex" unicode="ê" d="M220 -10 q-45 0 -80 17.5 q-35 17.5 -59 47.5 q-24 30 -37 70 q-13 40 -13 85 q0 59 23 116 q23 57 63.5 101.5 q40.5 44.5 95.5 72 q55 27.5 120 27.5 q25 0 52.5 -9 q27.5 -9 49.5 -26 q22 -17 36.5 -42.5 q14.5 -25.5 14.5 -59.5 q0 -142 -262 -142 q-38 0 -78 1 q-40 1 -91 4 q-3 -21 -3 -42 q0 -41 11 -77.5 q11 -36.5 33 -64 q22 -27.5 55 -43.5 q33 -16 76 -16 q27 0 56 8.5 q29 8.5 56 23.5 q27 15 49.5 37 q22.5 22 37.5 49 l19 -6 q-17 -30 -41.5 -54.5 q-24.5 -24.5 -54 -41.5 q-29.5 -17 -62.5 -26.5 q-33 -9.5 -67 -9.5 ZM329 507 q-49 0 -93 -19.5 q-44 -19.5 -79.5 -52 q-35.5 -32.5 -61 -75 q-25.5 -42.5 -36.5 -87.5 q51 -3 90.5 -4 q39.5 -1 77.5 -1 q66 0 111.5 9 q45.5 9 73.5 25.5 q28 16.5 40.5 39 q12.5 22.5 12.5 49.5 q0 30 -13 52 q-13 22 -33 36.5 q-20 14.5 -44 21 q-24 6.5 -46 6.5 ZM274 656 l104 74 l16 0 l73 -74 l-18 -12 l-68 63 l-94 -63 l-13 12 Z" /><glyph glyph-name="edieresis" unicode="ë" d="M220 -10 q-45 0 -80 17.5 q-35 17.5 -59 47.5 q-24 30 -37 70 q-13 40 -13 85 q0 59 23 116 q23 57 63.5 101.5 q40.5 44.5 95.5 72 q55 27.5 120 27.5 q25 0 52.5 -9 q27.5 -9 49.5 -26 q22 -17 36.5 -42.5 q14.5 -25.5 14.5 -59.5 q0 -142 -262 -142 q-38 0 -78 1 q-40 1 -91 4 q-3 -21 -3 -42 q0 -41 11 -77.5 q11 -36.5 33 -64 q22 -27.5 55 -43.5 q33 -16 76 -16 q27 0 56 8.5 q29 8.5 56 23.5 q27 15 49.5 37 q22.5 22 37.5 49 l19 -6 q-17 -30 -41.5 -54.5 q-24.5 -24.5 -54 -41.5 q-29.5 -17 -62.5 -26.5 q-33 -9.5 -67 -9.5 ZM329 507 q-49 0 -93 -19.5 q-44 -19.5 -79.5 -52 q-35.5 -32.5 -61 -75 q-25.5 -42.5 -36.5 -87.5 q51 -3 90.5 -4 q39.5 -1 77.5 -1 q66 0 111.5 9 q45.5 9 73.5 25.5 q28 16.5 40.5 39 q12.5 22.5 12.5 49.5 q0 30 -13 52 q-13 22 -33 36.5 q-20 14.5 -44 21 q-24 6.5 -46 6.5 ZM295 653 l16 77 l20 0 l-16 -77 l-20 0 ZM406 653 l16 77 l20 0 l-16 -77 l-20 0 Z" /><glyph glyph-name="edotaccent" unicode="&#x117;" d="M220 -10 q-45 0 -80 17.5 q-35 17.5 -59 47.5 q-24 30 -37 70 q-13 40 -13 85 q0 59 23 116 q23 57 63.5 101.5 q40.5 44.5 95.5 72 q55 27.5 120 27.5 q25 0 52.5 -9 q27.5 -9 49.5 -26 q22 -17 36.5 -42.5 q14.5 -25.5 14.5 -59.5 q0 -142 -262 -142 q-38 0 -78 1 q-40 1 -91 4 q-3 -21 -3 -42 q0 -41 11 -77.5 q11 -36.5 33 -64 q22 -27.5 55 -43.5 q33 -16 76 -16 q27 0 56 8.5 q29 8.5 56 23.5 q27 15 49.5 37 q22.5 22 37.5 49 l19 -6 q-17 -30 -41.5 -54.5 q-24.5 -24.5 -54 -41.5 q-29.5 -17 -62.5 -26.5 q-33 -9.5 -67 -9.5 ZM329 507 q-49 0 -93 -19.5 q-44 -19.5 -79.5 -52 q-35.5 -32.5 -61 -75 q-25.5 -42.5 -36.5 -87.5 q51 -3 90.5 -4 q39.5 -1 77.5 -1 q66 0 111.5 9 q45.5 9 73.5 25.5 q28 16.5 40.5 39 q12.5 22.5 12.5 49.5 q0 30 -13 52 q-13 22 -33 36.5 q-20 14.5 -44 21 q-24 6.5 -46 6.5 ZM353 653 l16 77 l20 0 l-16 -77 l-20 0 Z" /><glyph glyph-name="egrave" unicode="è" d="M220 -10 q-45 0 -80 17.5 q-35 17.5 -59 47.5 q-24 30 -37 70 q-13 40 -13 85 q0 59 23 116 q23 57 63.5 101.5 q40.5 44.5 95.5 72 q55 27.5 120 27.5 q25 0 52.5 -9 q27.5 -9 49.5 -26 q22 -17 36.5 -42.5 q14.5 -25.5 14.5 -59.5 q0 -142 -262 -142 q-38 0 -78 1 q-40 1 -91 4 q-3 -21 -3 -42 q0 -41 11 -77.5 q11 -36.5 33 -64 q22 -27.5 55 -43.5 q33 -16 76 -16 q27 0 56 8.5 q29 8.5 56 23.5 q27 15 49.5 37 q22.5 22 37.5 49 l19 -6 q-17 -30 -41.5 -54.5 q-24.5 -24.5 -54 -41.5 q-29.5 -17 -62.5 -26.5 q-33 -9.5 -67 -9.5 ZM329 507 q-49 0 -93 -19.5 q-44 -19.5 -79.5 -52 q-35.5 -32.5 -61 -75 q-25.5 -42.5 -36.5 -87.5 q51 -3 90.5 -4 q39.5 -1 77.5 -1 q66 0 111.5 9 q45.5 9 73.5 25.5 q28 16.5 40.5 39 q12.5 22.5 12.5 49.5 q0 30 -13 52 q-13 22 -33 36.5 q-20 14.5 -44 21 q-24 6.5 -46 6.5 ZM330 730 l32 0 l46 -73 l-18 -12 l-60 85 Z" /><glyph glyph-name="eight" unicode="8" d="M210 -7 q-45 0 -79.5 13.5 q-34.5 13.5 -58 36 q-23.5 22.5 -35.5 53 q-12 30.5 -12 63.5 q0 43 18.5 79.5 q18.5 36.5 47 65 q28.5 28.5 64 48.5 q35.5 20 70.5 29 q-42 17 -71 51 q-29 34 -29 83 q0 46 22 82.5 q22 36.5 57 61.5 q35 25 77.5 38 q42.5 13 84.5 13 q33 0 63.5 -9.5 q30.5 -9.5 53.5 -27.5 q23 -18 37 -44 q14 -26 14 -60 q0 -36 -14.5 -65.5 q-14.5 -29.5 -38 -53 q-23.5 -23.5 -54 -41 q-30.5 -17.5 -62.5 -28.5 q53 -17 86.5 -59.5 q33.5 -42.5 33.5 -101.5 q0 -51 -24 -93 q-24 -42 -62.5 -71.5 q-38.5 -29.5 -88 -46 q-49.5 -16.5 -100.5 -16.5 ZM218 10 q41 0 84.5 15 q43.5 15 79.5 42.5 q36 27.5 59.5 66 q23.5 38.5 23.5 85.5 q0 36 -15 64 q-15 28 -39.5 47.5 q-24.5 19.5 -55.5 30 q-31 10.5 -63 10.5 q-41 0 -84.5 -15 q-43.5 -15 -79.5 -43 q-36 -28 -59.5 -66.5 q-23.5 -38.5 -23.5 -85.5 q0 -36 15 -64 q15 -28 39.5 -47.5 q24.5 -19.5 55.5 -29.5 q31 -10 63 -10 ZM297 391 q34 0 72.5 11.5 q38.5 11.5 70.5 34 q32 22.5 53 55 q21 32.5 21 73.5 q0 30 -12.5 53 q-12.5 23 -33.5 39 q-21 16 -49 24.5 q-28 8.5 -59 8.5 q-39 0 -77 -12 q-38 -12 -69 -34.5 q-31 -22.5 -50 -54.5 q-19 -32 -19 -72 q0 -30 13.5 -53.5 q13.5 -23.5 35 -39.5 q21.5 -16 48.5 -24.5 q27 -8.5 55 -8.5 Z" /><glyph glyph-name="eightinferior" unicode="&#x2088;" d="M267 39 q0 -28 -14.5 -50.5 q-14.5 -22.5 -37.5 -38.5 q-23 -16 -53.5 -25 q-30.5 -9 -61.5 -9 q-57 0 -88 28 q-31 28 -31 66 q0 22 10.5 41 q10.5 19 27 34 q16.5 15 37.5 25 q21 10 41 16 q-26 9 -43.5 27.5 q-17.5 18.5 -17.5 44.5 q0 25 13.5 44.5 q13.5 19.5 35 33 q21.5 13.5 47.5 20.5 q26 7 52 7 q21 0 40.5 -5 q19.5 -5 34.5 -15 q15 -10 24 -25 q9 -15 9 -34 q0 -18 -8.5 -33.5 q-8.5 -15.5 -22 -28 q-13.5 -12.5 -31.5 -21.5 q-18 -9 -37 -15 q33 -10 53.5 -32.5 q20.5 -22.5 20.5 -54.5 ZM248 37 q0 19 -9 33.5 q-9 14.5 -24 25 q-15 10.5 -34 16 q-19 5.5 -38 5.5 q-24 0 -49 -7.5 q-25 -7.5 -46 -21.5 q-21 -14 -34 -33.5 q-13 -19.5 -13 -42.5 q0 -18 9 -32.5 q9 -14.5 24 -24.5 q15 -10 34 -15.5 q19 -5.5 38 -5.5 q24 0 49 7 q25 7 46 20.5 q21 13.5 34 32.5 q13 19 13 43 ZM56 199 q0 -15 8 -27.5 q8 -12.5 21 -20.5 q13 -8 29 -12.5 q16 -4.5 33 -4.5 q20 0 42 6 q22 6 40.5 17 q18.5 11 30.5 27 q12 16 12 36 q0 31 -28 48 q-28 17 -65 17 q-23 0 -45 -6 q-22 -6 -39 -17.5 q-17 -11.5 -28 -27.5 q-11 -16 -11 -35 Z" /><glyph glyph-name="eightsuperior" unicode="&#x2078;" d="M376 546 q0 -28 -14.5 -50.5 q-14.5 -22.5 -38 -38.5 q-23.5 -16 -54 -25 q-30.5 -9 -61.5 -9 q-57 0 -88 28 q-31 28 -31 66 q0 22 10.5 41 q10.5 19 27.5 34 q17 15 38 25 q21 10 41 16 q-26 9 -44 27.5 q-18 18.5 -18 44.5 q0 25 13.5 44.5 q13.5 19.5 35 33 q21.5 13.5 47.5 20.5 q26 7 52 7 q21 0 40.5 -5 q19.5 -5 34.5 -15 q15 -10 24 -25 q9 -15 9 -34 q0 -18 -8 -33.5 q-8 -15.5 -21.5 -28 q-13.5 -12.5 -31.5 -21.5 q-18 -9 -37 -15 q32 -10 53 -32.5 q21 -22.5 21 -54.5 ZM356 544 q0 19 -9 33.5 q-9 14.5 -24 25 q-15 10.5 -33.5 16 q-18.5 5.5 -37.5 5.5 q-24 0 -49.5 -7.5 q-25.5 -7.5 -46.5 -21.5 q-21 -14 -34 -33.5 q-13 -19.5 -13 -42.5 q0 -18 9 -32.5 q9 -14.5 24 -24.5 q15 -10 34 -15.5 q19 -5.5 38 -5.5 q24 0 49 7 q25 7 46 20.5 q21 13.5 34 32.5 q13 19 13 43 ZM164 706 q0 -15 8 -27.5 q8 -12.5 21 -20.5 q13 -8 29 -12.5 q16 -4.5 33 -4.5 q20 0 42 6 q22 6 40.5 17 q18.5 11 30.5 27 q12 16 12 36 q0 31 -28 48 q-28 17 -65 17 q-23 0 -45 -6 q-22 -6 -39 -17.5 q-17 -11.5 -28 -27.5 q-11 -16 -11 -35 Z" /><glyph glyph-name="ellipsis" unicode="&#x2026;" d="M8 0 l14 64 l19 0 l-13 -64 l-20 0 ZM99 0 l14 64 l19 0 l-13 -64 l-20 0 ZM190 0 l14 64 l20 0 l-14 -64 l-20 0 Z" /><glyph glyph-name="emacron" unicode="&#x113;" d="M220 -10 q-45 0 -80 17.5 q-35 17.5 -59 47.5 q-24 30 -37 70 q-13 40 -13 85 q0 59 23 116 q23 57 63.5 101.5 q40.5 44.5 95.5 72 q55 27.5 120 27.5 q25 0 52.5 -9 q27.5 -9 49.5 -26 q22 -17 36.5 -42.5 q14.5 -25.5 14.5 -59.5 q0 -142 -262 -142 q-38 0 -78 1 q-40 1 -91 4 q-3 -21 -3 -42 q0 -41 11 -77.5 q11 -36.5 33 -64 q22 -27.5 55 -43.5 q33 -16 76 -16 q27 0 56 8.5 q29 8.5 56 23.5 q27 15 49.5 37 q22.5 22 37.5 49 l19 -6 q-17 -30 -41.5 -54.5 q-24.5 -24.5 -54 -41.5 q-29.5 -17 -62.5 -26.5 q-33 -9.5 -67 -9.5 ZM329 507 q-49 0 -93 -19.5 q-44 -19.5 -79.5 -52 q-35.5 -32.5 -61 -75 q-25.5 -42.5 -36.5 -87.5 q51 -3 90.5 -4 q39.5 -1 77.5 -1 q66 0 111.5 9 q45.5 9 73.5 25.5 q28 16.5 40.5 39 q12.5 22.5 12.5 49.5 q0 30 -13 52 q-13 22 -33 36.5 q-20 14.5 -44 21 q-24 6.5 -46 6.5 ZM238 686 l4 20 l266 0 l-4 -20 l-266 0 Z" /><glyph glyph-name="emdash" unicode="&#x2014;" d="M59 261 l4 20 l703 0 l-4 -20 l-703 0 Z" /><glyph glyph-name="endash" unicode="&#x2013;" d="M59 261 l4 20 l384 0 l-4 -20 l-384 0 Z" /><glyph glyph-name="eng" unicode="&#x14b;" d="M238 -170 q-28 0 -51 7 q-23 7 -37 27 l18 12 q14 -16 33.5 -21 q19.5 -5 39.5 -5 q19 0 40.5 9 q21.5 9 40 24 q18.5 15 32.5 36 q14 21 19 45 l69 325 q13 61 13 107 q0 57 -22.5 84 q-22.5 27 -70.5 27 q-35 0 -72.5 -13.5 q-37.5 -13.5 -72 -37.5 q-34.5 -24 -63.5 -57 q-29 -33 -47 -71 l-70 -328 l-20 0 l110 519 l20 0 l-28 -134 q22 31 51 57.5 q29 26.5 61.5 45 q32.5 18.5 67 29 q34.5 10.5 67.5 10.5 q56 0 83 -30.5 q27 -30.5 27 -95.5 q0 -24 -3.5 -52 q-3.5 -28 -10.5 -60 l-69 -325 q-6 -29 -23 -53.5 q-17 -24.5 -39 -42.5 q-22 -18 -46.5 -28 q-24.5 -10 -46.5 -10 Z" /><glyph glyph-name="eogonek" unicode="&#x119;" d="M162 -168 q-19 5 -28.5 18.5 q-9.5 13.5 -9.5 30.5 q0 26 19 50.5 q19 24.5 68 58.5 q-43 2 -76.5 20 q-33.5 18 -56.5 48 q-23 30 -35 69 q-12 39 -12 83 q0 59 23 116 q23 57 63.5 101.5 q40.5 44.5 95.5 72 q55 27.5 120 27.5 q25 0 52.5 -9 q27.5 -9 49.5 -26 q22 -17 36.5 -42.5 q14.5 -25.5 14.5 -59.5 q0 -142 -262 -142 q-38 0 -78 1 q-40 1 -91 4 q-3 -21 -3 -42 q0 -41 11 -77.5 q11 -36.5 33 -64 q22 -27.5 55 -43.5 q33 -16 76 -16 q27 0 56 8.5 q29 8.5 56 23.5 q27 15 49.5 37 q22.5 22 37.5 49 l19 -6 q-31 -55 -85.5 -90 q-54.5 -35 -116.5 -41 q-29 -18 -48.5 -32.5 q-19.5 -14.5 -30.5 -26.5 q-11 -12 -15.5 -23 q-4.5 -11 -4.5 -23 q0 -29 34 -37 l-16 -17 ZM329 507 q-49 0 -93 -19.5 q-44 -19.5 -79.5 -52 q-35.5 -32.5 -61 -75 q-25.5 -42.5 -36.5 -87.5 q51 -3 90.5 -4 q39.5 -1 77.5 -1 q66 0 111.5 9 q45.5 9 73.5 25.5 q28 16.5 40.5 39 q12.5 22.5 12.5 49.5 q0 30 -13 52 q-13 22 -33 36.5 q-20 14.5 -44 21 q-24 6.5 -46 6.5 Z" /><glyph glyph-name="equal" unicode="=" d="M74 231 l0 20 l293 0 l0 -20 l-293 0 ZM74 301 l0 20 l293 0 l0 -20 l-293 0 Z" /><glyph glyph-name="eth" unicode="ð" d="M534 699 l-104 -63 q54 -65 74 -133 q20 -68 20 -134 q0 -88 -27.5 -158.5 q-27.5 -70.5 -71.5 -119.5 q-44 -49 -99 -75 q-55 -26 -110 -26 q-42 0 -77 16 q-35 16 -60 43 q-25 27 -38.5 63.5 q-13.5 36.5 -13.5 77.5 q0 57 25.5 108.5 q25.5 51.5 66.5 90.5 q41 39 93.5 62.5 q52.5 23.5 106.5 23.5 q37 0 68 -10.5 q31 -10.5 55 -30 q24 -19.5 39.5 -46 q15.5 -26.5 21.5 -58.5 q3 30 3 60 q0 58 -18.5 117.5 q-18.5 59.5 -71.5 120.5 l-134 -81 l-7 14 l130 79 q-20 23 -46 45 q-26 22 -58 45 l29 0 q27 -20 49 -40.5 q22 -20.5 41 -41.5 l107 65 l7 -14 ZM47 192 q0 -38 12.5 -71 q12.5 -33 35 -58 q22.5 -25 54.5 -39 q32 -14 70 -14 q50 0 98.5 23 q48.5 23 87 60.5 q38.5 37.5 62 86.5 q23.5 49 23.5 100 q0 36 -13 68 q-13 32 -36.5 56 q-23.5 24 -55.5 37.5 q-32 13.5 -70 13.5 q-50 0 -98 -21.5 q-48 -21.5 -85.5 -58 q-37.5 -36.5 -61 -84 q-23.5 -47.5 -23.5 -99.5 Z" /><glyph glyph-name="etilde" unicode="&#x1ebd;" d="M220 -10 q-45 0 -80 17.5 q-35 17.5 -59 47.5 q-24 30 -37 70 q-13 40 -13 85 q0 59 23 116 q23 57 63.5 101.5 q40.5 44.5 95.5 72 q55 27.5 120 27.5 q25 0 52.5 -9 q27.5 -9 49.5 -26 q22 -17 36.5 -42.5 q14.5 -25.5 14.5 -59.5 q0 -142 -262 -142 q-38 0 -78 1 q-40 1 -91 4 q-3 -21 -3 -42 q0 -41 11 -77.5 q11 -36.5 33 -64 q22 -27.5 55 -43.5 q33 -16 76 -16 q27 0 56 8.5 q29 8.5 56 23.5 q27 15 49.5 37 q22.5 22 37.5 49 l19 -6 q-17 -30 -41.5 -54.5 q-24.5 -24.5 -54 -41.5 q-29.5 -17 -62.5 -26.5 q-33 -9.5 -67 -9.5 ZM329 507 q-49 0 -93 -19.5 q-44 -19.5 -79.5 -52 q-35.5 -32.5 -61 -75 q-25.5 -42.5 -36.5 -87.5 q51 -3 90.5 -4 q39.5 -1 77.5 -1 q66 0 111.5 9 q45.5 9 73.5 25.5 q28 16.5 40.5 39 q12.5 22.5 12.5 49.5 q0 30 -13 52 q-13 22 -33 36.5 q-20 14.5 -44 21 q-24 6.5 -46 6.5 ZM415 663 q-21 0 -35.5 6 q-14.5 6 -26.5 13 q-12 7 -23 13 q-11 6 -26 6 q-15 0 -26 -6.5 q-11 -6.5 -18 -15 q-7 -8.5 -10.5 -16.5 q-3.5 -8 -4.5 -10 l-19 0 q0 2 4.5 13 q4.5 11 14 23 q9.5 12 25.5 21.5 q16 9.5 40 9.5 q18 0 31 -6 q13 -6 24.5 -13 q11.5 -7 24.5 -13 q13 -6 31 -6 q19 0 32 7 q13 7 20.5 15.5 q7.5 8.5 10.5 16 q3 7.5 3 9.5 l19 0 q-1 -3 -5.5 -14 q-4.5 -11 -15 -23 q-10.5 -12 -27.5 -21 q-17 -9 -43 -9 Z" /><glyph glyph-name="exclam" unicode="!" d="M81 200 l109 517 l20 0 l-109 -517 l-20 0 ZM38 0 l18 84 l25 0 l-23 -84 l-20 0 Z" /><glyph glyph-name="exclamdown" unicode="¡" d="M168 517 l-110 -517 l-20 0 l110 517 l20 0 ZM210 717 l-17 -84 l-25 0 l22 84 l20 0 Z" /><glyph glyph-name="f" unicode="f" d="M139 499 l-71 0 l4 20 l72 0 l4 21 q19 95 65 147.5 q46 52.5 108 52.5 q27 0 50 -9.5 q23 -9.5 33 -24.5 l-18 -12 q-9 12 -27.5 19.5 q-18.5 7.5 -40.5 7.5 q-54 0 -93.5 -46.5 q-39.5 -46.5 -56.5 -134.5 l-4 -21 l146 0 l-4 -20 l-147 0 l-151 -712 l-20 0 l151 712 Z" /><glyph glyph-name="f_f" unicode="&#xfb00;" d="M139 499 l-71 0 l4 20 l72 0 l2 11 q6 30 19.5 60.5 q13.5 30.5 35 55 q21.5 24.5 51.5 39.5 q30 15 69 15 q32 0 55.5 -9 q23.5 -9 32.5 -17 q26 30 58 48 q32 18 76 18 q24 0 39.5 -5 q15.5 -5 23.5 -11 q8 -6 11 -11.5 q3 -5.5 3 -6.5 l-18 -12 q-2 3 -5 7 q-3 4 -9.5 8.5 q-6.5 4.5 -17.5 7.5 q-11 3 -28 3 q-39 0 -69.5 -16.5 q-30.5 -16.5 -52.5 -43 q-22 -26.5 -35.5 -58.5 q-13.5 -32 -19.5 -62 l-4 -21 l175 0 l-4 -20 l-176 0 l-106 -499 l-20 0 l106 499 l-177 0 l-106 -499 l-20 0 l106 499 ZM340 519 q9 50 22 80 q13 30 33 57 q-7 7 -17 12 q-10 5 -21 7.5 q-11 2.5 -21.5 3.5 q-10.5 1 -17.5 1 q-36 0 -62.5 -15.5 q-26.5 -15.5 -44.5 -38 q-18 -22.5 -28.5 -48.5 q-10.5 -26 -16.5 -48 l-3 -11 l177 0 Z" /><glyph glyph-name="f_f_i" unicode="&#xfb03;" d="M139 499 l-71 0 l4 20 l71 0 l2 10 q6 30 20 60.5 q14 30.5 35.5 55 q21.5 24.5 52 40 q30.5 15.5 69.5 15.5 q32 0 55 -9 q23 -9 32 -17 q26 30 58 48 q32 18 77 18 q24 0 43.5 -5 q19.5 -5 33 -11 q13.5 -6 21 -11.5 q7.5 -5.5 7.5 -6.5 l-18 -12 q-6 9 -32.5 17.5 q-26.5 8.5 -56.5 8.5 q-39 0 -69.5 -16.5 q-30.5 -16.5 -52.5 -42.5 q-22 -26 -35.5 -58 q-13.5 -32 -19.5 -63 l-4 -21 l233 0 l-111 -519 l-20 0 l106 499 l-213 0 l-106 -499 l-20 0 l106 499 l-177 0 l-106 -499 l-20 0 l106 499 ZM340 519 q10 43 22.5 76.5 q12.5 33.5 32.5 60.5 q-7 7 -17 12 q-10 5 -21 7.5 q-11 2.5 -21.5 3.5 q-10.5 1 -17.5 1 q-36 0 -63 -15.5 q-27 -15.5 -45.5 -38 q-18.5 -22.5 -29.5 -49 q-11 -26.5 -15 -48.5 l-2 -10 l177 0 Z" /><glyph glyph-name="f_f_l" unicode="&#xfb04;" d="M577 -5 q-35 0 -50 17.5 q-15 17.5 -15 43.5 q0 5 0 10.5 q0 5.5 2 10.5 l114 536 q3 12 3 24 q0 35 -22.5 59 q-22.5 24 -69.5 24 q-37 0 -65.5 -16 q-28.5 -16 -49.5 -41.5 q-21 -25.5 -34.5 -58 q-13.5 -32.5 -19.5 -64.5 l-4 -21 l118 0 l-5 -20 l-118 0 l-106 -499 l-20 0 l106 499 l-182 0 l-106 -499 l-20 0 l106 499 l-71 0 l4 20 l71 0 l2 9 q8 37 24 68.5 q16 31.5 39 54.5 q23 23 53 36 q30 13 68 13 q34 0 52 -8.5 q18 -8.5 27 -16.5 q23 30 55 47.5 q32 17.5 75 17.5 q56 0 84.5 -28 q28.5 -28 28.5 -70 q0 -13 -3 -28 l-114 -537 q-2 -10 -2 -15 q0 -18 11 -33 q11 -15 37 -15 q8 0 17.5 1.5 q9.5 1.5 18 3 q8.5 1.5 14.5 3 q6 1.5 7 1.5 l5 -19 q-1 0 -7.5 -1.5 q-6.5 -1.5 -16.5 -3 q-10 -1.5 -21 -3 q-11 -1.5 -20 -1.5 ZM345 519 q11 48 22 80.5 q11 32.5 27 57.5 q-13 14 -32 18.5 q-19 4.5 -36 4.5 q-36 0 -63 -13.5 q-27 -13.5 -47 -35 q-20 -21.5 -32.5 -49 q-12.5 -27.5 -18.5 -54.5 l-2 -9 l182 0 Z" /><glyph glyph-name="fi" unicode="&#xfb01;" d="M139 499 l-71 0 l4 20 l72 0 l4 21 q6 31 21 66.5 q15 35.5 39.5 65 q24.5 29.5 58.5 49 q34 19.5 78 19.5 q25 0 45 -5 q20 -5 34 -11 q14 -6 21 -11.5 q7 -5.5 7 -6.5 l-18 -12 q-7 9 -32 17.5 q-25 8.5 -62 8.5 q-36 0 -65.5 -16.5 q-29.5 -16.5 -51 -42.5 q-21.5 -26 -35.5 -58 q-14 -32 -20 -63 l-4 -21 l232 0 l-110 -519 l-20 0 l106 499 l-213 0 l-106 -499 l-20 0 l106 499 Z" /><glyph glyph-name="fl" unicode="&#xfb02;" d="M370 -5 q-30 0 -45 17.5 q-15 17.5 -15 43.5 q0 5 0 10.5 q0 5.5 2 10.5 l114 536 q3 12 3 25 q0 32 -22.5 57 q-22.5 25 -75.5 25 q-34 0 -61.5 -16 q-27.5 -16 -48 -42 q-20.5 -26 -34 -58 q-13.5 -32 -19.5 -64 l-4 -21 l118 0 l-5 -20 l-118 0 l-106 -499 l-20 0 l106 499 l-71 0 l4 20 l72 0 l4 21 q8 41 23.5 77.5 q15.5 36.5 38.5 63.5 q23 27 54.5 43 q31.5 16 70.5 16 q57 0 85.5 -27.5 q28.5 -27.5 28.5 -69.5 q0 -14 -3 -29 l-114 -537 q-2 -10 -2 -14 q0 -19 11 -34 q11 -15 34 -15 q20 0 39.5 4.5 q19.5 4.5 20.5 4.5 l5 -19 q-1 -1 -23 -5 q-22 -4 -47 -4 Z" /><glyph glyph-name="five" unicode="5" d="M159 -149 q-72 0 -120 40 q-48 40 -62 106 l21 0 q14 -57 58 -91.5 q44 -34.5 107 -34.5 q48 0 94 19 q46 19 81.5 52.5 q35.5 33.5 57 79.5 q21.5 46 21.5 99 q0 36 -12 66.5 q-12 30.5 -33 52.5 q-21 22 -50.5 34 q-29.5 12 -65.5 12 q-54 0 -107 -25 q-53 -25 -95 -73 l-24 0 q4 9 12.5 30 q8.5 21 20 49.5 q11.5 28.5 25 62 q13.5 33.5 27.5 67.5 q32 79 71 174 l320 0 l-4 -20 l-304 0 l-130 -325 q42 39 92 59.5 q50 20.5 101 20.5 q39 0 71 -13.5 q32 -13.5 55.5 -37.5 q23.5 -24 36.5 -57.5 q13 -33.5 13 -73.5 q0 -60 -24.5 -110 q-24.5 -50 -63.5 -86 q-39 -36 -89 -56.5 q-50 -20.5 -101 -20.5 Z" /><glyph glyph-name="fiveeighths" unicode="&#x215d;" d="M34 11 l679 700 l13 -12 l-679 -700 l-13 12 ZM509 -4 q-57 0 -88 28 q-31 28 -31 66 q0 22 10.5 41 q10.5 19 27 34 q16.5 15 37.5 25 q21 10 41 16 q-26 9 -43.5 27.5 q-17.5 18.5 -17.5 44.5 q0 25 13.5 44.5 q13.5 19.5 35 33 q21.5 13.5 47.5 20.5 q26 7 52 7 q21 0 40.5 -5 q19.5 -5 34.5 -15 q15 -10 24 -25 q9 -15 9 -34 q0 -18 -8.5 -33.5 q-8.5 -15.5 -22 -28 q-13.5 -12.5 -31.5 -21.5 q-18 -9 -37 -15 q33 -10 53.5 -32.5 q20.5 -22.5 20.5 -54.5 q0 -28 -14.5 -50.5 q-14.5 -22.5 -37.5 -38.5 q-23 -16 -53.5 -25 q-30.5 -9 -61.5 -9 ZM515 14 q24 0 49 7 q25 7 46 20.5 q21 13.5 34 32.5 q13 19 13 43 q0 19 -9 33.5 q-9 14.5 -24 25 q-15 10.5 -34 16 q-19 5.5 -38 5.5 q-24 0 -49 -7.5 q-25 -7.5 -46 -21.5 q-21 -14 -34 -33.5 q-13 -19.5 -13 -42.5 q0 -18 9 -32.5 q9 -14.5 24 -24.5 q15 -10 34 -15.5 q19 -5.5 38 -5.5 ZM556 214 q20 0 42 6 q22 6 40.5 17 q18.5 11 30.5 27 q12 16 12 36 q0 31 -28 48 q-28 17 -65 17 q-23 0 -45 -6 q-22 -6 -39 -17.5 q-17 -11.5 -28 -27.5 q-11 -16 -11 -35 q0 -15 8 -27.5 q8 -12.5 21 -20.5 q13 -8 29 -12.5 q16 -4.5 33 -4.5 ZM237 588 q51 0 82.5 -27.5 q31.5 -27.5 31.5 -72.5 q0 -32 -14.5 -59 q-14.5 -27 -38.5 -46.5 q-24 -19.5 -54.5 -30 q-30.5 -10.5 -62.5 -10.5 q-45 0 -75.5 21 q-30.5 21 -40.5 56 l18 6 q10 -29 37 -47 q27 -18 66 -18 q29 0 55 9.5 q26 9.5 46 26 q20 16.5 32 39 q12 22.5 12 48.5 q0 21 -8.5 37 q-8.5 16 -22.5 27 q-14 11 -32 16.5 q-18 5.5 -38 5.5 q-32 0 -62.5 -13 q-30.5 -13 -53.5 -36 l-20 0 q3 8 11 26 q8 18 18 41 q10 23 21 47 q11 24 20 45 q9 21 14.5 35 q5.5 14 6.5 16 l200 0 l-4 -19 l-184 0 l-71 -162 q24 20 53 29.5 q29 9.5 58 9.5 Z" /><glyph glyph-name="fivesuperior" unicode="&#x2075;" d="M252 668 q51 0 82.5 -27.5 q31.5 -27.5 31.5 -72.5 q0 -32 -14.5 -59 q-14.5 -27 -38.5 -46.5 q-24 -19.5 -54.5 -30 q-30.5 -10.5 -62.5 -10.5 q-45 0 -75.5 21 q-30.5 21 -40.5 56 l18 6 q10 -29 37 -47 q27 -18 66 -18 q29 0 55 9.5 q26 9.5 46 26 q20 16.5 32 39 q12 22.5 12 48.5 q0 21 -8.5 37 q-8.5 16 -22.5 27 q-14 11 -32 16.5 q-18 5.5 -38 5.5 q-32 0 -62.5 -13 q-30.5 -13 -53.5 -36 l-20 0 q3 8 11 26 q8 18 18 41 q10 23 21 47 q11 24 20 45 q9 21 14.5 35 q5.5 14 6.5 16 l200 0 l-4 -19 l-184 0 l-71 -162 q24 20 53 29.5 q29 9.5 58 9.5 Z" /><glyph glyph-name="fraction" unicode="&#x2044;" d="M-275 11 l679 700 l13 -12 l-679 -700 l-13 12 Z" /><glyph glyph-name="fiveinferior" unicode="&#x2085;" d="M144 161 q51 0 82.5 -27.5 q31.5 -27.5 31.5 -72.5 q0 -32 -14.5 -59 q-14.5 -27 -38.5 -46.5 q-24 -19.5 -54.5 -30 q-30.5 -10.5 -62.5 -10.5 q-45 0 -75.5 21 q-30.5 21 -40.5 56 l18 6 q10 -29 37 -47 q27 -18 66 -18 q29 0 55 9.5 q26 9.5 46 26 q20 16.5 32 39 q12 22.5 12 48.5 q0 21 -8.5 37 q-8.5 16 -22.5 27 q-14 11 -32 16.5 q-18 5.5 -38 5.5 q-32 0 -62.5 -13 q-30.5 -13 -53.5 -36 l-20 0 q4 8 11.5 26 q7.5 18 17.5 41 q10 23 21 47 q11 24 20 45 q9 21 14.5 35 q5.5 14 6.5 16 l200 0 l-4 -19 l-184 0 l-71 -162 q24 20 53 29.5 q29 9.5 58 9.5 Z" /><glyph glyph-name="florin" unicode="&#x192;" d="M26 -170 q-28 0 -51 7 q-23 7 -37 27 l18 12 q14 -16 33.5 -21 q19.5 -5 39.5 -5 q19 0 40.5 9 q21.5 9 40 24 q18.5 15 32.5 36 q14 21 19 45 l101 474 l-71 0 l4 20 l72 0 l17 82 q20 95 65.5 147.5 q45.5 52.5 107.5 52.5 q27 0 50 -9.5 q23 -9.5 33 -24.5 l-18 -12 q-9 12 -27.5 19.5 q-18.5 7.5 -40.5 7.5 q-54 0 -93 -46.5 q-39 -46.5 -57 -134.5 l-17 -82 l146 0 l-4 -20 l-147 0 l-101 -474 q-6 -29 -23 -53.5 q-17 -24.5 -39 -42.5 q-22 -18 -46.5 -28 q-24.5 -10 -46.5 -10 Z" /><glyph glyph-name="four" unicode="4" d="M319 72 l-346 0 l4 17 l454 482 l14 0 l-102 -479 l84 0 l-4 -20 l-84 0 l-42 -199 l-20 0 l42 199 ZM323 92 l94 442 l-412 -442 l318 0 Z" /><glyph glyph-name="fourinferior" unicode="&#x2084;" d="M167 -80 l23 110 l-221 0 l4 17 l281 256 l14 0 l-54 -254 l52 0 l-4 -19 l-52 0 l-24 -110 l-19 0 ZM0 49 l194 0 l47 219 l-241 -219 Z" /><glyph glyph-name="foursuperior" unicode="&#x2074;" d="M275 427 l23 110 l-221 0 l4 17 l281 256 l14 0 l-54 -254 l52 0 l-4 -19 l-52 0 l-24 -110 l-19 0 ZM108 556 l194 0 l47 219 l-241 -219 Z" /><glyph glyph-name="g" unicode="g" d="M166 -223 q-44 0 -76 9 q-32 9 -54 25.5 q-22 16.5 -36 39 q-14 22.5 -22 50.5 l20 6 q9 -29 25.5 -50 q16.5 -21 39 -34.5 q22.5 -13.5 50 -19.5 q27.5 -6 57.5 -6 q40 0 78.5 11.5 q38.5 11.5 70 34.5 q31.5 23 54.5 56.5 q23 33.5 33 78.5 l28 130 q-21 -26 -47 -47.5 q-26 -21.5 -54.5 -37.5 q-28.5 -16 -58.5 -24.5 q-30 -8.5 -58 -8.5 q-44 0 -78.5 18.5 q-34.5 18.5 -58.5 49 q-24 30.5 -36.5 70.5 q-12.5 40 -12.5 83 q0 58 24 114.5 q24 56.5 64 101.5 q40 45 93 72.5 q53 27.5 111 27.5 q33 0 60 -10 q27 -10 48 -27.5 q21 -17.5 37.5 -41 q16.5 -23.5 28.5 -50.5 l26 121 l19 0 l-115 -541 q-11 -51 -37 -89 q-26 -38 -61.5 -63 q-35.5 -25 -77.5 -37 q-42 -12 -84 -12 ZM221 10 q35 0 71.5 14.5 q36.5 14.5 68 37.5 q31.5 23 55 51 q23.5 28 31.5 56 l40 187 q-5 33 -20 60.5 q-15 27.5 -37.5 47.5 q-22.5 20 -51.5 31.5 q-29 11.5 -60 11.5 q-57 0 -106 -27.5 q-49 -27.5 -85 -70.5 q-36 -43 -56.5 -95 q-20.5 -52 -20.5 -101 q0 -41 12 -78 q12 -37 34.5 -64.5 q22.5 -27.5 54 -44 q31.5 -16.5 70.5 -16.5 Z" /><glyph glyph-name="gbreve" unicode="&#x11f;" d="M166 -223 q-44 0 -76 9 q-32 9 -54 25.5 q-22 16.5 -36 39 q-14 22.5 -22 50.5 l20 6 q9 -29 25.5 -50 q16.5 -21 39 -34.5 q22.5 -13.5 50 -19.5 q27.5 -6 57.5 -6 q40 0 78.5 11.5 q38.5 11.5 70 34.5 q31.5 23 54.5 56.5 q23 33.5 33 78.5 l28 130 q-21 -26 -47 -47.5 q-26 -21.5 -54.5 -37.5 q-28.5 -16 -58.5 -24.5 q-30 -8.5 -58 -8.5 q-44 0 -78.5 18.5 q-34.5 18.5 -58.5 49 q-24 30.5 -36.5 70.5 q-12.5 40 -12.5 83 q0 58 24 114.5 q24 56.5 64 101.5 q40 45 93 72.5 q53 27.5 111 27.5 q33 0 60 -10 q27 -10 48 -27.5 q21 -17.5 37.5 -41 q16.5 -23.5 28.5 -50.5 l26 121 l19 0 l-115 -541 q-11 -51 -37 -89 q-26 -38 -61.5 -63 q-35.5 -25 -77.5 -37 q-42 -12 -84 -12 ZM221 10 q35 0 71.5 14.5 q36.5 14.5 68 37.5 q31.5 23 55 51 q23.5 28 31.5 56 l40 187 q-5 33 -20 60.5 q-15 27.5 -37.5 47.5 q-22.5 20 -51.5 31.5 q-29 11.5 -60 11.5 q-57 0 -106 -27.5 q-49 -27.5 -85 -70.5 q-36 -43 -56.5 -95 q-20.5 -52 -20.5 -101 q0 -41 12 -78 q12 -37 34.5 -64.5 q22.5 -27.5 54 -44 q31.5 -16.5 70.5 -16.5 ZM351 670 q20 0 39 17.5 q19 17.5 27 42.5 l18 0 q-3 -15 -12 -29 q-9 -14 -21 -24.5 q-12 -10.5 -26 -17 q-14 -6.5 -28 -6.5 q-25 0 -41 18 q-16 18 -16 44 q0 5 2 15 l19 0 q-1 -4 -1 -11 q0 -20 11.5 -34.5 q11.5 -14.5 28.5 -14.5 Z" /><glyph glyph-name="gcircumflex" unicode="&#x11d;" d="M166 -223 q-44 0 -76 9 q-32 9 -54 25.5 q-22 16.5 -36 39 q-14 22.5 -22 50.5 l20 6 q9 -29 25.5 -50 q16.5 -21 39 -34.5 q22.5 -13.5 50 -19.5 q27.5 -6 57.5 -6 q40 0 78.5 11.5 q38.5 11.5 70 34.5 q31.5 23 54.5 56.5 q23 33.5 33 78.5 l28 130 q-21 -26 -47 -47.5 q-26 -21.5 -54.5 -37.5 q-28.5 -16 -58.5 -24.5 q-30 -8.5 -58 -8.5 q-44 0 -78.5 18.5 q-34.5 18.5 -58.5 49 q-24 30.5 -36.5 70.5 q-12.5 40 -12.5 83 q0 58 24 114.5 q24 56.5 64 101.5 q40 45 93 72.5 q53 27.5 111 27.5 q33 0 60 -10 q27 -10 48 -27.5 q21 -17.5 37.5 -41 q16.5 -23.5 28.5 -50.5 l26 121 l19 0 l-115 -541 q-11 -51 -37 -89 q-26 -38 -61.5 -63 q-35.5 -25 -77.5 -37 q-42 -12 -84 -12 ZM221 10 q35 0 71.5 14.5 q36.5 14.5 68 37.5 q31.5 23 55 51 q23.5 28 31.5 56 l40 187 q-5 33 -20 60.5 q-15 27.5 -37.5 47.5 q-22.5 20 -51.5 31.5 q-29 11.5 -60 11.5 q-57 0 -106 -27.5 q-49 -27.5 -85 -70.5 q-36 -43 -56.5 -95 q-20.5 -52 -20.5 -101 q0 -41 12 -78 q12 -37 34.5 -64.5 q22.5 -27.5 54 -44 q31.5 -16.5 70.5 -16.5 ZM261 656 l104 74 l16 0 l73 -74 l-18 -12 l-68 63 l-94 -63 l-13 12 Z" /><glyph glyph-name="gcommaaccent" unicode="&#x123;" d="M166 -223 q-44 0 -76 9 q-32 9 -54 25.5 q-22 16.5 -36 39 q-14 22.5 -22 50.5 l20 6 q9 -29 25.5 -50 q16.5 -21 39 -34.5 q22.5 -13.5 50 -19.5 q27.5 -6 57.5 -6 q40 0 78.5 11.5 q38.5 11.5 70 34.5 q31.5 23 54.5 56.5 q23 33.5 33 78.5 l28 130 q-21 -26 -47 -47.5 q-26 -21.5 -54.5 -37.5 q-28.5 -16 -58.5 -24.5 q-30 -8.5 -58 -8.5 q-44 0 -78.5 18.5 q-34.5 18.5 -58.5 49 q-24 30.5 -36.5 70.5 q-12.5 40 -12.5 83 q0 58 24 114.5 q24 56.5 64 101.5 q40 45 93 72.5 q53 27.5 111 27.5 q33 0 60 -10 q27 -10 48 -27.5 q21 -17.5 37.5 -41 q16.5 -23.5 28.5 -50.5 l26 121 l19 0 l-115 -541 q-11 -51 -37 -89 q-26 -38 -61.5 -63 q-35.5 -25 -77.5 -37 q-42 -12 -84 -12 ZM221 10 q35 0 71.5 14.5 q36.5 14.5 68 37.5 q31.5 23 55 51 q23.5 28 31.5 56 l40 187 q-5 33 -20 60.5 q-15 27.5 -37.5 47.5 q-22.5 20 -51.5 31.5 q-29 11.5 -60 11.5 q-57 0 -106 -27.5 q-49 -27.5 -85 -70.5 q-36 -43 -56.5 -95 q-20.5 -52 -20.5 -101 q0 -41 12 -78 q12 -37 34.5 -64.5 q22.5 -27.5 54 -44 q31.5 -16.5 70.5 -16.5 ZM381 730 l-22 -58 l9 0 l-13 -59 l-25 0 l12 59 l25 58 l14 0 Z" /><glyph glyph-name="gdotaccent" unicode="&#x121;" d="M166 -223 q-44 0 -76 9 q-32 9 -54 25.5 q-22 16.5 -36 39 q-14 22.5 -22 50.5 l20 6 q9 -29 25.5 -50 q16.5 -21 39 -34.5 q22.5 -13.5 50 -19.5 q27.5 -6 57.5 -6 q40 0 78.5 11.5 q38.5 11.5 70 34.5 q31.5 23 54.5 56.5 q23 33.5 33 78.5 l28 130 q-21 -26 -47 -47.5 q-26 -21.5 -54.5 -37.5 q-28.5 -16 -58.5 -24.5 q-30 -8.5 -58 -8.5 q-44 0 -78.5 18.5 q-34.5 18.5 -58.5 49 q-24 30.5 -36.5 70.5 q-12.5 40 -12.5 83 q0 58 24 114.5 q24 56.5 64 101.5 q40 45 93 72.5 q53 27.5 111 27.5 q33 0 60 -10 q27 -10 48 -27.5 q21 -17.5 37.5 -41 q16.5 -23.5 28.5 -50.5 l26 121 l19 0 l-115 -541 q-11 -51 -37 -89 q-26 -38 -61.5 -63 q-35.5 -25 -77.5 -37 q-42 -12 -84 -12 ZM221 10 q35 0 71.5 14.5 q36.5 14.5 68 37.5 q31.5 23 55 51 q23.5 28 31.5 56 l40 187 q-5 33 -20 60.5 q-15 27.5 -37.5 47.5 q-22.5 20 -51.5 31.5 q-29 11.5 -60 11.5 q-57 0 -106 -27.5 q-49 -27.5 -85 -70.5 q-36 -43 -56.5 -95 q-20.5 -52 -20.5 -101 q0 -41 12 -78 q12 -37 34.5 -64.5 q22.5 -27.5 54 -44 q31.5 -16.5 70.5 -16.5 ZM343 653 l16 77 l20 0 l-16 -77 l-20 0 Z" /><glyph glyph-name="germandbls" unicode="ß" d="M159 13 q66 1 118.5 17.5 q52.5 16.5 89 45.5 q36.5 29 55.5 70.5 q19 41.5 19 93.5 q0 69 -42 111 q-42 42 -117 42 l-16 0 l4 20 l15 0 q36 0 68 13 q32 13 57 35 q25 22 39.5 51.5 q14.5 29.5 14.5 63.5 q0 51 -34 84.5 q-34 33.5 -91 33.5 q-35 0 -66.5 -13 q-31.5 -13 -57 -37.5 q-25.5 -24.5 -43.5 -58.5 q-18 -34 -27 -76 l-108 -509 l-20 0 l108 509 q10 46 30.5 84 q20.5 38 49.5 65 q29 27 64.5 41.5 q35.5 14.5 74.5 14.5 q32 0 58 -10 q26 -10 44.5 -27.5 q18.5 -17.5 28.5 -41.5 q10 -24 10 -52 q0 -31 -13 -61 q-13 -30 -34 -54 q-21 -24 -48 -41 q-27 -17 -55 -23 q63 -14 95 -56 q32 -42 32 -103 q0 -113 -79.5 -179.5 q-79.5 -66.5 -227.5 -71.5 l4 19 Z" /><glyph glyph-name="greater" unicode="&gt;" d="M492 250 l-417 -250 l0 22 l388 237 l-388 236 l0 22 l417 -249 l0 -18 Z" /><glyph glyph-name="guillemotleft" unicode="«" d="M36 268 l261 169 l-5 -22 l-239 -156 l173 -157 l-5 -22 l-189 170 l4 18 ZM198 268 l262 169 l-5 -22 l-240 -156 l173 -157 l-4 -22 l-189 170 l3 18 Z" /><glyph glyph-name="guillemotright" unicode="»" d="M443 250 l-261 -170 l4 22 l240 157 l-173 156 l4 22 l190 -169 l-4 -18 ZM281 250 l-262 -170 l5 22 l240 157 l-174 156 l5 22 l189 -169 l-3 -18 Z" /><glyph glyph-name="guilsinglleft" unicode="&#x2039;" d="M36 268 l261 169 l-5 -22 l-239 -156 l173 -157 l-5 -22 l-189 170 l4 18 Z" /><glyph glyph-name="guilsinglright" unicode="&#x203a;" d="M281 250 l-262 -170 l5 22 l240 157 l-174 156 l5 22 l189 -169 l-3 -18 Z" /><glyph glyph-name="h" unicode="h" d="M172 730 l20 0 l-73 -345 q22 32 50 58.5 q28 26.5 59 45 q31 18.5 63.5 28.5 q32.5 10 64.5 10 q118 0 118 -139 q0 -44 -12 -99 l-61 -289 l-20 0 l61 289 q5 27 8.5 51 q3.5 24 3.5 44 q0 123 -102 123 q-35 0 -70.5 -14 q-35.5 -14 -68.5 -38 q-33 -24 -60.5 -56.5 q-27.5 -32.5 -45.5 -70.5 l-70 -328 l-20 0 l155 730 Z" /><glyph glyph-name="hbar" unicode="&#x127;" d="M86 653 l69 0 l17 77 l20 0 l-17 -77 l120 0 l-4 -20 l-120 0 l-52 -248 q22 32 50 58.5 q28 26.5 59 45 q31 18.5 63.5 28.5 q32.5 10 64.5 10 q118 0 118 -139 q0 -44 -12 -99 l-61 -289 l-20 0 l61 289 q12 54 12 95 q0 123 -102 123 q-35 0 -70.5 -14 q-35.5 -14 -68.5 -38 q-33 -24 -60.5 -56.5 q-27.5 -32.5 -45.5 -70.5 l-70 -328 l-20 0 l134 633 l-69 0 l4 20 Z" /><glyph glyph-name="hcircumflex" unicode="&#x125;" d="M172 730 l20 0 l-73 -345 q22 32 50 58.5 q28 26.5 59 45 q31 18.5 63.5 28.5 q32.5 10 64.5 10 q118 0 118 -139 q0 -44 -12 -99 l-61 -289 l-20 0 l61 289 q5 27 8.5 51 q3.5 24 3.5 44 q0 123 -102 123 q-35 0 -70.5 -14 q-35.5 -14 -68.5 -38 q-33 -24 -60.5 -56.5 q-27.5 -32.5 -45.5 -70.5 l-70 -328 l-20 0 l155 730 ZM284 656 l104 74 l16 0 l73 -74 l-18 -12 l-68 63 l-94 -63 l-13 12 Z" /><glyph glyph-name="hyphen" unicode="-" d="M59 261 l4 20 l269 0 l-4 -20 l-269 0 Z" /><glyph glyph-name="i" unicode="i" d="M127 519 l20 0 l-110 -519 l-20 0 l110 519 ZM172 730 l20 0 l-16 -77 l-20 0 l16 77 Z" /><glyph glyph-name="iacute" unicode="í" d="M127 519 l20 0 l-110 -519 l-20 0 l110 519 ZM161 645 l-13 12 l76 73 l33 0 l-96 -85 Z" /><glyph glyph-name="ibreve" unicode="&#x12d;" d="M127 519 l20 0 l-110 -519 l-20 0 l110 519 ZM161 670 q20 0 39 17.5 q19 17.5 27 42.5 l18 0 q-3 -15 -12 -29 q-9 -14 -21 -24.5 q-12 -10.5 -26 -17 q-14 -6.5 -28 -6.5 q-25 0 -41 18 q-16 18 -16 44 q0 5 2 15 l19 0 q-1 -4 -1 -11 q0 -20 11.5 -34.5 q11.5 -14.5 28.5 -14.5 Z" /><glyph glyph-name="icircumflex" unicode="î" d="M127 519 l20 0 l-110 -519 l-20 0 l110 519 ZM67 656 l104 74 l16 0 l73 -74 l-18 -12 l-68 63 l-94 -63 l-13 12 Z" /><glyph glyph-name="idieresis" unicode="ï" d="M127 519 l20 0 l-110 -519 l-20 0 l110 519 ZM100 653 l16 77 l20 0 l-16 -77 l-20 0 ZM211 653 l16 77 l20 0 l-16 -77 l-20 0 Z" /><glyph glyph-name="igrave" unicode="ì" d="M127 519 l20 0 l-110 -519 l-20 0 l110 519 ZM92 730 l32 0 l46 -73 l-18 -12 l-60 85 Z" /><glyph glyph-name="ij" unicode="&#x133;" d="M127 519 l20 0 l-110 -519 l-20 0 l110 519 ZM172 730 l20 0 l-16 -77 l-20 0 l16 77 ZM64 -170 q-28 0 -51 7 q-23 7 -37 27 l18 12 q14 -16 33.5 -21 q19.5 -5 39.5 -5 q19 0 40.5 9 q21.5 9 40 24 q18.5 15 32.5 36 q14 21 19 45 l118 555 l20 0 l-118 -555 q-6 -29 -23 -53.5 q-17 -24.5 -39 -42.5 q-22 -18 -46.5 -28 q-24.5 -10 -46.5 -10 ZM362 730 l20 0 l-16 -77 l-20 0 l16 77 Z" /><glyph glyph-name="j" unicode="j" d="M-118 -170 q-28 0 -51 7 q-23 7 -37 27 l18 12 q14 -16 33.5 -21 q19.5 -5 39.5 -5 q19 0 40.5 9 q21.5 9 40 24 q18.5 15 32.5 36 q14 21 19 45 l118 555 l20 0 l-118 -555 q-6 -29 -23 -53.5 q-17 -24.5 -39 -42.5 q-22 -18 -46.5 -28 q-24.5 -10 -46.5 -10 ZM180 730 l20 0 l-16 -77 l-20 0 l16 77 Z" /><glyph glyph-name="imacron" unicode="&#x12b;" d="M127 519 l20 0 l-110 -519 l-20 0 l110 519 ZM30 686 l4 20 l266 0 l-4 -20 l-266 0 Z" /><glyph glyph-name="iogonek" unicode="&#x12f;" d="M-43 -159 q-19 5 -28.5 18.5 q-9.5 13.5 -9.5 30.5 q0 14 5.5 27.5 q5.5 13.5 17.5 27.5 q12 14 31 29.5 q19 15.5 47 34.5 l108 510 l20 0 l-110 -519 q-29 -18 -48.5 -32.5 q-19.5 -14.5 -30.5 -26.5 q-11 -12 -15.5 -23 q-4.5 -11 -4.5 -23 q0 -29 34 -37 l-16 -17 ZM173 730 l20 0 l-16 -77 l-20 0 l16 77 Z" /><glyph glyph-name="itilde" unicode="&#x129;" d="M127 519 l20 0 l-110 -519 l-20 0 l110 519 ZM213 663 q-21 0 -35.5 6 q-14.5 6 -26.5 13 q-12 7 -23 13 q-11 6 -26 6 q-15 0 -26 -6.5 q-11 -6.5 -18 -15 q-7 -8.5 -10.5 -16.5 q-3.5 -8 -4.5 -10 l-19 0 q0 2 4.5 13 q4.5 11 14 23 q9.5 12 25.5 21.5 q16 9.5 40 9.5 q18 0 31 -6 q13 -6 24.5 -13 q11.5 -7 24.5 -13 q13 -6 31 -6 q19 0 32 7 q13 7 20.5 15.5 q7.5 8.5 10.5 16 q3 7.5 3 9.5 l19 0 q-1 -3 -5.5 -14 q-4.5 -11 -15 -23 q-10.5 -12 -27.5 -21 q-17 -9 -43 -9 Z" /><glyph glyph-name="jcircumflex" unicode="&#x135;" d="M-126 -170 q-28 0 -51 7 q-23 7 -37 27 l18 12 q14 -16 33.5 -21 q19.5 -5 39.5 -5 q19 0 40.5 9 q21.5 9 40 24 q18.5 15 32.5 36 q14 21 19 45 l118 555 l20 0 l-118 -555 q-6 -29 -23 -53.5 q-17 -24.5 -39 -42.5 q-22 -18 -46.5 -28 q-24.5 -10 -46.5 -10 ZM64 656 l104 74 l16 0 l73 -74 l-18 -12 l-68 63 l-94 -63 l-13 12 Z" /><glyph glyph-name="k" unicode="k" d="M172 730 l20 0 l-83 -390 q65 96 135.5 143.5 q70.5 47.5 140.5 47.5 q60 0 93 -27.5 q33 -27.5 33 -77.5 q0 -33 -16 -62.5 q-16 -29.5 -45 -53.5 q-29 -24 -71 -41.5 q-42 -17.5 -94 -26.5 l120 -242 l-24 0 l-124 255 q113 22 172.5 65 q59.5 43 59.5 103 q0 42 -28 65.5 q-28 23.5 -79 23.5 q-66 0 -133.5 -48.5 q-67.5 -48.5 -145.5 -152.5 l-66 -311 l-20 0 l155 730 Z" /><glyph glyph-name="kcommaaccent" unicode="&#x137;" d="M172 730 l20 0 l-83 -390 q65 96 135.5 143.5 q70.5 47.5 140.5 47.5 q60 0 93 -27.5 q33 -27.5 33 -77.5 q0 -33 -16 -62.5 q-16 -29.5 -45 -53.5 q-29 -24 -71 -41.5 q-42 -17.5 -94 -26.5 l120 -242 l-24 0 l-124 255 q113 22 172.5 65 q59.5 43 59.5 103 q0 42 -28 65.5 q-28 23.5 -79 23.5 q-66 0 -133.5 -48.5 q-67.5 -48.5 -145.5 -152.5 l-66 -311 l-20 0 l155 730 ZM137 -167 l22 58 l-9 0 l13 59 l25 0 l-12 -59 l-25 -58 l-14 0 Z" /><glyph glyph-name="kgreenlandic" unicode="&#x138;" d="M127 519 l20 0 l-68 -323 l403 321 l27 0 l-258 -206 l153 -311 l-24 0 l-147 297 l-160 -128 l-36 -169 l-20 0 l110 519 Z" /><glyph glyph-name="l" unicode="l" d="M96 -5 q-28 0 -44 16.5 q-16 16.5 -16 44.5 q0 5 0 10 q0 5 2 11 l139 653 l20 0 l-139 -653 q-1 -5 -1.5 -8.5 q-0.5 -3.5 -0.5 -7.5 q0 -47 52 -47 q11 0 26 2.5 q15 2.5 28 6.5 l3 -16 q-14 -5 -34.5 -8.5 q-20.5 -3.5 -34.5 -3.5 Z" /><glyph glyph-name="lacute" unicode="&#x13a;" d="M96 -5 q-28 0 -44 16.5 q-16 16.5 -16 44.5 q0 5 0 10 q0 5 2 11 l139 653 l20 0 l-139 -653 q-1 -5 -1.5 -8.5 q-0.5 -3.5 -0.5 -7.5 q0 -47 52 -47 q11 0 26 2.5 q15 2.5 28 6.5 l3 -16 q-14 -5 -34.5 -8.5 q-20.5 -3.5 -34.5 -3.5 ZM187 779 l-13 12 l76 73 l33 0 l-96 -85 Z" /><glyph glyph-name="lcaron" unicode="&#x13e;" d="M96 -5 q-28 0 -44 16.5 q-16 16.5 -16 44.5 q0 5 0 10 q0 5 2 11 l139 653 l20 0 l-139 -653 q-1 -5 -1.5 -8.5 q-0.5 -3.5 -0.5 -7.5 q0 -47 52 -47 q11 0 26 2.5 q15 2.5 28 6.5 l3 -16 q-14 -5 -34.5 -8.5 q-20.5 -3.5 -34.5 -3.5 ZM233 657 l76 73 l33 0 l-96 -85 l-13 12 Z" /><glyph glyph-name="lcommaaccent" unicode="&#x13c;" d="M96 -5 q-28 0 -44 16.5 q-16 16.5 -16 44.5 q0 5 0 10 q0 5 2 11 l139 653 l20 0 l-139 -653 q-1 -5 -1.5 -8.5 q-0.5 -3.5 -0.5 -7.5 q0 -47 52 -47 q11 0 26 2.5 q15 2.5 28 6.5 l3 -16 q-14 -5 -34.5 -8.5 q-20.5 -3.5 -34.5 -3.5 ZM40 -167 l22 58 l-9 0 l13 59 l25 0 l-12 -59 l-25 -58 l-14 0 Z" /><glyph glyph-name="ldot" unicode="&#x140;" d="M96 -5 q-28 0 -44 16.5 q-16 16.5 -16 44.5 q0 5 0 10 q0 5 2 11 l139 653 l20 0 l-139 -653 q-1 -5 -1.5 -8.5 q-0.5 -3.5 -0.5 -7.5 q0 -47 52 -47 q11 0 26 2.5 q15 2.5 28 6.5 l3 -16 q-14 -5 -34.5 -8.5 q-20.5 -3.5 -34.5 -3.5 ZM195 250 l18 83 l19 0 l-17 -83 l-20 0 Z" /><glyph glyph-name="less" unicode="&lt;" d="M31 268 l417 249 l0 -22 l-388 -236 l388 -237 l0 -22 l-417 250 l0 18 Z" /><glyph glyph-name="logicalnot" unicode="¬" d="M478 338 l-42 -198 l-20 0 l38 178 l-364 0 l4 20 l384 0 Z" /><glyph glyph-name="lslash" unicode="&#x142;" d="M21 318 l101 87 l70 325 l20 0 l-65 -304 l107 92 l12 -14 l-125 -107 l-68 -320 q-1 -5 -1.5 -8.5 q-0.5 -3.5 -0.5 -7.5 q0 -47 52 -47 q11 0 25.5 2.5 q14.5 2.5 28.5 6.5 l3 -16 q-14 -5 -34.5 -8.5 q-20.5 -3.5 -34.5 -3.5 q-29 0 -44.5 16 q-15.5 16 -15.5 44 q0 5 0 10.5 q0 5.5 2 11.5 l63 299 l-84 -72 l-11 14 Z" /><glyph glyph-name="m" unicode="m" d="M127 519 l20 0 l-28 -134 q47 68 104.5 105 q57.5 37 116.5 37 q56 0 87 -35 q31 -35 31 -98 q0 -6 0 -12 q0 -6 -1 -12 q19 38 45.5 67.5 q26.5 29.5 57 49.5 q30.5 20 63.5 30 q33 10 65 10 q113 0 113 -131 q0 -22 -3 -49 q-3 -27 -10 -58 l-61 -289 l-20 0 l61 289 q12 58 12 101 q0 117 -98 117 q-34 0 -67.5 -13 q-33.5 -13 -63.5 -37 q-30 -24 -55.5 -57 q-25.5 -33 -44.5 -73 l-69 -327 l-20 0 l61 289 q7 31 10 57 q3 26 3 47 q0 114 -97 114 q-35 0 -68 -13 q-33 -13 -63 -36.5 q-30 -23.5 -56 -56.5 q-26 -33 -45 -73 l-70 -328 l-20 0 l110 519 Z" /><glyph glyph-name="minus" unicode="&#x2212;" d="M66 261 l0 20 l403 0 l0 -20 l-403 0 Z" /><glyph glyph-name="mu" unicode="µ" d="M136 519 l21 0 l-62 -291 q-12 -56 -12 -97 q0 -121 104 -121 q36 0 72.5 13.5 q36.5 13.5 70 37 q33.5 23.5 62 56.5 q28.5 33 47.5 72 l70 330 l21 0 l-102 -479 q-1 -1 -1 -7 q0 -13 12 -13 l-5 -20 q-27 0 -27 30 q0 8 1 10 l20 92 q-23 -33 -52 -59 q-29 -26 -61 -44.5 q-32 -18.5 -65.5 -28.5 q-33.5 -10 -66.5 -10 q-103 0 -117 104 l-65 -306 l-20 0 l155 731 Z" /><glyph glyph-name="multiply" unicode="×" d="M372 135 l-15 -14 l-135 135 l-135 -135 l-14 15 l134 134 l-135 136 l15 14 l135 -135 l136 136 l14 -15 l-136 -136 l136 -135 Z" /><glyph glyph-name="n" unicode="n" d="M127 519 l20 0 l-28 -134 q22 31 51 57.5 q29 26.5 61.5 45 q32.5 18.5 67 29 q34.5 10.5 67.5 10.5 q56 0 83 -30.5 q27 -30.5 27 -95.5 q0 -24 -3.5 -52 q-3.5 -28 -10.5 -60 l-61 -289 l-20 0 l61 289 q13 61 13 107 q0 57 -22.5 84 q-22.5 27 -70.5 27 q-35 0 -72.5 -13.5 q-37.5 -13.5 -72 -37.5 q-34.5 -24 -63.5 -57 q-29 -33 -47 -71 l-70 -328 l-20 0 l110 519 Z" /><glyph glyph-name="nacute" unicode="&#x144;" d="M127 519 l20 0 l-28 -134 q22 31 51 57.5 q29 26.5 61.5 45 q32.5 18.5 67 29 q34.5 10.5 67.5 10.5 q56 0 83 -30.5 q27 -30.5 27 -95.5 q0 -24 -3.5 -52 q-3.5 -28 -10.5 -60 l-61 -289 l-20 0 l61 289 q13 61 13 107 q0 57 -22.5 84 q-22.5 27 -70.5 27 q-35 0 -72.5 -13.5 q-37.5 -13.5 -72 -37.5 q-34.5 -24 -63.5 -57 q-29 -33 -47 -71 l-70 -328 l-20 0 l110 519 ZM343 645 l-13 12 l76 73 l33 0 l-96 -85 Z" /><glyph glyph-name="napostrophe" unicode="&#x149;" d="M127 519 l20 0 l-28 -134 q22 31 51 57.5 q29 26.5 61.5 45 q32.5 18.5 67 29 q34.5 10.5 67.5 10.5 q56 0 83 -30.5 q27 -30.5 27 -95.5 q0 -24 -3.5 -52 q-3.5 -28 -10.5 -60 l-61 -289 l-20 0 l61 289 q13 61 13 107 q0 57 -22.5 84 q-22.5 27 -70.5 27 q-35 0 -72.5 -13.5 q-37.5 -13.5 -72 -37.5 q-34.5 -24 -63.5 -57 q-29 -33 -47 -71 l-70 -328 l-20 0 l110 519 ZM59 730 l-96 -85 l-13 12 l49 47 l8 26 l52 0 Z" /><glyph glyph-name="ncaron" unicode="&#x148;" d="M127 519 l20 0 l-28 -134 q22 31 51 57.5 q29 26.5 61.5 45 q32.5 18.5 67 29 q34.5 10.5 67.5 10.5 q56 0 83 -30.5 q27 -30.5 27 -95.5 q0 -24 -3.5 -52 q-3.5 -28 -10.5 -60 l-61 -289 l-20 0 l61 289 q13 61 13 107 q0 57 -22.5 84 q-22.5 27 -70.5 27 q-35 0 -72.5 -13.5 q-37.5 -13.5 -72 -37.5 q-34.5 -24 -63.5 -57 q-29 -33 -47 -71 l-70 -328 l-20 0 l110 519 ZM265 718 l18 12 l68 -63 l94 63 l13 -12 l-104 -74 l-16 0 l-73 74 Z" /><glyph glyph-name="ncommaaccent" unicode="&#x146;" d="M127 519 l20 0 l-28 -134 q22 31 51 57.5 q29 26.5 61.5 45 q32.5 18.5 67 29 q34.5 10.5 67.5 10.5 q56 0 83 -30.5 q27 -30.5 27 -95.5 q0 -24 -3.5 -52 q-3.5 -28 -10.5 -60 l-61 -289 l-20 0 l61 289 q13 61 13 107 q0 57 -22.5 84 q-22.5 27 -70.5 27 q-35 0 -72.5 -13.5 q-37.5 -13.5 -72 -37.5 q-34.5 -24 -63.5 -57 q-29 -33 -47 -71 l-70 -328 l-20 0 l110 519 ZM167 -167 l22 58 l-9 0 l13 59 l25 0 l-12 -59 l-25 -58 l-14 0 Z" /><glyph glyph-name="ndotaccent" unicode="&#x1e45;" d="M127 519 l20 0 l-28 -134 q22 31 51 57.5 q29 26.5 61.5 45 q32.5 18.5 67 29 q34.5 10.5 67.5 10.5 q56 0 83 -30.5 q27 -30.5 27 -95.5 q0 -24 -3.5 -52 q-3.5 -28 -10.5 -60 l-61 -289 l-20 0 l61 289 q13 61 13 107 q0 57 -22.5 84 q-22.5 27 -70.5 27 q-35 0 -72.5 -13.5 q-37.5 -13.5 -72 -37.5 q-34.5 -24 -63.5 -57 q-29 -33 -47 -71 l-70 -328 l-20 0 l110 519 ZM345 653 l16 77 l20 0 l-16 -77 l-20 0 Z" /><glyph glyph-name="nine" unicode="9" d="M173 -156 q-69 0 -113.5 39.5 q-44.5 39.5 -50.5 107.5 l20 7 q3 -30 14.5 -54.5 q11.5 -24.5 31 -42.5 q19.5 -18 45.5 -27.5 q26 -9.5 57 -9.5 q55 0 105 28.5 q50 28.5 90.5 79.5 q40.5 51 70.5 122 q30 71 46 157 q-19 -39 -48 -70 q-29 -31 -64 -52.5 q-35 -21.5 -75 -33 q-40 -11.5 -80 -11.5 q-41 0 -75 15.5 q-34 15.5 -58 42.5 q-24 27 -37.5 63 q-13.5 36 -13.5 78 q0 58 24.5 110 q24.5 52 65.5 91 q41 39 93 62 q52 23 108 23 q42 0 76.5 -14.5 q34.5 -14.5 59.5 -42 q25 -27.5 38.5 -67 q13.5 -39.5 13.5 -88.5 q0 -97 -25 -189.5 q-25 -92.5 -70.5 -164.5 q-45.5 -72 -109 -115.5 q-63.5 -43.5 -139.5 -43.5 ZM230 104 q49 0 97 21.5 q48 21.5 85 57.5 q37 36 60 83.5 q23 47.5 23 98.5 q0 38 -12.5 71.5 q-12.5 33.5 -35.5 58.5 q-23 25 -54.5 39.5 q-31.5 14.5 -69.5 14.5 q-50 0 -97 -21 q-47 -21 -84.5 -57 q-37.5 -36 -60 -83 q-22.5 -47 -22.5 -99 q0 -38 12.5 -72 q12.5 -34 35.5 -59 q23 -25 54 -39.5 q31 -14.5 69 -14.5 Z" /><glyph glyph-name="nineinferior" unicode="&#x2089;" d="M7 154 q0 31 15 58.5 q15 27.5 39.5 48.5 q24.5 21 56.5 33 q32 12 66 12 q54 0 87 -32 q33 -32 33 -89 q0 -55 -15 -104 q-15 -49 -42 -86 q-27 -37 -64.5 -58.5 q-37.5 -21.5 -83.5 -21.5 q-43 0 -71.5 20.5 q-28.5 20.5 -34.5 55.5 l17 10 q5 -31 30 -49.5 q25 -18.5 62 -18.5 q59 0 106 50.5 q47 50.5 67 143.5 q-22 -37 -63.5 -60 q-41.5 -23 -86.5 -23 q-53 0 -85.5 32 q-32.5 32 -32.5 78 ZM179 288 q-29 0 -56 -10.5 q-27 -10.5 -48 -28 q-21 -17.5 -34 -41 q-13 -23.5 -13 -49.5 q0 -20 8 -38 q8 -18 21.5 -31 q13.5 -13 32.5 -20.5 q19 -7.5 42 -7.5 q29 0 56.5 10.5 q27.5 10.5 48.5 28.5 q21 18 34 41.5 q13 23.5 13 49.5 q0 19 -8 36.5 q-8 17.5 -22 31 q-14 13.5 -33 21 q-19 7.5 -42 7.5 Z" /><glyph glyph-name="ninesuperior" unicode="&#x2079;" d="M114 658 q0 31 14.5 58.5 q14.5 27.5 39 48.5 q24.5 21 56.5 33 q32 12 66 12 q54 0 87 -32 q33 -32 33 -89 q0 -55 -15 -104 q-15 -49 -42 -86 q-27 -37 -64.5 -58.5 q-37.5 -21.5 -83.5 -21.5 q-42 0 -71 20.5 q-29 20.5 -35 55.5 l17 10 q5 -31 30 -49.5 q25 -18.5 63 -18.5 q58 0 105 50.5 q47 50.5 67 143.5 q-22 -37 -63.5 -60 q-41.5 -23 -86.5 -23 q-52 0 -84.5 32 q-32.5 32 -32.5 78 ZM285 792 q-29 0 -56 -10.5 q-27 -10.5 -48 -28 q-21 -17.5 -34 -41 q-13 -23.5 -13 -49.5 q0 -41 29 -69 q29 -28 75 -28 q29 0 56.5 10.5 q27.5 10.5 48.5 28.5 q21 18 34 41.5 q13 23.5 13 49.5 q0 19 -8 36.5 q-8 17.5 -22 31 q-14 13.5 -33 21 q-19 7.5 -42 7.5 Z" /><glyph glyph-name="ntilde" unicode="ñ" d="M127 519 l20 0 l-28 -134 q22 31 51 57.5 q29 26.5 61.5 45 q32.5 18.5 67 29 q34.5 10.5 67.5 10.5 q56 0 83 -30.5 q27 -30.5 27 -95.5 q0 -24 -3.5 -52 q-3.5 -28 -10.5 -60 l-61 -289 l-20 0 l61 289 q13 61 13 107 q0 57 -22.5 84 q-22.5 27 -70.5 27 q-35 0 -72.5 -13.5 q-37.5 -13.5 -72 -37.5 q-34.5 -24 -63.5 -57 q-29 -33 -47 -71 l-70 -328 l-20 0 l110 519 ZM414 663 q-21 0 -35.5 6 q-14.5 6 -26.5 13 q-12 7 -23 13 q-11 6 -26 6 q-15 0 -26 -6.5 q-11 -6.5 -18 -15 q-7 -8.5 -10.5 -16.5 q-3.5 -8 -4.5 -10 l-19 0 q0 2 4.5 13 q4.5 11 14 23 q9.5 12 25.5 21.5 q16 9.5 40 9.5 q18 0 31 -6 q13 -6 24.5 -13 q11.5 -7 24.5 -13 q13 -6 31 -6 q19 0 32 7 q13 7 20.5 15.5 q7.5 8.5 10.5 16 q3 7.5 3 9.5 l19 0 q-1 -3 -5.5 -14 q-4.5 -11 -15 -23 q-10.5 -12 -27.5 -21 q-17 -9 -43 -9 Z" /><glyph glyph-name="numbersign" unicode="#" d="M623 481 l-112 0 l-106 -240 l129 0 l-4 -20 l-134 0 l-97 -221 l-21 0 l98 221 l-227 0 l-97 -221 l-21 0 l98 221 l-107 0 l4 20 l113 0 l105 240 l-129 0 l5 20 l134 0 l92 209 l21 0 l-94 -209 l227 0 l93 209 l21 0 l-94 -209 l107 0 l-4 -20 ZM385 241 l106 240 l-227 0 l-106 -240 l227 0 Z" /><glyph glyph-name="o" unicode="o" d="M215 -10 q-42 0 -76 17 q-34 17 -58.5 46.5 q-24.5 29.5 -37.5 69 q-13 39.5 -13 84.5 q0 63 26 121 q26 58 68.5 102.5 q42.5 44.5 96 70.5 q53.5 26 108.5 26 q41 0 75 -17 q34 -17 58 -47 q24 -30 37.5 -70 q13.5 -40 13.5 -85 q0 -62 -26 -119.5 q-26 -57.5 -68 -101.5 q-42 -44 -95.5 -70.5 q-53.5 -26.5 -108.5 -26.5 ZM218 10 q50 0 99.5 24.5 q49.5 24.5 88.5 65 q39 40.5 63 94 q24 53.5 24 111.5 q0 42 -12.5 78.5 q-12.5 36.5 -34.5 64 q-22 27.5 -53 43.5 q-31 16 -68 16 q-50 0 -99 -24.5 q-49 -24.5 -88 -66 q-39 -41.5 -63.5 -95.5 q-24.5 -54 -24.5 -112 q0 -41 12 -77.5 q12 -36.5 34.5 -63.5 q22.5 -27 53 -42.5 q30.5 -15.5 68.5 -15.5 Z" /><glyph glyph-name="oacute" unicode="ó" d="M215 -10 q-42 0 -76 17 q-34 17 -58.5 46.5 q-24.5 29.5 -37.5 69 q-13 39.5 -13 84.5 q0 63 26 121 q26 58 68.5 102.5 q42.5 44.5 96 70.5 q53.5 26 108.5 26 q41 0 75 -17 q34 -17 58 -47 q24 -30 37.5 -70 q13.5 -40 13.5 -85 q0 -62 -26 -119.5 q-26 -57.5 -68 -101.5 q-42 -44 -95.5 -70.5 q-53.5 -26.5 -108.5 -26.5 ZM218 10 q50 0 99.5 24.5 q49.5 24.5 88.5 65 q39 40.5 63 94 q24 53.5 24 111.5 q0 42 -12.5 78.5 q-12.5 36.5 -34.5 64 q-22 27.5 -53 43.5 q-31 16 -68 16 q-50 0 -99 -24.5 q-49 -24.5 -88 -66 q-39 -41.5 -63.5 -95.5 q-24.5 -54 -24.5 -112 q0 -41 12 -77.5 q12 -36.5 34.5 -63.5 q22.5 -27 53 -42.5 q30.5 -15.5 68.5 -15.5 ZM351 645 l-13 12 l76 73 l33 0 l-96 -85 Z" /><glyph glyph-name="obreve" unicode="&#x14f;" d="M215 -10 q-42 0 -76 17 q-34 17 -58.5 46.5 q-24.5 29.5 -37.5 69 q-13 39.5 -13 84.5 q0 63 26 121 q26 58 68.5 102.5 q42.5 44.5 96 70.5 q53.5 26 108.5 26 q41 0 75 -17 q34 -17 58 -47 q24 -30 37.5 -70 q13.5 -40 13.5 -85 q0 -62 -26 -119.5 q-26 -57.5 -68 -101.5 q-42 -44 -95.5 -70.5 q-53.5 -26.5 -108.5 -26.5 ZM218 10 q50 0 99.5 24.5 q49.5 24.5 88.5 65 q39 40.5 63 94 q24 53.5 24 111.5 q0 42 -12.5 78.5 q-12.5 36.5 -34.5 64 q-22 27.5 -53 43.5 q-31 16 -68 16 q-50 0 -99 -24.5 q-49 -24.5 -88 -66 q-39 -41.5 -63.5 -95.5 q-24.5 -54 -24.5 -112 q0 -41 12 -77.5 q12 -36.5 34.5 -63.5 q22.5 -27 53 -42.5 q30.5 -15.5 68.5 -15.5 ZM354 670 q20 0 39 17.5 q19 17.5 27 42.5 l18 0 q-3 -15 -12 -29 q-9 -14 -21 -24.5 q-12 -10.5 -26 -17 q-14 -6.5 -28 -6.5 q-25 0 -41 18 q-16 18 -16 44 q0 5 2 15 l19 0 q-1 -4 -1 -11 q0 -20 11.5 -34.5 q11.5 -14.5 28.5 -14.5 Z" /><glyph glyph-name="ocircumflex" unicode="ô" d="M215 -10 q-42 0 -76 17 q-34 17 -58.5 46.5 q-24.5 29.5 -37.5 69 q-13 39.5 -13 84.5 q0 63 26 121 q26 58 68.5 102.5 q42.5 44.5 96 70.5 q53.5 26 108.5 26 q41 0 75 -17 q34 -17 58 -47 q24 -30 37.5 -70 q13.5 -40 13.5 -85 q0 -62 -26 -119.5 q-26 -57.5 -68 -101.5 q-42 -44 -95.5 -70.5 q-53.5 -26.5 -108.5 -26.5 ZM218 10 q50 0 99.5 24.5 q49.5 24.5 88.5 65 q39 40.5 63 94 q24 53.5 24 111.5 q0 42 -12.5 78.5 q-12.5 36.5 -34.5 64 q-22 27.5 -53 43.5 q-31 16 -68 16 q-50 0 -99 -24.5 q-49 -24.5 -88 -66 q-39 -41.5 -63.5 -95.5 q-24.5 -54 -24.5 -112 q0 -41 12 -77.5 q12 -36.5 34.5 -63.5 q22.5 -27 53 -42.5 q30.5 -15.5 68.5 -15.5 ZM264 656 l104 74 l16 0 l73 -74 l-18 -12 l-68 63 l-94 -63 l-13 12 Z" /><glyph glyph-name="odieresis" unicode="ö" d="M215 -10 q-42 0 -76 17 q-34 17 -58.5 46.5 q-24.5 29.5 -37.5 69 q-13 39.5 -13 84.5 q0 63 26 121 q26 58 68.5 102.5 q42.5 44.5 96 70.5 q53.5 26 108.5 26 q41 0 75 -17 q34 -17 58 -47 q24 -30 37.5 -70 q13.5 -40 13.5 -85 q0 -62 -26 -119.5 q-26 -57.5 -68 -101.5 q-42 -44 -95.5 -70.5 q-53.5 -26.5 -108.5 -26.5 ZM218 10 q50 0 99.5 24.5 q49.5 24.5 88.5 65 q39 40.5 63 94 q24 53.5 24 111.5 q0 42 -12.5 78.5 q-12.5 36.5 -34.5 64 q-22 27.5 -53 43.5 q-31 16 -68 16 q-50 0 -99 -24.5 q-49 -24.5 -88 -66 q-39 -41.5 -63.5 -95.5 q-24.5 -54 -24.5 -112 q0 -41 12 -77.5 q12 -36.5 34.5 -63.5 q22.5 -27 53 -42.5 q30.5 -15.5 68.5 -15.5 ZM287 653 l16 77 l20 0 l-16 -77 l-20 0 ZM398 653 l16 77 l20 0 l-16 -77 l-20 0 Z" /><glyph glyph-name="oe" unicode="&#x153;" d="M213 -10 q-41 0 -75 16.5 q-34 16.5 -58 45.5 q-24 29 -37 68 q-13 39 -13 84 q0 65 26 123.5 q26 58.5 68 103 q42 44.5 96 70.5 q54 26 111 26 q39 0 71.5 -14 q32.5 -14 56.5 -39.5 q24 -25.5 37.5 -61.5 q13.5 -36 14.5 -80 q19 45 47.5 81 q28.5 36 63.5 61.5 q35 25.5 74.5 39 q39.5 13.5 81.5 13.5 q88 0 135.5 -59.5 q47.5 -59.5 47.5 -162.5 q0 -31 -2 -41.5 q-2 -10.5 -4 -15.5 l-450 0 q-3 -21 -3 -40 q0 -42 13 -78.5 q13 -36.5 37 -63 q24 -26.5 57 -41.5 q33 -15 73 -15 q30 0 59.5 8 q29.5 8 55.5 22.5 q26 14.5 48 34.5 q22 20 37 44 l18 -5 q-17 -27 -42 -50 q-25 -23 -55 -39.5 q-30 -16.5 -62.5 -25.5 q-32.5 -9 -64.5 -9 q-40 0 -74.5 14.5 q-34.5 14.5 -60.5 40.5 q-26 26 -41.5 62 q-15.5 36 -18.5 78 q-21 -44 -50.5 -80 q-29.5 -36 -65 -61.5 q-35.5 -25.5 -74.5 -39.5 q-39 -14 -78 -14 ZM218 10 q51 0 100.5 24 q49.5 24 88.5 65 q39 41 62.5 94.5 q23.5 53.5 23.5 113.5 q0 42 -12 78.5 q-12 36.5 -34 63.5 q-22 27 -53 42.5 q-31 15.5 -68 15.5 q-51 0 -100.5 -24.5 q-49.5 -24.5 -88.5 -66 q-39 -41.5 -63 -95.5 q-24 -54 -24 -114 q0 -42 12 -78 q12 -36 34 -62.5 q22 -26.5 53 -41.5 q31 -15 69 -15 ZM939 268 q2 12 3 24 q1 12 1 24 q0 42 -12 77.5 q-12 35.5 -34 60.5 q-22 25 -53.5 39 q-31.5 14 -69.5 14 q-44 0 -86 -18 q-42 -18 -77 -50 q-35 -32 -62 -76 q-27 -44 -40 -95 l430 0 Z" /><glyph glyph-name="ograve" unicode="ò" d="M215 -10 q-42 0 -76 17 q-34 17 -58.5 46.5 q-24.5 29.5 -37.5 69 q-13 39.5 -13 84.5 q0 63 26 121 q26 58 68.5 102.5 q42.5 44.5 96 70.5 q53.5 26 108.5 26 q41 0 75 -17 q34 -17 58 -47 q24 -30 37.5 -70 q13.5 -40 13.5 -85 q0 -62 -26 -119.5 q-26 -57.5 -68 -101.5 q-42 -44 -95.5 -70.5 q-53.5 -26.5 -108.5 -26.5 ZM218 10 q50 0 99.5 24.5 q49.5 24.5 88.5 65 q39 40.5 63 94 q24 53.5 24 111.5 q0 42 -12.5 78.5 q-12.5 36.5 -34.5 64 q-22 27.5 -53 43.5 q-31 16 -68 16 q-50 0 -99 -24.5 q-49 -24.5 -88 -66 q-39 -41.5 -63.5 -95.5 q-24.5 -54 -24.5 -112 q0 -41 12 -77.5 q12 -36.5 34.5 -63.5 q22.5 -27 53 -42.5 q30.5 -15.5 68.5 -15.5 ZM324 730 l32 0 l46 -73 l-18 -12 l-60 85 Z" /><glyph glyph-name="ohungarumlaut" unicode="&#x151;" d="M215 -10 q-42 0 -76 17 q-34 17 -58.5 46.5 q-24.5 29.5 -37.5 69 q-13 39.5 -13 84.5 q0 63 26 121 q26 58 68.5 102.5 q42.5 44.5 96 70.5 q53.5 26 108.5 26 q41 0 75 -17 q34 -17 58 -47 q24 -30 37.5 -70 q13.5 -40 13.5 -85 q0 -62 -26 -119.5 q-26 -57.5 -68 -101.5 q-42 -44 -95.5 -70.5 q-53.5 -26.5 -108.5 -26.5 ZM218 10 q50 0 99.5 24.5 q49.5 24.5 88.5 65 q39 40.5 63 94 q24 53.5 24 111.5 q0 42 -12.5 78.5 q-12.5 36.5 -34.5 64 q-22 27.5 -53 43.5 q-31 16 -68 16 q-50 0 -99 -24.5 q-49 -24.5 -88 -66 q-39 -41.5 -63.5 -95.5 q-24.5 -54 -24.5 -112 q0 -41 12 -77.5 q12 -36.5 34.5 -63.5 q22.5 -27 53 -42.5 q30.5 -15.5 68.5 -15.5 ZM274 645 l-13 12 l76 73 l33 0 l-96 -85 ZM370 645 l-13 12 l76 73 l33 0 l-96 -85 Z" /><glyph glyph-name="omacron" unicode="&#x14d;" d="M215 -10 q-42 0 -76 17 q-34 17 -58.5 46.5 q-24.5 29.5 -37.5 69 q-13 39.5 -13 84.5 q0 63 26 121 q26 58 68.5 102.5 q42.5 44.5 96 70.5 q53.5 26 108.5 26 q41 0 75 -17 q34 -17 58 -47 q24 -30 37.5 -70 q13.5 -40 13.5 -85 q0 -62 -26 -119.5 q-26 -57.5 -68 -101.5 q-42 -44 -95.5 -70.5 q-53.5 -26.5 -108.5 -26.5 ZM218 10 q50 0 99.5 24.5 q49.5 24.5 88.5 65 q39 40.5 63 94 q24 53.5 24 111.5 q0 42 -12.5 78.5 q-12.5 36.5 -34.5 64 q-22 27.5 -53 43.5 q-31 16 -68 16 q-50 0 -99 -24.5 q-49 -24.5 -88 -66 q-39 -41.5 -63.5 -95.5 q-24.5 -54 -24.5 -112 q0 -41 12 -77.5 q12 -36.5 34.5 -63.5 q22.5 -27 53 -42.5 q30.5 -15.5 68.5 -15.5 ZM229 686 l4 20 l266 0 l-4 -20 l-266 0 Z" /><glyph glyph-name="one" unicode="1" d="M6 20 l135 0 l110 518 q-10 -12 -31.5 -26.5 q-21.5 -14.5 -47 -28 q-25.5 -13.5 -51.5 -22.5 q-26 -9 -45 -9 l5 24 q26 0 56.5 14.5 q30.5 14.5 57 31.5 q26.5 17 44.5 32 q18 15 19 17 l20 0 l-117 -551 l121 0 l-4 -20 l-276 0 l4 20 Z" /><glyph glyph-name="oneeighth" unicode="&#x215b;" d="M21 11 l679 700 l13 -12 l-679 -700 l-13 12 ZM242 361 l-4 -19 l-172 0 l4 19 l79 0 l73 344 q-6 -6 -18.5 -14.5 q-12.5 -8.5 -27 -15.5 q-14.5 -7 -29.5 -12 q-15 -5 -27 -5 l4 19 q15 0 33 8 q18 8 33 18 q15 10 25.5 18.5 q10.5 8.5 11.5 9.5 l20 0 l-79 -370 l74 0 ZM507 -4 q-57 0 -88 28 q-31 28 -31 66 q0 22 10.5 41 q10.5 19 27 34 q16.5 15 37.5 25 q21 10 41 16 q-26 9 -43.5 27.5 q-17.5 18.5 -17.5 44.5 q0 25 13.5 44.5 q13.5 19.5 35 33 q21.5 13.5 47.5 20.5 q26 7 52 7 q21 0 40.5 -5 q19.5 -5 34.5 -15 q15 -10 24 -25 q9 -15 9 -34 q0 -18 -8.5 -33.5 q-8.5 -15.5 -22 -28 q-13.5 -12.5 -31.5 -21.5 q-18 -9 -37 -15 q33 -10 53.5 -32.5 q20.5 -22.5 20.5 -54.5 q0 -28 -14.5 -50.5 q-14.5 -22.5 -37.5 -38.5 q-23 -16 -53.5 -25 q-30.5 -9 -61.5 -9 ZM513 14 q24 0 49 7 q25 7 46 20.5 q21 13.5 34 32.5 q13 19 13 43 q0 19 -9 33.5 q-9 14.5 -24 25 q-15 10.5 -34 16 q-19 5.5 -38 5.5 q-24 0 -49 -7.5 q-25 -7.5 -46 -21.5 q-21 -14 -34 -33.5 q-13 -19.5 -13 -42.5 q0 -18 9 -32.5 q9 -14.5 24 -24.5 q15 -10 34 -15.5 q19 -5.5 38 -5.5 ZM554 214 q20 0 42 6 q22 6 40.5 17 q18.5 11 30.5 27 q12 16 12 36 q0 31 -28 48 q-28 17 -65 17 q-23 0 -45 -6 q-22 -6 -39 -17.5 q-17 -11.5 -28 -27.5 q-11 -16 -11 -35 q0 -15 8 -27.5 q8 -12.5 21 -20.5 q13 -8 29 -12.5 q16 -4.5 33 -4.5 Z" /><glyph glyph-name="onesuperior" unicode="¹" d="M250 441 l-4 -19 l-172 0 l4 19 l79 0 l73 344 q-6 -6 -18.5 -14.5 q-12.5 -8.5 -27 -15.5 q-14.5 -7 -29.5 -12 q-15 -5 -27 -5 l4 19 q15 0 33 8 q18 8 33 18 q15 10 25.5 18.5 q10.5 8.5 11.5 9.5 l20 0 l-79 -370 l74 0 Z" /><glyph glyph-name="onehalf" unicode="½" d="M7 11 l679 700 l13 -12 l-679 -700 l-13 12 ZM246 361 l-4 -19 l-172 0 l4 19 l79 0 l73 344 q-6 -6 -18.5 -14.5 q-12.5 -8.5 -27 -15.5 q-14.5 -7 -29.5 -12 q-15 -5 -27 -5 l4 19 q15 0 33 8 q18 8 33 18 q15 10 25.5 18.5 q10.5 8.5 11.5 9.5 l20 0 l-79 -370 l74 0 ZM380 0 q16 74 55.5 113 q39.5 39 98.5 60 q25 9 53 18 q28 9 51 22 q23 13 38 32.5 q15 19.5 15 49.5 q0 29 -21 51.5 q-21 22.5 -69 22.5 q-26 0 -47.5 -6.5 q-21.5 -6.5 -38.5 -15.5 q-17 -9 -29.5 -19.5 q-12.5 -10.5 -20.5 -18.5 l-12 12 q1 2 12.5 12.5 q11.5 10.5 31.5 22.5 q20 12 47.5 22 q27.5 10 62.5 10 q56 0 80.5 -26.5 q24.5 -26.5 24.5 -62.5 q0 -36 -17 -59.5 q-17 -23.5 -42.5 -38.5 q-25.5 -15 -54 -24 q-28.5 -9 -52.5 -17 q-40 -14 -65.5 -32 q-25.5 -18 -40.5 -37 q-15 -19 -21.5 -38 q-6.5 -19 -9.5 -34 l246 0 l-4 -19 l-271 0 Z" /><glyph glyph-name="twoinferior" unicode="&#x2082;" d="M-40 -80 q16 74 55.5 113 q39.5 39 98.5 60 q25 9 53 18 q28 9 51 22 q23 13 38 32.5 q15 19.5 15 49.5 q0 29 -21 51.5 q-21 22.5 -69 22.5 q-26 0 -47.5 -6.5 q-21.5 -6.5 -38.5 -15.5 q-17 -9 -29.5 -19.5 q-12.5 -10.5 -20.5 -18.5 l-12 12 q1 2 12.5 12.5 q11.5 10.5 31.5 22.5 q20 12 47.5 22 q27.5 10 62.5 10 q56 0 80.5 -26.5 q24.5 -26.5 24.5 -62.5 q0 -36 -17 -59.5 q-17 -23.5 -42.5 -38.5 q-25.5 -15 -54 -24 q-28.5 -9 -52.5 -17 q-40 -14 -65.5 -32 q-25.5 -18 -40.5 -37 q-15 -19 -21.5 -38 q-6.5 -19 -9.5 -34 l246 0 l-4 -19 l-271 0 Z" /><glyph glyph-name="oneinferior" unicode="&#x2081;" d="M144 -61 l-4 -19 l-173 0 l4 19 l79 0 l73 344 q-6 -6 -18.5 -14.5 q-12.5 -8.5 -27 -15.5 q-14.5 -7 -29.5 -12 q-15 -5 -27 -5 l4 19 q15 0 33 8 q18 8 33.5 18 q15.5 10 26 18.5 q10.5 8.5 11.5 9.5 l19 0 l-78 -370 l74 0 Z" /><glyph glyph-name="onequarter" unicode="¼" d="M30 11 l679 700 l13 -12 l-679 -700 l-13 12 ZM240 361 l-4 -19 l-172 0 l4 19 l79 0 l73 344 q-6 -6 -18.5 -14.5 q-12.5 -8.5 -27 -15.5 q-14.5 -7 -29.5 -12 q-15 -5 -27 -5 l4 19 q15 0 33 8 q18 8 33 18 q15 10 25.5 18.5 q10.5 8.5 11.5 9.5 l20 0 l-79 -370 l74 0 ZM560 110 l-221 0 l4 17 l281 256 l14 0 l-54 -254 l52 0 l-4 -19 l-52 0 l-24 -110 l-19 0 l23 110 ZM564 129 l47 219 l-241 -219 l194 0 Z" /><glyph glyph-name="onethird" unicode="&#x2153;" d="M11 11 l679 700 l13 -12 l-679 -700 l-13 12 ZM244 361 l-4 -19 l-172 0 l4 19 l79 0 l73 344 q-6 -6 -18.5 -14.5 q-12.5 -8.5 -27 -15.5 q-14.5 -7 -29.5 -12 q-15 -5 -27 -5 l4 19 q15 0 33 8 q18 8 33 18 q15 10 25.5 18.5 q10.5 8.5 11.5 9.5 l20 0 l-79 -370 l74 0 ZM509 -5 q-19 0 -40.5 5.5 q-21.5 5.5 -39.5 17 q-18 11.5 -29.5 29.5 q-11.5 18 -11.5 44 l17 7 q0 -35 28.5 -59.5 q28.5 -24.5 79.5 -24.5 q28 0 53.5 7.5 q25.5 7.5 44.5 20.5 q19 13 30.5 30.5 q11.5 17.5 11.5 38.5 q0 35 -33 55 q-33 20 -91 20 l-21 0 l4 18 l21 0 q69 0 108 23 q39 23 39 67 q0 34 -27 55 q-27 21 -72 21 q-40 0 -74 -17 q-34 -17 -51 -43 l-12 12 q20 30 58.5 48 q38.5 18 82.5 18 q53 0 84.5 -26 q31.5 -26 31.5 -65 q0 -38 -26 -64.5 q-26 -26.5 -79 -37.5 q36 -7 56.5 -29.5 q20.5 -22.5 20.5 -52.5 q0 -26 -13.5 -47.5 q-13.5 -21.5 -36 -37 q-22.5 -15.5 -52.5 -24.5 q-30 -9 -62 -9 Z" /><glyph glyph-name="threeinferior" unicode="&#x2083;" d="M98 -85 q-19 0 -40.5 4 q-21.5 4 -39.5 14.5 q-18 10.5 -29.5 29.5 q-11.5 19 -11.5 48 l17 7 q0 -39 28.5 -61.5 q28.5 -22.5 79.5 -22.5 q28 0 53.5 7.5 q25.5 7.5 44.5 20.5 q19 13 30.5 30.5 q11.5 17.5 11.5 38.5 q0 35 -33.5 55 q-33.5 20 -90.5 20 l-21 0 l4 18 l21 0 q70 0 108.5 23 q38.5 23 38.5 67 q0 34 -27 55 q-27 21 -72 21 q-40 0 -74 -17 q-34 -17 -51 -43 l-12 12 q20 30 58.5 48 q38.5 18 82.5 18 q53 0 84.5 -26 q31.5 -26 31.5 -65 q0 -38 -26 -64.5 q-26 -26.5 -79 -37.5 q36 -7 56.5 -29.5 q20.5 -22.5 20.5 -52.5 q0 -26 -13.5 -47.5 q-13.5 -21.5 -36 -37 q-22.5 -15.5 -52.5 -24.5 q-30 -9 -62 -9 Z" /><glyph glyph-name="oogonek" unicode="&#x1eb;" d="M156 -168 q-19 5 -28.5 18.5 q-9.5 13.5 -9.5 30.5 q0 26 19 50.5 q19 24.5 68 58.5 q-40 2 -72 20 q-32 18 -55 47 q-23 29 -35.5 67.5 q-12.5 38.5 -12.5 82.5 q0 63 26 121 q26 58 68.5 102.5 q42.5 44.5 96 70.5 q53.5 26 108.5 26 q41 0 75 -17 q34 -17 58 -47 q24 -30 37.5 -70 q13.5 -40 13.5 -85 q0 -59 -23.5 -114 q-23.5 -55 -62 -98.5 q-38.5 -43.5 -88.5 -71.5 q-50 -28 -102 -33 q-29 -18 -48.5 -32.5 q-19.5 -14.5 -30.5 -26.5 q-11 -12 -15.5 -23 q-4.5 -11 -4.5 -23 q0 -29 34 -37 l-16 -17 ZM218 10 q50 0 99.5 24.5 q49.5 24.5 88.5 65 q39 40.5 63 94 q24 53.5 24 111.5 q0 42 -12.5 78.5 q-12.5 36.5 -34.5 64 q-22 27.5 -53 43.5 q-31 16 -68 16 q-50 0 -99 -24.5 q-49 -24.5 -88 -66 q-39 -41.5 -63.5 -95.5 q-24.5 -54 -24.5 -112 q0 -41 12 -77.5 q12 -36.5 34.5 -63.5 q22.5 -27 53 -42.5 q30.5 -15.5 68.5 -15.5 Z" /><glyph glyph-name="ordfeminine" unicode="ª" d="M171 351 q-42 0 -67 25.5 q-25 25.5 -25 63.5 q0 27 13 49 q13 22 35.5 37.5 q22.5 15.5 52.5 24.5 q30 9 65 9 q61 0 105 -19 l7 35 q3 15 3 28 q0 37 -21.5 58.5 q-21.5 21.5 -63.5 21.5 q-51 0 -119 -41 l-8 20 q76 46 134 46 q52 0 80 -25 q28 -25 28 -73 q0 -9 -1 -18.5 q-1 -9.5 -3 -19.5 l-36 -171 q-1 -1 -1 -6 q0 -10 11 -10 l-6 -29 q-17 0 -25.5 4.5 q-8.5 4.5 -8.5 18.5 q0 5 1 7 l5 29 q-30 -31 -71 -48 q-41 -17 -84 -17 ZM182 377 q23 0 48 6 q25 6 46.5 17 q21.5 11 36.5 25.5 q15 14.5 19 31.5 l13 61 q-23 11 -48 15 q-25 4 -53 4 q-58 0 -96.5 -24.5 q-38.5 -24.5 -38.5 -67.5 q0 -29 20 -48.5 q20 -19.5 53 -19.5 Z" /><glyph glyph-name="ordmasculine" unicode="º" d="M223 351 q-30 0 -54.5 11.5 q-24.5 11.5 -42 31.5 q-17.5 20 -26.5 46.5 q-9 26.5 -9 56.5 q0 42 17.5 80 q17.5 38 46.5 67.5 q29 29.5 66.5 47 q37.5 17.5 77.5 17.5 q30 0 55 -11.5 q25 -11.5 43 -31.5 q18 -20 27.5 -47 q9.5 -27 9.5 -57 q0 -41 -18 -79.5 q-18 -38.5 -47 -67.5 q-29 -29 -67.5 -46.5 q-38.5 -17.5 -78.5 -17.5 ZM227 370 q34 0 67.5 15.5 q33.5 15.5 59.5 41.5 q26 26 42 60 q16 34 16 72 q0 27 -8.5 51 q-8.5 24 -24 41.5 q-15.5 17.5 -37 27.5 q-21.5 10 -47.5 10 q-33 0 -66 -15.5 q-33 -15.5 -59 -41.5 q-26 -26 -42 -60.5 q-16 -34.5 -16 -72.5 q0 -27 8.5 -50.5 q8.5 -23.5 23.5 -41 q15 -17.5 36 -27.5 q21 -10 47 -10 Z" /><glyph glyph-name="oslash" unicode="ø" d="M89 44 q-28 30 -43.5 72 q-15.5 42 -15.5 91 q0 63 26 121 q26 58 68.5 102.5 q42.5 44.5 96 70.5 q53.5 26 108.5 26 q32 0 60 -11 q28 -11 51 -31 l27 34 l25 0 l-38 -48 q28 -30 43.5 -72 q15.5 -42 15.5 -91 q0 -62 -26 -119.5 q-26 -57.5 -68 -101.5 q-42 -44 -95.5 -70.5 q-53.5 -26.5 -108.5 -26.5 q-33 0 -61 10.5 q-28 10.5 -51 29.5 l-24 -30 l-24 0 l34 44 ZM50 209 q0 -45 13.5 -83 q13.5 -38 39.5 -66 l323 408 q-42 39 -101 39 q-50 0 -99.5 -24.5 q-49.5 -24.5 -88.5 -66 q-39 -41.5 -63 -95.5 q-24 -54 -24 -112 ZM218 10 q50 0 99.5 24.5 q49.5 24.5 88.5 65 q39 40.5 63 94 q24 53.5 24 111.5 q0 45 -14 83 q-14 38 -39 66 l-324 -407 q21 -17 46.5 -27 q25.5 -10 55.5 -10 Z" /><glyph glyph-name="oslashacute" unicode="&#x1ff;" d="M351 645 l-13 12 l76 73 l33 0 l-96 -85 ZM89 44 q-28 30 -43.5 72 q-15.5 42 -15.5 91 q0 63 26 121 q26 58 68.5 102.5 q42.5 44.5 96 70.5 q53.5 26 108.5 26 q32 0 60 -11 q28 -11 51 -31 l27 34 l25 0 l-38 -48 q28 -30 43.5 -72 q15.5 -42 15.5 -91 q0 -62 -26 -119.5 q-26 -57.5 -68 -101.5 q-42 -44 -95.5 -70.5 q-53.5 -26.5 -108.5 -26.5 q-33 0 -61 10.5 q-28 10.5 -51 29.5 l-24 -30 l-24 0 l34 44 ZM50 209 q0 -45 13.5 -83 q13.5 -38 39.5 -66 l323 408 q-42 39 -101 39 q-50 0 -99.5 -24.5 q-49.5 -24.5 -88.5 -66 q-39 -41.5 -63 -95.5 q-24 -54 -24 -112 ZM218 10 q50 0 99.5 24.5 q49.5 24.5 88.5 65 q39 40.5 63 94 q24 53.5 24 111.5 q0 45 -14 83 q-14 38 -39 66 l-324 -407 q21 -17 46.5 -27 q25.5 -10 55.5 -10 Z" /><glyph glyph-name="otilde" unicode="õ" d="M215 -10 q-42 0 -76 17 q-34 17 -58.5 46.5 q-24.5 29.5 -37.5 69 q-13 39.5 -13 84.5 q0 63 26 121 q26 58 68.5 102.5 q42.5 44.5 96 70.5 q53.5 26 108.5 26 q41 0 75 -17 q34 -17 58 -47 q24 -30 37.5 -70 q13.5 -40 13.5 -85 q0 -62 -26 -119.5 q-26 -57.5 -68 -101.5 q-42 -44 -95.5 -70.5 q-53.5 -26.5 -108.5 -26.5 ZM218 10 q50 0 99.5 24.5 q49.5 24.5 88.5 65 q39 40.5 63 94 q24 53.5 24 111.5 q0 42 -12.5 78.5 q-12.5 36.5 -34.5 64 q-22 27.5 -53 43.5 q-31 16 -68 16 q-50 0 -99 -24.5 q-49 -24.5 -88 -66 q-39 -41.5 -63.5 -95.5 q-24.5 -54 -24.5 -112 q0 -41 12 -77.5 q12 -36.5 34.5 -63.5 q22.5 -27 53 -42.5 q30.5 -15.5 68.5 -15.5 ZM412 663 q-21 0 -35.5 6 q-14.5 6 -26.5 13 q-12 7 -23 13 q-11 6 -26 6 q-15 0 -26 -6.5 q-11 -6.5 -18 -15 q-7 -8.5 -10.5 -16.5 q-3.5 -8 -4.5 -10 l-19 0 q0 2 4.5 13 q4.5 11 14 23 q9.5 12 25.5 21.5 q16 9.5 40 9.5 q18 0 31 -6 q13 -6 24.5 -13 q11.5 -7 24.5 -13 q13 -6 31 -6 q19 0 32 7 q13 7 20.5 15.5 q7.5 8.5 10.5 16 q3 7.5 3 9.5 l19 0 q-1 -3 -5.5 -14 q-4.5 -11 -15 -23 q-10.5 -12 -27.5 -21 q-17 -9 -43 -9 Z" /><glyph glyph-name="p" unicode="p" d="M128 519 l19 0 l-23 -110 q21 26 47 47.5 q26 21.5 54.5 37.5 q28.5 16 58.5 24.5 q30 8.5 58 8.5 q44 0 78.5 -18.5 q34.5 -18.5 58.5 -49.5 q24 -31 36.5 -71 q12.5 -40 12.5 -82 q0 -59 -23 -115.5 q-23 -56.5 -63 -101 q-40 -44.5 -93 -72 q-53 -27.5 -113 -27.5 q-33 0 -60 10.5 q-27 10.5 -49 28 q-22 17.5 -38 41 q-16 23.5 -26 49.5 l-71 -332 l-20 0 l156 732 ZM240 10 q55 0 104 26.5 q49 26.5 85.5 68.5 q36.5 42 57.5 94.5 q21 52.5 21 104.5 q0 40 -12 77 q-12 37 -34.5 65 q-22.5 28 -54 44.5 q-31.5 16.5 -70.5 16.5 q-29 0 -64.5 -13 q-35.5 -13 -68.5 -35 q-33 -22 -58.5 -51 q-25.5 -29 -34.5 -60 l-40 -187 q7 -32 22 -59.5 q15 -27.5 36.5 -47.5 q21.5 -20 49.5 -32 q28 -12 61 -12 Z" /><glyph glyph-name="paragraph" unicode="¶" d="M64 433 q0 62 23 113 q23 51 65 87.5 q42 36.5 101.5 56.5 q59.5 20 133.5 20 l192 0 l-5 -20 l-66 0 l-164 -770 l-20 0 l70 328 l-86 0 l-70 -328 l-20 0 l70 328 q-108 2 -166 50.5 q-58 48.5 -58 134.5 ZM84 438 q0 -44 16.5 -75 q16.5 -31 44.5 -51.5 q28 -20.5 66 -31 q38 -10.5 81 -12.5 l90 422 q-71 0 -126.5 -18.5 q-55.5 -18.5 -93.5 -51.5 q-38 -33 -58 -79.5 q-20 -46.5 -20 -102.5 ZM488 690 l-86 0 l-90 -422 l86 0 l90 422 Z" /><glyph glyph-name="parenleft" unicode="(" d="M49 256 q0 67 17.5 127.5 q17.5 60.5 47.5 117.5 q30 57 69.5 112.5 q39.5 55.5 84.5 112.5 l13 -12 q-35 -41 -72.5 -94.5 q-37.5 -53.5 -68.5 -112.5 q-31 -59 -51 -121.5 q-20 -62.5 -20 -121.5 q0 -31 3.5 -66.5 q3.5 -35.5 10.5 -72 q7 -36.5 18 -72.5 q11 -36 25 -67 l-18 -12 q-29 66 -44 141 q-15 75 -15 141 Z" /><glyph glyph-name="parenright" unicode=")" d="M198 433 q0 -118 -57 -228.5 q-57 -110.5 -160 -230.5 l-13 12 q47 53 85.5 108 q38.5 55 66 110.5 q27.5 55.5 42.5 111 q15 55.5 15 108.5 q0 37 -4 77 q-4 40 -11.5 78.5 q-7.5 38.5 -17.5 73.5 q-10 35 -21 61 l18 12 q24 -67 40.5 -142.5 q16.5 -75.5 16.5 -150.5 Z" /><glyph glyph-name="percent" unicode="%" d="M210 444 q-48 0 -76.5 32.5 q-28.5 32.5 -28.5 80.5 q0 33 14 62.5 q14 29.5 37 52 q23 22.5 52.5 35.5 q29.5 13 60.5 13 q47 0 76 -32.5 q29 -32.5 29 -80.5 q0 -33 -14 -62.5 q-14 -29.5 -37 -52 q-23 -22.5 -52.5 -35.5 q-29.5 -13 -60.5 -13 ZM214 464 q27 0 52 11.5 q25 11.5 44.5 31 q19.5 19.5 31.5 44.5 q12 25 12 52 q0 41 -26 69 q-26 28 -64 28 q-27 0 -52 -11.5 q-25 -11.5 -44.5 -31 q-19.5 -19.5 -31 -44.5 q-11.5 -25 -11.5 -52 q0 -42 25 -69.5 q25 -27.5 64 -27.5 ZM398 -10 q-47 0 -76 32.5 q-29 32.5 -29 80.5 q0 33 14 62.5 q14 29.5 37 52 q23 22.5 52.5 35.5 q29.5 13 60.5 13 q47 0 76 -32.5 q29 -32.5 29 -80.5 q0 -33 -14 -62.5 q-14 -29.5 -37 -52 q-23 -22.5 -52.5 -35.5 q-29.5 -13 -60.5 -13 ZM402 10 q27 0 52 11.5 q25 11.5 44.5 31 q19.5 19.5 31.5 44 q12 24.5 12 51.5 q0 41 -25.5 69.5 q-25.5 28.5 -63.5 28.5 q-27 0 -52 -12 q-25 -12 -44.5 -31.5 q-19.5 -19.5 -31.5 -44.5 q-12 -25 -12 -52 q0 -41 24.5 -68.5 q24.5 -27.5 64.5 -27.5 ZM-13 11 l679 700 l13 -12 l-679 -700 l-13 12 Z" /><glyph glyph-name="period" unicode="." d="M8 0 l14 64 l19 0 l-13 -64 l-20 0 Z" /><glyph glyph-name="perthousand" unicode="&#x2030;" d="M218 444 q-49 0 -78 32 q-29 32 -29 80 q0 33 14 62.5 q14 29.5 37 52 q23 22.5 52 36 q29 13.5 59 13.5 q49 0 78 -32 q29 -32 29 -80 q0 -33 -14 -63 q-14 -30 -37 -52.5 q-23 -22.5 -52 -35.5 q-29 -13 -59 -13 ZM222 464 q26 0 50.5 11.5 q24.5 11.5 44 31 q19.5 19.5 31.5 45 q12 25.5 12 52.5 q0 41 -26 68.5 q-26 27.5 -66 27.5 q-26 0 -50.5 -12 q-24.5 -12 -43.5 -31.5 q-19 -19.5 -31 -45 q-12 -25.5 -12 -52.5 q0 -40 25 -67.5 q25 -27.5 66 -27.5 ZM406 -10 q-49 0 -78 32 q-29 32 -29 80 q0 33 14 62.5 q14 29.5 37 52 q23 22.5 52 36 q29 13.5 59 13.5 q49 0 78 -32.5 q29 -32.5 29 -80.5 q0 -33 -14 -62.5 q-14 -29.5 -37 -52 q-23 -22.5 -52 -35.5 q-29 -13 -59 -13 ZM410 10 q26 0 50.5 11.5 q24.5 11.5 44 31 q19.5 19.5 31.5 45 q12 25.5 12 52.5 q0 40 -25 68 q-25 28 -66 28 q-26 0 -50.5 -12 q-24.5 -12 -44 -31.5 q-19.5 -19.5 -31.5 -45 q-12 -25.5 -12 -52.5 q0 -40 24.5 -67.5 q24.5 -27.5 66.5 -27.5 ZM721 -10 q-48 0 -77.5 32 q-29.5 32 -29.5 80 q0 33 14 62.5 q14 29.5 37 52 q23 22.5 52 36 q29 13.5 59 13.5 q49 0 78 -32.5 q29 -32.5 29 -80.5 q0 -33 -14 -62.5 q-14 -29.5 -37 -52 q-23 -22.5 -52 -35.5 q-29 -13 -59 -13 ZM725 10 q26 0 50.5 11.5 q24.5 11.5 44 31 q19.5 19.5 31.5 44.5 q12 25 12 52 q0 41 -25.5 69 q-25.5 28 -66.5 28 q-26 0 -50.5 -12 q-24.5 -12 -43.5 -31.5 q-19 -19.5 -31 -45 q-12 -25.5 -12 -52.5 q0 -40 24.5 -67.5 q24.5 -27.5 66.5 -27.5 ZM-7 11 l679 700 l13 -12 l-679 -700 l-13 12 Z" /><glyph glyph-name="plus" unicode="+" d="M365 365 l0 -20 l-140 0 l0 -150 l-20 0 l0 150 l-140 0 l0 20 l140 0 l0 150 l20 0 l0 -150 l140 0 Z" /><glyph glyph-name="plusminus" unicode="±" d="M77 85 l0 20 l300 0 l0 -20 l-300 0 ZM377 365 l0 -20 l-140 0 l0 -150 l-20 0 l0 150 l-140 0 l0 20 l140 0 l0 150 l20 0 l0 -150 l140 0 Z" /><glyph glyph-name="q" unicode="q" d="M208 -10 q-44 0 -77.5 18 q-33.5 18 -56 47.5 q-22.5 29.5 -34 68.5 q-11.5 39 -11.5 81 q0 62 26 120 q26 58 68.5 103 q42.5 45 96.5 72 q54 27 111 27 q28 0 54.5 -9 q26.5 -9 48.5 -25 q22 -16 38.5 -37.5 q16.5 -21.5 25.5 -46.5 l23 110 l20 0 l-147 -692 q-1 -1 -1 -7 q0 -13 12 -13 l-4 -20 q-28 0 -28 31 q0 8 1 9 l62 292 q-55 -63 -112.5 -96 q-57.5 -33 -115.5 -33 ZM212 10 q34 0 67.5 12.5 q33.5 12.5 63.5 33.5 q30 21 56 48 q26 27 46 57 l43 197 q-5 30 -18 57.5 q-13 27.5 -33.5 47.5 q-20.5 20 -48 32 q-27.5 12 -61.5 12 q-55 0 -105 -26.5 q-50 -26.5 -88.5 -69 q-38.5 -42.5 -61.5 -96 q-23 -53.5 -23 -107.5 q0 -40 11 -76 q11 -36 32 -63 q21 -27 51.5 -43 q30.5 -16 68.5 -16 Z" /><glyph glyph-name="question" unicode="?" d="M142 179 q10 48 23 79.5 q13 31.5 28 52.5 q15 21 32.5 33.5 q17.5 12.5 37.5 21.5 q30 15 61.5 28.5 q31.5 13.5 58 34.5 q26.5 21 43.5 54.5 q17 33.5 17 88.5 q0 33 -10.5 56.5 q-10.5 23.5 -27.5 39.5 q-17 16 -40.5 23.5 q-23.5 7.5 -48.5 7.5 q-57 0 -113.5 -31.5 q-56.5 -31.5 -92.5 -85.5 l-16 8 q20 31 46.5 55 q26.5 24 56.5 40.5 q30 16.5 61 25 q31 8.5 61 8.5 q30 0 56 -9.5 q26 -9.5 45.5 -28 q19.5 -18.5 31 -46 q11.5 -27.5 11.5 -63.5 q0 -58 -18 -94 q-18 -36 -46 -59 q-28 -23 -62.5 -39 q-34.5 -16 -68.5 -33 q-17 -9 -32.5 -19.5 q-15.5 -10.5 -28.5 -29 q-13 -18.5 -24.5 -47 q-11.5 -28.5 -20.5 -72.5 l-20 0 ZM104 0 l18 84 l20 0 l-18 -84 l-20 0 Z" /><glyph glyph-name="questiondown" unicode="¿" d="M284 327 q-10 -48 -23 -79.5 q-13 -31.5 -28 -52.5 q-15 -21 -33 -33.5 q-18 -12.5 -37 -21.5 q-30 -15 -61.5 -28.5 q-31.5 -13.5 -58 -34.5 q-26.5 -21 -43.5 -54.5 q-17 -33.5 -17 -88.5 q0 -33 10.5 -56.5 q10.5 -23.5 27.5 -39.5 q17 -16 40 -23.5 q23 -7.5 49 -7.5 q57 0 113.5 31.5 q56.5 31.5 92.5 85.5 l16 -8 q-20 -31 -46.5 -55 q-26.5 -24 -56.5 -40.5 q-30 -16.5 -61 -25 q-31 -8.5 -61 -8.5 q-30 0 -56 9.5 q-26 9.5 -45.5 28 q-19.5 18.5 -31 46 q-11.5 27.5 -11.5 63.5 q0 58 18 94 q18 36 46 59 q28 23 62.5 39 q34.5 16 68.5 33 q17 9 32.5 19.5 q15.5 10.5 28.5 29 q13 18.5 24.5 47 q11.5 28.5 20.5 72.5 l20 0 ZM322 506 l-18 -84 l-20 0 l18 84 l20 0 Z" /><glyph glyph-name="quotedbl" unicode="&quot;" d="M127 570 l30 140 l20 0 l-30 -140 l-20 0 ZM175 570 l30 140 l20 0 l-30 -140 l-20 0 Z" /><glyph glyph-name="quotedblbase" unicode="&#x201e;" d="M33 -76 l26 76 l-9 0 l16 74 l25 0 l-16 -74 l-28 -76 l-14 0 ZM101 -76 l25 76 l-9 0 l16 74 l26 0 l-16 -74 l-29 -76 l-13 0 Z" /><glyph glyph-name="quotesinglbase" unicode="&#x201a;" d="M33 -76 l26 76 l-9 0 l16 74 l25 0 l-16 -74 l-28 -76 l-14 0 Z" /><glyph glyph-name="quotedblleft" unicode="&#x201c;" d="M183 730 l-28 -86 l9 0 l-15 -74 l-26 0 l16 74 l31 86 l13 0 ZM259 730 l-28 -86 l9 0 l-15 -74 l-26 0 l16 74 l31 86 l13 0 Z" /><glyph glyph-name="quoteleft" unicode="&#x2018;" d="M183 730 l-28 -86 l9 0 l-15 -74 l-26 0 l16 74 l31 86 l13 0 Z" /><glyph glyph-name="quotedblright" unicode="&#x201d;" d="M124 570 l28 86 l-9 0 l15 74 l26 0 l-16 -74 l-31 -86 l-13 0 ZM200 570 l28 86 l-9 0 l15 74 l26 0 l-16 -74 l-31 -86 l-13 0 Z" /><glyph glyph-name="quoteright" unicode="&#x2019;" d="M124 570 l28 86 l-9 0 l15 74 l26 0 l-16 -74 l-31 -86 l-13 0 Z" /><glyph glyph-name="quotesingle" unicode="&#39;" d="M127 569 l30 141 l20 0 l-30 -141 l-20 0 Z" /><glyph glyph-name="r" unicode="r" d="M127 519 l20 0 l-28 -134 q41 61 94 94.5 q53 33.5 107 38.5 q5 1 9.5 1 q4.5 0 9.5 0 l-4 -20 q-71 -3 -131.5 -48 q-60.5 -45 -96.5 -123 l-70 -328 l-20 0 l110 519 Z" /><glyph glyph-name="racute" unicode="&#x155;" d="M127 519 l20 0 l-28 -134 q41 61 94 94.5 q53 33.5 107 38.5 q5 1 9.5 1 q4.5 0 9.5 0 l-4 -20 q-71 -3 -131.5 -48 q-60.5 -45 -96.5 -123 l-70 -328 l-20 0 l110 519 ZM223 645 l-13 12 l76 73 l33 0 l-96 -85 Z" /><glyph glyph-name="rcaron" unicode="&#x159;" d="M127 519 l20 0 l-28 -134 q41 61 94 94.5 q53 33.5 107 38.5 q5 1 9.5 1 q4.5 0 9.5 0 l-4 -20 q-71 -3 -131.5 -48 q-60.5 -45 -96.5 -123 l-70 -328 l-20 0 l110 519 ZM159 718 l18 12 l68 -63 l94 63 l13 -12 l-104 -74 l-16 0 l-73 74 Z" /><glyph glyph-name="rcommaaccent" unicode="&#x157;" d="M127 519 l20 0 l-28 -134 q41 61 94 94.5 q53 33.5 107 38.5 q5 1 9.5 1 q4.5 0 9.5 0 l-4 -20 q-71 -3 -131.5 -48 q-60.5 -45 -96.5 -123 l-70 -328 l-20 0 l110 519 ZM-25 -167 l22 58 l-9 0 l13 59 l25 0 l-12 -59 l-25 -58 l-14 0 Z" /><glyph glyph-name="registered" unicode="®" d="M429 -7 q-78 0 -144 27.5 q-66 27.5 -114 76 q-48 48.5 -75.5 114.5 q-27.5 66 -27.5 144 q0 77 27.5 143 q27.5 66 75.5 114 q48 48 114 75.5 q66 27.5 144 27.5 q78 0 144 -27.5 q66 -27.5 114 -75.5 q48 -48 75.5 -114 q27.5 -66 27.5 -143 q0 -78 -27.5 -144 q-27.5 -66 -75.5 -114.5 q-48 -48.5 -114 -76 q-66 -27.5 -144 -27.5 ZM429 13 q72 0 134 24.5 q62 24.5 108 69.5 q46 45 72 108 q26 63 26 140 q0 73 -25.5 135 q-25.5 62 -71 107.5 q-45.5 45.5 -108 71.5 q-62.5 26 -135.5 26 q-73 0 -135.5 -26 q-62.5 -26 -108 -71.5 q-45.5 -45.5 -71 -107.5 q-25.5 -62 -25.5 -135 q0 -74 25.5 -136.5 q25.5 -62.5 71 -108 q45.5 -45.5 107.5 -71.5 q62 -26 136 -26 ZM284 583 l188 0 q28 0 52 -12 q24 -12 41.5 -32 q17.5 -20 27 -45 q9.5 -25 9.5 -51 q0 -27 -8.5 -51.5 q-8.5 -24.5 -24 -43.5 q-15.5 -19 -37.5 -31 q-22 -12 -48 -14 l117 -182 l-24 0 l-116 182 l-156 0 l0 -182 l-21 0 l0 462 ZM477 323 q26 0 45.5 9.5 q19.5 9.5 33 26 q13.5 16.5 20 38.5 q6.5 22 6.5 46 q0 24 -8 46 q-8 22 -22.5 38 q-14.5 16 -35 25.5 q-20.5 9.5 -44.5 9.5 l-167 0 l0 -239 l172 0 Z" /><glyph glyph-name="s" unicode="s" d="M159 -10 q-57 0 -100 20.5 q-43 20.5 -71 63.5 l17 13 q30 -39 67.5 -58 q37.5 -19 90.5 -19 q41 0 76 10.5 q35 10.5 61 29 q26 18.5 41 45.5 q15 27 15 60 q0 22 -10 37.5 q-10 15.5 -29 26.5 q-19 11 -46.5 20 q-27.5 9 -62.5 18 q-33 8 -58 16 q-25 8 -42.5 18.5 q-17.5 10.5 -26.5 26 q-9 15.5 -9 38.5 q0 43 17.5 75.5 q17.5 32.5 47 53.5 q29.5 21 67 31.5 q37.5 10.5 77.5 10.5 q60 0 97.5 -21.5 q37.5 -21.5 47.5 -53.5 l-19 -8 q-11 31 -49 47 q-38 16 -85 16 q-35 0 -67.5 -8.5 q-32.5 -8.5 -57.5 -26.5 q-25 -18 -40 -45.5 q-15 -27.5 -15 -64.5 q0 -19 7.5 -32 q7.5 -13 22.5 -22 q15 -9 37.5 -16 q22.5 -7 52.5 -15 q37 -10 67.5 -19 q30.5 -9 52 -22 q21.5 -13 33 -30.5 q11.5 -17.5 11.5 -43.5 q0 -38 -16.5 -69.5 q-16.5 -31.5 -45.5 -54.5 q-29 -23 -69 -35.5 q-40 -12.5 -87 -12.5 Z" /><glyph glyph-name="s_t" unicode="&#xfb06;" d="M167 -10 q-62 0 -103.5 24 q-41.5 24 -66.5 58 l17 13 q61 -75 159 -75 q31 0 65 8 q34 8 62.5 25 q28.5 17 47.5 44 q19 27 19 66 q0 30 -12 47.5 q-12 17.5 -33 27.5 q-21 10 -49 14 q-28 4 -59 7 q-29 3 -56 7 q-27 4 -47.5 15 q-20.5 11 -32.5 32 q-12 21 -12 57 q0 47 20 79 q20 32 51 51.5 q31 19.5 68.5 28 q37.5 8.5 72.5 8.5 q70 0 108 -30 q-5 24 -9.5 45 q-4.5 21 -4.5 47 q0 27 7.5 56 q7.5 29 27 53 q19.5 24 52 39.5 q32.5 15.5 83.5 15.5 q55 0 75.5 -20.5 q20.5 -20.5 20.5 -63.5 q0 -29 -6.5 -65.5 q-6.5 -36.5 -16.5 -84.5 l118 0 l-4 -20 l-119 0 l-90 -424 q-1 -4 -1 -6.5 q0 -2.5 0 -4.5 q0 -26 16.5 -37.5 q16.5 -11.5 40.5 -11.5 q15 0 29.5 3.5 q14.5 3.5 26 8 q11.5 4.5 19 8.5 q7.5 4 8.5 5 l7 -16 q-1 -1 -9 -5.5 q-8 -4.5 -21.5 -10 q-13.5 -5.5 -30 -9.5 q-16.5 -4 -33.5 -4 q-33 0 -53.5 17 q-20.5 17 -20.5 44 q0 9 2 19 l90 424 l-71 0 l5 20 l71 0 q11 49 16.5 84.5 q5.5 35.5 5.5 59.5 q0 42 -18 56 q-18 14 -60 14 q-47 0 -76 -13.5 q-29 -13.5 -45 -34.5 q-16 -21 -21.5 -47.5 q-5.5 -26.5 -5.5 -52.5 q0 -48 10.5 -82 q10.5 -34 15.5 -51 l-20 -8 q-8 19 -21 31.5 q-13 12.5 -29.5 19.5 q-16.5 7 -35.5 9.5 q-19 2.5 -37 2.5 q-33 0 -66.5 -7.5 q-33.5 -7.5 -60 -24 q-26.5 -16.5 -43.5 -43.5 q-17 -27 -17 -65 q0 -32 11.5 -50.5 q11.5 -18.5 30.5 -28.5 q19 -10 43.5 -14 q24.5 -4 49.5 -6 q27 -2 56.5 -6 q29.5 -4 53.5 -15.5 q24 -11.5 40 -33.5 q16 -22 16 -59 q0 -44 -21.5 -75 q-21.5 -31 -54 -51 q-32.5 -20 -71.5 -29 q-39 -9 -74 -9 Z" /><glyph glyph-name="sacute" unicode="&#x15b;" d="M159 -10 q-57 0 -100 20.5 q-43 20.5 -71 63.5 l17 13 q30 -39 67.5 -58 q37.5 -19 90.5 -19 q41 0 76 10.5 q35 10.5 61 29 q26 18.5 41 45.5 q15 27 15 60 q0 22 -10 37.5 q-10 15.5 -29 26.5 q-19 11 -46.5 20 q-27.5 9 -62.5 18 q-33 8 -58 16 q-25 8 -42.5 18.5 q-17.5 10.5 -26.5 26 q-9 15.5 -9 38.5 q0 43 17.5 75.5 q17.5 32.5 47 53.5 q29.5 21 67 31.5 q37.5 10.5 77.5 10.5 q60 0 97.5 -21.5 q37.5 -21.5 47.5 -53.5 l-19 -8 q-11 31 -49 47 q-38 16 -85 16 q-35 0 -67.5 -8.5 q-32.5 -8.5 -57.5 -26.5 q-25 -18 -40 -45.5 q-15 -27.5 -15 -64.5 q0 -19 7.5 -32 q7.5 -13 22.5 -22 q15 -9 37.5 -16 q22.5 -7 52.5 -15 q37 -10 67.5 -19 q30.5 -9 52 -22 q21.5 -13 33 -30.5 q11.5 -17.5 11.5 -43.5 q0 -38 -16.5 -69.5 q-16.5 -31.5 -45.5 -54.5 q-29 -23 -69 -35.5 q-40 -12.5 -87 -12.5 ZM291 645 l-13 12 l76 73 l33 0 l-96 -85 Z" /><glyph glyph-name="scaron" unicode="&#x161;" d="M159 -10 q-57 0 -100 20.5 q-43 20.5 -71 63.5 l17 13 q30 -39 67.5 -58 q37.5 -19 90.5 -19 q41 0 76 10.5 q35 10.5 61 29 q26 18.5 41 45.5 q15 27 15 60 q0 22 -10 37.5 q-10 15.5 -29 26.5 q-19 11 -46.5 20 q-27.5 9 -62.5 18 q-33 8 -58 16 q-25 8 -42.5 18.5 q-17.5 10.5 -26.5 26 q-9 15.5 -9 38.5 q0 43 17.5 75.5 q17.5 32.5 47 53.5 q29.5 21 67 31.5 q37.5 10.5 77.5 10.5 q60 0 97.5 -21.5 q37.5 -21.5 47.5 -53.5 l-19 -8 q-11 31 -49 47 q-38 16 -85 16 q-35 0 -67.5 -8.5 q-32.5 -8.5 -57.5 -26.5 q-25 -18 -40 -45.5 q-15 -27.5 -15 -64.5 q0 -19 7.5 -32 q7.5 -13 22.5 -22 q15 -9 37.5 -16 q22.5 -7 52.5 -15 q37 -10 67.5 -19 q30.5 -9 52 -22 q21.5 -13 33 -30.5 q11.5 -17.5 11.5 -43.5 q0 -38 -16.5 -69.5 q-16.5 -31.5 -45.5 -54.5 q-29 -23 -69 -35.5 q-40 -12.5 -87 -12.5 ZM219 718 l18 12 l68 -63 l94 63 l13 -12 l-104 -74 l-16 0 l-73 74 Z" /><glyph glyph-name="schwa" unicode="&#x259;" d="M203 -10 q-42 0 -76.5 15.5 q-34.5 15.5 -59 43 q-24.5 27.5 -38 65 q-13.5 37.5 -13.5 81.5 q0 17 1.5 37 q1.5 20 7.5 37 l451 0 q3 21 3 42 q0 42 -12.5 78 q-12.5 36 -35 62.5 q-22.5 26.5 -54 41 q-31.5 14.5 -69.5 14.5 q-29 0 -58 -8 q-29 -8 -55.5 -22.5 q-26.5 -14.5 -49 -34.5 q-22.5 -20 -37.5 -44 l-17 5 q15 27 39.5 49.5 q24.5 22.5 54.5 39 q30 16.5 63 26 q33 9.5 65 9.5 q42 0 76 -17 q34 -17 58.5 -47 q24.5 -30 38 -70.5 q13.5 -40.5 13.5 -86.5 q0 -63 -25.5 -120.5 q-25.5 -57.5 -67 -101 q-41.5 -43.5 -94.5 -69 q-53 -25.5 -109 -25.5 ZM207 10 q43 0 85 18 q42 18 77.5 50 q35.5 32 62 76 q26.5 44 39.5 95 l-429 0 q-4 -23 -4 -48 q0 -43 12 -78 q12 -35 34 -60 q22 -25 53 -39 q31 -14 70 -14 Z" /><glyph glyph-name="scircumflex" unicode="&#x15d;" d="M159 -10 q-57 0 -100 20.5 q-43 20.5 -71 63.5 l17 13 q30 -39 67.5 -58 q37.5 -19 90.5 -19 q41 0 76 10.5 q35 10.5 61 29 q26 18.5 41 45.5 q15 27 15 60 q0 22 -10 37.5 q-10 15.5 -29 26.5 q-19 11 -46.5 20 q-27.5 9 -62.5 18 q-33 8 -58 16 q-25 8 -42.5 18.5 q-17.5 10.5 -26.5 26 q-9 15.5 -9 38.5 q0 43 17.5 75.5 q17.5 32.5 47 53.5 q29.5 21 67 31.5 q37.5 10.5 77.5 10.5 q60 0 97.5 -21.5 q37.5 -21.5 47.5 -53.5 l-19 -8 q-11 31 -49 47 q-38 16 -85 16 q-35 0 -67.5 -8.5 q-32.5 -8.5 -57.5 -26.5 q-25 -18 -40 -45.5 q-15 -27.5 -15 -64.5 q0 -19 7.5 -32 q7.5 -13 22.5 -22 q15 -9 37.5 -16 q22.5 -7 52.5 -15 q37 -10 67.5 -19 q30.5 -9 52 -22 q21.5 -13 33 -30.5 q11.5 -17.5 11.5 -43.5 q0 -38 -16.5 -69.5 q-16.5 -31.5 -45.5 -54.5 q-29 -23 -69 -35.5 q-40 -12.5 -87 -12.5 ZM216 656 l104 74 l16 0 l73 -74 l-18 -12 l-68 63 l-94 -63 l-13 12 Z" /><glyph glyph-name="section" unicode="§" d="M346 181 q33 -23 33 -75 q0 -47 -21 -83.5 q-21 -36.5 -53.5 -61 q-32.5 -24.5 -70.5 -37 q-38 -12.5 -72 -12.5 q-61 0 -98 24 q-37 24 -62 58 l18 13 q30 -38 64.5 -56.5 q34.5 -18.5 82.5 -18.5 q31 0 64.5 11.5 q33.5 11.5 61.5 33 q28 21.5 46 52.5 q18 31 18 70 q0 28 -11.5 45.5 q-11.5 17.5 -30 27.5 q-18.5 10 -41.5 13.5 q-23 3.5 -47 4.5 q-31 1 -58 8 q-27 7 -47.5 22 q-20.5 15 -32 37.5 q-11.5 22.5 -11.5 54.5 q0 36 17 69.5 q17 33.5 38 53.5 q-17 12 -26 36.5 q-9 24.5 -9 53.5 q0 46 21 81.5 q21 35.5 52.5 59.5 q31.5 24 69 36.5 q37.5 12.5 70.5 12.5 q31 0 54.5 -5 q23.5 -5 40 -14.5 q16.5 -9.5 28 -23.5 q11.5 -14 19.5 -32 l-20 -8 q-5 19 -18.5 31.5 q-13.5 12.5 -31.5 19.5 q-18 7 -38 9.5 q-20 2.5 -38 2.5 q-31 0 -64 -11.5 q-33 -11.5 -60.5 -33 q-27.5 -21.5 -45.5 -52.5 q-18 -31 -18 -70 q0 -56 37 -79 q37 -23 96 -23 q30 0 57.5 -6.5 q27.5 -6.5 48.5 -21 q21 -14.5 34 -37 q13 -22.5 13 -54.5 q0 -36 -17 -70.5 q-17 -34.5 -42 -55.5 ZM98 312 q0 -32 12.5 -51 q12.5 -19 32 -30 q19.5 -11 45 -16 q25.5 -5 51 -8 q25.5 -3 49 -6 q23.5 -3 40.5 -11 q24 18 40.5 49.5 q16.5 31.5 16.5 63.5 q0 29 -12.5 49 q-12.5 20 -32.5 32 q-20 12 -44 17 q-24 5 -48 5 q-28 0 -53 4.5 q-25 4.5 -45 14.5 q-21 -17 -36.5 -47.5 q-15.5 -30.5 -15.5 -65.5 Z" /><glyph glyph-name="semicolon" unicode=";" d="M102 453 l14 64 l20 0 l-14 -64 l-20 0 ZM-14 -81 l25 71 l-9 0 l16 74 l25 0 l-16 -74 l-27 -71 l-14 0 Z" /><glyph glyph-name="seven" unicode="7" d="M503 563 l-404 0 l4 20 l438 0 l-497 -710 l-23 0 l482 690 Z" /><glyph glyph-name="seveneighths" unicode="&#x215e;" d="M-17 11 l679 700 l13 -12 l-679 -700 l-13 12 ZM509 -4 q-57 0 -88 28 q-31 28 -31 66 q0 22 10.5 41 q10.5 19 27 34 q16.5 15 37.5 25 q21 10 41 16 q-26 9 -43.5 27.5 q-17.5 18.5 -17.5 44.5 q0 25 13.5 44.5 q13.5 19.5 35 33 q21.5 13.5 47.5 20.5 q26 7 52 7 q21 0 40.5 -5 q19.5 -5 34.5 -15 q15 -10 24 -25 q9 -15 9 -34 q0 -18 -8.5 -33.5 q-8.5 -15.5 -22 -28 q-13.5 -12.5 -31.5 -21.5 q-18 -9 -37 -15 q33 -10 53.5 -32.5 q20.5 -22.5 20.5 -54.5 q0 -28 -14.5 -50.5 q-14.5 -22.5 -37.5 -38.5 q-23 -16 -53.5 -25 q-30.5 -9 -61.5 -9 ZM515 14 q24 0 49 7 q25 7 46 20.5 q21 13.5 34 32.5 q13 19 13 43 q0 19 -9 33.5 q-9 14.5 -24 25 q-15 10.5 -34 16 q-19 5.5 -38 5.5 q-24 0 -49 -7.5 q-25 -7.5 -46 -21.5 q-21 -14 -34 -33.5 q-13 -19.5 -13 -42.5 q0 -18 9 -32.5 q9 -14.5 24 -24.5 q15 -10 34 -15.5 q19 -5.5 38 -5.5 ZM556 214 q20 0 42 6 q22 6 40.5 17 q18.5 11 30.5 27 q12 16 12 36 q0 31 -28 48 q-28 17 -65 17 q-23 0 -45 -6 q-22 -6 -39 -17.5 q-17 -11.5 -28 -27.5 q-11 -16 -11 -35 q0 -15 8 -27.5 q8 -12.5 21 -20.5 q13 -8 29 -12.5 q16 -4.5 33 -4.5 ZM374 711 l-245 0 l4 19 l276 0 l-296 -383 l-22 0 l283 364 Z" /><glyph glyph-name="sevensuperior" unicode="&#x2077;" d="M373 791 l-245 0 l4 19 l276 0 l-296 -383 l-22 0 l283 364 Z" /><glyph glyph-name="seveninferior" unicode="&#x2087;" d="M265 284 l-245 0 l4 19 l276 0 l-296 -383 l-22 0 l283 364 Z" /><glyph glyph-name="six" unicode="6" d="M237 -10 q-42 0 -76.5 14.5 q-34.5 14.5 -59.5 42 q-25 27.5 -38.5 67 q-13.5 39.5 -13.5 88.5 q0 97 25 189.5 q25 92.5 70.5 164.5 q45.5 72 108.5 115.5 q63 43.5 140 43.5 q69 0 113.5 -39.5 q44.5 -39.5 50.5 -107.5 l-20 -7 q-3 30 -14.5 54.5 q-11.5 24.5 -31 42.5 q-19.5 18 -45.5 27.5 q-26 9.5 -57 9.5 q-56 0 -105.5 -28.5 q-49.5 -28.5 -90 -79.5 q-40.5 -51 -70.5 -122.5 q-30 -71.5 -46 -156.5 q19 39 47.5 70 q28.5 31 64 52.5 q35.5 21.5 75 33 q39.5 11.5 80.5 11.5 q41 0 75 -15.5 q34 -15.5 58 -42.5 q24 -27 37.5 -63 q13.5 -36 13.5 -78 q0 -58 -24.5 -110 q-24.5 -52 -65.5 -91 q-41 -39 -93.5 -62 q-52.5 -23 -107.5 -23 ZM243 10 q49 0 96.5 21 q47.5 21 85 57 q37.5 36 60 83 q22.5 47 22.5 99 q0 38 -12.5 72 q-12.5 34 -35.5 59 q-23 25 -54.5 39.5 q-31.5 14.5 -68.5 14.5 q-50 0 -97.5 -21.5 q-47.5 -21.5 -84.5 -57.5 q-37 -36 -60 -83.5 q-23 -47.5 -23 -98.5 q0 -38 12.5 -71.5 q12.5 -33.5 35.5 -58.5 q23 -25 54.5 -39.5 q31.5 -14.5 69.5 -14.5 Z" /><glyph glyph-name="sixinferior" unicode="&#x2086;" d="M291 67 q0 -31 -14.5 -58.5 q-14.5 -27.5 -39 -48.5 q-24.5 -21 -56.5 -33 q-32 -12 -66 -12 q-54 0 -87 32 q-33 32 -33 89 q0 55 15 104 q15 49 42.5 86 q27.5 37 65 58.5 q37.5 21.5 82.5 21.5 q42 0 71 -20.5 q29 -20.5 35 -55.5 l-17 -10 q-5 30 -30 49 q-25 19 -62 19 q-59 0 -106 -50.5 q-47 -50.5 -67 -144.5 q22 38 63.5 60.5 q41.5 22.5 86.5 22.5 q52 0 84.5 -31.5 q32.5 -31.5 32.5 -77.5 ZM120 -67 q29 0 56.5 10.5 q27.5 10.5 48.5 28 q21 17.5 34 41 q13 23.5 13 49.5 q0 40 -29.5 68.5 q-29.5 28.5 -75.5 28.5 q-29 0 -56.5 -10.5 q-27.5 -10.5 -48.5 -28.5 q-21 -18 -34 -41.5 q-13 -23.5 -13 -49.5 q0 -40 29.5 -68 q29.5 -28 75.5 -28 Z" /><glyph glyph-name="sixsuperior" unicode="&#x2076;" d="M398 571 q0 -31 -14.5 -58.5 q-14.5 -27.5 -39 -48.5 q-24.5 -21 -56.5 -33 q-32 -12 -66 -12 q-54 0 -87 32 q-33 32 -33 89 q0 55 15 104 q15 49 42.5 86 q27.5 37 65 58.5 q37.5 21.5 82.5 21.5 q42 0 71 -20.5 q29 -20.5 35 -55.5 l-17 -10 q-5 30 -30 49 q-25 19 -62 19 q-59 0 -106 -50.5 q-47 -50.5 -67 -144.5 q22 38 63.5 60.5 q41.5 22.5 86.5 22.5 q52 0 84.5 -31.5 q32.5 -31.5 32.5 -77.5 ZM227 437 q29 0 56.5 10.5 q27.5 10.5 48.5 28 q21 17.5 34 41 q13 23.5 13 49.5 q0 40 -29.5 68.5 q-29.5 28.5 -75.5 28.5 q-29 0 -56.5 -10.5 q-27.5 -10.5 -48.5 -28.5 q-21 -18 -34 -41.5 q-13 -23.5 -13 -49.5 q0 -40 29.5 -68 q29.5 -28 75.5 -28 Z" /><glyph glyph-name="space" unicode=" " d="" /><glyph glyph-name="sterling" unicode="£" d="M64 366 l103 0 q-11 41 -24.5 77.5 q-13.5 36.5 -13.5 76.5 q0 39 17 74.5 q17 35.5 44 62 q27 26.5 62 42.5 q35 16 71 16 q48 0 83 -28.5 q35 -28.5 49 -76.5 l-19 -12 q-14 45 -45.5 71 q-31.5 26 -73.5 26 q-31 0 -60.5 -13.5 q-29.5 -13.5 -53 -37 q-23.5 -23.5 -38 -54.5 q-14.5 -31 -14.5 -65 q0 -40 14 -78 q14 -38 25 -81 l166 0 l-5 -20 l-157 0 q3 -14 5 -29 q2 -15 2 -31 q0 -31 -5 -58 q-5 -27 -22.5 -56.5 q-17.5 -29.5 -50 -66 q-32.5 -36.5 -87.5 -87.5 q16 3 34 5 q18 2 35 2 q22 0 39 -3 q17 -3 32.5 -7 q15.5 -4 31 -7 q15.5 -3 33.5 -3 q20 0 43 5 q23 5 55 16 l2 -19 q-56 -22 -105 -22 q-21 0 -38 3 q-17 3 -33 7 q-16 4 -33 7 q-17 3 -38 3 q-20 0 -45.5 -3.5 q-25.5 -3.5 -46.5 -8.5 l-6 17 q63 57 99.5 95 q36.5 38 55.5 67 q19 29 24 54 q5 25 5 57 q0 31 -8 63 l-112 0 l4 20 Z" /><glyph glyph-name="t" unicode="t" d="M119 -5 q-31 0 -51 17 q-20 17 -20 46 q0 4 0.5 8 q0.5 4 1.5 9 l90 424 l-71 0 l4 20 l72 0 l38 181 l20 0 l-38 -181 l118 0 l-4 -20 l-119 0 l-80 -373 q-6 -28 -8.5 -40.5 q-2.5 -12.5 -2.5 -19.5 q0 -25 16 -38 q16 -13 39 -13 q16 0 31 3.5 q15 3.5 26.5 8 q11.5 4.5 19 8.5 q7.5 4 8.5 5 l7 -16 q0 0 -8 -5 q-8 -5 -21.5 -10 q-13.5 -5 -31 -9.5 q-17.5 -4.5 -36.5 -4.5 Z" /><glyph glyph-name="tbar" unicode="&#x167;" d="M40 359 l71 0 l30 140 l-71 0 l4 20 l71 0 l39 181 l20 0 l-39 -181 l119 0 l-4 -20 l-119 0 l-30 -140 l119 0 l-4 -20 l-120 0 l-47 -223 q-4 -18 -6.5 -30.5 q-2.5 -12.5 -2.5 -20.5 q0 -25 16 -37.5 q16 -12.5 39 -12.5 q16 0 31 3.5 q15 3.5 26.5 8 q11.5 4.5 19 8.5 q7.5 4 8.5 5 l7 -16 q-1 -1 -9 -5.5 q-8 -4.5 -21 -10 q-13 -5.5 -30.5 -9.5 q-17.5 -4 -36.5 -4 q-31 0 -51 17 q-20 17 -20 46 q0 4 0.5 8 q0.5 4 1.5 9 l56 264 l-71 0 l4 20 Z" /><glyph glyph-name="tcaron" unicode="&#x165;" d="M119 -5 q-31 0 -51 17 q-20 17 -20 46 q0 4 0.5 8 q0.5 4 1.5 9 l90 424 l-71 0 l4 20 l72 0 l38 181 l20 0 l-38 -181 l118 0 l-4 -20 l-119 0 l-80 -373 q-6 -28 -8.5 -40.5 q-2.5 -12.5 -2.5 -19.5 q0 -25 16 -38 q16 -13 39 -13 q16 0 31 3.5 q15 3.5 26.5 8 q11.5 4.5 19 8.5 q7.5 4 8.5 5 l7 -16 q0 0 -8 -5 q-8 -5 -21.5 -10 q-13.5 -5 -31 -9.5 q-17.5 -4.5 -36.5 -4.5 ZM265 657 l76 73 l33 0 l-96 -85 l-13 12 Z" /><glyph glyph-name="thorn" unicode="þ" d="M168 710 l20 0 l-66 -312 q50 57 106.5 93 q56.5 36 122.5 36 q45 0 78 -17.5 q33 -17.5 55.5 -46 q22.5 -28.5 33.5 -65.5 q11 -37 11 -77 q0 -57 -21.5 -116 q-21.5 -59 -60.5 -107 q-39 -48 -93 -78 q-54 -30 -118 -30 q-68 0 -111.5 33 q-43.5 33 -64.5 85 l-68 -321 l-20 0 l196 923 ZM243 10 q49 0 96.5 24 q47.5 24 85 66 q37.5 42 60.5 97.5 q23 55.5 23 118.5 q0 41 -10.5 76 q-10.5 35 -31 60.5 q-20.5 25.5 -50.5 40 q-30 14.5 -69 14.5 q-35 0 -68 -12 q-33 -12 -62.5 -32.5 q-29.5 -20.5 -56 -48 q-26.5 -27.5 -47.5 -58.5 l-40 -187 q-2 -6 -2 -9.5 q0 -3.5 0 -5.5 q0 -30 14.5 -56.5 q14.5 -26.5 38.5 -46 q24 -19.5 55 -30.5 q31 -11 64 -11 Z" /><glyph glyph-name="three" unicode="3" d="M146 -147 q-71 0 -117 34.5 q-46 34.5 -54 93.5 l20 7 q5 -52 48 -83.5 q43 -31.5 109 -31.5 q48 0 89 16 q41 16 70.5 44.5 q29.5 28.5 46.5 68 q17 39.5 17 86.5 q0 64 -39.5 101.5 q-39.5 37.5 -113.5 37.5 l-21 0 l4 20 l22 0 q98 0 152.5 47 q54.5 47 54.5 128 q0 60 -38 97 q-38 37 -101 37 q-60 0 -112 -31 q-52 -31 -82 -82 l-16 7 q32 57 90 91.5 q58 34.5 124 34.5 q72 0 114 -42 q42 -42 42 -107 q0 -37 -13 -69.5 q-13 -32.5 -36.5 -58 q-23.5 -25.5 -56 -42 q-32.5 -16.5 -70.5 -21.5 q55 -8 85 -49 q30 -41 30 -100 q0 -51 -19.5 -93.5 q-19.5 -42.5 -53.5 -74 q-34 -31.5 -79 -49 q-45 -17.5 -96 -17.5 Z" /><glyph glyph-name="threeeighths" unicode="&#x215c;" d="M42 11 l679 700 l13 -12 l-679 -700 l-13 12 ZM510 -4 q-57 0 -88 28 q-31 28 -31 66 q0 22 10.5 41 q10.5 19 27 34 q16.5 15 37.5 25 q21 10 41 16 q-26 9 -43.5 27.5 q-17.5 18.5 -17.5 44.5 q0 25 13.5 44.5 q13.5 19.5 35 33 q21.5 13.5 47.5 20.5 q26 7 52 7 q21 0 40.5 -5 q19.5 -5 34.5 -15 q15 -10 24 -25 q9 -15 9 -34 q0 -18 -8.5 -33.5 q-8.5 -15.5 -22 -28 q-13.5 -12.5 -31.5 -21.5 q-18 -9 -37 -15 q33 -10 53.5 -32.5 q20.5 -22.5 20.5 -54.5 q0 -28 -14.5 -50.5 q-14.5 -22.5 -37.5 -38.5 q-23 -16 -53.5 -25 q-30.5 -9 -61.5 -9 ZM516 14 q24 0 49 7 q25 7 46 20.5 q21 13.5 34 32.5 q13 19 13 43 q0 19 -9 33.5 q-9 14.5 -24 25 q-15 10.5 -34 16 q-19 5.5 -38 5.5 q-24 0 -49 -7.5 q-25 -7.5 -46 -21.5 q-21 -14 -34 -33.5 q-13 -19.5 -13 -42.5 q0 -18 9 -32.5 q9 -14.5 24 -24.5 q15 -10 34 -15.5 q19 -5.5 38 -5.5 ZM557 214 q20 0 42 6 q22 6 40.5 17 q18.5 11 30.5 27 q12 16 12 36 q0 31 -28 48 q-28 17 -65 17 q-23 0 -45 -6 q-22 -6 -39 -17.5 q-17 -11.5 -28 -27.5 q-11 -16 -11 -35 q0 -15 8 -27.5 q8 -12.5 21 -20.5 q13 -8 29 -12.5 q16 -4.5 33 -4.5 ZM192 338 q-19 0 -40.5 5.5 q-21.5 5.5 -39.5 17 q-18 11.5 -29.5 29.5 q-11.5 18 -11.5 44 l17 7 q0 -35 28.5 -59.5 q28.5 -24.5 79.5 -24.5 q28 0 53.5 7.5 q25.5 7.5 44.5 20.5 q19 13 30.5 30.5 q11.5 17.5 11.5 38.5 q0 35 -33.5 55 q-33.5 20 -90.5 20 l-21 0 l4 18 l21 0 q70 0 108.5 23 q38.5 23 38.5 67 q0 34 -27 55 q-27 21 -72 21 q-40 0 -74 -17 q-34 -17 -51 -43 l-12 12 q20 30 58.5 48 q38.5 18 82.5 18 q53 0 84.5 -26 q31.5 -26 31.5 -65 q0 -38 -26 -64.5 q-26 -26.5 -79 -37.5 q36 -7 56.5 -29.5 q20.5 -22.5 20.5 -52.5 q0 -26 -13.5 -47.5 q-13.5 -21.5 -36 -37 q-22.5 -15.5 -52.5 -24.5 q-30 -9 -62 -9 Z" /><glyph glyph-name="threesuperior" unicode="³" d="M205 418 q-60 0 -90.5 27 q-30.5 27 -30.5 69 l17 7 q0 -41 28.5 -62.5 q28.5 -21.5 79.5 -21.5 q28 0 53.5 7.5 q25.5 7.5 44.5 20.5 q19 13 30.5 30.5 q11.5 17.5 11.5 38.5 q0 35 -33 55 q-33 20 -91 20 l-21 0 l4 18 l21 0 q70 0 108.5 23 q38.5 23 38.5 67 q0 34 -27 55 q-27 21 -72 21 q-40 0 -74 -17 q-34 -17 -51 -43 l-12 12 q20 30 58.5 48 q38.5 18 82.5 18 q53 0 84.5 -26 q31.5 -26 31.5 -65 q0 -38 -26 -64.5 q-26 -26.5 -79 -37.5 q36 -7 56.5 -29.5 q20.5 -22.5 20.5 -52.5 q0 -26 -13.5 -47.5 q-13.5 -21.5 -36 -37 q-22.5 -15.5 -52.5 -24.5 q-30 -9 -62 -9 Z" /><glyph glyph-name="threequarters" unicode="¾" d="M66 11 l679 700 l13 -12 l-679 -700 l-13 12 ZM572 110 l-221 0 l4 17 l281 256 l14 0 l-54 -254 l52 0 l-4 -19 l-52 0 l-24 -110 l-19 0 l23 110 ZM576 129 l47 219 l-241 -219 l194 0 ZM189 338 q-19 0 -40.5 5.5 q-21.5 5.5 -39.5 17 q-18 11.5 -29.5 29.5 q-11.5 18 -11.5 44 l17 7 q0 -35 28.5 -59.5 q28.5 -24.5 79.5 -24.5 q28 0 53.5 7.5 q25.5 7.5 44.5 20.5 q19 13 30.5 30.5 q11.5 17.5 11.5 38.5 q0 35 -33.5 55 q-33.5 20 -90.5 20 l-21 0 l4 18 l21 0 q70 0 108.5 23 q38.5 23 38.5 67 q0 34 -27 55 q-27 21 -72 21 q-40 0 -74 -17 q-34 -17 -51 -43 l-12 12 q20 30 58.5 48 q38.5 18 82.5 18 q53 0 84.5 -26 q31.5 -26 31.5 -65 q0 -38 -26 -64.5 q-26 -26.5 -79 -37.5 q36 -7 56.5 -29.5 q20.5 -22.5 20.5 -52.5 q0 -26 -13.5 -47.5 q-13.5 -21.5 -36 -37 q-22.5 -15.5 -52.5 -24.5 q-30 -9 -62 -9 Z" /><glyph glyph-name="trademark" unicode="&#x2122;" d="M338 692 l-90 0 l-55 -259 l-20 0 l55 259 l-90 0 l4 20 l200 0 l-4 -20 ZM386 710 l21 0 l54 -209 l144 209 l22 0 l-59 -277 l-19 0 l50 239 l-134 -197 l-17 0 l-51 197 l-51 -239 l-19 0 l59 277 Z" /><glyph glyph-name="two" unicode="2" d="M-7 0 q4 18 15 52 q11 34 35 72.5 q24 38.5 64.5 76 q40.5 37.5 103.5 62.5 q60 24 101 44 q41 20 67 41 q26 21 37.5 46 q11.5 25 11.5 59 q0 20 -7.5 39.5 q-7.5 19.5 -23 34.5 q-15.5 15 -39.5 24.5 q-24 9.5 -58 9.5 q-35 0 -66 -12 q-31 -12 -55 -27 q-24 -15 -39.5 -29 q-15.5 -14 -20.5 -19 l-13 12 q0 0 15.5 15 q15.5 15 42 32.5 q26.5 17.5 62.5 32.5 q36 15 78 15 q37 0 64.5 -10.5 q27.5 -10.5 45.5 -28 q18 -17.5 26.5 -40 q8.5 -22.5 8.5 -46.5 q0 -39 -12.5 -66.5 q-12.5 -27.5 -40.5 -51 q-28 -23.5 -72.5 -45.5 q-44.5 -22 -108.5 -49 q-54 -23 -90.5 -55.5 q-36.5 -32.5 -59.5 -65.5 q-23 -33 -34 -61 q-11 -28 -14 -42 l352 0 l-5 -20 l-371 0 Z" /><glyph glyph-name="twosuperior" unicode="²" d="M67 423 q16 74 55.5 113 q39.5 39 98.5 60 q25 9 53 18 q28 9 51 22 q23 13 38 32.5 q15 19.5 15 49.5 q0 29 -21 51.5 q-21 22.5 -69 22.5 q-26 0 -47.5 -6.5 q-21.5 -6.5 -38.5 -15.5 q-17 -9 -29.5 -19.5 q-12.5 -10.5 -20.5 -18.5 l-12 12 q1 2 12.5 12.5 q11.5 10.5 31.5 22.5 q20 12 47.5 22 q27.5 10 62.5 10 q55 0 80 -26.5 q25 -26.5 25 -62.5 q0 -36 -17 -59.5 q-17 -23.5 -42.5 -38.5 q-25.5 -15 -54 -24 q-28.5 -9 -52.5 -17 q-40 -14 -65.5 -32 q-25.5 -18 -40.5 -37 q-15 -19 -21.5 -38 q-6.5 -19 -9.5 -34 l246 0 l-4 -19 l-271 0 Z" /><glyph glyph-name="twothirds" unicode="&#x2154;" d="M63 11 l679 700 l13 -12 l-679 -700 l-13 12 ZM522 -5 q-19 0 -40.5 5.5 q-21.5 5.5 -39.5 17 q-18 11.5 -29.5 29.5 q-11.5 18 -11.5 44 l17 7 q0 -35 28.5 -59.5 q28.5 -24.5 79.5 -24.5 q28 0 53.5 7.5 q25.5 7.5 44.5 20.5 q19 13 30.5 30.5 q11.5 17.5 11.5 38.5 q0 35 -33 55 q-33 20 -91 20 l-21 0 l4 18 l21 0 q69 0 108 23 q39 23 39 67 q0 34 -27 55 q-27 21 -72 21 q-40 0 -74 -17 q-34 -17 -51 -43 l-12 12 q20 30 58.5 48 q38.5 18 82.5 18 q53 0 84.5 -26 q31.5 -26 31.5 -65 q0 -38 -26 -64.5 q-26 -26.5 -79 -37.5 q36 -7 56.5 -29.5 q20.5 -22.5 20.5 -52.5 q0 -26 -13.5 -47.5 q-13.5 -21.5 -36 -37 q-22.5 -15.5 -52.5 -24.5 q-30 -9 -62 -9 ZM54 343 q16 74 55.5 113 q39.5 39 98.5 60 q25 9 53 18 q28 9 51 22 q23 13 38 32.5 q15 19.5 15 49.5 q0 29 -21 51.5 q-21 22.5 -69 22.5 q-26 0 -47.5 -6.5 q-21.5 -6.5 -38.5 -15.5 q-17 -9 -29.5 -19.5 q-12.5 -10.5 -20.5 -18.5 l-12 12 q1 2 12.5 12.5 q11.5 10.5 31.5 22.5 q20 12 47.5 22 q27.5 10 62.5 10 q56 0 80.5 -26.5 q24.5 -26.5 24.5 -62.5 q0 -36 -17 -59.5 q-17 -23.5 -42.5 -38.5 q-25.5 -15 -54 -24 q-28.5 -9 -52.5 -17 q-40 -14 -65.5 -32 q-25.5 -18 -40.5 -37 q-15 -19 -21.5 -38 q-6.5 -19 -9.5 -34 l246 0 l-4 -19 l-271 0 Z" /><glyph glyph-name="u" unicode="u" d="M167 -10 q-120 0 -120 139 q0 43 12 99 l62 291 l20 0 l-62 -291 q-12 -56 -12 -97 q0 -121 105 -121 q36 0 72.5 13.5 q36.5 13.5 70 37 q33.5 23.5 62 56.5 q28.5 33 47.5 72 l70 330 l20 0 l-96 -452 q-2 -11 -4.5 -21 q-2.5 -10 -2.5 -12 q0 -14 13 -14 l-5 -20 q-27 0 -27 30 q0 1 0.5 5 q0.5 4 2.5 14.5 q2 10.5 6 30 q4 19.5 11 52.5 q-23 -33 -51.5 -59 q-28.5 -26 -60.5 -44.5 q-32 -18.5 -66 -28.5 q-34 -10 -67 -10 Z" /><glyph glyph-name="uacute" unicode="ú" d="M167 -10 q-120 0 -120 139 q0 43 12 99 l62 291 l20 0 l-62 -291 q-12 -56 -12 -97 q0 -121 105 -121 q36 0 72.5 13.5 q36.5 13.5 70 37 q33.5 23.5 62 56.5 q28.5 33 47.5 72 l70 330 l20 0 l-96 -452 q-2 -11 -4.5 -21 q-2.5 -10 -2.5 -12 q0 -14 13 -14 l-5 -20 q-6 0 -12 2 q-15 6 -15 27 q0 1 0.5 4 q0.5 3 2 13 q1.5 10 5.5 30 q4 20 12 56 q-23 -33 -51.5 -59 q-28.5 -26 -60.5 -44.5 q-32 -18.5 -66 -28.5 q-34 -10 -67 -10 ZM315 645 l-13 12 l76 73 l33 0 l-96 -85 Z" /><glyph glyph-name="ubreve" unicode="&#x16d;" d="M167 -10 q-120 0 -120 139 q0 43 12 99 l62 291 l20 0 l-62 -291 q-12 -56 -12 -97 q0 -121 105 -121 q36 0 72.5 13.5 q36.5 13.5 70 37 q33.5 23.5 62 56.5 q28.5 33 47.5 72 l70 330 l20 0 l-96 -452 q-2 -11 -4.5 -21 q-2.5 -10 -2.5 -12 q0 -14 13 -14 l-5 -20 q-6 0 -12 2 q-15 6 -15 27 q0 1 0.5 4 q0.5 3 2 13 q1.5 10 5.5 30 q4 20 12 56 q-23 -33 -51.5 -59 q-28.5 -26 -60.5 -44.5 q-32 -18.5 -66 -28.5 q-34 -10 -67 -10 ZM332 670 q20 0 39 17.5 q19 17.5 27 42.5 l18 0 q-3 -15 -12 -29 q-9 -14 -21 -24.5 q-12 -10.5 -26 -17 q-14 -6.5 -28 -6.5 q-25 0 -41 18 q-16 18 -16 44 q0 5 2 15 l19 0 q-1 -4 -1 -11 q0 -20 11.5 -34.5 q11.5 -14.5 28.5 -14.5 Z" /><glyph glyph-name="ucircumflex" unicode="û" d="M167 -10 q-120 0 -120 139 q0 43 12 99 l62 291 l20 0 l-62 -291 q-12 -56 -12 -97 q0 -121 105 -121 q36 0 72.5 13.5 q36.5 13.5 70 37 q33.5 23.5 62 56.5 q28.5 33 47.5 72 l70 330 l20 0 l-96 -452 q-2 -11 -4.5 -21 q-2.5 -10 -2.5 -12 q0 -14 13 -14 l-5 -20 q-6 0 -12 2 q-15 6 -15 27 q0 1 0.5 4 q0.5 3 2 13 q1.5 10 5.5 30 q4 20 12 56 q-23 -33 -51.5 -59 q-28.5 -26 -60.5 -44.5 q-32 -18.5 -66 -28.5 q-34 -10 -67 -10 ZM245 656 l104 74 l16 0 l73 -74 l-18 -12 l-68 63 l-94 -63 l-13 12 Z" /><glyph glyph-name="udieresis" unicode="ü" d="M167 -10 q-120 0 -120 139 q0 43 12 99 l62 291 l20 0 l-62 -291 q-12 -56 -12 -97 q0 -121 105 -121 q36 0 72.5 13.5 q36.5 13.5 70 37 q33.5 23.5 62 56.5 q28.5 33 47.5 72 l70 330 l20 0 l-96 -452 q-2 -11 -4.5 -21 q-2.5 -10 -2.5 -12 q0 -14 13 -14 l-5 -20 q-6 0 -12 2 q-15 6 -15 27 q0 1 0.5 4 q0.5 3 2 13 q1.5 10 5.5 30 q4 20 12 56 q-23 -33 -51.5 -59 q-28.5 -26 -60.5 -44.5 q-32 -18.5 -66 -28.5 q-34 -10 -67 -10 ZM274 653 l16 77 l20 0 l-16 -77 l-20 0 ZM385 653 l16 77 l20 0 l-16 -77 l-20 0 Z" /><glyph glyph-name="ugrave" unicode="ù" d="M167 -10 q-120 0 -120 139 q0 43 12 99 l62 291 l20 0 l-62 -291 q-12 -56 -12 -97 q0 -121 105 -121 q36 0 72.5 13.5 q36.5 13.5 70 37 q33.5 23.5 62 56.5 q28.5 33 47.5 72 l70 330 l20 0 l-96 -452 q-2 -11 -4.5 -21 q-2.5 -10 -2.5 -12 q0 -14 13 -14 l-5 -20 q-27 0 -27 30 q0 1 0.5 5 q0.5 4 2.5 14.5 q2 10.5 6 30 q4 19.5 11 52.5 q-23 -33 -51.5 -59 q-28.5 -26 -60.5 -44.5 q-32 -18.5 -66 -28.5 q-34 -10 -67 -10 ZM275 730 l32 0 l46 -73 l-18 -12 l-60 85 Z" /><glyph glyph-name="uhungarumlaut" unicode="&#x171;" d="M167 -10 q-120 0 -120 139 q0 43 12 99 l62 291 l20 0 l-62 -291 q-12 -56 -12 -97 q0 -121 105 -121 q36 0 72.5 13.5 q36.5 13.5 70 37 q33.5 23.5 62 56.5 q28.5 33 47.5 72 l70 330 l20 0 l-96 -452 q-2 -11 -4.5 -21 q-2.5 -10 -2.5 -12 q0 -14 13 -14 l-5 -20 q-6 0 -12 2 q-15 6 -15 27 q0 1 0.5 4 q0.5 3 2 13 q1.5 10 5.5 30 q4 20 12 56 q-23 -33 -51.5 -59 q-28.5 -26 -60.5 -44.5 q-32 -18.5 -66 -28.5 q-34 -10 -67 -10 ZM257 645 l-13 12 l76 73 l33 0 l-96 -85 ZM353 645 l-13 12 l76 73 l33 0 l-96 -85 Z" /><glyph glyph-name="umacron" unicode="&#x16b;" d="M167 -10 q-120 0 -120 139 q0 43 12 99 l62 291 l20 0 l-62 -291 q-12 -56 -12 -97 q0 -121 105 -121 q36 0 72.5 13.5 q36.5 13.5 70 37 q33.5 23.5 62 56.5 q28.5 33 47.5 72 l70 330 l20 0 l-96 -452 q-2 -11 -4.5 -21 q-2.5 -10 -2.5 -12 q0 -14 13 -14 l-5 -20 q-6 0 -12 2 q-15 6 -15 27 q0 1 0.5 4 q0.5 3 2 13 q1.5 10 5.5 30 q4 20 12 56 q-23 -33 -51.5 -59 q-28.5 -26 -60.5 -44.5 q-32 -18.5 -66 -28.5 q-34 -10 -67 -10 ZM208 686 l4 20 l266 0 l-4 -20 l-266 0 Z" /><glyph glyph-name="underscore" unicode="_" d="M-1 -20 l4 20 l373 0 l-4 -20 l-373 0 Z" /><glyph glyph-name="nonbreakingspace" unicode=" " d="" /><glyph glyph-name="uni00AD" unicode="­" d="M59 261 l4 20 l384 0 l-4 -20 l-384 0 Z" /><glyph glyph-name="Scedilla" unicode="&#x15e;" d="M150 -125 q14 -7 34.5 -12.5 q20.5 -5.5 44.5 -5.5 q65 0 65 47 q0 16 -11 22.5 q-11 6.5 -28 6.5 q-20 0 -43 -5.5 q-23 -5.5 -37 -10.5 l59 78 q-79 2 -135 28 q-56 26 -98 82 l17 13 q40 -56 94.5 -81 q54.5 -25 132.5 -25 q58 0 105 12.5 q47 12.5 80 36.5 q33 24 51 59.5 q18 35.5 18 82.5 q0 30 -12 52.5 q-12 22.5 -36 39 q-24 16.5 -60 28.5 q-36 12 -84 23 q-47 10 -84 21 q-37 11 -62.5 27 q-25.5 16 -39 39.5 q-13.5 23.5 -13.5 57.5 q0 52 20.5 93.5 q20.5 41.5 58 70.5 q37.5 29 89 44.5 q51.5 15.5 113.5 15.5 q65 0 109 -19.5 q44 -19.5 74 -65.5 l-16 -14 q-30 47 -69.5 63.5 q-39.5 16.5 -99.5 16.5 q-69 0 -118 -15.5 q-49 -15.5 -80 -43 q-31 -27.5 -45.5 -64 q-14.5 -36.5 -14.5 -78.5 q0 -29 11 -49 q11 -20 33.5 -34.5 q22.5 -14.5 57 -25.5 q34.5 -11 80.5 -21 q47 -11 85.5 -23 q38.5 -12 66 -29.5 q27.5 -17.5 42.5 -43 q15 -25.5 15 -61.5 q0 -48 -18.5 -87 q-18.5 -39 -53 -66 q-34.5 -27 -83 -42.5 q-48.5 -15.5 -108.5 -17.5 l-40 -52 q11 4 22.5 5 q11.5 1 19.5 1 q54 0 54 -42 q0 -35 -24.5 -52 q-24.5 -17 -66.5 -17 q-25 0 -46.5 5.5 q-21.5 5.5 -38.5 13.5 l13 18 Z" /><glyph glyph-name="scedilla" unicode="&#x15f;" d="M61 -130 q14 -7 34.5 -12.5 q20.5 -5.5 44.5 -5.5 q65 0 65 47 q0 16 -11 22.5 q-11 6.5 -28 6.5 q-20 0 -43 -5.5 q-23 -5.5 -37 -10.5 l59 79 q-52 2 -91.5 22 q-39.5 20 -65.5 61 l17 13 q30 -39 67.5 -58 q37.5 -19 90.5 -19 q41 0 76 10.5 q35 10.5 61 29 q26 18.5 41 45.5 q15 27 15 60 q0 22 -10 37.5 q-10 15.5 -29 26.5 q-19 11 -46.5 20 q-27.5 9 -62.5 18 q-33 8 -58 16 q-25 8 -42.5 18.5 q-17.5 10.5 -26.5 26 q-9 15.5 -9 38.5 q0 43 17.5 75.5 q17.5 32.5 47 53.5 q29.5 21 67 31.5 q37.5 10.5 77.5 10.5 q60 0 97.5 -21.5 q37.5 -21.5 47.5 -53.5 l-19 -8 q-11 31 -49 47 q-38 16 -85 16 q-35 0 -67.5 -8.5 q-32.5 -8.5 -57.5 -26.5 q-25 -18 -40 -45.5 q-15 -27.5 -15 -64.5 q0 -19 7.5 -32 q7.5 -13 22.5 -22 q15 -9 37.5 -16 q22.5 -7 52.5 -15 q37 -10 67.5 -19 q30.5 -9 52 -22 q21.5 -13 33 -30.5 q11.5 -17.5 11.5 -43.5 q0 -37 -16 -68 q-16 -31 -43.5 -53.5 q-27.5 -22.5 -66 -36 q-38.5 -13.5 -83.5 -14.5 l-40 -52 q11 4 22.5 5 q11.5 1 19.5 1 q54 0 54 -42 q0 -35 -24.5 -52 q-24.5 -17 -66.5 -17 q-25 0 -46.5 5.5 q-21.5 5.5 -38.5 13.5 l13 18 Z" /><glyph glyph-name="uni0162" unicode="&#x162;" d="M117 -125 q14 -7 34.5 -12.5 q20.5 -5.5 44.5 -5.5 q65 0 65 47 q0 16 -11 22.5 q-11 6.5 -28 6.5 q-20 0 -43 -5.5 q-23 -5.5 -37 -10.5 l67 89 l146 684 l-258 0 l4 20 l536 0 l-4 -20 l-258 0 l-147 -690 l-44 -57 q11 4 22.5 5 q11.5 1 19.5 1 q54 0 54 -42 q0 -35 -24.5 -52 q-24.5 -17 -66.5 -17 q-25 0 -46.5 5.5 q-21.5 5.5 -38.5 13.5 l13 18 Z" /><glyph glyph-name="uni0163" unicode="&#x163;" d="M21 -125 q14 -7 34.5 -12.5 q20.5 -5.5 44.5 -5.5 q65 0 65 47 q0 16 -11 22.5 q-11 6.5 -28 6.5 q-20 0 -43 -5.5 q-23 -5.5 -37 -10.5 l59 79 q-26 4 -41.5 20 q-15.5 16 -15.5 42 q0 4 0.5 8 q0.5 4 1.5 9 l90 424 l-71 0 l4 20 l72 0 l38 181 l20 0 l-38 -181 l118 0 l-4 -20 l-119 0 l-80 -373 q-6 -28 -8.5 -40.5 q-2.5 -12.5 -2.5 -19.5 q0 -25 16 -38 q16 -13 39 -13 q16 0 31 3.5 q15 3.5 26.5 8 q11.5 4.5 19 8.5 q7.5 4 8.5 5 l7 -16 q0 0 -7 -4.5 q-7 -4.5 -19 -9.5 q-12 -5 -28 -9.5 q-16 -4.5 -34 -5.5 l-40 -52 q11 4 22.5 5 q11.5 1 19.5 1 q54 0 54 -42 q0 -35 -24.5 -52 q-24.5 -17 -66.5 -17 q-25 0 -46.5 5.5 q-21.5 5.5 -38.5 13.5 l13 18 Z" /><glyph glyph-name="uni0218" unicode="&#x218;" d="M238 -5 q-81 0 -139 26.5 q-58 26.5 -100 83.5 l17 13 q40 -56 94.5 -81 q54.5 -25 132.5 -25 q58 0 105 12.5 q47 12.5 80 36.5 q33 24 51 59.5 q18 35.5 18 82.5 q0 30 -12 52.5 q-12 22.5 -36 39 q-24 16.5 -60 28.5 q-36 12 -84 23 q-47 10 -84 21 q-37 11 -62.5 27 q-25.5 16 -39 39.5 q-13.5 23.5 -13.5 57.5 q0 52 20.5 93.5 q20.5 41.5 58 70.5 q37.5 29 89 44.5 q51.5 15.5 113.5 15.5 q65 0 109 -19.5 q44 -19.5 74 -65.5 l-16 -14 q-30 47 -69.5 63.5 q-39.5 16.5 -99.5 16.5 q-69 0 -118 -15.5 q-49 -15.5 -80 -43 q-31 -27.5 -45.5 -64 q-14.5 -36.5 -14.5 -78.5 q0 -29 11 -49 q11 -20 33.5 -34.5 q22.5 -14.5 57 -25.5 q34.5 -11 80.5 -21 q47 -11 85.5 -23 q38.5 -12 66 -29.5 q27.5 -17.5 42.5 -43 q15 -25.5 15 -61.5 q0 -50 -20 -89.5 q-20 -39.5 -56.5 -67 q-36.5 -27.5 -88.5 -42 q-52 -14.5 -115 -14.5 ZM189 -167 l22 58 l-9 0 l13 59 l25 0 l-12 -59 l-25 -58 l-14 0 Z" /><glyph glyph-name="uni0219" unicode="&#x219;" d="M159 -10 q-57 0 -100 20.5 q-43 20.5 -71 63.5 l17 13 q30 -39 67.5 -58 q37.5 -19 90.5 -19 q41 0 76 10.5 q35 10.5 61 29 q26 18.5 41 45.5 q15 27 15 60 q0 22 -10 37.5 q-10 15.5 -29 26.5 q-19 11 -46.5 20 q-27.5 9 -62.5 18 q-33 8 -58 16 q-25 8 -42.5 18.5 q-17.5 10.5 -26.5 26 q-9 15.5 -9 38.5 q0 43 17.5 75.5 q17.5 32.5 47 53.5 q29.5 21 67 31.5 q37.5 10.5 77.5 10.5 q60 0 97.5 -21.5 q37.5 -21.5 47.5 -53.5 l-19 -8 q-11 31 -49 47 q-38 16 -85 16 q-35 0 -67.5 -8.5 q-32.5 -8.5 -57.5 -26.5 q-25 -18 -40 -45.5 q-15 -27.5 -15 -64.5 q0 -19 7.5 -32 q7.5 -13 22.5 -22 q15 -9 37.5 -16 q22.5 -7 52.5 -15 q37 -10 67.5 -19 q30.5 -9 52 -22 q21.5 -13 33 -30.5 q11.5 -17.5 11.5 -43.5 q0 -38 -16.5 -69.5 q-16.5 -31.5 -45.5 -54.5 q-29 -23 -69 -35.5 q-40 -12.5 -87 -12.5 ZM119 -167 l22 58 l-9 0 l13 59 l25 0 l-12 -59 l-25 -58 l-14 0 Z" /><glyph glyph-name="uni021A" unicode="&#x21a;" d="M356 690 l-258 0 l4 20 l536 0 l-4 -20 l-258 0 l-147 -690 l-20 0 l147 690 ZM168 -167 l22 58 l-9 0 l13 59 l25 0 l-12 -59 l-25 -58 l-14 0 Z" /><glyph glyph-name="uni021B" unicode="&#x21b;" d="M119 -5 q-31 0 -51 17 q-20 17 -20 46 q0 4 0.5 8 q0.5 4 1.5 9 l90 424 l-71 0 l4 20 l72 0 l38 181 l20 0 l-38 -181 l118 0 l-4 -20 l-119 0 l-80 -373 q-6 -28 -8.5 -40.5 q-2.5 -12.5 -2.5 -19.5 q0 -25 16 -38 q16 -13 39 -13 q16 0 31 3.5 q15 3.5 26.5 8 q11.5 4.5 19 8.5 q7.5 4 8.5 5 l7 -16 q0 0 -8 -5 q-8 -5 -21.5 -10 q-13.5 -5 -31 -9.5 q-17.5 -4.5 -36.5 -4.5 ZM69 -167 l22 58 l-9 0 l13 59 l25 0 l-12 -59 l-25 -58 l-14 0 Z" /><glyph glyph-name="uni03BC" unicode="&#x3bc;" d="M127 519 l21 0 l-62 -291 q-12 -56 -12 -97 q0 -121 104 -121 q36 0 72.5 13.5 q36.5 13.5 70 37 q33.5 23.5 62 56.5 q28.5 33 47.5 72 l70 330 l21 0 l-102 -479 q-1 -1 -1 -7 q0 -13 12 -13 l-5 -20 q-27 0 -27 30 q0 8 1 10 l20 92 q-23 -33 -52 -59 q-29 -26 -61 -44.5 q-32 -18.5 -65.5 -28.5 q-33.5 -10 -66.5 -10 q-103 0 -117 104 l-65 -306 l-20 0 l155 731 Z" /><glyph glyph-name="fraction" unicode="&#x2215;" d="M-63 11 l679 700 l13 -12 l-679 -700 l-13 12 Z" /><glyph glyph-name="periodcentered" unicode="&#x2219;" d="M56 250 l18 83 l19 0 l-17 -83 l-20 0 Z" /><glyph glyph-name="uogonek" unicode="&#x173;" d="M338 -159 q-19 5 -28.5 18.5 q-9.5 13.5 -9.5 30.5 q0 27 21.5 54 q21.5 27 77.5 63 q-7 7 -7 23 q0 1 0.5 5 q0.5 4 2.5 14.5 q2 10.5 6 30 q4 19.5 11 52.5 q-23 -33 -51.5 -59 q-28.5 -26 -60.5 -44.5 q-32 -18.5 -66 -28.5 q-34 -10 -67 -10 q-120 0 -120 139 q0 43 12 99 l62 291 l20 0 l-62 -291 q-12 -56 -12 -97 q0 -121 105 -121 q36 0 72.5 13.5 q36.5 13.5 70 37 q33.5 23.5 62 56.5 q28.5 33 47.5 72 l70 330 l20 0 l-96 -452 q-2 -11 -4.5 -21 q-2.5 -10 -2.5 -12 q0 -14 13 -14 l-5 -20 q-29 -18 -48.5 -32.5 q-19.5 -14.5 -30.5 -26.5 q-11 -12 -15.5 -23 q-4.5 -11 -4.5 -23 q0 -30 34 -37 l-16 -17 Z" /><glyph glyph-name="uring" unicode="&#x16f;" d="M167 -10 q-120 0 -120 139 q0 43 12 99 l62 291 l20 0 l-62 -291 q-12 -56 -12 -97 q0 -121 105 -121 q36 0 72.5 13.5 q36.5 13.5 70 37 q33.5 23.5 62 56.5 q28.5 33 47.5 72 l70 330 l20 0 l-96 -452 q-2 -11 -4.5 -21 q-2.5 -10 -2.5 -12 q0 -14 13 -14 l-5 -20 q-6 0 -12 2 q-15 6 -15 27 q0 1 0.5 4 q0.5 3 2 13 q1.5 10 5.5 30 q4 20 12 56 q-23 -33 -51.5 -59 q-28.5 -26 -60.5 -44.5 q-32 -18.5 -66 -28.5 q-34 -10 -67 -10 ZM286 662 q0 14 5.5 26.5 q5.5 12.5 15 21.5 q9.5 9 22 14.5 q12.5 5.5 25.5 5.5 q20 0 31.5 -13 q11.5 -13 11.5 -33 q0 -14 -5.5 -26.5 q-5.5 -12.5 -15 -21.5 q-9.5 -9 -22 -14.5 q-12.5 -5.5 -25.5 -5.5 q-20 0 -31.5 13 q-11.5 13 -11.5 33 ZM350 714 q-18 0 -33 -13.5 q-15 -13.5 -15 -35.5 q0 -14 8.5 -23.5 q8.5 -9.5 22.5 -9.5 q16 0 32.5 14 q16.5 14 16.5 35 q0 15 -9 24 q-9 9 -23 9 Z" /><glyph glyph-name="utilde" unicode="&#x169;" d="M167 -10 q-120 0 -120 139 q0 43 12 99 l62 291 l20 0 l-62 -291 q-12 -56 -12 -97 q0 -121 105 -121 q36 0 72.5 13.5 q36.5 13.5 70 37 q33.5 23.5 62 56.5 q28.5 33 47.5 72 l70 330 l20 0 l-96 -452 q-2 -11 -4.5 -21 q-2.5 -10 -2.5 -12 q0 -14 13 -14 l-5 -20 q-6 0 -12 2 q-15 6 -15 27 q0 1 0.5 4 q0.5 3 2 13 q1.5 10 5.5 30 q4 20 12 56 q-23 -33 -51.5 -59 q-28.5 -26 -60.5 -44.5 q-32 -18.5 -66 -28.5 q-34 -10 -67 -10 ZM396 663 q-21 0 -35.5 6 q-14.5 6 -26.5 13 q-12 7 -23 13 q-11 6 -26 6 q-15 0 -26 -6.5 q-11 -6.5 -18 -15 q-7 -8.5 -10.5 -16.5 q-3.5 -8 -4.5 -10 l-19 0 q0 2 4.5 13 q4.5 11 14 23 q9.5 12 25.5 21.5 q16 9.5 40 9.5 q18 0 31 -6 q13 -6 24.5 -13 q11.5 -7 24.5 -13 q13 -6 31 -6 q19 0 32 7 q13 7 20.5 15.5 q7.5 8.5 10.5 16 q3 7.5 3 9.5 l19 0 q-1 -3 -5.5 -14 q-4.5 -11 -15 -23 q-10.5 -12 -27.5 -21 q-17 -9 -43 -9 Z" /><glyph glyph-name="v" unicode="v" d="M64 519 l21 0 l78 -491 q49 55 90.5 118 q41.5 63 75 127.5 q33.5 64.5 59 127 q25.5 62.5 43.5 118.5 l20 0 q-41 -131 -109 -263 q-68 -132 -177 -256 l-18 0 l-83 519 Z" /><glyph glyph-name="w" unicode="w" d="M61 519 l21 0 l88 -491 q58 63 105 134.5 q47 71.5 84 143.5 l-38 213 l21 0 l32 -182 q23 48 41.5 94 q18.5 46 32.5 88 l20 0 q-17 -54 -39 -108 q-22 -54 -49 -108 l50 -275 q51 55 94 118 q43 63 78 127.5 q35 64.5 61.5 127 q26.5 62.5 44.5 118.5 l20 0 q-42 -131 -112.5 -263 q-70.5 -132 -183.5 -256 l-18 0 l-49 273 q-38 -70 -85.5 -138.5 q-47.5 -68.5 -107.5 -134.5 l-18 0 l-93 519 Z" /><glyph glyph-name="wacute" unicode="&#x1e83;" d="M61 519 l21 0 l88 -491 q58 63 105 134.5 q47 71.5 84 143.5 l-38 213 l21 0 l32 -182 q23 48 41.5 94 q18.5 46 32.5 88 l20 0 q-17 -54 -39 -108 q-22 -54 -49 -108 l50 -275 q51 55 94 118 q43 63 78 127.5 q35 64.5 61.5 127 q26.5 62.5 44.5 118.5 l20 0 q-42 -131 -112.5 -263 q-70.5 -132 -183.5 -256 l-18 0 l-49 273 q-38 -70 -85.5 -138.5 q-47.5 -68.5 -107.5 -134.5 l-18 0 l-93 519 ZM416 645 l-13 12 l76 73 l33 0 l-96 -85 Z" /><glyph glyph-name="wcircumflex" unicode="&#x175;" d="M61 519 l21 0 l88 -491 q58 63 105 134.5 q47 71.5 84 143.5 l-38 213 l21 0 l32 -182 q23 48 41.5 94 q18.5 46 32.5 88 l20 0 q-17 -54 -39 -108 q-22 -54 -49 -108 l50 -275 q51 55 94 118 q43 63 78 127.5 q35 64.5 61.5 127 q26.5 62.5 44.5 118.5 l20 0 q-42 -131 -112.5 -263 q-70.5 -132 -183.5 -256 l-18 0 l-49 273 q-38 -70 -85.5 -138.5 q-47.5 -68.5 -107.5 -134.5 l-18 0 l-93 519 ZM345 656 l104 74 l16 0 l73 -74 l-18 -12 l-68 63 l-94 -63 l-13 12 Z" /><glyph glyph-name="wdieresis" unicode="&#x1e85;" d="M61 519 l21 0 l88 -491 q58 63 105 134.5 q47 71.5 84 143.5 l-38 213 l21 0 l32 -182 q23 48 41.5 94 q18.5 46 32.5 88 l20 0 q-17 -54 -39 -108 q-22 -54 -49 -108 l50 -275 q51 55 94 118 q43 63 78 127.5 q35 64.5 61.5 127 q26.5 62.5 44.5 118.5 l20 0 q-42 -131 -112.5 -263 q-70.5 -132 -183.5 -256 l-18 0 l-49 273 q-38 -70 -85.5 -138.5 q-47.5 -68.5 -107.5 -134.5 l-18 0 l-93 519 ZM363 653 l16 77 l20 0 l-16 -77 l-20 0 ZM474 653 l16 77 l20 0 l-16 -77 l-20 0 Z" /><glyph glyph-name="wgrave" unicode="&#x1e81;" d="M61 519 l21 0 l88 -491 q58 63 105 134.5 q47 71.5 84 143.5 l-38 213 l21 0 l32 -182 q23 48 41.5 94 q18.5 46 32.5 88 l20 0 q-17 -54 -39 -108 q-22 -54 -49 -108 l50 -275 q51 55 94 118 q43 63 78 127.5 q35 64.5 61.5 127 q26.5 62.5 44.5 118.5 l20 0 q-42 -131 -112.5 -263 q-70.5 -132 -183.5 -256 l-18 0 l-49 273 q-38 -70 -85.5 -138.5 q-47.5 -68.5 -107.5 -134.5 l-18 0 l-93 519 ZM396 730 l32 0 l46 -73 l-18 -12 l-60 85 Z" /><glyph glyph-name="x" unicode="x" d="M206 258 l-142 261 l26 0 l127 -234 l5 -12 l237 246 l26 0 l-253 -261 l141 -258 l-26 0 l-126 232 l-5 12 l-234 -244 l-26 0 l250 258 Z" /><glyph glyph-name="y" unicode="y" d="M-37 -207 q30 6 51.5 16 q21.5 10 39.5 26.5 q18 16.5 35.5 41.5 q17.5 25 40.5 60 l41 63 l-119 519 l22 0 l112 -494 l58 92 q47 75 79.5 130 q32.5 55 55 100.5 q22.5 45.5 38 86 q15.5 40.5 28.5 85.5 l21 0 q-14 -48 -29 -89.5 q-15 -41.5 -38 -87.5 q-23 -46 -56.5 -103 q-33.5 -57 -83.5 -136 l-82 -129 q-36 -56 -61.5 -92.5 q-25.5 -36.5 -49 -58 q-23.5 -21.5 -47 -32 q-23.5 -10.5 -54.5 -15.5 l-2 17 Z" /><glyph glyph-name="yacute" unicode="ý" d="M-37 -207 q30 6 51.5 16 q21.5 10 39.5 26.5 q18 16.5 35.5 41.5 q17.5 25 40.5 60 l41 63 l-119 519 l22 0 l112 -494 l58 92 q47 75 79.5 130 q32.5 55 55 100.5 q22.5 45.5 38 86 q15.5 40.5 28.5 85.5 l21 0 q-14 -48 -29 -89.5 q-15 -41.5 -38 -87.5 q-23 -46 -56.5 -103 q-33.5 -57 -83.5 -136 l-82 -129 q-36 -56 -61.5 -92.5 q-25.5 -36.5 -49 -58 q-23.5 -21.5 -47 -32 q-23.5 -10.5 -54.5 -15.5 l-2 17 ZM276 645 l-13 12 l76 73 l33 0 l-96 -85 Z" /><glyph glyph-name="ycircumflex" unicode="&#x177;" d="M-37 -207 q30 6 51.5 16 q21.5 10 39.5 26.5 q18 16.5 35.5 41.5 q17.5 25 40.5 60 l41 63 l-119 519 l22 0 l112 -494 l58 92 q47 75 79.5 130 q32.5 55 55 100.5 q22.5 45.5 38 86 q15.5 40.5 28.5 85.5 l21 0 q-14 -48 -29 -89.5 q-15 -41.5 -38 -87.5 q-23 -46 -56.5 -103 q-33.5 -57 -83.5 -136 l-82 -129 q-36 -56 -61.5 -92.5 q-25.5 -36.5 -49 -58 q-23.5 -21.5 -47 -32 q-23.5 -10.5 -54.5 -15.5 l-2 17 ZM199 656 l104 74 l16 0 l73 -74 l-18 -12 l-68 63 l-94 -63 l-13 12 Z" /><glyph glyph-name="ydieresis" unicode="ÿ" d="M-37 -207 q30 6 51.5 16 q21.5 10 39.5 26.5 q18 16.5 35.5 41.5 q17.5 25 40.5 60 l41 63 l-119 519 l22 0 l112 -494 l58 92 q47 75 79.5 130 q32.5 55 55 100.5 q22.5 45.5 38 86 q15.5 40.5 28.5 85.5 l21 0 q-14 -48 -29 -89.5 q-15 -41.5 -38 -87.5 q-23 -46 -56.5 -103 q-33.5 -57 -83.5 -136 l-82 -129 q-36 -56 -61.5 -92.5 q-25.5 -36.5 -49 -58 q-23.5 -21.5 -47 -32 q-23.5 -10.5 -54.5 -15.5 l-2 17 ZM228 653 l16 77 l20 0 l-16 -77 l-20 0 ZM339 653 l16 77 l20 0 l-16 -77 l-20 0 Z" /><glyph glyph-name="yen" unicode="¥" d="M368 341 l88 0 l-4 -20 l-101 0 l-39 -46 l-5 -24 l130 0 l-4 -20 l-130 0 l-50 -231 l-20 0 l50 231 l-130 0 l4 20 l130 0 l5 26 l-18 44 l-102 0 l5 20 l89 0 l-154 369 l23 0 l172 -412 l348 412 l23 0 l-310 -369 Z" /><glyph glyph-name="ygrave" unicode="&#x1ef3;" d="M-37 -207 q30 6 51.5 16 q21.5 10 39.5 26.5 q18 16.5 35.5 41.5 q17.5 25 40.5 60 l41 63 l-119 519 l22 0 l112 -494 l58 92 q47 75 79.5 130 q32.5 55 55 100.5 q22.5 45.5 38 86 q15.5 40.5 28.5 85.5 l21 0 q-14 -48 -29 -89.5 q-15 -41.5 -38 -87.5 q-23 -46 -56.5 -103 q-33.5 -57 -83.5 -136 l-82 -129 q-36 -56 -61.5 -92.5 q-25.5 -36.5 -49 -58 q-23.5 -21.5 -47 -32 q-23.5 -10.5 -54.5 -15.5 l-2 17 ZM246 730 l32 0 l46 -73 l-18 -12 l-60 85 Z" /><glyph glyph-name="ytilde" unicode="&#x1ef9;" d="M-37 -207 q30 6 51.5 16 q21.5 10 39.5 26.5 q18 16.5 35.5 41.5 q17.5 25 40.5 60 l41 63 l-119 519 l22 0 l112 -494 l58 92 q47 75 79.5 130 q32.5 55 55 100.5 q22.5 45.5 38 86 q15.5 40.5 28.5 85.5 l21 0 q-14 -48 -29 -89.5 q-15 -41.5 -38 -87.5 q-23 -46 -56.5 -103 q-33.5 -57 -83.5 -136 l-82 -129 q-36 -56 -61.5 -92.5 q-25.5 -36.5 -49 -58 q-23.5 -21.5 -47 -32 q-23.5 -10.5 -54.5 -15.5 l-2 17 ZM350 663 q-21 0 -35.5 6 q-14.5 6 -26.5 13 q-12 7 -23 13 q-11 6 -26 6 q-15 0 -26 -6.5 q-11 -6.5 -18 -15 q-7 -8.5 -10.5 -16.5 q-3.5 -8 -4.5 -10 l-19 0 q0 2 4.5 13 q4.5 11 14 23 q9.5 12 25.5 21.5 q16 9.5 40 9.5 q18 0 31 -6 q13 -6 24.5 -13 q11.5 -7 24.5 -13 q13 -6 31 -6 q19 0 32 7 q13 7 20.5 15.5 q7.5 8.5 10.5 16 q3 7.5 3 9.5 l19 0 q-1 -3 -5.5 -14 q-4.5 -11 -15 -23 q-10.5 -12 -27.5 -21 q-17 -9 -43 -9 Z" /><glyph glyph-name="z" unicode="z" d="M-32 20 l477 479 l-370 0 l4 20 l395 0 l-4 -20 l-476 -479 l371 0 l-5 -20 l-396 0 l4 20 Z" /><glyph glyph-name="zacute" unicode="&#x17a;" d="M-32 20 l477 479 l-370 0 l4 20 l395 0 l-4 -20 l-476 -479 l371 0 l-5 -20 l-396 0 l4 20 ZM276 645 l-13 12 l76 73 l33 0 l-96 -85 Z" /><glyph glyph-name="zcaron" unicode="&#x17e;" d="M-32 20 l477 479 l-370 0 l4 20 l395 0 l-4 -20 l-476 -479 l371 0 l-5 -20 l-396 0 l4 20 ZM221 718 l18 12 l68 -63 l94 63 l13 -12 l-104 -74 l-16 0 l-73 74 Z" /><glyph glyph-name="zdotaccent" unicode="&#x17c;" d="M-32 20 l477 479 l-370 0 l4 20 l395 0 l-4 -20 l-476 -479 l371 0 l-5 -20 l-396 0 l4 20 ZM298 653 l16 77 l20 0 l-16 -77 l-20 0 Z" /><glyph glyph-name="zero" unicode="0" d="M227 -10 q-41 0 -74 17 q-33 17 -56 47.5 q-23 30.5 -35.5 73 q-12.5 42.5 -12.5 92.5 q0 78 25.5 146.5 q25.5 68.5 68 119.5 q42.5 51 98 81 q55.5 30 115.5 30 q42 0 75 -17 q33 -17 56 -47.5 q23 -30.5 35.5 -73 q12.5 -42.5 12.5 -92.5 q0 -78 -25.5 -146.5 q-25.5 -68.5 -68 -120 q-42.5 -51.5 -98 -81 q-55.5 -29.5 -116.5 -29.5 ZM232 10 q57 0 108.5 27.5 q51.5 27.5 90.5 75.5 q39 48 61.5 113 q22.5 65 22.5 140 q0 47 -11 86 q-11 39 -32 66.5 q-21 27.5 -51.5 43 q-30.5 15.5 -68.5 15.5 q-57 0 -108.5 -28 q-51.5 -28 -90.5 -76 q-39 -48 -61.5 -113 q-22.5 -65 -22.5 -140 q0 -47 11 -85.5 q11 -38.5 32 -66.5 q21 -28 51 -43 q30 -15 69 -15 Z" /><glyph glyph-name="zeroinferior" unicode="&#x2080;" d="M129 -85 q-35 0 -60 14 q-25 14 -41 36.5 q-16 22.5 -23.5 51 q-7.5 28.5 -7.5 56.5 q0 39 17 80 q17 41 46 74.5 q29 33.5 68 54.5 q39 21 83 21 q34 0 59 -14.5 q25 -14.5 41 -37 q16 -22.5 23.5 -50.5 q7.5 -28 7.5 -56 q0 -40 -16.5 -81 q-16.5 -41 -45.5 -74 q-29 -33 -67.5 -54 q-38.5 -21 -83.5 -21 ZM17 75 q0 -26 7 -51.5 q7 -25.5 21.5 -45.5 q14.5 -20 36 -32 q21.5 -12 51.5 -12 q42 0 77 20.5 q35 20.5 59.5 52 q24.5 31.5 38.5 67.5 q14 36 14 68 q0 26 -7 51.5 q-7 25.5 -21.5 45.5 q-14.5 20 -36 32.5 q-21.5 12.5 -50.5 12.5 q-42 0 -77 -20.5 q-35 -20.5 -60 -52 q-25 -31.5 -39 -68 q-14 -36.5 -14 -68.5 Z" /><glyph glyph-name="zerosuperior" unicode="&#x2070;" d="M236 422 q-35 0 -60 14 q-25 14 -41 36.5 q-16 22.5 -23.5 51 q-7.5 28.5 -7.5 56.5 q0 39 17 80 q17 41 46 74.5 q29 33.5 68 54.5 q39 21 83 21 q34 0 59 -14.5 q25 -14.5 41 -37 q16 -22.5 23.5 -50.5 q7.5 -28 7.5 -56 q0 -40 -16.5 -81 q-16.5 -41 -45.5 -74 q-29 -33 -67.5 -54 q-38.5 -21 -83.5 -21 ZM124 582 q0 -26 7 -51.5 q7 -25.5 21.5 -45.5 q14.5 -20 36 -32 q21.5 -12 51.5 -12 q42 0 77 20.5 q35 20.5 59.5 52 q24.5 31.5 38.5 67.5 q14 36 14 68 q0 26 -7 51.5 q-7 25.5 -21.5 45.5 q-14.5 20 -36 32.5 q-21.5 12.5 -50.5 12.5 q-42 0 -77 -20.5 q-35 -20.5 -60 -52 q-25 -31.5 -39 -68 q-14 -36.5 -14 -68.5 Z" /><glyph glyph-name="emspace" unicode="&#x2003;" d="" /><glyph glyph-name="enspace" unicode="&#x2002;" d="" /><glyph glyph-name="uni030F" unicode="&#x30f;" d="M151 730 l32 0 l46 -73 l-19 -12 l-59 85 ZM55 730 l33 0 l45 -73 l-18 -12 l-60 85 Z" /></font>
</defs>
</svg>
